<svg xmlns="http://www.w3.org/2000/svg" version="1.1" xmlns:xlink="http://www.w3.org/1999/xlink" width="512" height="512" x="0" y="0" viewBox="0 0 64 64" style="enable-background:new 0 0 512 512" xml:space="preserve"><g><g data-name="Search-Seo-Web-Stat-Magnifying Glass"><path fill="#e6e7e8" d="M61 11v42a4 4 0 0 1-4 4H11a3.988 3.988 0 0 1-3.64-2.36A3.931 3.931 0 0 1 7 53V11a4 4 0 0 1 4-4h46a3.931 3.931 0 0 1 1.64.36A3.988 3.988 0 0 1 61 11z" opacity="1" data-original="#e6e7e8"></path><path fill="#d8d7da" d="M59 9v42a4 4 0 0 1-4 4H9a3.931 3.931 0 0 1-1.64-.36A3.931 3.931 0 0 1 7 53V11a4 4 0 0 1 4-4h46a3.931 3.931 0 0 1 1.64.36A3.931 3.931 0 0 1 59 9z" opacity="1" data-original="#d8d7da"></path><path fill="#ff6243" d="M57 7v4H3V7a4 4 0 0 1 4-4h46a4 4 0 0 1 4 4z" opacity="1" data-original="#ff6243"></path><path fill="#e6e7e8" d="M57 11v38a4 4 0 0 1-4 4H7a4 4 0 0 1-4-4V11z" opacity="1" data-original="#e6e7e8"></path><path fill="#d8d7da" d="m45 55.54.84 1.46h-4.52a2.025 2.025 0 0 1 .66-2 2.977 2.977 0 0 1 .29-.2 1.994 1.994 0 0 1 2.73.74zM61 53a4 4 0 0 1-4 4H47V47a2.006 2.006 0 0 1 2-2 2.015 2.015 0 0 1 2 2v6a2.074 2.074 0 0 1 2-2 2.015 2.015 0 0 1 2 2v1a2.006 2.006 0 0 1 2-2 1.955 1.955 0 0 1 1.41.59 1.537 1.537 0 0 1 .17.19A1.94 1.94 0 0 1 59 54v1a2.006 2.006 0 0 1 2-2z" opacity="1" data-original="#d8d7da"></path><path fill="#ffc477" d="M61 53v9H43.27l-2.89-5-.84-1.46a2 2 0 0 1 .44-2.54 2.977 2.977 0 0 1 .29-.2 1.994 1.994 0 0 1 2.73.74L45 57V45a2.006 2.006 0 0 1 2-2 2.015 2.015 0 0 1 2 2v6a2.074 2.074 0 0 1 2-2 2.015 2.015 0 0 1 2 2v1a2.006 2.006 0 0 1 2-2 1.955 1.955 0 0 1 1.41.59 1.537 1.537 0 0 1 .17.19A1.94 1.94 0 0 1 57 52v1a2.006 2.006 0 0 1 2-2 2.015 2.015 0 0 1 2 2z" opacity="1" data-original="#ffc477"></path><path fill="#d8d7da" d="M43 34a17 17 0 0 1-15 16.88V53h-4v-2.12A17 17 0 1 1 43 34z" opacity="1" data-original="#d8d7da"></path><path fill="#1e81ce" d="M27 57v4h-6v-8a1 1 0 0 1 1-1h4a1 1 0 0 1 1 1z" opacity="1" data-original="#1e81ce"></path><path fill="#5aaae7" d="M26 47.88V52h-4v-4.12a16.727 16.727 0 0 0 4 0z" opacity="1" data-original="#5aaae7"></path><path fill="#3d9ae2" d="M26 47.88v3a16.727 16.727 0 0 1-4 0v-3a16.727 16.727 0 0 0 4 0z" opacity="1" data-original="#3d9ae2"></path><path fill="#5aaae7" d="M41 32a17 17 0 0 1-15 16.88 16.727 16.727 0 0 1-4 0A17 17 0 1 1 41 32z" opacity="1" data-original="#5aaae7"></path><circle cx="24" cy="32" r="13" fill="#e6e7e8" opacity="1" data-original="#e6e7e8"></circle><path fill="#00ccb3" d="M32 28v14.24a12.945 12.945 0 0 1-4 2.13V28z" opacity="1" data-original="#00ccb3"></path><path fill="#3d9ae2" d="M28 31v13.37a12.931 12.931 0 0 1-4 .63V31z" opacity="1" data-original="#3d9ae2"></path><path fill="#ff9811" d="M24 31v14a12.931 12.931 0 0 1-4-.63V25h4z" opacity="1" data-original="#ff9811"></path><path fill="#ff6243" d="M20 33v11.37a12.945 12.945 0 0 1-4-2.13V33z" opacity="1" data-original="#ff6243"></path><g fill="#ffa733"><path d="M42 14h2v2h-2zM46 14h8v2h-8zM42 18h12v2H42zM44 26h10v2H44zM44 30h10v2H44zM42 22h8v2h-8zM52 22h2v2h-2z" fill="#ffa733" opacity="1" data-original="#ffa733"></path></g><path fill="#ed1c24" d="M6 6h2v2H6zM10 6h2v2h-2zM14 6h2v2h-2z" opacity="1" data-original="#ed1c24"></path><rect width="2" height="5" x="56" y="51" fill="#ffb655" rx="1" opacity="1" data-original="#ffb655"></rect><rect width="2" height="5" x="52" y="50" fill="#ffb655" rx="1" opacity="1" data-original="#ffb655"></rect><rect width="2" height="5" x="48" y="50" fill="#ffb655" rx="1" opacity="1" data-original="#ffb655"></rect></g></g></svg>
