<svg xmlns="http://www.w3.org/2000/svg" version="1.1" xmlns:xlink="http://www.w3.org/1999/xlink" width="512" height="512" x="0" y="0" viewBox="0 0 512 512" style="enable-background:new 0 0 512 512" xml:space="preserve" fill-rule="evenodd" class=""><g><path d="M308.832 11H126.704c-26.24 0-47.544 21.304-47.544 47.544v394.912c0 26.24 21.304 47.544 47.544 47.544h258.592c26.24 0 47.544-21.304 47.544-47.544V135.038c0-.674-.134-1.318-.377-1.905l-.006-.014a4.998 4.998 0 0 0-1.081-1.615l-119.04-119.04a4.998 4.998 0 0 0-1.615-1.081l-.014-.006a4.97 4.97 0 0 0-1.365-.348l-.037-.004-.034-.003-.034-.003-.033-.003-.033-.002-.05-.004-.032-.002-.032-.001-.032-.002-.032-.001-.032-.001-.032-.001-.032-.001-.032-.001zM303.8 21H126.704C105.983 21 89.16 37.823 89.16 58.544v394.912c0 20.721 16.823 37.544 37.544 37.544h258.592c20.721 0 37.544-16.823 37.544-37.544V140.04H308.8c-2.76 0-5-2.24-5-5zM173.523 368.815a5 5 0 0 0-5-5h-42.604a5 5 0 0 0-5 5v42.603a5 5 0 0 0 5 5h42.604a5 5 0 0 0 5-5zm32.895 38.397h179.663c2.759 0 5-2.241 5-5 0-2.76-2.241-5-5-5H206.418c-2.759 0-5 2.24-5 5 0 2.759 2.241 5 5 5zm-42.895-33.397v32.603h-32.604v-32.603zm42.895 9.206h106.573c2.76 0 5-2.24 5-5 0-2.759-2.24-5-5-5H206.418c-2.759 0-5 2.241-5 5 0 2.76 2.241 5 5 5zm-32.895-98.031a5 5 0 0 0-5-5h-42.604a5 5 0 0 0-5 5v42.603a5 5 0 0 0 5 5h42.604a5 5 0 0 0 5-5zm32.895 38.397h179.663c2.759 0 5-2.241 5-5 0-2.76-2.241-5-5-5H206.418c-2.759 0-5 2.24-5 5 0 2.759 2.241 5 5 5zm-42.895-33.397v32.603h-32.604V289.99zm42.895 9.206h106.573c2.76 0 5-2.24 5-5 0-2.759-2.24-5-5-5H206.418c-2.759 0-5 2.241-5 5 0 2.76 2.241 5 5 5zm-32.895-98.031a5 5 0 0 0-5-5h-42.604a5 5 0 0 0-5 5v42.603a5 5 0 0 0 5 5h42.604a5 5 0 0 0 5-5zm32.895 38.397h179.663c2.759 0 5-2.241 5-5 0-2.76-2.241-5-5-5H206.418c-2.759 0-5 2.24-5 5 0 2.759 2.241 5 5 5zm-42.895-33.397v32.603h-32.604v-32.603zm42.895 9.206h106.573c2.76 0 5-2.24 5-5 0-2.759-2.24-5-5-5H206.418c-2.759 0-5 2.241-5 5 0 2.76 2.241 5 5 5zM313.8 28.071V130.04h101.969z" fill="#000000" opacity="1" data-original="#000000"></path></g></svg>
