<svg xmlns="http://www.w3.org/2000/svg" version="1.1" xmlns:xlink="http://www.w3.org/1999/xlink" width="512" height="512" x="0" y="0" viewBox="0 0 512 512" style="enable-background:new 0 0 512 512" xml:space="preserve" class=""><g><path d="M380.388 270.413c-8.607-8.524-8.607-22.096 0-30.639l13.5-13.381c7.112-7.057 8.508-17.81 3.387-26.315l-20.572-34.277c-5.111-8.514-15.491-12.734-25.406-10.334l-18.819 4.543c-11.985 2.895-24.207-3.886-27.585-15.324l-5.299-17.934c-2.813-9.458-11.797-15.981-22.008-15.981h-41.174c-10.212 0-19.215 6.524-22.018 15.981l-5.289 17.934c-3.387 11.438-15.6 18.219-27.595 15.324l-18.819-4.543c-9.905-2.4-20.295 1.819-25.396 10.334l-20.572 34.277c-5.131 8.505-3.734 19.258 3.378 26.315l13.51 13.381c8.597 8.543 8.597 22.115 0 30.639l-13.51 13.4c-7.112 7.057-8.508 17.81-3.378 26.315l20.572 34.277c5.101 8.514 15.491 12.734 25.396 10.333l18.819-4.553c11.995-2.886 24.207 3.895 27.595 15.334l5.289 17.934c2.803 9.457 11.806 15.981 22.018 15.981h41.174c10.212 0 19.195-6.524 22.008-15.981l5.299-17.934c3.378-11.438 15.6-18.22 27.585-15.334l18.819 4.553c9.915 2.4 20.295-1.819 25.406-10.333l20.572-34.277c5.121-8.505 3.724-19.258-3.387-26.315l-13.5-13.4z" style="stroke-width:20;stroke-linecap:round;stroke-linejoin:round;stroke-miterlimit:10;" fill="none" stroke="#000000" stroke-width="20" stroke-linecap="round" stroke-linejoin="round" stroke-miterlimit="10" data-original="#000000"></path><path d="M309.055 213.545c-12.283-15.286-31.036-25.437-52.059-25.437-37 0-66.994 31.417-66.994 66.994 0 35.578 29.994 66.994 66.994 66.994 21.242 0 40.161-10.366 52.435-25.918" style="stroke-width:20;stroke-linecap:round;stroke-linejoin:round;stroke-miterlimit:10;" fill="none" stroke="#000000" stroke-width="20" stroke-linecap="round" stroke-linejoin="round" stroke-miterlimit="10" data-original="#000000"></path><path d="m229.028 258.203 17.862 17.862 35.723-35.724M293.546 449.591l-20.925 31.435 31.063 20.472M199.843 10.502l30.361 20.447-21.916 30.752" style="stroke-width:20;stroke-linecap:round;stroke-linejoin:round;stroke-miterlimit:10;" fill="none" stroke="#000000" stroke-width="20" stroke-linecap="round" stroke-linejoin="round" stroke-miterlimit="10" data-original="#000000"></path><path d="M33.842 223.405C47.799 124.301 126.209 45.89 225.313 31.934M288.696 31.934C387.8 45.89 466.21 124.301 480.166 223.405M225.313 478.258c-99.104-13.957-177.514-92.367-191.471-191.471M480.166 286.788c-13.956 99.104-92.366 177.514-191.47 191.47" style="stroke-width:20;stroke-linecap:round;stroke-linejoin:round;stroke-miterlimit:10;" fill="none" stroke="#000000" stroke-width="20" stroke-linecap="round" stroke-linejoin="round" stroke-miterlimit="10" data-original="#000000"></path><path d="m62.911 292.04-31.435-20.925L10 302.177M502 198.337l-20.447 30.361-31.756-21.916M323.99 255.095h0" style="stroke-width:20;stroke-linecap:round;stroke-linejoin:round;stroke-miterlimit:10;" fill="none" stroke="#000000" stroke-width="20" stroke-linecap="round" stroke-linejoin="round" stroke-miterlimit="10" data-original="#000000"></path></g></svg>
