<svg xmlns="http://www.w3.org/2000/svg" version="1.1" xmlns:xlink="http://www.w3.org/1999/xlink" width="512" height="512" x="0" y="0" viewBox="0 0 64 64" style="enable-background:new 0 0 512 512" xml:space="preserve" class=""><g><circle cx="30" cy="34" r="28" fill="#6bc13b" opacity="1" data-original="#6bc13b"></circle><path fill="#3b5892" d="M52.25 51A28.009 28.009 0 0 0 37.094 6.906L30 14v8l6 8 8 3v5l-4 7 6 6z" opacity="1" data-original="#3b5892"></path><circle cx="50" cy="18" r="12" fill="#f0ae42" opacity="1" data-original="#f0ae42"></circle><g fill="#3b5892"><path d="M31 61.982Q30.5 62 30 62A28 28 0 0 1 5.2 47H13l6-2 6 2v6l6 2zM2.265 30.132A27.993 27.993 0 0 1 14.012 11.01L23 19v9l4 6v5H13l-3-7H6zM33 34h4v6l-5 2v-4z" fill="#3b5892" opacity="1" data-original="#3b5892"></path></g><path fill="#fce797" d="M50 27a9 9 0 1 1 9-9 9.01 9.01 0 0 1-9 9zm0-16a7 7 0 1 0 7 7 7.009 7.009 0 0 0-7-7z" opacity="1" data-original="#fce797"></path><path fill="#fce797" d="M50 23a5 5 0 1 1 5-5 5.006 5.006 0 0 1-5 5zm0-8a3 3 0 1 0 3 3 3 3 0 0 0-3-3z" opacity="1" data-original="#fce797"></path><path fill="#b52f28" d="M56 8a6 6 0 0 0-6-6 6 6 0 0 0-6 6 8.115 8.115 0 0 0 1.952 5.278L50 18l4.048-4.722A8.115 8.115 0 0 0 56 8z" opacity="1" data-original="#b52f28"></path><path fill="#ffffff" d="M50 9a2 2 0 1 1 2-2 2 2 0 0 1-2 2z" opacity="1" data-original="#ffffff"></path></g></svg>
