<svg xmlns="http://www.w3.org/2000/svg" version="1.1" xmlns:xlink="http://www.w3.org/1999/xlink" width="512" height="512" x="0" y="0" viewBox="0 0 512 512" style="enable-background:new 0 0 512 512" xml:space="preserve" class=""><g><path fill="#8d9ca8" d="m353.774 288.08-21.962-16.445c1.053-5.043 1.605-10.27 1.605-15.629s-.552-10.586-1.605-15.638l21.962-16.445c3.921-2.929 5.026-8.332 2.579-12.577l-10.972-19.006a9.664 9.664 0 0 0-12.183-4.052l-25.242 10.805a76.327 76.327 0 0 0-27.057-15.647l-3.263-27.242a9.678 9.678 0 0 0-9.604-8.525h-21.953c-4.894 0-9.016 3.666-9.604 8.525l-3.254 27.242a76.287 76.287 0 0 0-27.066 15.647l-25.233-10.805a9.661 9.661 0 0 0-12.183 4.052l-10.981 19.006c-2.447 4.245-1.342 9.648 2.579 12.577l21.971 16.445c-1.052 5.052-1.605 10.279-1.605 15.638s.552 10.586 1.605 15.629l-21.971 16.445a9.674 9.674 0 0 0-2.579 12.577l10.981 19.015a9.67 9.67 0 0 0 12.183 4.052l25.233-10.806a76.287 76.287 0 0 0 27.066 15.647l3.254 27.242a9.676 9.676 0 0 0 9.604 8.516h21.953c4.894 0 9.025-3.657 9.604-8.516l3.263-27.242a76.31 76.31 0 0 0 27.057-15.647l25.242 10.806a9.674 9.674 0 0 0 12.183-4.052l10.972-19.015a9.673 9.673 0 0 0-2.579-12.577zm-96.714 7.718c-21.979 0-39.793-17.822-39.793-39.793 0-21.979 17.813-39.793 39.793-39.793 21.971 0 39.784 17.813 39.784 39.793 0 21.971-17.814 39.793-39.784 39.793z" opacity="1" data-original="#8d9ca8" class=""></path><path fill="#7a8c98" d="M230.607 184.366a76.156 76.156 0 0 0-24.453 14.726l-25.233-10.805a9.661 9.661 0 0 0-12.183 4.052l-10.981 19.006c-2.447 4.245-1.342 9.648 2.579 12.577l21.971 16.445c-1.052 5.052-1.605 10.279-1.605 15.638s.553 10.586 1.605 15.629l-21.971 16.445a9.674 9.674 0 0 0-2.579 12.577l10.981 19.015a9.67 9.67 0 0 0 12.183 4.052l25.233-10.805a76.21 76.21 0 0 0 13.568 9.7c-12.34-17.726-19.576-39.267-19.576-62.491.001-29.399 11.595-56.097 30.461-75.761zM186.243 502.284H18.499c-9.633 0-17.442-7.809-17.442-17.442v-34.095c0-9.633 7.809-17.442 17.442-17.442l83.872-34.49 83.872 34.49c9.633 0 17.442 7.809 17.442 17.442v34.095c0 9.633-7.809 17.442-17.442 17.442z" opacity="1" data-original="#7a8c98"></path><path fill="#8d9ca8" d="M186.243 433.304H18.499c-9.633 0-17.442-7.809-17.442-17.442v-34.095c0-9.633 7.809-17.442 17.442-17.442h167.744c9.633 0 17.442 7.809 17.442 17.442v34.095c0 9.633-7.809 17.442-17.442 17.442z" opacity="1" data-original="#8d9ca8" class=""></path><path fill="#7a8c98" d="M44.883 433.303H18.497c-9.63 0-17.44-7.811-17.44-17.44v-34.096c0-9.63 7.811-17.44 17.44-17.44h26.386c-9.63 0-17.44 7.811-17.44 17.44v34.096c-.001 9.629 7.81 17.44 17.44 17.44z" opacity="1" data-original="#7a8c98"></path><path fill="#596c76" d="M44.883 502.283H18.497c-9.63 0-17.44-7.811-17.44-17.44v-34.096c0-9.63 7.811-17.44 17.44-17.44h26.386c-9.63 0-17.44 7.811-17.44 17.44v34.096c-.001 9.629 7.81 17.44 17.44 17.44z" opacity="1" data-original="#596c76"></path><circle cx="87.82" cy="398.814" r="14.55" fill="#ffe177" opacity="1" data-original="#ffe177"></circle><circle cx="39.588" cy="398.814" r="14.55" fill="#9be69d" opacity="1" data-original="#9be69d"></circle><circle cx="39.588" cy="467.794" r="14.55" fill="#ffe177" opacity="1" data-original="#ffe177"></circle><circle cx="87.82" cy="467.794" r="14.55" fill="#9be69d" opacity="1" data-original="#9be69d"></circle><g fill="#596c76"><path d="M177.38 406.54h-45.639c-4.268 0-7.727-3.459-7.727-7.727s3.459-7.727 7.727-7.727h45.639c4.268 0 7.727 3.459 7.727 7.727s-3.459 7.727-7.727 7.727zM177.38 475.521h-45.639a7.727 7.727 0 0 1 0-15.454h45.639a7.727 7.727 0 0 1 0 15.454z" fill="#596c76" opacity="1" data-original="#596c76"></path></g><path fill="#e8edf2" d="M510.944 12.842V168.2c0 7.092-5.749 12.842-12.842 12.842H381.004c-7.092 0-12.842-5.749-12.842-12.842V84.742a40.528 40.528 0 0 1 11.868-28.655l44.206-44.214A40.53 40.53 0 0 1 452.897 0h45.205c7.092 0 12.842 5.749 12.842 12.842z" opacity="1" data-original="#e8edf2" class=""></path><path fill="#d9e7ec" d="M456.548.012c-11.291 0-20.438 9.147-20.438 20.438v34.666c0 7.102-5.751 12.84-12.84 12.84h-34.666c-11.291 0-20.438 9.159-20.438 20.45V84.75a40.526 40.526 0 0 1 11.861-28.655l44.21-44.222A40.522 40.522 0 0 1 452.892.012h3.656z" opacity="1" data-original="#d9e7ec"></path><g fill="#8d9ca8"><path d="M471.749 112.707h-64.391a7.727 7.727 0 0 1 0-15.454h64.391a7.728 7.728 0 0 1 0 15.454zM471.749 144.902h-64.391a7.727 7.727 0 0 1 0-15.454h64.391a7.727 7.727 0 0 1 0 15.454z" fill="#8d9ca8" opacity="1" data-original="#8d9ca8" class=""></path></g><path fill="#9be69d" d="M498.853 225.727c-1.052-8.397-8.704-14.353-17.11-13.301-8.397 1.052-14.352 8.712-13.301 17.109a213.777 213.777 0 0 1 1.638 26.466c0 46.813-14.889 91.227-43.058 128.441-24.13 31.879-57.236 56.606-94.368 70.762l-2.612-15.492c-1.032-6.119-8.301-8.827-13.085-4.873l-49.142 40.617c-4.783 3.953-3.493 11.601 2.321 13.767l59.741 22.257c5.815 2.167 11.795-2.774 10.763-8.894l-2.806-16.645c44.785-15.785 84.809-44.936 113.623-83.002 32.232-42.583 49.27-93.393 49.27-146.939a244.452 244.452 0 0 0-1.874-30.273z" opacity="1" data-original="#9be69d"></path><path fill="#fe646f" d="M243.974 22.778 184.232.52c-5.815-2.166-11.795 2.775-10.763 8.894l2.806 16.645C131.49 41.845 91.466 70.996 62.652 109.063c-32.232 42.583-49.27 93.393-49.27 146.939 0 10.15.632 20.336 1.876 30.274.971 7.751 7.571 13.422 15.186 13.422.635 0 1.277-.039 1.923-.12 8.397-1.052 14.352-8.712 13.301-17.109a213.777 213.777 0 0 1-1.638-26.466c0-46.813 14.889-91.227 43.058-128.441 24.13-31.879 57.236-56.606 94.368-70.762l2.612 15.492c1.032 6.119 8.301 8.827 13.085 4.873l49.142-40.617c4.783-3.956 3.493-11.604-2.321-13.77z" opacity="1" data-original="#fe646f"></path></g></svg>
