<svg xmlns="http://www.w3.org/2000/svg" version="1.1" xmlns:xlink="http://www.w3.org/1999/xlink" width="512" height="512" x="0" y="0" viewBox="0 0 64 64" style="enable-background:new 0 0 512 512" xml:space="preserve" class=""><g><path d="M60 39H47.713c-1.25-.802-2.693-1.515-4.32-2.11l-.687 1.879C47.899 40.666 51 43.743 51 47c0 5.42-8.701 10-19 10s-19-4.58-19-10c0-3.225 3.053-6.284 8.166-8.184l-.696-1.875c-1.571.584-2.968 1.279-4.183 2.059H4c-1.654 0-3 1.346-3 3v18c0 1.654 1.346 3 3 3h56c1.654 0 3-1.346 3-3V42c0-1.654-1.346-3-3-3zm-7 8c0-2.155-.984-4.211-2.772-6H60c.551 0 1 .449 1 1v15H43.754C49.367 54.868 53 51.222 53 47zM4 41h9.776C11.986 42.79 11 44.847 11 47c0 4.222 3.633 7.868 9.246 10H3V42c0-.551.449-1 1-1zm56 20H4c-.551 0-1-.449-1-1v-1h58v1c0 .551-.449 1-1 1z" fill="#000000" opacity="1" data-original="#000000" class=""></path><path d="M15 47c0 3.784 6.981 8 17 8s17-4.216 17-8c0-2.473-3.012-5.065-7.674-6.604l-.627 1.899C44.792 43.646 47 45.728 47 47c0 2.115-5.695 6-15 6s-15-3.885-15-6c0-1.265 2.192-3.338 6.253-4.688l-.631-1.897C17.992 41.953 15 44.539 15 47z" fill="#000000" opacity="1" data-original="#000000" class=""></path><path d="m21.085 31.392 1.832-.802 7.004 15.997-1.832.802zM34.083 46.61l7.003-15.997 1.832.802-7.003 15.998zM31 31h2v16h-2zM32 29c7.72 0 14-6.28 14-14S39.72 1 32 1 18 7.28 18 15s6.28 14 14 14zm12-14c0 .683-.071 1.348-.181 2H37c-.551 0-1-.449-1-1s.449-1 1-1c1.654 0 3-1.346 3-3s-1.346-3-3-3h-3c-.551 0-1-.449-1-1s.449-1 1-1h6.919C42.827 9.126 44 11.925 44 15zM32 3c2.445 0 4.72.739 6.619 2H34c-1.654 0-3 1.346-3 3s1.346 3 3 3h3c.551 0 1 .449 1 1s-.449 1-1 1c-1.654 0-3 1.346-3 3s1.346 3 3 3h6.3c-1.653 4.653-6.087 8-11.3 8-2.445 0-4.72-.739-6.619-2H30c1.654 0 3-1.346 3-3s-1.346-3-3-3h-4c-.551 0-1-.449-1-1s.449-1 1-1h1c1.654 0 3-1.346 3-3s-1.346-3-3-3h-6.3c1.653-4.653 6.087-8 11.3-8zM20.181 13H27c.551 0 1 .449 1 1s-.449 1-1 1h-1c-1.654 0-3 1.346-3 3s1.346 3 3 3h4c.551 0 1 .449 1 1s-.449 1-1 1h-6.919C21.173 20.874 20 18.075 20 15c0-.683.071-1.348.181-2zM57 53h2v2h-2zM53 53h2v2h-2zM9 53h2v2H9zM5 53h2v2H5zM46.138 24.443l1.662 1.113c.396-.592.763-1.212 1.089-1.844l-1.777-.918c-.292.565-.62 1.12-.974 1.649z" fill="#000000" opacity="1" data-original="#000000" class=""></path><path d="M46 7c.319 0 .621-.063.91-.156A16.92 16.92 0 0 1 49 15c0 2.129-.389 4.206-1.155 6.172l1.863.727A18.921 18.921 0 0 0 51 15c0-3.318-.854-6.535-2.479-9.387.3-.467.479-1.018.479-1.613 0-1.654-1.346-3-3-3s-3 1.346-3 3 1.346 3 3 3zm0-4c.551 0 1 .449 1 1s-.449 1-1 1-1-.449-1-1 .449-1 1-1zM17.862 5.557 16.2 4.443a18.979 18.979 0 0 0-1.089 1.844l1.777.918c.292-.564.62-1.119.974-1.648zM15 26c0 1.654 1.346 3 3 3s3-1.346 3-3-1.346-3-3-3c-.319 0-.621.063-.91.156A16.92 16.92 0 0 1 15 15c0-2.129.389-4.206 1.155-6.172l-1.863-.727A18.921 18.921 0 0 0 13 15c0 3.318.854 6.535 2.479 9.387A2.973 2.973 0 0 0 15 26zm4 0c0 .551-.449 1-1 1s-1-.449-1-1 .449-1 1-1 1 .449 1 1z" fill="#000000" opacity="1" data-original="#000000" class=""></path></g></svg>
