<svg xmlns="http://www.w3.org/2000/svg" version="1.1" xmlns:xlink="http://www.w3.org/1999/xlink" width="512" height="512" x="0" y="0" viewBox="0 0 128 128" style="enable-background:new 0 0 512 512" xml:space="preserve" class=""><g><path d="M127.533 23.27a1.969 1.969 0 0 0-.252-2.794ZM33 102a7.005 7.005 0 0 0 6.92-6h25.16A6.996 6.996 0 1 0 74 88.295v-23.59A7.025 7.025 0 0 0 78.705 60h21.59a6.997 6.997 0 1 0 10.724-7.722l8.738-26.168.251 2.783a2 2 0 0 0 1.99 1.82c.06 0 .12-.003.182-.008a2 2 0 0 0 1.812-2.172l-1.147-12.713a2 2 0 0 0-3.512-1.12l-8.266 9.667a2 2 0 1 0 3.04 2.6l1.881-2.2-8.763 26.244c-.075-.002-.15-.011-.225-.011a7.01 7.01 0 0 0-6.705 5h-21.59A6.998 6.998 0 1 0 70 64.705v23.59A7.026 7.026 0 0 0 65.685 92h-26.37a6.994 6.994 0 0 0-12.984 5.122l-25.79 27.51a2 2 0 0 0 2.918 2.736l25.204-26.884A6.96 6.96 0 0 0 33 102Z" fill="#000000" opacity="1" data-original="#000000"></path><path d="M126.871 32.208a5.982 5.982 0 0 1-4.332 2.48 6.053 6.053 0 0 1-.546.025 5.957 5.957 0 0 1-.868-.072L120.672 36H126a1.995 1.995 0 0 0 .871-3.792ZM126 48a2 2 0 0 0 0-4h-6v-5.989L118 44l-1.335 4-.665 1.99v1.718a10.972 10.972 0 0 1 1.823 4.37c.045.251.08.506.108.763.007.064.017.126.022.19.03.32.047.642.047.97 0 .337-.018.671-.05 1.001l-.005.043q-.05.483-.136.955A10.97 10.97 0 0 1 116 64.305V68h-4.444A10.918 10.918 0 0 1 107 69c-.356 0-.705-.025-1.052-.06a10.757 10.757 0 0 1-1.262-.197c-.047-.01-.094-.024-.142-.035A11.217 11.217 0 0 1 102.47 68H96v-4h-4v4h-8v-4h-2.793A11.06 11.06 0 0 1 80 65.515V68h-2v4h2v8h-2v4h2v3.472A11 11 0 0 1 82.576 92h-.005a11.43 11.43 0 0 1 .278 1.254 10.786 10.786 0 0 1 .106.825c.025.304.045.61.045.921 0 .338-.02.67-.05 1a10.964 10.964 0 0 1-2.95 6.527V104h-1.695A10.93 10.93 0 0 1 72 106c-.33 0-.655-.018-.976-.047-.089-.007-.176-.02-.264-.03a10.86 10.86 0 0 1-.71-.104c-.088-.015-.175-.034-.262-.052q-.36-.075-.712-.172c-.07-.02-.14-.038-.21-.059q-.399-.12-.786-.269A11 11 0 0 1 65.697 104H60v-4h-4v4h-8v-4h-4v4h-4.697a11.112 11.112 0 0 1-4.715 1.88c-.054.008-.109.013-.163.02A10.904 10.904 0 0 1 33 106c-.338 0-.67-.02-1-.05a11.05 11.05 0 0 1-2.486-.525L27.1 108H32v8h-8v-4.694l-4 4.267V116h-.4l-3.75 4H20v6a2 2 0 0 0 4 0v-6h8v6a2 2 0 0 0 4 0v-6h8v6a2 2 0 0 0 4 0v-6h8v6a2 2 0 0 0 4 0v-6h8v6a2 2 0 0 0 4 0v-6h8v6a2 2 0 0 0 4 0v-6h8v6a2 2 0 0 0 4 0v-6h8v6a2 2 0 0 0 4 0v-6h8v6a2 2 0 0 0 4 0v-6h6a2 2 0 0 0 0-4h-6v-8h6a2 2 0 0 0 0-4h-6v-8h6a2 2 0 0 0 0-4h-6v-8h6a2 2 0 0 0 0-4h-6v-8h6a2 2 0 0 0 0-4h-6v-8h6a2 2 0 0 0 0-4h-6v-8Zm-82 68h-8v-8h8Zm12 0h-8v-8h8Zm12 0h-8v-8h8Zm12 0h-8v-8h8Zm12 0h-8v-8h8Zm0-12h-8v-8h8Zm0-12h-8v-8h8Zm0-12h-8v-8h8Zm12 36h-8v-8h8Zm0-12h-8v-8h8Zm0-12h-8v-8h8Zm0-12h-8v-8h8Zm12 36h-8v-8h8Zm0-12h-8v-8h8Zm0-12h-8v-8h8Zm0-12h-8v-8h8Z" fill="#000000" opacity="1" data-original="#000000"></path><path d="M2 104a2 2 0 0 0 0 4h6v2.827L10.65 108l3.75-4H12v-8h8v2.027l2.043-2.179A11 11 0 0 1 22 95c0-.27.012-.538.032-.804.014-.186.037-.37.06-.554.009-.067.015-.135.024-.201q.051-.346.123-.684l.01-.044q.075-.35.172-.69A11.008 11.008 0 0 1 24 88.695V84h8v.05c.33-.029.662-.05 1-.05a10.93 10.93 0 0 1 3 .434V84h8v4h4v-4h8v4h4v-4h6v-4h-6v-8h6v-4h-6v-8h1.205a10.205 10.205 0 0 1-.014-4H60v-8h7.445c.271-.124.553-.229.835-.332a11.022 11.022 0 0 1 1.045-.32c.153-.039.305-.079.46-.111.227-.048.458-.083.69-.116.133-.02.265-.044.399-.058a10.638 10.638 0 0 1 5.655.937H80v2.496A11.089 11.089 0 0 1 81.207 52H84v-4h8v4h4v-4h6.466a11.156 11.156 0 0 1 1.534-.561c.075-.022.148-.05.224-.07L108 36.06V36h.02l1.336-4H108v-2.475a5.997 5.997 0 0 1-1.099-5.739c.025-.076.05-.153.079-.229a5.936 5.936 0 0 1 .372-.81c.025-.045.054-.088.08-.133a6.006 6.006 0 0 1 .566-.809c.01-.012.018-.025.029-.037L109.538 20H108v-8h8v.444l.293-.343a5.909 5.909 0 0 1 .556-.54 5.985 5.985 0 0 1 .55-.439c.143-.1.286-.203.436-.29.125-.074.255-.137.385-.2.176-.087.355-.166.538-.234.114-.043.228-.085.344-.12a6.028 6.028 0 0 1 .75-.177A5.88 5.88 0 0 1 125.304 12H126a2 2 0 0 0 0-4h-6V2a2 2 0 0 0-4 0v6h-8V2a2 2 0 0 0-4 0v6h-8V2a2 2 0 0 0-4 0v6h-8V2a2 2 0 0 0-4 0v6h-8V2a2 2 0 0 0-4 0v6h-8V2a2 2 0 0 0-4 0v6h-8V2a2 2 0 0 0-4 0v6h-8V2a2 2 0 0 0-4 0v6h-8V2a2 2 0 0 0-4 0v6h-8V2a2 2 0 0 0-4 0v6H2a2 2 0 0 0 0 4h6v8H2a2 2 0 0 0 0 4h6v8H2a2 2 0 0 0 0 4h6v8H2a2 2 0 0 0 0 4h6v8H2a2 2 0 0 0 0 4h6v8H2a2 2 0 0 0 0 4h6v8H2a2 2 0 0 0 0 4h6v8H2a2 2 0 0 0 0 4h6v8Zm94-92h8v8h-8Zm0 12h8v8h-8Zm0 12h8v8h-8ZM84 12h8v8h-8Zm0 12h8v8h-8Zm0 12h8v8h-8ZM72 12h8v8h-8Zm0 12h8v8h-8Zm0 12h8v8h-8ZM60 12h8v8h-8Zm0 12h8v8h-8Zm0 12h8v8h-8ZM48 12h8v8h-8Zm0 12h8v8h-8Zm0 12h8v8h-8Zm0 12h8v8h-8Zm0 12h8v8h-8Zm0 12h8v8h-8ZM36 12h8v8h-8Zm0 12h8v8h-8Zm0 12h8v8h-8Zm0 12h8v8h-8Zm0 12h8v8h-8Zm0 12h8v8h-8ZM24 12h8v8h-8Zm0 12h8v8h-8Zm0 12h8v8h-8Zm0 12h8v8h-8Zm0 12h8v8h-8Zm0 12h8v8h-8ZM12 12h8v8h-8Zm0 12h8v8h-8Zm0 12h8v8h-8Zm0 12h8v8h-8Zm0 12h8v8h-8Zm0 12h8v8h-8Zm0 12h8v8h-8ZM10 128a2 2 0 0 0 2-2v-1.894l-3.238 3.454A1.98 1.98 0 0 0 10 128ZM3.15 116H2a1.99 1.99 0 0 0-1.7 3.041Z" fill="#000000" opacity="1" data-original="#000000"></path></g></svg>
