<svg width="60" height="60" viewBox="0 0 60 60" fill="none" xmlns="http://www.w3.org/2000/svg">
<circle cx="30.0142" cy="29.9146" r="29.0376" fill="#3084F7"/>
<path d="M36.7755 11.7964L34.3039 15.7326C37.0406 16.7732 39.4097 18.5972 41.1149 20.9765C41.3097 21.2585 41.4977 21.5405 41.6791 21.836L41.7328 21.9165C41.9007 22.1918 42.0552 22.4738 42.203 22.7625C42.203 22.8095 42.2567 22.8565 42.2769 22.9035C42.418 23.1721 42.5389 23.4474 42.6598 23.7227C42.687 23.7938 42.7184 23.8633 42.7538 23.9308C42.8613 24.1927 42.9553 24.4613 43.0494 24.7298C43.0494 24.8171 43.1165 24.9044 43.1434 24.9984C43.2307 25.2603 43.2979 25.5221 43.365 25.784C43.4003 25.8874 43.4295 25.9927 43.4524 26.0996C43.5195 26.3614 43.5666 26.6233 43.6136 26.8851C43.6136 26.9993 43.6606 27.1134 43.6807 27.2343C43.7277 27.5029 43.7546 27.7849 43.7815 28.0602L43.8218 28.3959C43.8218 28.7853 43.8688 29.1814 43.8688 29.5776C43.8688 33.5148 42.3041 37.2908 39.519 40.0749C36.7339 42.8589 32.9564 44.423 29.0177 44.423C28.1163 44.4233 27.2169 44.3402 26.3309 44.1746C26.0488 44.1209 25.7667 44.0604 25.4913 43.9933L25.3368 43.9597C25.0815 43.8926 24.8263 43.8187 24.5711 43.7381L24.4502 43.7046C23.8617 43.5157 23.2853 43.2915 22.7239 43.0331L22.7978 43.0667L18.9666 46.0257C2.84801 37.7551 3.18352 11.6044 19.1295 3.05029C13.9244 5.02138 8.88885 9.09853 5.9626 13.477C2.74078 18.0142 1.13006 23.259 0.98596 28.8212C0.841863 34.3833 2.3577 39.8624 5.34026 44.5602C8.32283 49.258 12.6371 52.9618 17.7332 55.1995L18.0355 55.3271L18.5594 55.542L19.2311 55.7904L19.7349 55.9717L20.4066 56.2067L20.8767 56.3544L21.6223 56.5692L22.0522 56.6834L22.8582 56.8781L23.2411 56.9587L24.1143 57.1333H24.2285C25.3725 57.3326 26.5278 57.4604 27.6877 57.516C28.1355 57.5428 28.5833 57.5563 29.0311 57.5563C29.4677 57.5563 29.9043 57.5563 30.3342 57.5227L31.0059 57.4757L31.5298 57.4354C31.8388 57.4354 32.1545 57.375 32.4635 57.3347H32.6851C33.0411 57.2877 33.3971 57.234 33.7464 57.1735C53.7024 50.6741 58.2066 22.3006 36.7755 11.7964Z" fill="url(#paint0_linear_3940_8815)"/>
<path d="M10.9092 33.0992L15.5539 33.2716C15.0868 30.3813 15.4819 27.4176 16.6898 24.7512C16.8366 24.4415 16.9868 24.1376 17.152 23.8328L17.1949 23.746C17.3493 23.463 17.5163 23.1882 17.6925 22.9158C17.7332 22.8923 17.747 22.8223 17.7776 22.7813C17.9397 22.5249 18.1176 22.2825 18.2956 22.0402C18.3436 21.981 18.3881 21.919 18.4288 21.8547C18.6019 21.6307 18.7874 21.4149 18.973 21.1992C19.0486 21.1556 19.0906 21.0538 19.1586 20.9835C19.3417 20.7769 19.5349 20.5879 19.7281 20.3988C19.8 20.3165 19.8766 20.2385 19.9577 20.1653C20.1509 19.9762 20.3542 19.8046 20.5575 19.6329C20.6563 19.5759 20.7317 19.4781 20.8262 19.4002C21.0353 19.2252 21.2661 19.0609 21.4911 18.9L21.7617 18.6972C22.0989 18.5025 22.4185 18.2638 22.7616 18.0657C26.1713 16.0971 30.2238 15.5641 34.0274 16.5841C37.831 17.604 41.0743 20.0934 43.0436 23.5044C43.4946 24.2849 43.8723 25.1054 44.1719 25.9555C44.2664 26.2266 44.3551 26.5012 44.4347 26.7732L44.4829 26.9238C44.5523 27.1784 44.616 27.4364 44.6738 27.6977L44.7052 27.8192C44.8359 28.4232 44.9299 29.0346 44.9869 29.6499L44.979 29.5692L49.4572 31.4075C50.3539 49.502 27.5389 62.2868 12.1579 52.7542C16.4675 56.2764 22.5162 58.5987 27.7712 58.9437C33.3114 59.4653 38.6589 58.2378 43.5479 55.5815C48.4369 52.9252 52.424 48.8729 55.0012 43.9411C57.5783 39.0092 58.6287 33.4211 58.0186 27.8888L57.978 27.5632L57.9021 27.0021L57.7814 26.2962L57.6865 25.7693L57.5542 25.07L57.447 24.589L57.2603 23.8359L57.1442 23.4065L56.9098 22.6111L56.7881 22.2392L56.5027 21.3957L56.4456 21.2969C56.0462 20.2065 55.5793 19.142 55.0475 18.1097C54.8468 17.7085 54.6346 17.314 54.4107 16.9262C54.1924 16.5481 53.9741 16.17 53.73 15.8145L53.3535 15.2563L53.0566 14.8227C52.9022 14.5551 52.692 14.3119 52.5026 14.0644L52.3918 13.8725C52.1731 13.5877 51.9485 13.3062 51.7216 13.034C36.1148 -0.998706 9.29061 9.28726 10.9092 33.0992Z" fill="url(#paint1_linear_3940_8815)"/>
<path d="M42.3602 44.8593L40.1871 40.7506C37.9176 42.6004 35.1534 43.7401 32.2403 44.0272C31.8986 44.0549 31.5604 44.0767 31.2139 44.0861L31.1172 44.0923C30.7948 44.1001 30.4734 44.0929 30.1494 44.0765C30.1087 44.053 30.0412 44.0761 29.9904 44.07C29.6873 44.0579 29.3884 44.0249 29.0896 43.992C29.0143 43.9801 28.9384 43.9725 28.8623 43.9694C28.5818 43.9315 28.3022 43.8787 28.0225 43.8258C27.947 43.7822 27.8378 43.7967 27.7429 43.773C27.4725 43.7177 27.2121 43.6449 26.9518 43.5721C26.8446 43.551 26.7388 43.5236 26.6348 43.49C26.3745 43.4172 26.1242 43.327 25.8739 43.2368C25.775 43.1797 25.6527 43.1634 25.5379 43.1204C25.2818 43.0268 25.0242 42.9091 24.7723 42.7947L24.4614 42.6618C24.1242 42.4671 23.7576 42.3097 23.4145 42.1116C20.0048 40.143 17.517 36.9 16.4985 33.0959C15.48 29.2919 16.0142 25.2385 17.9836 21.8274C18.434 21.0467 18.9557 20.3093 19.5421 19.6248C19.7297 19.4074 19.9231 19.1933 20.1189 18.9884L20.2253 18.8714C20.411 18.6839 20.6026 18.4998 20.8 18.319L20.8895 18.2311C21.3473 17.8159 21.8297 17.4288 22.3341 17.0718L22.2681 17.119L21.6211 12.3216C36.843 2.49779 59.3225 15.8637 58.7575 33.9504C59.6531 28.4571 58.6399 22.0576 56.3111 17.3342C53.9927 12.2754 50.256 8.25805 45.511 5.35219C40.7661 2.44633 35.2632 1.01953 29.7035 1.25361C24.1438 1.48769 18.7791 3.37206 14.2931 6.66657L14.0315 6.86454L13.5835 7.21084L13.0325 7.66832L12.6236 8.01396L12.0842 8.47816L11.7212 8.8115L11.1623 9.34976L10.8485 9.66499L10.2769 10.2657L10.0157 10.5569L9.42789 11.2259L9.3708 11.3248C8.6262 12.2159 7.93785 13.1525 7.30974 14.1292C7.06259 14.5036 6.82706 14.8846 6.60316 15.2724C6.38486 15.6506 6.16655 16.0287 5.98069 16.4177L5.68555 17.0229L5.45847 17.4968C5.30398 17.7644 5.19846 18.068 5.07886 18.3557L4.96804 18.5477C4.83074 18.8795 4.69926 19.2147 4.57696 19.5474C0.227666 40.0795 22.5477 58.167 42.3602 44.8593Z" fill="url(#paint2_linear_3940_8815)"/>
<ellipse cx="30.0141" cy="29.915" rx="18.7748" ry="18.7748" fill="#3084F7"/>
<path d="M46.9423 22.2114C48.6947 25.8626 49.2179 29.9815 48.4339 33.9538C47.6498 37.9261 45.6006 41.5389 42.5919 44.2533L42.25 44.3557L41.8825 44.168V42.9989L42.7372 41.5653V40.9765L42.2585 40.8314V40.3877L42.8141 39.722L42.5577 39.5087L42.0021 39.6538L41.6346 39.321L40.7115 40.0207L40.3098 39.833L39.5662 40.1999L38.6517 39.6538V39.1759L37.9508 38.698V37.8447L38.3183 37.7338L38.3952 37.4351L38.0277 36.7439L38.5406 35.4553L39.5747 34.8324L39.9081 34.4654L39.7628 33.9534L40.0192 33.4329L40.5662 33.3646L40.6773 32.9209L40.4978 32.3748H40.1303L39.9081 32.187L40.1303 31.1203L39.9765 30.4974L40.2414 30.2073L41.4893 30.4291L41.6773 30.1305L41.5235 29.2771L40.8654 28.9443L40.9423 28.62H41.4551L41.5235 28.2872L42.0449 28.3982L42.8568 26.9304H43.2585L42.9679 25.7187L43.2585 25.5309L43.5577 25.7528L43.8141 26.3416H43.9936V25.5736L43.4038 24.9848L42.6346 25.2749L42.3782 24.9848L42.5577 24.5069L42.3013 23.4744L43.2244 22.8173L43.5577 21.8957L43.3355 20.829L43.8825 20.573V20.2402L44.3611 20.0525L44.9936 20.9058L45.2842 20.7522L46.2842 22.4589L46.7628 22.0493L46.9423 22.2114ZM24.4635 36.9828L24.3951 37.3071H24.0191L23.378 36.8121L22.2242 36.7012L22.1814 36.3855L22.9678 36.2489L23.8994 36.7268L24.4122 36.8463L24.4635 36.9828ZM24.9849 37.1364L24.6088 37.4948V37.8191H24.9678L25.1558 38.0068L25.4208 37.9642L25.5575 37.6911H25.9422V37.2815L25.3609 37.1193L24.9849 37.1364ZM11.4805 26.4184C11.8088 24.8449 12.3433 23.3213 13.0702 21.8871L13.1301 21.8359L13.8309 21.4861L14.6173 21.4178L14.9848 20.7351L15.3181 20.8631L15.6343 20.5901H16.5574L16.9421 20.829L16.7369 21.1533L16.848 21.324L17.1472 21.0679L17.6258 21.0082L18.0446 21.341L17.8395 20.6071L17.3096 20.7181L17.2327 20.4194L16.7968 20.2914V20.0525L17.5318 19.9074L17.6771 19.6343L17.4036 19.5234L17.2583 19.7026L16.9762 19.7623L16.7797 19.6343L16.6087 19.2247L16.5574 19.5234L16.1472 19.8562L15.9506 19.6685L16.1472 18.9175L16.831 18.2519L17.4805 18.1836L18.5062 18.8748L18.7626 17.8679L19.1899 17.7058V18.0898L18.9848 18.2775L19.0788 19.1906L19.378 19.3357V19.6514L19.0959 19.7453V20.0951L18.7113 20.2061L18.7882 20.6413L19.207 20.7522L19.7797 20.3341V19.7453L20.0361 19.5917L20.5489 19.9415L20.66 19.6685L20.3352 19.1906L20.6429 18.5506L21.0276 18.4908L21.1045 19.4125L21.3438 20.0951L21.5319 20.0354V19.7026L21.6857 19.5746H21.8652L21.9079 20.3682H22.1472L22.2327 19.8562L22.4549 19.7794V19.3015L22.8566 19.2503L23.2327 19.3783L23.378 20.4621L22.9507 20.7693L22.6772 21.5287L23.1558 21.8786L23.284 22.3309L22.9336 22.4248L22.6173 22.2029L22.549 22.5186H21.9934L21.8823 22.1858L22.0532 21.9469V21.4861H21.925L21.7113 22.1858L21.1729 22.5357L20.9677 22.9965L20.5831 23.1074L20.4378 23.6877L20.0703 23.9693L20.1558 24.7032L20.472 24.7971L20.8224 25.4712L21.4635 25.6589L22.0019 26.1539L22.2925 26.0259L22.737 26.1197V27.2376L23.2754 27.5875L23.5319 27.1267L23.3866 26.7768L23.4549 26.1539L23.9934 25.7443V24.8909L23.6259 24.8397L23.4464 24.5069L23.7199 24.2509L23.7968 22.8856H24.8652L25.2327 23.2525L25.5832 23.3805L25.6943 24.0376L25.5062 24.2765L25.6002 24.5154H25.9165L26.2498 24.6776L26.6345 24.4045V23.7218H26.9421L27.2584 24.5325L27.7541 25.1725L27.5148 25.5395L28.1216 26.1283H28.643L28.7114 26.6062L29.2499 26.956L29.0106 27.8094V28.2702L29.5747 28.347V28.8248L29.9422 29.0382L29.7712 29.4478L29.1815 29.4051L28.7798 29.004L28.1729 29.0808V28.6371L28.6259 28.0312L28.5404 27.7923H28.2242L28.1131 28.0654H27.4293V28.2872L27.5917 28.3982V28.6542H27.1558L26.8567 28.2104L26.1387 28.2702L25.7883 28.876L25.2584 29.1832L25.4037 29.3369L26.1729 28.9699L26.361 28.603L26.6943 28.5432L26.8909 29.2601H27.1729L27.3951 29.499H27.9849L28.0362 29.7891L27.5746 30.1902H27.19L26.7285 30.6937L26.4892 30.5059L26.6772 30.0451L26.378 29.9939L26.19 30.267L25.8994 30.2158L25.4379 30.7449V31.2569L24.5831 31.6238L24.0618 33.3305L23.0361 33.8681L22.7968 34.2521L23.0361 35.1055L23.4037 35.4724L23.3096 35.8735H22.925L22.3866 35.1396L22.1472 34.6447L21.1729 34.7726L21.0789 35.1055H20.7284L20.5831 34.7641L20.1045 34.6361L19.5489 35.242L19.4805 36.3257L19.831 37.1791L20.2925 37.4521H20.8395L20.9677 36.8804L21.2498 36.5561L21.7455 36.8463V38.0239H22.1814L22.737 38.3738V39.2271L23.1216 39.5428H23.7712L24.0276 39.722L24.3182 39.8159L25.0447 39.3722V39.0052L25.3695 38.8602L26.3524 39.577L27.6174 39.466V39.7818L28.2498 39.9781L28.9678 40.6266L29.6259 40.5498L30.3866 40.9765L30.5319 41.8298L31.4721 41.9237L32.0618 42.3503L32.7029 42.2565L33.0704 42.4186L33.9251 42.7343L33.8397 43.4682L32.8995 44.2021V44.808L32.2328 45.7808H31.4806L30.7969 46.2757L30.5576 46.8987L30.1901 46.9755L29.9507 47.4107L29.4721 47.2827L29.1046 47.8373H28.5148L27.6601 48.2726L27.2157 48.8102L26.5917 48.7675L26.0789 48.5883L26.1473 47.9995L25.7798 47.7435V47.4619L26.0191 47.2485V46.7877H25.8738V46.6171L26.0362 46.3781V45.2944L25.8139 44.9701L24.6943 44.4154L24.378 43.6048L23.4208 42.649L23.6259 42.1199L23.4378 41.6591L24.1387 41.0191V40.5754L23.8225 40.2084L22.9079 40.0975L22.2583 39.5855L21.9677 39.0735L21.2669 38.5956L20.7113 38.553L20.2498 38.058L19.6429 38.1519L18.831 37.6399L17.9763 36.9401L17.9335 36.1892L17.1814 35.2676L16.4976 34.2009L16.3694 34.2948L16.5574 34.9945L17.2156 35.7796L17.3096 36.1721L17.0532 36.2575L15.754 34.1753L15.6429 33.2196L14.6856 32.3065L14.4463 31.0777L14.5745 28.9102L14.1301 28.4494L14.1899 27.5448L13.8395 27.4168V26.7768L13.4719 26.8365L13.0446 25.4029L12.4548 25.4712L12.0873 26.0259L12.1984 26.6318L11.9078 26.7597L11.7027 26.1539L11.4805 26.4184ZM22.4806 16.9207L22.0532 17.3474L21.6344 18.2007L22.0019 18.4567L21.8481 18.798L21.8908 18.9943L23.6943 19.0541L23.9592 18.7468L24.2669 18.8407V19.1906L24.1814 19.4978L24.2669 19.5661L24.7114 19.5149L24.8139 19.7111L24.7285 19.8221H24.1643L24.0447 20.0269L24.1045 20.3085L24.3097 20.445L24.6173 20.3767L24.9507 19.9842H25.1216V20.4023L24.925 20.5133L24.7028 20.8717V21.2215L24.2327 21.2984L23.8737 21.5543V21.8189L24.1643 21.9298L24.4635 21.7677H24.8396L25.284 22.4248L26.3097 22.988L26.5148 22.9368V22.7832L25.9507 22.2712L26.002 22.1517L26.549 22.3565L26.7285 22.5272L26.9421 22.4674V21.8957L26.3524 21.341L26.1644 20.7351L26.284 20.6242L26.6174 20.9314L26.6601 21.2215L27.0362 21.4349L27.2499 21.3751L27.6003 20.6754V20.3853L27.455 20.2829L27.3268 20.3511L26.7712 19.7623L26.3866 19.6173L26.2926 19.3698L26.4464 19.2845H26.5832L26.4892 18.5164H26.1986L26.0874 18.3116H25.7883L25.5148 17.8423H25.0789L24.5661 17.0914L24.4977 16.8439L24.0874 16.7415H23.5062L23.4293 16.9292L23.0789 16.861L22.9678 17.0487L22.8054 16.8268L22.4806 16.9207ZM20.8224 17.1255V17.9788L21.1472 18.0386V17.7996L21.566 17.5607V17.4071L21.8053 17.3303V17.0828H21.5917L21.4891 16.9548H21.1985L21.1472 17.117L20.8224 17.1255ZM20.3096 17.2706L19.8652 17.5692L19.925 17.9618L19.5318 18.0556V18.3031L19.8566 18.4652V18.7383L20.0105 18.7895L20.2156 18.542L20.4293 18.4311V17.8594L20.5318 17.7058V17.3132L20.3096 17.2706ZM19.1558 16.366C19.1641 16.4569 19.1641 16.5483 19.1558 16.6391H19.3182L19.378 16.9036L18.9421 17.2706H18.7028L18.6258 17.501L18.1814 17.757L17.7711 17.7143L17.7284 17.5351H17.472L17.2241 17.262V17.1426L17.5404 17.0146L18.0703 16.4684L18.5489 16.8951L18.7882 16.8524L18.8395 16.4002L19.0446 16.3063L19.1558 16.366ZM20.7968 15.8284L20.8823 16.1697L21.3182 16.2466L21.4036 16.5111L21.2156 16.7671H20.9677L20.8139 16.4684H20.6088V16.75L20.3352 16.8695L20.0276 16.8268L19.9164 16.6306L19.7455 16.5879L19.6942 16.2722H20.0361L20.1729 16.11H20.4122L20.566 15.8967L20.7968 15.8284ZM20.925 14.7276C20.9848 14.7788 20.9848 14.8215 21.0447 14.9324L20.9848 15.2311L20.7711 15.2993L20.4464 15.1201V14.8983L20.7199 14.7276H20.925ZM21.5746 14.5569C21.6821 14.7024 21.782 14.8533 21.8737 15.0092V15.1628L21.6515 15.3505H21.4891L21.3609 15.0604V14.6679L21.5746 14.5569ZM21.7712 15.5639H22.1301V15.7943L22.0105 15.8796V16.0417L22.3524 15.9906L22.4378 16.1271H22.925L23.3096 15.7431H23.9165L24.0361 16.1783L23.6857 16.4684H22.8737L22.3096 16.7244L21.7541 16.6562L21.6088 16.0332L21.2071 15.8625V15.5895L21.7712 15.5639ZM29.9507 11.502C31.1498 11.5023 32.3461 11.6166 33.5234 11.8433L34.0961 12.6966L34.3696 12.8332L34.5918 12.4577L34.9764 12.5345V13.0636L35.1816 13.1404L35.3439 12.7393L36.4551 13.0124L36.6175 13.439L36.0619 13.6951L35.8995 14.4119L36.7542 14.8897L36.626 15.214H36.1987V15.3847L36.7115 15.8369L37.3183 16.0417L37.2072 16.4428L36.7286 16.2295L37.0448 16.5537L36.9508 16.9207H36.6004L36.4551 17.4156L36.6944 17.4924L36.5833 18.1666L36.8397 18.2434L36.7627 18.6103L36.9337 18.7724L36.5662 19.4722L36.0106 19.3613L35.8995 19.7538L34.626 19.933L34.5576 20.3938L33.7029 21.0338H32.8482V21.3496L32.6687 21.5458L32.8482 22.3394L32.4636 22.5528V23.2952L32.1644 23.3805V23.8413L31.8396 23.9864L31.3183 23.4232L30.8225 23.4914L30.6601 22.9282L30.267 22.8685L30.0875 22.1517L30.3439 21.5458L29.9165 21.6738L29.7712 20.8205H29.5319V19.7197L30.1217 19.4807L30.2926 18.6274L30.0191 18.6871V19.0541L29.5063 19.182L29.3012 18.8322L29.3439 18.2775L29.6174 18.1922L29.8567 18.4055L30.096 18.3031L30.0447 17.9106L29.6345 17.7143L29.19 17.9532L28.9934 17.5863L29.3268 17.2876L29.002 15.9735L28.1473 15.1201L26.3951 15.3761L26.284 15.0348L25.9336 14.9409V14.6593H27.0191V14.3265H25.9678L25.8567 13.9169L26.4122 13.7548L26.6857 13.4817L27.3182 13.5329L27.4464 13.183L27.0362 13.038L27.0789 12.8332L27.6259 12.7478L28.0362 12.4492L27.9763 12.2444L26.9421 12.3553V12.6369L26.19 13.2599L25.7285 13.4049L25.2498 14.1047L25.3438 14.3436L24.7199 14.5825L24.5661 14.8044L24.6259 15.2225L24.0532 15.4103L23.7626 15.2396L23.2754 15.3164L23.1302 15.5212H22.5575L22.5062 15.2567L22.7455 15.0433L22.8396 14.5655L22.6344 14.4119L22.5062 14.7617H22.1045L21.8823 14.19L22.5917 13.4134L23.0703 13.5841L23.3267 13.3964L23.2327 13.0636L24.5233 12.6284L26.4379 12.1505L26.6515 11.7836C27.7269 11.5961 28.8164 11.5019 29.908 11.502H29.9507ZM38.8311 21.5117V21.981H38.344L37.9337 22.5528H37.6175L37.3354 22.2285L36.9764 22.2712L36.6004 21.6909L36.7969 21.5117L36.7115 21.2215L36.4465 21.3581L36.3269 21.1618L36.6858 20.7351H36.9679L37.0619 21.0679H37.9679L38.1816 20.7693L38.6944 21.0594L38.8311 21.5117ZM40.438 26.2477L40.6431 27.2547L40.4807 27.5278L39.7628 27.7326L39.5919 27.4936L39.8141 27.1267V26.6147L40.0705 26.5208V26.2648L40.438 26.2477ZM41.0705 24.7373L41.1389 25.3261H41.4209V25.9917L41.6773 26.1368L41.6004 26.5037L42.1389 27.0926L42.079 27.5534L41.6773 27.8947L40.7713 28.2275L40.6773 27.8776L41.0534 27.6387L40.9166 27.2205L41.2671 26.8707L40.9594 26.1539L40.1987 25.3432L40.3098 24.8824L41.0705 24.7373Z" fill="white"/>
<path d="M30.1311 49.2891C26.3213 49.294 22.5956 48.1688 19.4254 46.0557C16.2552 43.9427 13.7831 40.9368 12.3217 37.4183C10.8603 33.8999 10.4754 30.027 11.2156 26.2898C11.9559 22.5526 13.788 19.1189 16.4803 16.4231C19.1725 13.7274 22.6038 11.8909 26.3401 11.1458C30.0764 10.4007 33.9497 10.7806 37.47 12.2374C40.9904 13.6943 43.9995 16.1626 46.1166 19.33C48.2338 22.4974 49.3638 26.2217 49.3639 30.0315C49.3595 35.1333 47.3326 40.0252 43.7274 43.6351C40.1222 47.2449 35.2329 49.2782 30.1311 49.2891ZM30.1311 12.6549C26.6894 12.6549 23.325 13.6755 20.4634 15.5876C17.6017 17.4997 15.3713 20.2174 14.0543 23.3971C12.7372 26.5768 12.3926 30.0757 13.064 33.4512C13.7355 36.8268 15.3928 39.9274 17.8264 42.3611C20.2601 44.7947 23.3607 46.452 26.7363 47.1235C30.1118 47.7949 33.6107 47.4503 36.7904 46.1332C39.9701 44.8161 42.6878 42.5858 44.5999 39.7241C46.512 36.8624 47.5326 33.4981 47.5326 30.0564C47.5326 25.4412 45.6992 21.0151 42.4358 17.7517C39.1724 14.4883 34.7463 12.6549 30.1311 12.6549Z" fill="white"/>
<defs>
<linearGradient id="paint0_linear_3940_8815" x1="18.4233" y1="4.13694" x2="25.5868" y2="50.4453" gradientUnits="userSpaceOnUse">
<stop stop-color="#0055C9"/>
<stop offset="0.932141" stop-color="#0055C9" stop-opacity="0"/>
</linearGradient>
<linearGradient id="paint1_linear_3940_8815" x1="14.8016" y1="55.1493" x2="48.5688" y2="22.7108" gradientUnits="userSpaceOnUse">
<stop stop-color="#0055C9"/>
<stop offset="0.932141" stop-color="#0055C9" stop-opacity="0"/>
</linearGradient>
<linearGradient id="paint2_linear_3940_8815" x1="58.8107" y1="31.1825" x2="14.9479" y2="16.5912" gradientUnits="userSpaceOnUse">
<stop stop-color="#37FFFF"/>
<stop offset="0.932141" stop-color="#2EE6FF" stop-opacity="0"/>
</linearGradient>
</defs>
</svg>
