<svg width="1024" height="1024" viewBox="0 0 1024 1024" fill="none" xmlns="http://www.w3.org/2000/svg">
<circle cx="512.241" cy="510.546" r="495.575" fill="#3084F7"/>
<path d="M627.635 201.327L585.453 268.506C632.159 286.266 672.591 317.395 701.693 358.002C705.018 362.815 708.227 367.628 711.323 372.67L712.24 374.045C715.105 378.743 717.742 383.556 720.264 388.483C720.264 389.286 721.181 390.088 721.525 390.89C723.932 395.473 725.996 400.172 728.059 404.87C728.525 406.084 729.061 407.27 729.664 408.422C731.499 412.891 733.104 417.475 734.708 422.059C734.708 423.548 735.855 425.038 736.313 426.642C737.803 431.111 738.95 435.581 740.096 440.05C740.699 441.814 741.196 443.612 741.586 445.435C742.733 449.904 743.535 454.373 744.338 458.843C744.338 460.791 745.14 462.739 745.484 464.801C746.286 469.385 746.745 474.198 747.204 478.896L747.891 484.626C747.891 491.272 748.694 498.033 748.694 504.794C748.694 571.989 721.99 636.433 674.457 683.948C626.924 731.462 562.456 758.155 495.234 758.155C479.851 758.161 464.501 756.742 449.38 753.916C444.565 752.999 439.751 751.967 435.051 750.822L432.414 750.249C428.058 749.103 423.702 747.842 419.345 746.467L417.282 745.894C407.24 742.671 397.401 738.844 387.821 734.435L389.081 735.008L323.696 785.509C48.6054 644.357 54.3315 198.051 326.477 52.061C237.642 85.7009 151.702 155.284 101.761 230.011C46.7754 307.445 19.2856 396.957 16.8264 491.884C14.3672 586.811 40.2374 680.321 91.1399 760.497C142.042 840.673 215.672 903.884 302.646 942.075L307.805 944.252L316.746 947.919L328.21 952.159L336.808 955.253L348.271 959.263L356.296 961.784L369.02 965.451L376.357 967.399L390.113 970.722L396.647 972.098L411.55 975.077H413.499C433.023 978.478 452.74 980.66 472.536 981.609C480.179 982.067 487.821 982.296 495.463 982.296C502.915 982.296 510.366 982.296 517.703 981.723L529.166 980.921L538.108 980.234C543.381 980.234 548.769 979.202 554.042 978.515H557.825C563.901 977.713 569.977 976.796 575.938 975.764C916.521 864.84 993.392 380.6 627.635 201.327Z" fill="url(#paint0_linear_3940_8903)"/>
<path d="M186.174 564.891L265.444 567.833C257.472 518.504 264.215 467.924 284.83 422.418C287.335 417.132 289.899 411.946 292.718 406.744L293.45 405.263C296.086 400.432 298.936 395.742 301.942 391.094C302.637 390.693 302.873 389.498 303.395 388.799C306.161 384.422 309.198 380.286 312.235 376.15C313.054 375.14 313.813 374.082 314.509 372.984C317.462 369.161 320.63 365.479 323.797 361.797C325.087 361.053 325.804 359.315 326.964 358.116C330.089 354.591 333.386 351.363 336.684 348.136C337.91 346.732 339.219 345.402 340.603 344.153C343.9 340.925 347.369 337.996 350.838 335.066C352.525 334.092 353.811 332.423 355.425 331.094C358.994 328.108 362.932 325.304 366.772 322.557L371.39 319.097C377.146 315.774 382.6 311.699 388.455 308.318C446.648 274.72 515.81 265.625 580.725 283.032C645.64 300.439 700.991 342.924 734.602 401.14C742.299 414.459 748.745 428.462 753.857 442.971C755.471 447.599 756.985 452.284 758.343 456.927L759.165 459.497C760.351 463.843 761.437 468.245 762.424 472.706L762.96 474.779C765.19 485.087 766.795 495.521 767.767 506.023L767.632 504.644L844.06 536.02C859.364 844.831 469.989 1063.03 207.485 900.335C281.036 960.449 384.266 1000.08 473.952 1005.97C568.505 1014.87 659.769 993.923 743.208 948.589C826.647 903.255 894.694 834.096 938.677 749.925C982.66 665.754 1000.59 570.383 990.175 475.966L989.481 470.41L988.186 460.833L986.126 448.785L984.507 439.793L982.248 427.859L980.419 419.649L977.233 406.796L975.251 399.468L971.251 385.894L969.175 379.547L964.304 365.151L963.329 363.464C956.513 344.855 948.544 326.688 939.467 309.07C936.043 302.222 932.42 295.489 928.599 288.871C924.874 282.418 921.148 275.965 916.983 269.897L910.557 260.371L905.491 252.971C902.854 248.404 899.267 244.254 896.035 240.031L894.144 236.755C890.411 231.894 886.579 227.09 882.705 222.444C616.351 -17.0473 158.55 158.5 186.174 564.891Z" fill="url(#paint1_linear_3940_8903)"/>
<path d="M722.94 765.599L685.853 695.479C647.12 727.047 599.945 746.498 550.227 751.398C544.397 751.871 538.624 752.244 532.71 752.404L531.06 752.51C525.559 752.643 520.072 752.52 514.544 752.24C513.849 751.839 512.696 752.232 511.83 752.129C506.656 751.922 501.556 751.36 496.455 750.798C495.171 750.594 493.876 750.465 492.576 750.412C487.789 749.766 483.017 748.864 478.245 747.962C476.955 747.217 475.091 747.465 473.473 747.06C468.857 746.116 464.414 744.874 459.97 743.632C458.141 743.272 456.335 742.804 454.561 742.23C450.117 740.988 445.846 739.449 441.574 737.909C439.887 736.935 437.799 736.656 435.841 735.922C431.47 734.325 427.073 732.316 422.775 730.364L417.469 728.095C411.713 724.772 405.457 722.086 399.602 718.706C341.408 685.108 298.95 629.76 281.568 564.838C264.186 499.916 273.303 430.738 306.914 372.523C314.6 359.198 323.505 346.614 333.513 334.932C336.714 331.22 340.014 327.566 343.357 324.069L345.171 322.072C348.342 318.872 351.611 315.73 354.98 312.645L356.508 311.145C364.321 304.059 372.554 297.452 381.163 291.36L380.036 292.165L368.994 210.29C628.78 42.6299 1012.43 270.742 1002.79 579.422C1018.07 485.668 1000.78 376.451 961.037 295.837C921.469 209.501 857.695 140.938 776.715 91.345C695.735 41.7517 601.819 17.4011 506.933 21.396C412.047 25.391 320.49 57.5508 243.929 113.777L239.464 117.156L231.818 123.066L222.414 130.874L215.436 136.773L206.23 144.695L200.035 150.384L190.497 159.57L185.142 164.95L175.386 175.202L170.927 180.173L160.896 191.59L159.922 193.277C147.214 208.485 135.466 224.47 124.746 241.139C120.528 247.528 116.508 254.032 112.687 260.651C108.962 267.104 105.236 273.557 102.064 280.197L97.0266 290.526L93.1513 298.613C90.5147 303.18 88.7137 308.362 86.6725 313.272L84.7812 316.548C82.438 322.211 80.1941 327.932 78.1067 333.61C3.87884 684.025 384.807 992.718 722.94 765.599Z" fill="url(#paint2_linear_3940_8903)"/>
<circle cx="512.24" cy="510.546" r="320.424" fill="#3084F7"/>
<path d="M801.153 379.078C831.06 441.391 839.989 511.687 826.609 579.481C813.228 647.275 778.255 708.933 726.905 755.26L721.071 757.007L714.798 753.803V733.851L729.385 709.384V699.335L721.217 696.859V689.286L730.698 677.926L726.322 674.285L716.84 676.761L710.568 671.081L694.814 683.023L687.958 679.82L675.267 686.082L659.659 676.761V668.605L647.698 660.45V645.886L653.97 643.993L655.283 638.895L649.011 627.099L657.763 605.107L675.413 594.476L681.102 588.213L678.622 579.475L682.999 570.591L692.334 569.426L694.23 561.853L691.167 552.532H684.895L681.102 549.328L684.895 531.124L682.269 520.492L686.791 515.54L708.088 519.327L711.297 514.23L708.671 499.666L697.44 493.986L698.752 488.452H707.505L708.671 482.772L717.57 484.665L731.427 459.616H738.283L733.324 438.935L738.283 435.731L743.389 439.518L747.765 449.567H750.828V436.459L740.763 426.41L727.635 431.362L723.259 426.41L726.322 418.255L721.946 400.632L737.7 389.419L743.389 373.69L739.596 355.485L748.932 351.116V345.436L757.101 342.232L767.895 356.796L772.854 354.174L789.921 383.302L798.09 376.311L801.153 379.078ZM417.515 631.176L416.347 636.711H409.929L398.989 628.264L379.297 626.37L378.567 620.982L391.987 618.652L407.887 626.808L416.639 628.846L417.515 631.176ZM426.412 633.798L419.994 639.915V645.449H426.121L429.33 648.653L433.852 647.925L436.186 643.264H442.75V636.274L432.831 633.507L426.412 633.798ZM195.938 450.878C201.541 424.022 210.664 398.021 223.069 373.544L224.09 372.67L236.052 366.699L249.472 365.534L255.744 353.883L261.433 356.067L266.83 351.407H282.584L289.149 355.485L285.648 361.019L287.544 363.932L292.65 359.563L300.818 358.543L307.966 364.223L304.465 351.698L295.421 353.592L294.108 348.494L286.669 346.31V342.232L299.213 339.756L301.693 335.096L297.026 333.203L294.546 336.261L289.732 337.28L286.377 335.096L283.46 328.105L282.584 333.203L275.583 338.882L272.228 335.678L275.583 322.862L287.252 311.502L298.338 310.337L315.843 322.134L320.219 304.949L327.512 302.182V308.735L324.012 311.939L325.616 327.523L330.722 329.998V335.387L325.908 336.989V342.96L319.344 344.854L320.656 352.281L327.804 354.174L337.577 347.038V336.989L341.954 334.368L350.706 340.339L352.602 335.678L347.059 327.523L352.31 316.6L358.875 315.58L360.188 331.309L364.272 342.96L367.481 341.941V336.261L370.107 334.076H373.17L373.899 347.62H377.984L379.442 338.882L383.235 337.572V329.416L390.091 328.542L396.509 330.727L398.989 349.222L391.696 354.465L387.028 367.427L395.196 373.398L397.384 381.117L391.404 382.719L386.006 378.933L384.84 384.321H375.358L373.462 378.641L376.379 374.563V366.699H374.191L370.544 378.641L361.354 384.612L357.854 392.477L351.289 394.37L348.81 404.273L342.537 409.079L343.996 421.604L349.393 423.206L355.374 434.712L366.314 437.916L375.504 446.363L380.463 444.178L388.049 445.78V464.859L397.238 470.83L401.615 462.965L399.135 456.994L400.302 446.363L409.492 439.372V424.808L403.219 423.935L400.156 418.255L404.824 413.886L406.137 390.584H424.37L430.643 396.846L436.623 399.03L438.52 410.245L435.311 414.322L436.915 418.4H442.313L448.001 421.167L454.566 416.507V404.856H459.817L465.214 418.692L473.675 429.614L469.59 435.877L479.947 445.926H488.845L490.012 454.082L499.202 460.053L495.118 474.616V482.481L504.745 483.792V491.947L511.017 495.588L508.1 502.579L498.035 501.851L491.179 495.006L480.822 496.316V488.743L488.553 478.403L487.094 474.325H481.697L479.801 478.985H468.132V482.772L470.903 484.665V489.034H463.464L458.358 481.461L446.105 482.481L440.124 492.821L431.08 498.064L433.56 500.685L446.689 494.423L449.898 488.161L455.586 487.141L458.942 499.375H463.755L467.548 503.453H477.613L478.488 508.404L470.611 515.249H464.047L456.17 523.842L452.086 520.638L455.295 512.773L450.189 511.899L446.98 516.56L442.021 515.686L434.143 524.716V533.454L419.556 539.716L410.659 568.844L393.154 578.019L389.07 584.573L393.154 599.136L399.427 605.399L397.822 612.244H391.258L382.068 599.719L377.984 591.272L361.354 593.456L359.75 599.136H353.769L351.289 593.311L343.121 591.126L333.639 601.467L332.472 619.963L338.453 634.526L346.33 639.187H355.666L357.854 629.429L362.667 623.895L371.128 628.846V648.944H378.567L388.049 654.915V669.479L394.613 674.868H405.699L410.075 677.926L415.035 679.528L427.434 671.955V665.693L432.977 663.217L449.752 675.45L471.341 673.557V678.946L482.135 682.295L494.388 693.364L505.62 692.053L518.603 699.335L521.083 713.899L537.128 715.501L547.193 722.783L558.133 721.18L564.406 723.948L578.993 729.336L577.534 741.861L561.488 754.386V764.726L550.111 781.329H537.274L525.604 789.776L521.52 800.407L515.248 801.718L511.163 809.145L502.994 806.961L496.722 816.427H486.657L472.07 823.855L464.485 833.03L453.836 832.302L445.084 829.243L446.251 819.194L439.979 814.825V810.019L444.063 806.378V798.514H441.583V795.601L444.355 791.523V773.027L440.562 767.493L421.453 758.027L416.056 744.191L399.718 727.88L403.219 718.85L400.01 710.986L411.971 700.063V692.49L406.574 686.227L390.966 684.334L379.88 675.596L374.92 666.858L362.959 658.702L353.477 657.974L345.601 649.527L335.243 651.129L321.386 642.391L306.799 630.448L306.069 617.632L293.233 601.903L281.563 583.699L279.375 585.301L282.584 597.243L293.816 610.642L295.421 617.341L291.045 618.797L268.873 583.262L266.976 566.951L250.639 551.367L246.555 530.395L248.742 493.404L241.157 485.539L242.179 470.102L236.198 467.917V456.994L229.925 458.014L222.632 433.547L212.567 434.712L206.294 444.178L208.191 454.518L203.231 456.703L199.73 446.363L195.938 450.878ZM383.672 288.783L376.379 296.065L369.231 310.629L375.504 314.998L372.878 320.823L373.607 324.173L404.386 325.192L408.908 319.949L414.159 321.551V327.523L412.701 332.766L414.159 333.931L421.745 333.057L423.495 336.407L422.036 338.3H412.409L410.367 341.795L411.388 346.601L414.889 348.931L420.14 347.766L425.829 341.067H428.746V348.203L425.392 350.096L421.599 356.213V362.184L413.576 363.495L407.449 367.864V372.379L412.409 374.272L417.515 371.505H423.933L431.518 382.719L449.023 392.331L452.523 391.457V388.836L442.896 380.098L443.771 378.059L453.107 381.554L456.17 384.467L459.817 383.447V373.69L449.752 364.223L446.543 353.883L448.585 351.99L454.274 357.233L455.003 362.184L461.422 365.825L465.068 364.806L471.049 352.863V347.912L468.569 346.164L466.381 347.329L456.9 337.28L450.335 334.805L448.731 330.581L451.357 329.125H453.691L452.086 316.017H447.126L445.23 312.522H440.124L435.457 304.512H428.017L419.265 291.696L418.098 287.472L411.096 285.725H401.177L399.864 288.929L393.884 287.763L391.987 290.968L389.216 287.181L383.672 288.783ZM355.374 292.278V306.842L360.917 307.862V303.784L368.064 299.706V297.084L372.149 295.774V291.55H368.502L366.751 289.366H361.792L360.917 292.133L355.374 292.278ZM346.621 294.754L339.036 299.851L340.057 306.551L333.348 308.153V312.376L338.89 315.143V319.804L341.516 320.678L345.017 316.454L348.664 314.561V304.803L350.414 302.182V295.482L346.621 294.754ZM326.929 279.317C327.072 280.867 327.072 282.427 326.929 283.977H329.701L330.722 288.492L323.282 294.754H319.198L317.885 298.686L310.3 303.055L303.298 302.327L302.569 299.269H298.193L293.962 294.608V292.57L299.359 290.385L308.403 281.064L316.572 288.346L320.656 287.618L321.532 279.899L325.033 278.297L326.929 279.317ZM354.936 270.141L356.395 275.967L363.834 277.278L365.293 281.793L362.084 286.161H357.854L355.228 281.064H351.727V285.87L347.059 287.909L341.808 287.181L339.911 283.831L336.994 283.103L336.119 277.715H341.954L344.288 274.948H348.372L350.998 271.307L354.936 270.141ZM357.124 251.354C358.145 252.228 358.145 252.956 359.166 254.85L358.145 259.947L354.498 261.112L348.955 258.054V254.267L353.623 251.354H357.124ZM368.21 248.441C370.046 250.923 371.75 253.5 373.316 256.16V258.782L369.523 261.986H366.751L364.564 257.034V250.335L368.21 248.441ZM371.565 265.627H377.692V269.559L375.65 271.015V273.782L381.485 272.909L382.943 275.239H391.258L397.822 268.685H408.179L410.221 276.113L404.24 281.064H390.382L380.755 285.433L371.273 284.268L368.794 273.637L361.938 270.724V266.064L371.565 265.627ZM511.163 196.303C531.627 196.309 552.044 198.26 572.137 202.129L581.91 216.693L586.578 219.023L590.371 212.615L596.935 213.925V222.955L600.436 224.266L603.208 217.421L622.171 222.081L624.942 229.363L615.461 233.732L612.689 245.966L627.276 254.121L625.088 259.656H617.795V262.568L626.546 270.287L636.904 273.782L635.007 280.627L626.838 276.986L632.236 282.521L630.631 288.783H624.651L622.171 297.23L626.255 298.541L624.358 310.046L628.735 311.357L627.422 317.619L630.339 320.386L624.067 332.329L614.585 330.435L612.689 337.135L590.954 340.193L589.787 348.057L575.2 358.98H560.613V364.369L557.55 367.718L560.613 381.263L554.049 384.904V397.574L548.944 399.03V406.895L543.401 409.371L534.502 399.759L526.042 400.924L523.27 391.312L516.561 390.292L513.497 378.059L517.873 367.718L510.58 369.903L508.1 355.339H504.015V336.552L514.081 332.474L516.998 317.911L512.33 318.93V325.192L503.578 327.377L500.077 321.406L500.806 311.939L505.474 310.483L509.559 314.124L513.643 312.376L512.768 305.677L505.766 302.327L498.181 306.405L494.826 300.143L500.515 295.045L494.972 272.617L480.385 258.054L450.481 262.423L448.585 256.597L442.604 254.995V250.189H461.13V244.509H443.188L441.291 237.519L450.773 234.751L455.441 230.091L466.235 230.965L468.423 224.994L461.422 222.518L462.151 219.023L471.487 217.566L478.488 212.469L477.467 208.974L459.817 210.867V215.673L446.98 226.305L439.103 228.781L430.934 240.723L432.539 244.8L421.89 248.878L419.265 252.665L420.286 259.801L410.513 263.005L405.553 260.092L397.238 261.403L394.759 264.899H384.985L384.11 260.384L388.194 256.743L389.799 248.587L386.298 245.966L384.11 251.937H377.254L373.462 242.179L385.569 228.926L393.738 231.839L398.114 228.635L396.509 222.955L418.536 215.527L451.211 207.372L454.857 201.109C473.209 197.91 491.804 196.302 510.434 196.303H511.163ZM662.722 367.136V375.146H654.408L647.406 384.904H642.009L637.195 379.37L631.068 380.098L624.651 370.194L628.005 367.136L626.546 362.184L622.025 364.514L619.983 361.165L626.109 353.883H630.923L632.527 359.563H647.989L651.636 354.465L660.388 359.417L662.722 367.136ZM690.146 447.965L693.647 465.15L690.875 469.81L678.622 473.306L675.705 469.228L679.497 462.965V454.227L683.874 452.625V448.256L690.146 447.965ZM700.94 422.187L702.108 432.236H706.921V443.596L711.297 446.071L709.984 452.334L719.174 462.383L718.153 470.247L711.297 476.073L695.835 481.753L694.23 475.781L700.649 471.704L698.315 464.567L704.296 458.596L699.044 446.363L686.062 432.527L687.958 424.663L700.94 422.187Z" fill="white"/>
<path d="M514.232 841.2C449.211 841.284 385.625 822.079 331.521 786.016C277.417 749.953 235.226 698.652 210.285 638.605C185.344 578.557 178.775 512.46 191.408 448.678C204.042 384.896 235.31 326.294 281.258 280.287C327.205 234.28 385.767 202.936 449.533 190.22C513.299 177.504 579.403 183.988 639.483 208.851C699.563 233.714 750.919 275.839 787.052 329.897C823.184 383.955 842.471 447.515 842.471 512.536C842.396 599.607 807.804 683.096 746.275 744.704C684.747 806.312 601.303 841.012 514.232 841.2ZM514.232 215.976C455.494 215.976 398.075 233.394 349.236 266.027C300.397 298.66 262.332 345.043 239.854 399.31C217.376 453.577 211.495 513.29 222.954 570.9C234.413 628.509 262.698 681.427 304.232 722.961C345.766 764.495 398.684 792.78 456.293 804.239C513.903 815.698 573.616 809.817 627.883 787.339C682.15 764.861 728.533 726.795 761.166 677.957C793.799 629.118 811.217 571.699 811.217 512.961C811.217 434.195 779.928 358.656 724.232 302.961C668.537 247.265 592.997 215.976 514.232 215.976Z" fill="white"/>
<defs>
<linearGradient id="paint0_linear_3940_8903" x1="314.423" y1="70.6065" x2="436.682" y2="860.935" gradientUnits="userSpaceOnUse">
<stop stop-color="#0055C9"/>
<stop offset="0.932141" stop-color="#0055C9" stop-opacity="0"/>
</linearGradient>
<linearGradient id="paint1_linear_3940_8903" x1="252.605" y1="941.212" x2="828.898" y2="387.596" gradientUnits="userSpaceOnUse">
<stop stop-color="#0055C9"/>
<stop offset="0.932141" stop-color="#0055C9" stop-opacity="0"/>
</linearGradient>
<linearGradient id="paint2_linear_3940_8903" x1="1003.7" y1="532.182" x2="255.105" y2="283.157" gradientUnits="userSpaceOnUse">
<stop stop-color="#37FFFF"/>
<stop offset="0.932141" stop-color="#2EE6FF" stop-opacity="0"/>
</linearGradient>
</defs>
</svg>
