<svg width="694" height="208" viewBox="0 0 694 208" fill="none" xmlns="http://www.w3.org/2000/svg">
<ellipse cx="347.048" cy="103.716" rx="96.7921" ry="96.7921" fill="#3084F7"/>
<path d="M369.586 43.3215L361.347 56.4424C370.469 59.9111 378.366 65.9911 384.05 73.9221C384.7 74.8621 385.326 75.8021 385.931 76.7869L386.11 77.0554C386.67 77.9731 387.185 78.9131 387.677 79.8755C387.677 80.0322 387.856 80.1888 387.924 80.3455C388.394 81.2407 388.797 82.1584 389.2 83.076C389.291 83.3131 389.395 83.5448 389.513 83.7698C389.872 84.6427 390.185 85.5379 390.499 86.4332C390.499 86.7241 390.722 87.0151 390.812 87.3284C391.103 88.2013 391.327 89.0741 391.551 89.947C391.668 90.2916 391.766 90.6429 391.842 90.9989C392.066 91.8718 392.223 92.7447 392.379 93.6175C392.379 93.998 392.536 94.3785 392.603 94.7813C392.76 95.6766 392.849 96.6166 392.939 97.5342L393.073 98.6533C393.073 99.9514 393.23 101.272 393.23 102.592C393.23 115.717 388.014 128.303 378.731 137.583C369.447 146.864 356.855 152.077 343.726 152.077C340.722 152.078 337.724 151.801 334.77 151.249C333.83 151.07 332.89 150.868 331.972 150.645L331.457 150.533C330.606 150.309 329.755 150.063 328.904 149.794L328.501 149.682C326.54 149.053 324.618 148.305 322.747 147.444L322.993 147.556L310.223 157.419C256.494 129.851 257.612 42.6816 310.766 14.168C293.415 20.7383 276.63 34.3288 266.876 48.9238C256.137 64.0477 250.768 81.5305 250.287 100.071C249.807 118.611 254.86 136.875 264.802 152.534C274.743 168.194 289.124 180.54 306.111 187.999L307.119 188.424L308.865 189.14L311.104 189.968L312.784 190.573L315.022 191.356L316.59 191.848L319.075 192.565L320.508 192.945L323.195 193.594L324.471 193.863L327.382 194.445H327.762C331.576 195.109 335.427 195.535 339.293 195.72C340.786 195.81 342.278 195.855 343.771 195.855C345.226 195.855 346.682 195.855 348.115 195.743L350.354 195.586L352.1 195.452C353.13 195.452 354.182 195.25 355.212 195.116H355.951C357.138 194.959 358.324 194.78 359.489 194.579C426.009 172.914 441.023 78.3357 369.586 43.3215Z" fill="url(#paint0_linear_3940_8313)"/>
<path d="M283.362 114.33L298.844 114.905C297.287 105.271 298.604 95.3916 302.631 86.5036C303.12 85.4712 303.621 84.4583 304.171 83.4424L304.314 83.153C304.829 82.2095 305.386 81.2935 305.973 80.3857C306.109 80.3073 306.155 80.0739 306.257 79.9374C306.797 79.0826 307.39 78.2747 307.983 77.4669C308.143 77.2696 308.292 77.0631 308.427 76.8485C309.004 76.1018 309.623 75.3828 310.241 74.6637C310.493 74.5182 310.633 74.1788 310.86 73.9446C311.47 73.2561 312.114 72.6258 312.758 71.9955C312.998 71.7212 313.254 71.4614 313.524 71.2174C314.168 70.5871 314.845 70.0149 315.523 69.4427C315.852 69.2525 316.104 68.9266 316.419 68.667C317.116 68.0836 317.885 67.536 318.635 66.9996L319.537 66.3238C320.661 65.6747 321.726 64.8788 322.87 64.2185C334.236 57.6564 347.744 55.8799 360.423 59.2798C373.101 62.6797 383.912 70.9775 390.477 82.3477C391.98 84.9491 393.239 87.6842 394.238 90.5178C394.553 91.4217 394.849 92.3368 395.114 93.2437L395.274 93.7457C395.506 94.5944 395.718 95.4543 395.911 96.3254L396.015 96.7304C396.451 98.7438 396.765 100.782 396.954 102.833L396.928 102.564L411.855 108.691C414.844 169.006 338.795 211.622 287.524 179.847C301.89 191.588 322.052 199.329 339.569 200.479C358.036 202.217 375.861 198.126 392.158 189.271C408.454 180.417 421.745 166.909 430.335 150.47C438.926 134.03 442.427 115.403 440.393 96.9622L440.258 95.8771L440.005 94.0066L439.603 91.6535L439.286 89.8971L438.845 87.5664L438.488 85.9629L437.866 83.4525L437.479 82.0213L436.697 79.37L436.292 78.1304L435.34 75.3187L435.15 74.9891C433.819 71.3545 432.262 67.8064 430.49 64.3654C429.821 63.0279 429.113 61.7129 428.367 60.4202C427.639 59.1598 426.912 57.8995 426.098 56.7145L424.843 54.8538L423.854 53.4085C423.339 52.5165 422.638 51.7059 422.007 50.8811L421.637 50.2412C420.908 49.2919 420.16 48.3537 419.403 47.4462C367.381 0.670556 277.967 34.9571 283.362 114.33Z" fill="url(#paint1_linear_3940_8313)"/>
<path d="M388.199 153.531L380.955 139.836C373.39 146.001 364.176 149.8 354.466 150.757C353.327 150.85 352.199 150.923 351.044 150.954L350.722 150.975C349.648 151.001 348.576 150.977 347.496 150.922C347.361 150.844 347.135 150.92 346.966 150.9C345.956 150.86 344.959 150.75 343.963 150.64C343.712 150.6 343.459 150.575 343.206 150.565C342.271 150.439 341.339 150.262 340.407 150.086C340.155 149.941 339.791 149.989 339.475 149.91C338.573 149.726 337.705 149.483 336.837 149.241C336.48 149.17 336.127 149.079 335.781 148.967C334.913 148.724 334.079 148.424 333.244 148.123C332.915 147.933 332.507 147.878 332.125 147.735C331.271 147.423 330.412 147.031 329.573 146.649L328.536 146.206C327.412 145.557 326.19 145.032 325.047 144.372C313.681 137.81 305.388 127 301.993 114.32C298.598 101.64 300.379 88.1286 306.943 76.7583C308.445 74.1558 310.184 71.698 312.139 69.4163C312.764 68.6915 313.408 67.9778 314.061 67.2947L314.416 66.9047C315.035 66.2797 315.673 65.666 316.331 65.0635L316.63 64.7704C318.156 63.3866 319.764 62.0961 321.445 60.9062L321.225 61.0635L319.069 45.0722C369.808 12.3261 444.74 56.8793 442.856 117.168C445.842 98.8571 442.464 77.5256 434.702 61.7807C426.974 44.9181 414.518 31.527 398.702 21.8408C382.885 12.1546 364.542 7.39859 346.01 8.17885C327.477 8.95912 309.595 15.2403 294.642 26.222L293.77 26.8819L292.276 28.0363L290.44 29.5612L289.077 30.7134L287.279 32.2607L286.069 33.3718L284.206 35.166L283.16 36.2168L281.254 38.219L280.384 39.19L278.424 41.4198L278.234 41.7494C275.752 44.7197 273.458 47.8417 271.364 51.0974C270.54 52.3453 269.755 53.6156 269.009 54.9083C268.281 56.1687 267.553 57.429 266.934 58.7259L265.95 60.7433L265.193 62.3229C264.678 63.2148 264.326 64.2269 263.928 65.186L263.558 65.8258C263.101 66.9318 262.662 68.0491 262.255 69.1581C247.757 137.599 322.157 197.89 388.199 153.531Z" fill="url(#paint2_linear_3940_8313)"/>
<ellipse cx="347.048" cy="103.716" rx="62.5828" ry="62.5828" fill="#3084F7"/>
<path d="M403.476 78.0386C409.317 90.2091 411.061 103.939 408.448 117.18C405.834 130.421 399.003 142.463 388.974 151.512L387.835 151.853L386.61 151.227V147.33L389.459 142.551V140.589L387.863 140.105V138.626L389.715 136.407L388.86 135.696L387.008 136.18L385.783 135.07L382.706 137.403L381.367 136.777L378.889 138L375.84 136.18V134.587L373.504 132.994V130.15L374.729 129.78L374.985 128.784L373.76 126.48L375.47 122.185L378.917 120.108L380.028 118.885L379.544 117.179L380.399 115.444L382.222 115.216L382.592 113.737L381.994 111.916H380.769L380.028 111.291L380.769 107.735L380.256 105.659L381.139 104.691L385.299 105.431L385.926 104.435L385.413 101.591L383.219 100.482L383.476 99.4007H385.185L385.413 98.2913L387.151 98.6611L389.857 93.7686H391.196L390.228 89.7294L391.196 89.1036L392.194 89.8432L393.048 91.8059H393.647V89.2458L391.681 87.2831L389.117 88.2503L388.262 87.2831L388.86 85.6902L388.006 82.2484L391.083 80.0582L392.194 76.9861L391.453 73.4305L393.276 72.5772V71.4678L394.872 70.842L396.98 73.6865L397.949 73.1745L401.282 78.8635L402.877 77.4981L403.476 78.0386ZM328.546 127.277L328.318 128.357H327.065L324.928 126.708L321.082 126.338L320.939 125.285L323.56 124.83L326.666 126.423L328.375 126.821L328.546 127.277ZM330.284 127.789L329.031 128.983V130.064H330.227L330.854 130.69L331.737 130.548L332.193 129.637H333.475V128.272L331.538 127.732L330.284 127.789ZM285.27 92.0619C286.364 86.8167 288.146 81.7383 290.569 76.9577L290.768 76.787L293.104 75.6208L295.726 75.3932L296.951 73.1176L298.062 73.5443L299.116 72.6341H302.193L303.475 73.4305L302.791 74.5115L303.161 75.0803L304.159 74.227L305.754 74.0279L307.15 75.1372L306.466 72.6909L304.7 73.0607L304.444 72.0652L302.99 71.6385V70.842L305.441 70.3585L305.925 69.4482L305.013 69.0785L304.529 69.6758L303.589 69.8749L302.934 69.4482L302.364 68.0829L302.193 69.0785L300.825 70.1878L300.17 69.562L300.825 67.0589L303.104 64.8402L305.27 64.6126L308.689 66.9167L309.543 63.5602L310.968 63.0197V64.2997L310.284 64.9255L310.597 67.9691L311.595 68.4527V69.5051L310.654 69.818V70.9843L309.372 71.3541L309.629 72.8047L311.025 73.1745L312.934 71.7807V69.818L313.788 69.306L315.498 70.4723L315.868 69.562L314.785 67.9691L315.811 65.8358L317.093 65.6366L317.35 68.7087L318.147 70.9843L318.774 70.7851V69.6758L319.287 69.2491H319.885L320.028 71.8945H320.825L321.11 70.1878L321.851 69.9318V68.3389L323.19 68.1682L324.444 68.5949L324.928 72.2074L323.504 73.2314L322.592 75.763L324.187 76.9292L324.615 78.4368L323.447 78.7497L322.392 78.0102L322.164 79.0626H320.313L319.942 77.9533L320.512 77.1568V75.6208H320.085L319.372 77.9533L317.578 79.1195L316.894 80.6555L315.612 81.0253L315.127 82.9595L313.902 83.8982L314.187 86.3445L315.241 86.6574L316.409 88.9045L318.546 89.5303L320.341 91.1801L321.31 90.7534L322.791 91.0663V94.7926L324.586 95.9588L325.441 94.4228L324.956 93.2566L325.184 91.1801L326.979 89.8147V86.9703L325.754 86.7996L325.156 85.6902L326.068 84.8369L326.324 80.2857H329.885L331.11 81.5089L332.279 81.9355L332.649 84.1258L332.022 84.9222L332.335 85.7187H333.39L334.501 86.2591L335.783 85.3489V83.0733H336.808L337.863 85.7756L339.515 87.9089L338.717 89.1321L340.74 91.0947H342.478L342.706 92.6877L344.501 93.8539L343.703 96.6984V98.2344L345.584 98.4904V100.083L346.809 100.794L346.239 102.16L344.273 102.018L342.934 100.681L340.911 100.937V99.4575L342.421 97.438L342.136 96.6415H341.082L340.712 97.5517H338.432V98.2913L338.974 98.6611V99.5144H337.521L336.524 98.0353L334.13 98.2344L332.962 100.254L331.196 101.278L331.68 101.79L334.244 100.567L334.871 99.3438L335.982 99.1446L336.638 101.534H337.578L338.318 102.33H340.284L340.455 103.298L338.917 104.635H337.635L336.096 106.313L335.298 105.687L335.925 104.151L334.928 103.98L334.301 104.89L333.333 104.72L331.794 106.483V108.19L328.945 109.413L327.207 115.102L323.788 116.894L322.991 118.174L323.788 121.019L325.014 122.242L324.7 123.579H323.418L321.623 121.133L320.825 119.483L317.578 119.909L317.264 121.019H316.096L315.612 119.881L314.016 119.454L312.164 121.474L311.936 125.086L313.105 127.931L314.643 128.841H316.466L316.894 126.935L317.834 125.854L319.486 126.821V130.747H320.939L322.791 131.913V134.758L324.073 135.81H326.239L327.093 136.407L328.062 136.72L330.484 135.241V134.018L331.566 133.534L334.843 135.924L339.059 135.554V136.606L341.167 137.261L343.561 139.422L345.754 139.167L348.29 140.589L348.774 143.433L351.908 143.746L353.874 145.168L356.011 144.855L357.236 145.396L360.085 146.448L359.8 148.895L356.666 151.341V153.36L354.444 156.603H351.937L349.658 158.253L348.86 160.329L347.635 160.585L346.837 162.036L345.242 161.609L344.016 163.458H342.051L339.202 164.909L337.72 166.701L335.64 166.559L333.931 165.962L334.159 163.999L332.934 163.145V162.207L333.732 161.496V159.96H333.247V159.391L333.788 158.594V154.982L333.048 153.901L329.315 152.052L328.261 149.35L325.07 146.164L325.754 144.4L325.127 142.864L327.464 140.731V139.252L326.41 138.029L323.361 137.659L321.196 135.952L320.227 134.246L317.891 132.653L316.039 132.51L314.501 130.861L312.478 131.174L309.771 129.467L306.922 127.134L306.78 124.631L304.273 121.559L301.993 118.004L301.566 118.316L302.193 120.649L304.386 123.266L304.7 124.574L303.845 124.859L299.515 117.918L299.144 114.732L295.953 111.689L295.156 107.593L295.583 100.368L294.102 98.8317L294.301 95.8166L293.133 95.3899V93.2566L291.908 93.4557L290.483 88.677L288.517 88.9045L287.292 90.7534L287.663 92.773L286.694 93.1997L286.01 91.1801L285.27 92.0619ZM321.937 60.4028L320.512 61.825L319.116 64.6695L320.341 65.5229L319.828 66.6607L319.971 67.3149L325.982 67.514L326.865 66.49L327.891 66.8029V67.9691L327.606 68.9932L327.891 69.2207L329.373 69.05L329.714 69.7043L329.429 70.074H327.549L327.15 70.7567L327.35 71.6954L328.033 72.1505L329.059 71.923L330.17 70.6145H330.74V72.0083L330.085 72.3781L329.344 73.5728V74.739L327.777 74.995L326.58 75.8483V76.7301L327.549 77.0999L328.546 76.5594H329.8L331.281 78.7497L334.7 80.6271L335.384 80.4564V79.9444L333.504 78.2377L333.675 77.8395L335.498 78.5221L336.096 79.091L336.808 78.8919V76.9861L334.843 75.1372L334.216 73.1176L334.615 72.7478L335.726 73.7719L335.868 74.739L337.122 75.4501L337.834 75.251L339.002 72.9185V71.9514L338.518 71.6101L338.091 71.8376L336.239 69.8749L334.957 69.3914L334.643 68.5665L335.156 68.282H335.612L335.298 65.722H334.33L333.959 65.0393H332.962L332.051 63.4749H330.598L328.888 60.9717L328.66 60.1468L327.293 59.8054H325.355L325.099 60.4312L323.931 60.2037L323.56 60.8295L323.019 60.0899L321.937 60.4028ZM316.409 61.0855V63.93L317.492 64.1291V63.3326L318.888 62.5362V62.0241L319.686 61.7681V60.9433H318.974L318.632 60.5166H317.663L317.492 61.057L316.409 61.0855ZM314.7 61.5691L313.218 62.5646L313.418 63.8731L312.107 64.186V65.0109L313.19 65.5513V66.4616L313.703 66.6322L314.387 65.8073L315.099 65.4376V63.5318L315.441 63.0197V61.7113L314.7 61.5691ZM310.854 58.5539C310.882 58.8567 310.882 59.1613 310.854 59.4641H311.395L311.595 60.3459L310.142 61.5691H309.344L309.087 62.337L307.606 63.1904L306.238 63.0482L306.096 62.4508H305.241L304.415 61.5406V61.1424L305.469 60.7157L307.236 58.8952L308.831 60.3175L309.629 60.1752L309.8 58.6677L310.483 58.3548L310.854 58.5539ZM316.324 56.7619L316.609 57.8996L318.062 58.1557L318.347 59.0375L317.72 59.8908H316.894L316.381 58.8952H315.697V59.8339L314.785 60.2321L313.76 60.0899L313.389 59.4357L312.82 59.2935L312.649 58.241H313.788L314.244 57.7006H315.042L315.555 56.9894L316.324 56.7619ZM316.751 53.0925C316.951 53.2631 316.951 53.4054 317.15 53.7752L316.951 54.7707L316.238 54.9983L315.156 54.4009V53.6614L316.068 53.0925H316.751ZM318.917 52.5236C319.275 53.0084 319.608 53.5116 319.914 54.0312V54.5432L319.173 55.169H318.632L318.204 54.2018V52.8934L318.917 52.5236ZM319.572 55.8801H320.768V56.6481L320.37 56.9325V57.473L321.509 57.3023L321.794 57.7574H323.418L324.7 56.4774H326.723L327.122 57.9281L325.954 58.8952H323.247L321.367 59.7486L319.515 59.521L319.031 57.4446L317.691 56.8756V55.9654L319.572 55.8801ZM346.837 42.3403C350.834 42.3415 354.822 42.7225 358.746 43.4782L360.655 46.3226L361.567 46.7778L362.307 45.5262L363.589 45.7822V47.5457L364.273 47.8017L364.814 46.4649L368.518 47.3751L369.059 48.7973L367.208 49.6507L366.666 52.04L369.515 53.6329L369.088 54.7138H367.663V55.2827L369.373 56.7903L371.396 57.473L371.025 58.8099L369.43 58.0988L370.484 59.1797L370.171 60.4028H369.003L368.518 62.0526L369.316 62.3086L368.945 64.5558L369.8 64.8118L369.544 66.0349L370.114 66.5753L368.889 68.9078L367.037 68.538L366.666 69.8465L362.421 70.4438L362.193 71.9798L359.344 74.1132H356.495V75.1657L355.897 75.8199L356.495 78.4653L355.213 79.1764V81.6511L354.216 81.9355V83.4716L353.133 83.9551L351.395 82.0777L349.743 82.3053L349.202 80.4279L347.891 80.2288L347.293 77.8395L348.148 75.8199L346.723 76.2465L346.239 73.4021H345.441V69.7327L347.407 68.9363L347.977 66.0918L347.065 66.2909V67.514L345.356 67.9407L344.672 66.7745L344.814 64.9255L345.726 64.6411L346.524 65.3522L347.321 65.0109L347.15 63.7024L345.783 63.0482L344.301 63.8446L343.646 62.6215L344.757 61.6259L343.675 57.2454L340.826 54.4009L334.985 55.2543L334.615 54.1165L333.447 53.8036V52.8649H337.065V51.7556H333.561L333.19 50.3902L335.042 49.8498L335.954 48.9395L338.062 49.1102L338.489 47.944L337.122 47.4604L337.264 46.7778L339.088 46.4933L340.455 45.4977L340.256 44.8151L336.808 45.1848V46.1235L334.301 48.2L332.763 48.6836L331.167 51.016L331.481 51.8125L329.401 52.6089L328.888 53.3485L329.088 54.7423L327.179 55.3681L326.21 54.7992L324.586 55.0552L324.102 55.7379H322.193L322.022 54.8561L322.82 54.145L323.133 52.5521L322.449 52.04L322.022 53.2063H320.683L319.942 51.3005L322.307 48.712L323.902 49.2809L324.757 48.6551L324.444 47.5457L328.746 46.0951L335.128 44.5022L335.84 43.279C339.424 42.6541 343.056 42.3401 346.695 42.3403H346.837ZM376.438 75.7061V77.2706H374.814L373.447 79.1764H372.393L371.453 78.0955L370.256 78.2377L369.003 76.3034L369.658 75.7061L369.373 74.739L368.49 75.1941L368.091 74.5399L369.287 73.1176H370.228L370.541 74.227H373.561L374.273 73.2314L375.983 74.1986L376.438 75.7061ZM381.795 91.493L382.478 94.8495L381.937 95.7597L379.544 96.4424L378.974 95.6459L379.715 94.4228V92.7161L380.57 92.4032V91.5499L381.795 91.493ZM383.903 86.4583L384.131 88.421H385.071V90.6397L385.926 91.1232L385.669 92.3463L387.464 94.309L387.265 95.8451L385.926 96.9828L382.906 98.0922L382.592 96.9259L383.846 96.1295L383.39 94.7357L384.558 93.5695L383.533 91.1801L380.997 88.4778L381.367 86.9418L383.903 86.4583Z" fill="white"/>
<path d="M347.437 168.297C334.738 168.313 322.319 164.562 311.751 157.519C301.184 150.475 292.944 140.455 288.072 128.727C283.201 116.999 281.918 104.09 284.385 91.6322C286.853 79.1747 292.96 67.7291 301.934 58.7433C310.908 49.7576 322.346 43.6357 334.8 41.1521C347.255 38.6685 360.166 39.9349 371.9 44.791C383.635 49.6471 393.665 57.8747 400.722 68.4328C407.779 78.9909 411.546 91.4051 411.546 104.105C411.532 121.111 404.775 137.417 392.758 149.45C380.741 161.483 364.443 168.26 347.437 168.297ZM347.437 46.1826C335.965 46.1826 324.75 49.5845 315.211 55.9582C305.672 62.3319 298.238 71.391 293.848 81.99C289.457 92.589 288.309 104.252 290.547 115.504C292.785 126.755 298.309 137.091 306.421 145.203C314.534 153.315 324.869 158.84 336.121 161.078C347.373 163.316 359.036 162.167 369.635 157.777C380.234 153.387 389.293 145.952 395.666 136.413C402.04 126.874 405.442 115.66 405.442 104.187C405.442 88.8036 399.331 74.0499 388.453 63.1718C377.575 52.2938 362.821 46.1826 347.437 46.1826Z" fill="white"/>
<defs>
<linearGradient id="paint0_linear_3940_8313" x1="308.412" y1="17.7901" x2="332.29" y2="172.151" gradientUnits="userSpaceOnUse">
<stop stop-color="#0055C9"/>
<stop offset="0.932141" stop-color="#0055C9" stop-opacity="0"/>
</linearGradient>
<linearGradient id="paint1_linear_3940_8313" x1="296.337" y1="187.831" x2="408.894" y2="79.7024" gradientUnits="userSpaceOnUse">
<stop stop-color="#0055C9"/>
<stop offset="0.932141" stop-color="#0055C9" stop-opacity="0"/>
</linearGradient>
<linearGradient id="paint2_linear_3940_8313" x1="443.034" y1="107.942" x2="296.825" y2="59.304" gradientUnits="userSpaceOnUse">
<stop stop-color="#37FFFF"/>
<stop offset="0.932141" stop-color="#2EE6FF" stop-opacity="0"/>
</linearGradient>
</defs>
</svg>
