<svg xmlns="http://www.w3.org/2000/svg" version="1.1" xmlns:xlink="http://www.w3.org/1999/xlink" width="512" height="512" x="0" y="0" viewBox="0 0 510 510" style="enable-background:new 0 0 512 512" xml:space="preserve" fill-rule="evenodd" class=""><g><path fill="#d5a889" d="m255 140.897 181.653 78.893v157.763L255 456.446 73.347 377.553V219.79z" opacity="1" data-original="#d5a889"></path><path fill="#b9835e" d="M73.347 219.79v157.763L255 456.446V298.659z" opacity="1" data-original="#b9835e" class=""></path><g fill="#efc7a4"><path d="M73.347 219.79 15 283.678l181.685 78.893L255 298.659zM436.653 219.778 495 283.666l-181.685 78.893L255 298.647z" fill="#efc7a4" opacity="1" data-original="#efc7a4"></path></g><path fill="#b9835e" d="m255 140.897 181.653 78.893L255 298.659 73.347 219.79z" opacity="1" data-original="#b9835e" class=""></path><circle cx="255" cy="140.897" r="87.343" fill="#f4f6f8" opacity="1" data-original="#f4f6f8" class=""></circle><g fill="#66d4f1"><circle cx="222.506" cy="147.773" r="19.956" fill="#66d4f1" opacity="1" data-original="#66d4f1"></circle><circle cx="286.018" cy="105.87" r="13.888" fill="#66d4f1" opacity="1" data-original="#66d4f1"></circle><circle cx="295.976" cy="167.728" r="11.474" fill="#66d4f1" opacity="1" data-original="#66d4f1"></circle></g><path d="m66.347 313.606-54.135-23.507a7 7 0 0 1-2.381-11.142L68.1 215.155a6.976 6.976 0 0 1 2.459-1.786l95.341-41.407a94.1 94.1 0 0 1-5.243-31.065c0-52.069 42.274-94.343 94.343-94.343s94.343 42.274 94.343 94.343a94.1 94.1 0 0 1-5.243 31.065l94.973 41.247a6.998 6.998 0 0 1 2.748 1.848l58.348 63.888a6.999 6.999 0 0 1-2.381 11.141l-54.135 23.508v63.959a7 7 0 0 1-4.212 6.42l-181.652 78.894a7.003 7.003 0 0 1-5.578 0L70.559 383.973a7 7 0 0 1-4.212-6.42zm8.798-85.404-48.366 52.959 168.106 72.997 48.341-52.98zm96.343-43.404-80.566 34.991 164.064 71.233 164.078-71.239-80.552-34.985c-15.807 29.983-47.289 50.441-83.512 50.441s-67.705-20.458-83.512-50.441zm143.627 169.348 168.106-72.997-48.358-52.951-168.081 72.977zM262 445.774l167.653-72.813v-53.288l-113.55 49.307a7.001 7.001 0 0 1-7.959-1.703L262 316.704zM80.347 319.685v53.276L248 445.774V316.716l-46.144 50.573a7 7 0 0 1-7.959 1.703zM255 60.554c-44.342 0-80.343 36-80.343 80.343 0 44.342 36.001 80.342 80.343 80.342s80.343-36 80.343-80.342c0-44.343-36.001-80.343-80.343-80.343zm-9.208 100.797c-4.678 7.999-13.359 13.377-23.286 13.377-14.878 0-26.956-12.078-26.956-26.955 0-14.878 12.078-26.956 26.956-26.956a26.851 26.851 0 0 1 17.869 6.78l25.357-16.729a20.905 20.905 0 0 1-.603-4.998c0-11.528 9.36-20.888 20.889-20.888 11.528 0 20.888 9.36 20.888 20.888 0 11.529-9.36 20.889-20.888 20.889a20.792 20.792 0 0 1-12.57-4.209l-25.355 16.727a26.89 26.89 0 0 1 1.369 8.496l-.001.068 31.853 8.651c3.378-4.4 8.691-7.238 14.662-7.238 10.196 0 18.474 8.278 18.474 18.474 0 10.197-8.278 18.475-18.474 18.475-9.427 0-17.214-7.076-18.336-16.201zm40.226-62.369c-3.802 0-6.889 3.086-6.889 6.888s3.087 6.889 6.889 6.889 6.888-3.087 6.888-6.889-3.086-6.888-6.888-6.888zm9.958 64.272a4.476 4.476 0 0 0-4.474 4.474 4.476 4.476 0 0 0 4.474 4.475 4.477 4.477 0 0 0 4.474-4.475 4.476 4.476 0 0 0-4.474-4.474zm-73.47-28.437c-7.151 0-12.956 5.805-12.956 12.956 0 7.15 5.805 12.955 12.956 12.955 7.15 0 12.956-5.805 12.956-12.955 0-7.151-5.806-12.956-12.956-12.956z" fill="#000000" opacity="1" data-original="#000000" class=""></path></g></svg>
