<svg width="64" height="64" viewBox="0 0 64 64" fill="none" xmlns="http://www.w3.org/2000/svg">
<path d="M2 4H61V63H11C6.02944 63 2 58.9706 2 54V4Z" fill="url(#paint0_linear_3940_8347)"/>
<rect x="17" y="6" width="42" height="54" fill="url(#paint1_linear_3940_8347)"/>
<ellipse cx="39.0085" cy="41.9489" rx="17.4226" ry="17.4226" fill="#3084F7"/>
<path d="M43.0653 31.0777L41.5823 33.4395C43.2244 34.0638 44.6458 35.1582 45.6689 36.5858C45.7858 36.755 45.8986 36.9242 46.0075 37.1015L46.0397 37.1498C46.1405 37.315 46.2332 37.4842 46.3218 37.6574C46.3218 37.6856 46.3541 37.7138 46.3661 37.742C46.4508 37.9032 46.5233 38.0683 46.5959 38.2335C46.6122 38.2762 46.6311 38.3179 46.6523 38.3584C46.7168 38.5155 46.7732 38.6767 46.8296 38.8378C46.8296 38.8902 46.8699 38.9426 46.886 38.999C46.9384 39.1561 46.9787 39.3132 47.019 39.4703C47.0402 39.5323 47.0577 39.5956 47.0714 39.6597C47.1117 39.8168 47.1399 39.9739 47.1682 40.131C47.1682 40.1995 47.1964 40.268 47.2084 40.3405C47.2367 40.5016 47.2528 40.6708 47.2689 40.836L47.2931 41.0374C47.2931 41.2711 47.3213 41.5088 47.3213 41.7465C47.3213 44.1088 46.3825 46.3744 44.7114 48.0448C43.0403 49.7153 40.7739 50.6537 38.4106 50.6537C37.8698 50.6539 37.3301 50.604 36.7985 50.5047C36.6293 50.4724 36.46 50.4362 36.2948 50.3959L36.2021 50.3757C36.0489 50.3355 35.8958 50.2911 35.7426 50.2428L35.6701 50.2227C35.317 50.1093 34.9712 49.9748 34.6343 49.8198L34.6787 49.8399L32.38 51.6154C22.7088 46.653 22.9101 30.9625 32.4777 25.8301C29.3546 27.0127 26.3333 29.459 24.5776 32.0861C22.6445 34.8084 21.678 37.9553 21.5916 41.2926C21.5051 44.6299 22.4146 47.9174 24.2042 50.736C25.9937 53.5547 28.5823 55.777 31.6399 57.1196L31.8213 57.1962L32.1356 57.3251L32.5387 57.4742L32.8409 57.5829L33.2439 57.7239L33.526 57.8126L33.9734 57.9415L34.2313 58.01L34.7149 58.1268L34.9447 58.1751L35.4686 58.2799H35.5371C36.2235 58.3994 36.9167 58.4761 37.6126 58.5095C37.8813 58.5256 38.15 58.5337 38.4187 58.5337C38.6806 58.5337 38.9426 58.5337 39.2005 58.5135L39.6035 58.4853L39.9179 58.4612C40.1033 58.4612 40.2927 58.4249 40.4781 58.4007H40.6111C40.8247 58.3725 41.0383 58.3403 41.2478 58.304C53.2215 54.4043 55.924 37.3803 43.0653 31.0777Z" fill="url(#paint2_linear_3940_8347)"/>
<path d="M27.5451 43.8594L30.332 43.9629C30.0517 42.2287 30.2887 40.4504 31.0135 38.8506C31.1016 38.6648 31.1917 38.4825 31.2908 38.2996L31.3165 38.2475C31.4092 38.0777 31.5094 37.9128 31.6151 37.7494C31.6395 37.7353 31.6478 37.6933 31.6662 37.6687C31.7634 37.5148 31.8702 37.3694 31.977 37.224C32.0058 37.1885 32.0324 37.1513 32.0569 37.1127C32.1607 36.9783 32.2721 36.8489 32.3834 36.7194C32.4288 36.6932 32.454 36.6322 32.4948 36.59C32.6046 36.4661 32.7206 36.3526 32.8365 36.2391C32.8796 36.1898 32.9256 36.143 32.9743 36.0991C33.0902 35.9856 33.2121 35.8826 33.3341 35.7796C33.3934 35.7454 33.4386 35.6867 33.4954 35.64C33.6208 35.535 33.7593 35.4364 33.8943 35.3399L34.0566 35.2182C34.259 35.1014 34.4507 34.9581 34.6566 34.8393C36.7024 33.6581 39.1339 33.3383 41.416 33.9503C43.6982 34.5623 45.6442 36.0559 46.8258 38.1025C47.0964 38.5708 47.323 39.0631 47.5027 39.5732C47.5595 39.7359 47.6127 39.9006 47.6604 40.0638L47.6893 40.1542C47.731 40.307 47.7692 40.4617 47.8039 40.6185L47.8227 40.6914C47.9011 41.0538 47.9576 41.4206 47.9917 41.7898L47.987 41.7414L50.6739 42.8444C51.212 53.7011 37.523 61.372 28.2943 55.6524C30.8801 57.7658 34.5093 59.1591 37.6623 59.3661C40.9865 59.6791 44.195 58.9426 47.1284 57.3488C50.0618 55.755 52.454 53.3237 54.0003 50.3645C55.5466 47.4054 56.1768 44.0525 55.8108 40.7332L55.7864 40.5378L55.7409 40.2011L55.6684 39.7776L55.6115 39.4614L55.5321 39.0419L55.4678 38.7533L55.3558 38.3014L55.2861 38.0438L55.1455 37.5666L55.0725 37.3434L54.9012 36.8373L54.867 36.778C54.6273 36.1238 54.3472 35.4851 54.0281 34.8657C53.9077 34.625 53.7803 34.3883 53.646 34.1556C53.515 33.9287 53.3841 33.7019 53.2376 33.4886L53.0117 33.1536L52.8336 32.8935C52.7409 32.7329 52.6148 32.587 52.5012 32.4386L52.4347 32.3234C52.3035 32.1525 52.1687 31.9836 52.0325 31.8203C42.6685 23.4007 26.574 29.5722 27.5451 43.8594Z" fill="url(#paint3_linear_3940_8347)"/>
<path d="M46.4169 50.9154L45.113 48.4502C43.7513 49.56 42.0928 50.2438 40.3449 50.4161C40.14 50.4327 39.937 50.4459 39.7291 50.4515L39.6711 50.4552C39.4777 50.4599 39.2848 50.4556 39.0904 50.4457C39.066 50.4316 39.0255 50.4454 38.995 50.4418C38.8131 50.4345 38.6338 50.4148 38.4545 50.395C38.4094 50.3878 38.3638 50.3833 38.3181 50.3814C38.1498 50.3587 37.9821 50.327 37.8143 50.2953C37.769 50.2691 37.7034 50.2778 37.6465 50.2636C37.4843 50.2304 37.3281 50.1867 37.1718 50.1431C37.1075 50.1304 37.044 50.114 36.9817 50.0938C36.8255 50.0501 36.6753 49.996 36.5251 49.9419C36.4658 49.9076 36.3924 49.8978 36.3235 49.872C36.1699 49.8159 36.0153 49.7453 35.8642 49.6766L35.6776 49.5969C35.4753 49.48 35.2553 49.3856 35.0495 49.2668C33.0037 48.0856 31.511 46.1398 30.8999 43.8574C30.2888 41.575 30.6093 39.1429 31.7909 37.0963C32.0612 36.6278 32.3742 36.1854 32.7261 35.7747C32.8386 35.6442 32.9546 35.5158 33.0721 35.3928L33.1359 35.3226C33.2474 35.2101 33.3624 35.0997 33.4808 34.9912L33.5345 34.9385C33.8092 34.6894 34.0986 34.4571 34.4013 34.2429L34.3617 34.2712L33.9735 31.3928C43.1066 25.4985 56.5943 33.518 56.2553 44.3701C56.7926 41.074 56.1847 37.2344 54.7875 34.4003C53.3964 31.365 51.1544 28.9546 48.3074 27.2111C45.4605 25.4676 42.1587 24.6115 38.8229 24.752C35.4871 24.8924 32.2682 26.023 29.5766 27.9997L29.4197 28.1185L29.1508 28.3263L28.8202 28.6008L28.5749 28.8082L28.2513 29.0867L28.0335 29.2867L27.6982 29.6097L27.5099 29.7988L27.1669 30.1592L27.0102 30.334L26.6575 30.7353L26.6233 30.7947C26.1765 31.3293 25.7635 31.8913 25.3866 32.4773C25.2383 32.7019 25.097 32.9306 24.9627 33.1633C24.8317 33.3901 24.7007 33.617 24.5892 33.8504L24.4121 34.2136L24.2759 34.4979C24.1832 34.6584 24.1199 34.8406 24.0481 35.0133L23.9816 35.1284C23.8992 35.3275 23.8203 35.5286 23.747 35.7282C21.1374 48.0475 34.5294 58.9 46.4169 50.9154Z" fill="url(#paint4_linear_3940_8347)"/>
<ellipse cx="39.009" cy="41.949" rx="11.2649" ry="11.2649" fill="#3084F7"/>
<path d="M49.1658 37.3271C50.2172 39.5177 50.5311 41.9891 50.0607 44.3725C49.5903 46.7558 48.3608 48.9235 46.5555 50.5522L46.3504 50.6136L46.1299 50.501V49.7995L46.6427 48.9394V48.5861L46.3555 48.499V48.2328L46.6888 47.8334L46.535 47.7054L46.2017 47.7925L45.9811 47.5928L45.4273 48.0126L45.1863 47.9L44.7401 48.1202L44.1914 47.7925V47.5057L43.7709 47.219V46.707L43.9914 46.6405L44.0375 46.4612L43.817 46.0465L44.1247 45.2734L44.7452 44.8996L44.9452 44.6795L44.8581 44.3723L45.0119 44.0599L45.3401 44.019L45.4068 43.7527L45.2991 43.4251H45.0786L44.9452 43.3124L45.0786 42.6724L44.9863 42.2986L45.1452 42.1246L45.894 42.2577L46.0068 42.0785L45.9145 41.5665L45.5196 41.3668L45.5658 41.1722H45.8735L45.9145 40.9725L46.2273 41.0391L46.7145 40.1584H46.9555L46.7812 39.4314L46.9555 39.3188L47.135 39.4519L47.2888 39.8052H47.3965V39.3444L47.0427 38.9911L46.5812 39.1652L46.4273 38.9911L46.535 38.7044L46.3811 38.0848L46.935 37.6906L47.135 37.1376L47.0017 36.4976L47.3299 36.344V36.1443L47.6171 36.0317L47.9965 36.5437L48.1709 36.4515L48.7709 37.4755L49.0581 37.2298L49.1658 37.3271ZM35.6785 46.1899L35.6375 46.3845H35.4118L35.0272 46.0875L34.3349 46.0209L34.3092 45.8315L34.781 45.7496L35.34 46.0363L35.6477 46.108L35.6785 46.1899ZM35.9913 46.2821L35.7657 46.4971V46.6917H35.9811L36.0939 46.8043L36.2529 46.7787L36.3349 46.6149H36.5657V46.3691L36.2169 46.2718L35.9913 46.2821ZM27.8887 39.8512C28.0857 38.9071 28.4064 37.993 28.8425 37.1325L28.8784 37.1018L29.2989 36.8919L29.7707 36.8509L29.9913 36.4413L30.1913 36.5181L30.381 36.3542H30.9349L31.1656 36.4976L31.0425 36.6922L31.1092 36.7946L31.2887 36.641L31.5759 36.6051L31.8272 36.8048L31.7041 36.3645L31.3861 36.431L31.34 36.2518L31.0784 36.175V36.0317L31.5195 35.9446L31.6067 35.7808L31.4425 35.7142L31.3554 35.8218L31.1861 35.8576L31.0682 35.7808L30.9656 35.535L30.9349 35.7142L30.6887 35.9139L30.5708 35.8013L30.6887 35.3507L31.099 34.9513L31.4887 34.9104L32.1041 35.3251L32.2579 34.7209L32.5144 34.6237V34.8541L32.3913 34.9667L32.4477 35.5146L32.6272 35.6016V35.791L32.4579 35.8474V36.0573L32.2272 36.1238L32.2733 36.385L32.5246 36.4515L32.8682 36.2006V35.8474L33.0221 35.7552L33.3297 35.9651L33.3964 35.8013L33.2015 35.5146L33.3862 35.1305L33.6169 35.0947L33.6631 35.6477L33.8067 36.0573L33.9195 36.0214V35.8218L34.0118 35.745H34.1195L34.1451 36.2211H34.2887L34.34 35.9139L34.4733 35.8678V35.5811L34.7144 35.5504L34.94 35.6272L35.0272 36.2774L34.7708 36.4618L34.6067 36.9174L34.8939 37.1274L34.9708 37.3987L34.7605 37.4551L34.5708 37.3219L34.5298 37.5114H34.1964L34.1298 37.3117L34.2323 37.1683V36.8919H34.1554L34.0272 37.3117L33.7041 37.5216L33.581 37.7981L33.3503 37.8647L33.2631 38.2128L33.0426 38.3818L33.0938 38.8221L33.2836 38.8784L33.4938 39.2829L33.8785 39.3956L34.2015 39.6925L34.3759 39.6157L34.6426 39.672V40.3428L34.9657 40.5527L35.1195 40.2762L35.0323 40.0663L35.0734 39.6925L35.3964 39.4468V38.9348L35.1759 38.904L35.0682 38.7044L35.2323 38.5507L35.2785 37.7315H35.9195L36.14 37.9517L36.3503 38.0285L36.417 38.4227L36.3041 38.5661L36.3605 38.7095H36.5503L36.7503 38.8068L36.9811 38.6429V38.2333H37.1657L37.3554 38.7197L37.6529 39.1037L37.5093 39.3239L37.8734 39.6772H38.1862L38.2272 39.9639L38.5503 40.1738L38.4067 40.6858V40.9623L38.7452 41.0084V41.2951L38.9657 41.4231L38.8631 41.6689L38.5093 41.6433L38.2682 41.4026L37.9041 41.4487V41.1825L38.1759 40.8189L38.1247 40.6756H37.9349L37.8682 40.8394H37.458V40.9725L37.5554 41.0391V41.1927H37.2939L37.1144 40.9265L36.6836 40.9623L36.4734 41.3258L36.1554 41.5101L36.2426 41.6023L36.7041 41.3821L36.817 41.162L37.017 41.1261L37.1349 41.5562H37.3041L37.4375 41.6996H37.7913L37.8221 41.8737L37.5452 42.1143H37.3144L37.0375 42.4164L36.8939 42.3038L37.0067 42.0273L36.8272 41.9966L36.7144 42.1604L36.54 42.1297L36.2631 42.4471V42.7543L35.7503 42.9745L35.4375 43.9985L34.8221 44.3211L34.6785 44.5515L34.8221 45.0635L35.0426 45.2836L34.9862 45.5243H34.7554L34.4323 45.084L34.2887 44.787L33.7041 44.8638L33.6477 45.0635H33.4374L33.3503 44.8587L33.0631 44.7819L32.7297 45.1454L32.6887 45.7956L32.899 46.3077L33.1759 46.4715H33.5041L33.581 46.1284L33.7503 45.9339L34.0477 46.108V46.8145H34.3092L34.6426 47.0245V47.5365L34.8733 47.7259H35.2631L35.4169 47.8334L35.5913 47.8898L36.0272 47.6235V47.4033L36.2221 47.3163L36.8118 47.7464L37.5708 47.6798V47.8693L37.9503 47.987L38.3811 48.3762L38.776 48.3301L39.2324 48.5861L39.3196 49.0981L39.8837 49.1544L40.2375 49.4104L40.6221 49.3541L40.8426 49.4514L41.3555 49.6408L41.3042 50.0811L40.7401 50.5215V50.885L40.3401 51.4687H39.8888L39.4785 51.7656L39.3349 52.1394L39.1144 52.1855L38.9708 52.4466L38.6836 52.3698L38.4631 52.7026H38.1093L37.5965 52.9637L37.3298 53.2863L36.9554 53.2607L36.6477 53.1532L36.6888 52.7999L36.4682 52.6463V52.4773L36.6118 52.3493V52.0728H36.5246V51.9704L36.6221 51.8271V51.1768L36.4887 50.9823L35.8169 50.6495L35.6272 50.1631L35.0528 49.5896L35.1759 49.2722L35.0631 48.9957L35.4836 48.6117V48.3454L35.2939 48.1253L34.7451 48.0587L34.3554 47.7515L34.181 47.4443L33.7605 47.1576L33.4272 47.132L33.1503 46.835L32.7861 46.8913L32.299 46.5841L31.7861 46.1643L31.7605 45.7137L31.3092 45.1608L30.899 44.5207L30.822 44.5771L30.9349 44.9969L31.3297 45.468L31.3861 45.7035L31.2323 45.7547L30.4528 44.5054L30.3861 43.9319L29.8118 43.3841L29.6682 42.6468L29.7451 41.3463L29.4784 41.0698L29.5143 40.5271L29.3041 40.4503V40.0663L29.0835 40.1021L28.8271 39.242L28.4733 39.2829L28.2528 39.6157L28.3194 39.9793L28.1451 40.056L28.022 39.6925L27.8887 39.8512ZM34.4887 34.1526L34.2323 34.4086L33.981 34.9206L34.2015 35.0742L34.1092 35.279L34.1349 35.3968L35.2169 35.4326L35.3759 35.2483L35.5605 35.3046V35.5146L35.5092 35.6989L35.5605 35.7398L35.8272 35.7091L35.8887 35.8269L35.8375 35.8934H35.499L35.4272 36.0163L35.4631 36.1853L35.5862 36.2672L35.7708 36.2262L35.9708 35.9907H36.0734V36.2416L35.9554 36.3082L35.8221 36.5232V36.7331L35.54 36.7792L35.3246 36.9328V37.0915L35.499 37.1581L35.6785 37.0608H35.9041L36.1708 37.4551L36.7862 37.793L36.9093 37.7623V37.6701L36.5708 37.3629L36.6016 37.2912L36.9298 37.4141L37.0375 37.5165L37.1657 37.4807V37.1376L36.8118 36.8048L36.699 36.4413L36.7708 36.3747L36.9708 36.559L36.9965 36.7331L37.2221 36.8611L37.3503 36.8253L37.5605 36.4054V36.2314L37.4734 36.1699L37.3965 36.2109L37.0631 35.8576L36.8323 35.7706L36.7759 35.6221L36.8682 35.5709H36.9503L36.8939 35.1101H36.7195L36.6529 34.9872H36.4734L36.3093 34.7056H36.0477L35.74 34.255L35.699 34.1065L35.4528 34.0451H35.1041L35.058 34.1577L34.8477 34.1168L34.781 34.2294L34.6836 34.0963L34.4887 34.1526ZM33.4938 34.2755V34.7875L33.6887 34.8233V34.68L33.94 34.5366V34.4445L34.0836 34.3984V34.2499H33.9554L33.8939 34.1731H33.7195L33.6887 34.2704L33.4938 34.2755ZM33.1861 34.3625L32.9195 34.5417L32.9554 34.7773L32.7195 34.8336V34.9821L32.9144 35.0793V35.2432L33.0067 35.2739L33.1297 35.1254L33.258 35.0589V34.7158L33.3195 34.6237V34.3881L33.1861 34.3625ZM32.4938 33.8198C32.4989 33.8743 32.4989 33.9291 32.4938 33.9836H32.5913L32.6272 34.1424L32.3656 34.3625H32.2221L32.1759 34.5008L31.9092 34.6544L31.6631 34.6288L31.6374 34.5213H31.4836L31.3349 34.3574V34.2857L31.5246 34.2089L31.8426 33.8812L32.1297 34.1373L32.2733 34.1117L32.3041 33.8403L32.4272 33.784L32.4938 33.8198ZM33.4785 33.4972L33.5297 33.702L33.7913 33.7481L33.8426 33.9069L33.7298 34.0604H33.581L33.4887 33.8812H33.3656V34.0502L33.2015 34.1219L33.0169 34.0963L32.9503 33.9785L32.8477 33.9529L32.8169 33.7635H33.0221L33.1041 33.6662H33.2477L33.34 33.5382L33.4785 33.4972ZM33.5554 32.8368C33.5913 32.8675 33.5913 32.8931 33.6272 32.9596L33.5913 33.1388L33.4631 33.1798L33.2682 33.0723V32.9392L33.4323 32.8368H33.5554ZM33.9451 32.7344C34.0097 32.8216 34.0696 32.9122 34.1246 33.0057V33.0979L33.9913 33.2105H33.8939L33.8169 33.0364V32.8009L33.9451 32.7344ZM34.0631 33.3385H34.2785V33.4768L34.2067 33.528V33.6252L34.4118 33.5945L34.4631 33.6764H34.7554L34.9862 33.446H35.3503L35.4221 33.7072L35.2118 33.8812H34.7246L34.3862 34.0349L34.0528 33.9939L33.9657 33.6201L33.7246 33.5177V33.3539L34.0631 33.3385ZM38.9708 30.9014C39.6902 30.9016 40.408 30.9702 41.1144 31.1062L41.458 31.6182L41.6221 31.7001L41.7555 31.4748L41.9862 31.5209V31.8383L42.1093 31.8844L42.2068 31.6438L42.8734 31.8076L42.9709 32.0636L42.6375 32.2172L42.5401 32.6473L43.0529 32.934L42.976 33.1286H42.7196V33.231L43.0273 33.5024L43.3914 33.6252L43.3247 33.8659L43.0375 33.7379L43.2273 33.9324L43.1709 34.1526H42.9606L42.8734 34.4496L43.017 34.4957L42.9503 34.9001L43.1042 34.9462L43.058 35.1664L43.1606 35.2637L42.9401 35.6835L42.6068 35.617L42.5401 35.8525L41.776 35.96L41.735 36.2365L41.2221 36.6205H40.7093V36.8099L40.6016 36.9277L40.7093 37.4039L40.4785 37.5319V37.9773L40.299 38.0285V38.305L40.1042 38.392L39.7913 38.0541L39.4939 38.0951L39.3965 37.7571L39.1606 37.7213L39.0529 37.2912L39.2067 36.9277L38.9503 37.0045L38.8631 36.4925H38.7195V35.832L39.0734 35.6886L39.176 35.1766L39.0119 35.2125V35.4326L38.7042 35.5094L38.5811 35.2995L38.6067 34.9667L38.7708 34.9155L38.9144 35.0435L39.058 34.9821L39.0272 34.7465L38.7811 34.6288L38.5144 34.7721L38.3965 34.552L38.5965 34.3728L38.4016 33.5843L37.8888 33.0723L36.8375 33.2259L36.7708 33.0211L36.5605 32.9648V32.7958H37.2118V32.5961H36.5811L36.5144 32.3503L36.8477 32.2531L37.0118 32.0892L37.3913 32.1199L37.4682 31.91L37.2221 31.823L37.2477 31.7001L37.5759 31.6489L37.8221 31.4697L37.7862 31.3468L37.1657 31.4134V31.5823L36.7144 31.9561L36.4375 32.0431L36.1503 32.463L36.2067 32.6064L35.8323 32.7497L35.74 32.8828L35.7759 33.1337L35.4323 33.2464L35.258 33.144L34.9657 33.19L34.8785 33.3129H34.5349L34.5041 33.1542L34.6477 33.0262L34.7041 32.7395L34.581 32.6473L34.5041 32.8572H34.2631L34.1298 32.5142L34.5554 32.0483L34.8426 32.1507L34.9964 32.038L34.94 31.8383L35.7144 31.5772L36.8631 31.2905L36.9913 31.0703C37.6365 30.9579 38.2902 30.9013 38.9452 30.9014H38.9708ZM44.2991 36.9072V37.1888H44.0068L43.7606 37.5319H43.5709L43.4016 37.3373L43.1862 37.3629L42.9606 37.0147L43.0786 36.9072L43.0273 36.7331L42.8683 36.815L42.7965 36.6973L43.0119 36.4413H43.1811L43.2375 36.641H43.7811L43.9093 36.4618L44.217 36.6358L44.2991 36.9072ZM45.2632 39.7488L45.3863 40.353L45.2888 40.5169L44.8581 40.6397L44.7555 40.4964L44.8888 40.2762V39.969L45.0427 39.9127V39.7591L45.2632 39.7488ZM45.6427 38.8426L45.6837 39.1959H45.8529V39.5952L46.0068 39.6823L45.9606 39.9024L46.2837 40.2557L46.2478 40.5322L46.0068 40.737L45.4632 40.9367L45.4068 40.7268L45.6324 40.5834L45.5504 40.3325L45.7606 40.1226L45.576 39.6925L45.1196 39.2061L45.1863 38.9296L45.6427 38.8426Z" fill="white"/>
<path d="M39.0793 53.5735C36.7933 53.5764 34.5579 52.9013 32.6558 51.6334C30.7537 50.3656 29.2704 48.5621 28.3936 46.451C27.5168 44.3399 27.2858 42.0162 27.73 39.7739C28.1741 37.5315 29.2734 35.4713 30.8887 33.8539C32.5041 32.2365 34.5629 31.1345 36.8047 30.6875C39.0464 30.2404 41.3704 30.4684 43.4826 31.3425C45.5948 32.2166 47.4003 33.6975 48.6706 35.598C49.9409 37.4985 50.6189 39.733 50.6189 42.0189C50.6163 45.08 49.4001 48.0152 47.237 50.1811C45.0739 52.347 42.1403 53.5669 39.0793 53.5735ZM39.0793 31.593C37.0142 31.593 34.9956 32.2053 33.2786 33.3526C31.5616 34.4998 30.2234 36.1305 29.4331 38.0383C28.6429 39.9461 28.4361 42.0454 28.839 44.0707C29.2419 46.0961 30.2363 47.9565 31.6964 49.4166C33.1566 50.8768 35.017 51.8712 37.0423 52.2741C39.0677 52.677 41.167 52.4702 43.0748 51.6799C44.9826 50.8897 46.6133 49.5515 47.7605 47.8345C48.9078 46.1175 49.5201 44.0988 49.5201 42.0338C49.5201 39.2647 48.4201 36.6091 46.4621 34.651C44.504 32.693 41.8483 31.593 39.0793 31.593Z" fill="white"/>
<path d="M2 4C2 4 4 -9.22228e-10 9.5 0C15 9.22228e-10 17 4 17 4V53.5C17 53.5 15 50 9.5 50C4 50 2 53.5 2 53.5L2 4Z" fill="#E6E6E6"/>
<path fill-rule="evenodd" clip-rule="evenodd" d="M2 4C2 4 4 0 9.5 0C15 0 17 4 17 4H61V63H11C6.02944 63 2 58.9706 2 54V4ZM17 6V53.5C17 53.5 16.4129 52.4725 15 51.531C13.8052 50.7348 12.02 50 9.5 50C6.98001 50 5.19477 50.7348 4 51.531V54C4 57.866 7.13401 61 11 61H59V6H17ZM9.5 48C7.216 48 5.3998 48.5225 4 49.2234V4.57327L4.01445 4.55334C4.211 4.28379 4.52618 3.90843 4.97577 3.52982C5.85217 2.79181 7.2823 2 9.5 2C11.7177 2 13.1478 2.79181 14.0242 3.52982C14.4738 3.90843 14.789 4.28379 14.9855 4.55334L15 4.57327V49.2234C13.6002 48.5225 11.784 48 9.5 48Z" fill="#9A9A9A"/>
<defs>
<linearGradient id="paint0_linear_3940_8347" x1="3.43902" y1="63" x2="18.5" y2="63" gradientUnits="userSpaceOnUse">
<stop stop-color="#B7B7B7"/>
<stop offset="1" stop-color="#D2D2D2"/>
</linearGradient>
<linearGradient id="paint1_linear_3940_8347" x1="18.0244" y1="60" x2="56.9512" y2="60" gradientUnits="userSpaceOnUse">
<stop stop-color="#D1D1D1"/>
<stop offset="1" stop-color="#E6E6E6"/>
</linearGradient>
<linearGradient id="paint2_linear_3940_8347" x1="32.054" y1="26.4821" x2="36.3521" y2="54.2671" gradientUnits="userSpaceOnUse">
<stop stop-color="#0055C9"/>
<stop offset="0.932141" stop-color="#0055C9" stop-opacity="0"/>
</linearGradient>
<linearGradient id="paint3_linear_3940_8347" x1="29.8806" y1="57.0895" x2="50.1409" y2="37.6264" gradientUnits="userSpaceOnUse">
<stop stop-color="#0055C9"/>
<stop offset="0.932141" stop-color="#0055C9" stop-opacity="0"/>
</linearGradient>
<linearGradient id="paint4_linear_3940_8347" x1="56.2872" y1="42.7093" x2="29.9695" y2="33.9545" gradientUnits="userSpaceOnUse">
<stop stop-color="#37FFFF"/>
<stop offset="0.932141" stop-color="#2EE6FF" stop-opacity="0"/>
</linearGradient>
</defs>
</svg>
