<svg width="512" height="512" viewBox="0 0 512 512" fill="none" xmlns="http://www.w3.org/2000/svg">
<circle cx="256.122" cy="255.273" r="247.788" fill="#3084F7"/>
<path d="M313.819 100.664L292.727 134.253C316.08 143.133 336.297 158.698 350.848 179.001C352.51 181.408 354.115 183.814 355.662 186.335L356.121 187.023C357.554 189.372 358.872 191.778 360.133 194.242C360.133 194.643 360.592 195.044 360.764 195.445C361.967 197.737 362.999 200.086 364.031 202.435C364.264 203.042 364.532 203.635 364.833 204.211C365.75 206.446 366.553 208.738 367.355 211.03C367.355 211.774 367.928 212.519 368.158 213.321C368.903 215.556 369.476 217.791 370.049 220.025C370.35 220.907 370.599 221.806 370.794 222.718C371.367 224.953 371.769 227.187 372.17 229.422C372.17 230.396 372.571 231.37 372.743 232.401C373.144 234.693 373.374 237.099 373.603 239.448L373.947 242.313C373.947 245.636 374.348 249.017 374.348 252.397C374.348 285.995 360.996 318.217 337.23 341.974C313.463 365.731 281.229 379.078 247.618 379.078C239.927 379.081 232.252 378.371 224.691 376.958C222.284 376.5 219.876 375.984 217.526 375.411L216.208 375.125C214.03 374.552 211.852 373.921 209.674 373.234L208.642 372.947C203.621 371.336 198.702 369.423 193.911 367.218L194.542 367.504L161.849 392.755C24.3037 322.179 27.1667 99.0255 163.239 26.0308C118.822 42.8507 75.8522 77.6424 50.8815 115.006C23.3887 153.723 9.6438 198.479 8.41418 245.942C7.18455 293.406 20.1197 340.161 45.5709 380.249C71.0222 420.337 107.837 451.942 151.324 471.038L153.903 472.126L158.374 473.96L164.106 476.08L168.405 477.627L174.137 479.632L178.149 480.893L184.511 482.726L188.18 483.7L195.058 485.362L198.325 486.049L205.776 487.539H206.751C216.513 489.24 226.371 490.33 236.269 490.805C240.09 491.034 243.912 491.149 247.733 491.149C251.458 491.149 255.184 491.149 258.852 490.862L264.584 490.461L269.055 490.117C271.692 490.117 274.386 489.602 277.022 489.258H278.914C281.952 488.857 284.99 488.398 287.97 487.883C458.261 432.42 496.697 190.3 313.819 100.664Z" fill="url(#paint0_linear_3940_8683)"/>
<path d="M93.0871 282.446L132.722 283.917C128.736 259.252 132.107 233.962 142.415 211.209C143.668 208.566 144.949 205.973 146.359 203.372L146.725 202.632C148.043 200.216 149.468 197.871 150.971 195.547C151.318 195.347 151.436 194.749 151.698 194.4C153.081 192.211 154.599 190.143 156.118 188.075C156.527 187.57 156.907 187.041 157.255 186.492C158.731 184.581 160.315 182.74 161.898 180.899C162.543 180.526 162.902 179.658 163.482 179.058C165.045 177.295 166.693 175.682 168.342 174.068C168.955 173.366 169.609 172.701 170.301 172.076C171.95 170.463 173.684 168.998 175.419 167.533C176.262 167.046 176.905 166.212 177.713 165.547C179.497 164.054 181.466 162.652 183.386 161.279L185.695 159.549C188.573 157.887 191.3 155.849 194.227 154.159C223.324 137.36 257.905 132.812 290.362 141.516C322.82 150.22 350.496 171.462 367.301 200.57C371.149 207.23 374.372 214.231 376.929 221.485C377.736 223.799 378.493 226.142 379.171 228.464L379.582 229.749C380.175 231.922 380.718 234.123 381.212 236.353L381.48 237.39C382.595 242.544 383.398 247.761 383.883 253.012L383.816 252.322L422.03 268.01C429.682 422.416 234.994 531.513 103.743 450.168C140.518 480.225 192.133 500.042 236.976 502.985C284.253 507.436 329.885 496.961 371.604 474.295C413.324 451.628 447.347 417.048 469.339 374.963C491.33 332.877 500.294 285.192 495.088 237.983L494.741 235.205L494.093 230.417L493.063 224.393L492.253 219.896L491.124 213.93L490.21 209.825L488.616 203.398L487.626 199.734L485.626 192.947L484.588 189.774L482.152 182.576L481.665 181.732C478.257 172.427 474.272 163.344 469.734 154.535C468.022 151.111 466.21 147.745 464.3 144.436C462.437 141.209 460.574 137.982 458.492 134.949L455.279 130.185L452.745 126.486C451.427 124.202 449.634 122.127 448.018 120.015L447.072 118.377C445.206 115.947 443.29 113.545 441.353 111.222C308.175 -8.52358 79.2751 79.25 93.0871 282.446Z" fill="url(#paint1_linear_3940_8683)"/>
<path d="M361.471 382.8L342.927 347.74C323.561 363.524 299.973 373.249 275.114 375.699C272.199 375.936 269.313 376.122 266.356 376.202L265.531 376.255C262.78 376.322 260.037 376.26 257.273 376.121C256.925 375.92 256.349 376.117 255.916 376.065C253.329 375.961 250.779 375.68 248.228 375.399C247.586 375.297 246.939 375.233 246.289 375.206C243.895 374.883 241.509 374.432 239.123 373.981C238.478 373.609 237.547 373.733 236.737 373.53C234.43 373.058 232.208 372.437 229.986 371.816C229.071 371.636 228.168 371.402 227.281 371.115C225.06 370.494 222.924 369.725 220.788 368.955C219.944 368.468 218.9 368.328 217.921 367.962C215.736 367.163 213.537 366.158 211.388 365.182L208.735 364.048C205.857 362.386 202.729 361.043 199.802 359.353C170.705 342.554 149.476 314.88 140.785 282.419C132.094 249.958 136.652 215.369 153.458 186.262C157.301 179.599 161.753 173.307 166.757 167.466C168.358 165.61 170.008 163.783 171.679 162.035L172.587 161.036C174.172 159.436 175.807 157.865 177.491 156.323L178.255 155.573C182.161 152.03 186.278 148.726 190.582 145.68L190.019 146.083L184.498 105.145C314.391 21.3152 506.216 135.371 501.395 289.711C509.037 242.834 500.392 188.226 480.519 147.919C460.736 104.751 428.848 70.4694 388.359 45.6727C347.869 20.876 300.91 8.70072 253.467 10.6982C206.025 12.6957 160.246 28.7756 121.965 56.8888L119.733 58.5781L115.91 61.5332L111.208 65.4371L107.719 68.3865L103.116 72.3477L100.018 75.1922L95.2494 79.7853L92.5716 82.4753L87.6937 87.6011L85.4645 90.0867L80.4488 95.795L79.9616 96.6388C73.6077 104.243 67.7338 112.235 62.374 120.57C60.2649 123.764 58.2551 127.016 56.3445 130.326C54.4816 133.552 52.6187 136.779 51.0327 140.099L48.5141 145.263L46.5765 149.307C45.2581 151.59 44.3577 154.181 43.3371 156.636L42.3914 158.274C41.2198 161.106 40.0979 163.966 39.0542 166.805C1.94022 342.013 192.404 496.359 361.471 382.8Z" fill="url(#paint2_linear_3940_8683)"/>
<circle cx="256.122" cy="255.273" r="160.212" fill="#3084F7"/>
<path d="M400.579 189.539C415.532 220.696 419.997 255.844 413.306 289.741C406.616 323.638 389.129 354.467 363.455 377.63L360.537 378.504L357.401 376.902V366.926L364.695 354.692V349.668L360.61 348.43V344.643L365.351 338.963L363.163 337.143L358.422 338.381L355.286 335.541L347.409 341.512L343.981 339.91L337.636 343.041L329.832 338.381V334.303L323.851 330.225V322.943L326.987 321.997L327.644 319.448L324.507 313.55L328.883 302.554L337.709 297.238L340.553 294.107L339.313 289.738L341.501 285.296L346.169 284.713L347.117 280.927L345.586 276.267H342.449L340.553 274.664L342.449 265.562L341.137 260.246L343.398 257.77L354.046 259.664L355.651 257.115L354.338 249.833L348.722 246.993L349.378 244.226H353.754L354.338 241.386L358.787 242.333L365.716 229.808H369.144L366.664 219.468L369.144 217.866L371.696 219.759L373.884 224.784H375.416V218.23L370.384 213.205L363.82 215.681L361.631 213.205L363.163 209.128L360.975 200.317L368.852 194.71L371.696 186.845L369.8 177.743L374.468 175.558V172.718L378.552 171.116L383.949 178.398L386.429 177.087L394.963 191.651L399.047 188.156L400.579 189.539ZM208.759 315.589L208.176 318.356H204.967L199.497 314.132L189.65 313.186L189.285 310.491L195.996 309.326L203.946 313.404L208.322 314.424L208.759 315.589ZM213.208 316.899L209.999 319.958V322.725H213.062L214.667 324.327L216.928 323.963L218.095 321.633H221.377V318.137L216.417 316.754L213.208 316.899ZM97.9707 225.439C100.773 212.011 105.334 199.011 111.537 186.772L112.047 186.335L118.028 183.35L124.738 182.767L127.874 176.942L130.719 178.034L133.417 175.704H141.294L144.576 177.743L142.826 180.51L143.774 181.966L146.327 179.782L150.411 179.272L153.985 182.112L152.234 175.849L147.713 176.796L147.056 174.248L143.336 173.155V171.116L149.609 169.878L150.849 167.548L148.515 166.602L147.275 168.131L144.868 168.64L143.191 167.548L141.732 164.053L141.294 166.602L137.793 169.441L136.116 167.839L137.793 161.431L143.628 155.751L149.171 155.169L157.923 161.067L160.111 152.475L163.758 151.091V154.368L162.008 155.97L162.81 163.762L165.363 165V167.694L162.956 168.495V171.48L159.674 172.427L160.33 176.141L163.904 177.087L168.791 173.519V168.495L170.979 167.184L175.355 170.17L176.303 167.839L173.531 163.762L176.157 158.3L179.439 157.79L180.096 165.655L182.138 171.48L183.743 170.971V168.131L185.055 167.038H186.587L186.952 173.811H188.994L189.723 169.441L191.619 168.786V164.708L195.047 164.271L198.257 165.364L199.497 174.612L195.85 177.233L193.516 183.714L197.6 186.699L198.694 190.559L195.704 191.36L193.005 189.467L192.422 192.161H187.681L186.733 189.321L188.191 187.282V183.35H187.097L185.274 189.321L180.679 192.307L178.929 196.239L175.647 197.185L174.407 202.137L171.27 204.54L172 210.802L174.698 211.603L177.689 217.356L183.159 218.958L187.754 223.182L190.234 222.089L194.026 222.89V232.43L198.621 235.415L200.809 231.483L199.569 228.497L200.153 223.182L204.748 219.686V212.404L201.612 211.968L200.08 209.128L202.414 206.943L203.07 195.292H212.187L215.323 198.423L218.314 199.516L219.262 205.123L217.657 207.161L218.46 209.2H221.158L224.003 210.584L227.285 208.254V202.428H229.91L232.609 209.346L236.839 214.807L234.797 217.939L239.975 222.963H244.424L245.008 227.041L249.603 230.027L247.561 237.308V241.241L252.375 241.896V245.974L255.511 247.794L254.052 251.29L249.019 250.926L245.591 247.503L240.413 248.158V244.372L244.279 239.202L243.549 237.163H240.851L239.902 239.493H234.068V241.386L235.454 242.333V244.518H231.734L229.181 240.731L223.054 241.241L220.064 246.411L215.542 249.032L216.782 250.343L223.346 247.212L224.951 244.081L227.795 243.571L229.473 249.688H231.88L233.776 251.727H238.809L239.246 254.202L235.308 257.625H232.026L228.087 261.921L226.045 260.319L227.649 256.387L225.097 255.95L223.492 258.28L221.012 257.843L217.074 262.358V266.727L209.78 269.858L205.331 284.422L196.579 289.01L194.537 292.287L196.579 299.568L199.715 302.7L198.913 306.122H195.631L191.036 299.86L188.994 295.636L180.679 296.729L179.877 299.568H176.887L175.647 296.656L171.562 295.563L166.822 300.734L166.238 309.982L169.228 317.263L173.167 319.594H177.835L178.929 314.715L181.336 311.948L185.566 314.424V324.472H189.285L194.026 327.458V334.74L197.308 337.434H202.852L205.039 338.963L207.519 339.764L213.719 335.978V332.847L216.49 331.609L224.878 337.726L235.672 336.779V339.473L241.069 341.148L247.196 346.682L252.812 346.027L259.303 349.668L260.543 356.95L268.566 357.751L273.599 361.392L279.069 360.591L282.205 361.974L289.499 364.668L288.769 370.931L280.746 377.193V382.363L275.057 390.665H268.639L262.804 394.888L260.762 400.204L257.626 400.859L255.584 404.573L251.499 403.481L248.363 408.214H243.33L236.037 411.928L232.244 416.515L226.92 416.151L222.544 414.622L223.127 409.598L219.991 407.413V405.01L222.034 403.189V399.257H220.794V397.801L222.179 395.762V386.514L220.283 383.747L210.728 379.014L208.03 372.096L199.861 363.94L201.612 359.425L200.007 355.493L205.988 350.032V346.245L203.289 343.114L195.485 342.167L189.942 337.798L187.462 333.429L181.482 329.351L176.741 328.987L172.802 324.764L167.624 325.565L160.695 321.196L153.401 315.225L153.037 308.816L146.619 300.952L140.784 291.85L139.69 292.651L141.294 298.622L146.91 305.321L147.713 308.671L145.524 309.399L134.438 291.631L133.49 283.476L125.321 275.684L123.279 265.198L124.373 246.702L120.581 242.77L121.091 235.051L118.101 233.959V228.497L114.965 229.007L111.318 216.774L106.285 217.356L103.149 222.089L104.097 227.26L101.617 228.352L99.8671 223.182L97.9707 225.439ZM191.838 144.392L188.191 148.033L184.618 155.315L187.754 157.499L186.441 160.412L186.806 162.087L202.195 162.596L204.456 159.975L207.082 160.776V163.762L206.352 166.383L207.082 166.966L210.874 166.529L211.75 168.204L211.02 169.15H206.206L205.186 170.898L205.696 173.301L207.446 174.466L210.072 173.883L212.917 170.534H214.375V174.102L212.698 175.049L210.801 178.107V181.092L206.79 181.748L203.727 183.932V186.19L206.206 187.136L208.759 185.753H211.968L215.761 191.36L224.513 196.166L226.264 195.729V194.418L221.45 190.049L221.887 189.03L226.555 190.777L228.087 192.234L229.91 191.724V186.845L224.878 182.112L223.273 176.942L224.294 175.995L227.139 178.617L227.504 181.092L230.713 182.913L232.536 182.403L235.526 176.432V173.956L234.287 173.082L233.193 173.665L228.452 168.64L225.17 167.403L224.367 165.291L225.68 164.563H226.847L226.045 158.009H223.565L222.617 156.261H220.064L217.73 152.256H214.011L209.634 145.848L209.051 143.736L205.55 142.863H200.591L199.934 144.465L196.944 143.882L195.996 145.484L194.61 143.591L191.838 144.392ZM177.689 146.139V153.421L180.46 153.931V151.892L184.034 149.853V148.542L186.076 147.887V145.775H184.253L183.378 144.683H180.898L180.46 146.067L177.689 146.139ZM173.313 147.377L169.52 149.926L170.031 153.276L166.676 154.077V156.188L169.447 157.572V159.902L170.76 160.339L172.51 158.227L174.334 157.281V152.402L175.209 151.091V147.741L173.313 147.377ZM163.467 139.659C163.538 140.434 163.538 141.214 163.467 141.989H164.852L165.363 144.246L161.643 147.377H159.601L158.944 149.343L155.152 151.528L151.651 151.164L151.286 149.635H149.098L146.983 147.304V146.285L149.682 145.193L154.204 140.532L158.288 144.173L160.33 143.809L160.768 139.95L162.518 139.149L163.467 139.659ZM177.47 135.071L178.199 137.984L181.919 138.639L182.648 140.897L181.044 143.081H178.929L177.616 140.532H175.865V142.935L173.531 143.955L170.906 143.591L169.958 141.916L168.499 141.552L168.061 138.858H170.979L172.146 137.474H174.188L175.501 135.654L177.47 135.071ZM178.564 125.677C179.075 126.114 179.075 126.478 179.585 127.425L179.075 129.974L177.251 130.556L174.48 129.027V127.134L176.814 125.677H178.564ZM184.107 124.221C185.025 125.462 185.877 126.75 186.66 128.08V129.391L184.764 130.993H183.378L182.284 128.517V125.168L184.107 124.221ZM185.785 132.814H188.848V134.78L187.827 135.508V136.891L190.744 136.455L191.474 137.62H195.631L198.913 134.343H204.091L205.112 138.057L202.122 140.532H195.193L190.38 142.717L185.639 142.134L184.399 136.819L180.971 135.362V133.032L185.785 132.814ZM255.584 98.1519C265.815 98.1549 276.024 99.1303 286.071 101.065L290.957 108.347L293.291 109.512L295.187 106.308L298.469 106.963V111.478L300.22 112.133L301.606 108.711L311.087 111.041L312.473 114.682L307.732 116.866L306.347 122.983L313.64 127.061L312.546 129.828H308.899V131.284L313.275 135.144L318.454 136.891L317.506 140.314L313.421 138.493L316.12 141.261L315.317 144.392H312.327L311.087 148.615L313.129 149.271L312.181 155.023L314.369 155.679L313.713 158.81L315.172 160.193L312.035 166.165L307.295 165.218L306.347 168.568L295.479 170.097L294.896 174.029L287.602 179.49H280.309V182.185L278.777 183.86L280.309 190.632L277.026 192.452V198.787L274.474 199.516V203.448L271.702 204.686L267.253 199.88L263.023 200.462L261.637 195.656L258.282 195.146L256.751 189.03L258.939 183.86L255.292 184.952L254.052 177.67H252.01V168.276L257.042 166.237L258.501 158.956L256.167 159.465V162.596L251.791 163.689L250.041 160.703L250.405 155.97L252.739 155.242L254.781 157.062L256.824 156.188L256.386 152.839L252.885 151.164L249.092 153.203L247.415 150.072L250.259 147.523L247.488 136.309L240.194 129.027L225.243 131.212L224.294 128.299L221.304 127.498V125.095H230.567V122.255H221.596L220.648 118.76L225.388 117.376L227.722 115.046L233.12 115.483L234.214 112.497L230.713 111.259L231.077 109.512L235.745 108.783L239.246 106.235L238.736 104.487L229.91 105.434V107.837L223.492 113.153L219.554 114.391L215.469 120.362L216.272 122.401L210.947 124.439L209.634 126.333L210.145 129.901L205.258 131.503L202.779 130.046L198.621 130.702L197.381 132.45H192.495L192.057 130.192L194.099 128.372L194.902 124.294L193.151 122.983L192.057 125.969H188.629L186.733 121.09L192.786 114.463L196.871 115.92L199.059 114.318L198.257 111.478L209.27 107.764L225.607 103.686L227.431 100.555C236.607 98.9552 245.904 98.1512 255.219 98.1519H255.584ZM331.363 183.568V187.573H327.206L323.705 192.452H321.006L318.6 189.685L315.536 190.049L312.327 185.097L314.005 183.568L313.275 181.092L311.014 182.258L309.993 180.583L313.056 176.942H315.463L316.266 179.782H323.997L325.82 177.233L330.196 179.709L331.363 183.568ZM345.075 223.983L346.825 232.575L345.44 234.905L339.313 236.653L337.855 234.614L339.751 231.483V227.114L341.939 226.313V224.128L345.075 223.983ZM350.472 211.094L351.056 216.118H353.463V221.798L355.651 223.036L354.994 226.167L359.589 231.192L359.079 235.124L355.651 238.037L347.919 240.877L347.117 237.891L350.326 235.852L349.159 232.284L352.15 229.298L349.524 223.182L343.033 216.264L343.981 212.332L350.472 211.094Z" fill="white"/>
<path d="M257.116 420.6C224.605 420.642 192.813 411.039 165.761 393.008C138.709 374.977 117.613 349.326 105.142 319.302C92.672 289.278 89.3873 256.23 95.7041 224.339C102.021 192.448 117.655 163.147 140.629 140.143C163.603 117.14 192.883 101.468 224.766 95.1097C256.649 88.7518 289.702 91.9936 319.742 104.425C349.782 116.857 375.46 137.92 393.526 164.948C411.592 191.977 421.236 223.757 421.236 256.268C421.198 299.803 403.902 341.548 373.138 372.352C342.374 403.156 300.651 420.506 257.116 420.6ZM257.116 107.988C227.747 107.988 199.038 116.697 174.618 133.013C150.199 149.33 131.166 172.521 119.927 199.655C108.688 226.788 105.747 256.645 111.477 285.45C117.207 314.254 131.349 340.713 152.116 361.48C172.883 382.247 199.342 396.39 228.147 402.119C256.951 407.849 286.808 404.908 313.942 393.669C341.075 382.43 364.266 363.398 380.583 338.978C396.9 314.559 405.609 285.849 405.609 256.48C405.609 217.098 389.964 179.328 362.116 151.48C334.268 123.632 296.499 107.988 257.116 107.988Z" fill="white"/>
<defs>
<linearGradient id="paint0_linear_3940_8683" x1="157.213" y1="35.3035" x2="218.342" y2="430.468" gradientUnits="userSpaceOnUse">
<stop stop-color="#0055C9"/>
<stop offset="0.932141" stop-color="#0055C9" stop-opacity="0"/>
</linearGradient>
<linearGradient id="paint1_linear_3940_8683" x1="126.303" y1="470.606" x2="414.449" y2="193.798" gradientUnits="userSpaceOnUse">
<stop stop-color="#0055C9"/>
<stop offset="0.932141" stop-color="#0055C9" stop-opacity="0"/>
</linearGradient>
<linearGradient id="paint2_linear_3940_8683" x1="501.849" y1="266.091" x2="127.553" y2="141.579" gradientUnits="userSpaceOnUse">
<stop stop-color="#37FFFF"/>
<stop offset="0.932141" stop-color="#2EE6FF" stop-opacity="0"/>
</linearGradient>
</defs>
</svg>
