<svg width="64" height="64" viewBox="0 0 64 64" fill="none" xmlns="http://www.w3.org/2000/svg">
<circle cx="32.0145" cy="31.909" r="30.9735" fill="#3084F7"/>
<path d="M39.2266 12.583L36.5902 16.7817C39.5093 17.8917 42.0363 19.8373 43.8552 22.3752C44.063 22.676 44.2636 22.9768 44.4571 23.292L44.5144 23.3779C44.6935 23.6715 44.8583 23.9723 45.0159 24.2803C45.0159 24.3304 45.0732 24.3806 45.0947 24.4307C45.2452 24.7172 45.3742 25.0108 45.5031 25.3045C45.5322 25.3804 45.5657 25.4545 45.6034 25.5265C45.7181 25.8058 45.8184 26.0923 45.9187 26.3788C45.9187 26.4719 45.9903 26.565 46.019 26.6652C46.1121 26.9446 46.1838 27.2239 46.2554 27.5032C46.2931 27.6135 46.3242 27.7259 46.3486 27.8398C46.4202 28.1191 46.4704 28.3984 46.5205 28.6778C46.5205 28.7995 46.5707 28.9213 46.5921 29.0502C46.6423 29.3367 46.671 29.6375 46.6996 29.9311L46.7426 30.2892C46.7426 30.7046 46.7928 31.1271 46.7928 31.5497C46.7928 35.7494 45.1238 39.7772 42.153 42.7468C39.1822 45.7165 35.1529 47.3848 30.9515 47.3848C29.9901 47.3852 29.0307 47.2965 28.0856 47.1198C27.7847 47.0625 27.4838 46.9981 27.1901 46.9265L27.0253 46.8906C26.753 46.819 26.4808 46.7402 26.2085 46.6543L26.0795 46.6185C25.4519 46.417 24.837 46.1779 24.2382 45.9023L24.317 45.9381L20.2304 49.0944C3.03723 40.2724 3.39511 12.3783 20.4042 3.25391C14.852 5.3564 9.48079 9.70536 6.35946 14.3758C2.92285 19.2154 1.20474 24.8099 1.05104 30.7429C0.897337 36.6758 2.51423 42.5202 5.69563 47.5312C8.87704 52.5421 13.4789 56.4928 18.9148 58.8798L19.2372 59.0159L19.796 59.245L20.5125 59.51L21.0499 59.7034L21.7663 59.9541L22.2679 60.1116L23.0632 60.3408L23.5217 60.4626L24.3815 60.6703L24.7899 60.7562L25.7213 60.9424H25.8431C27.0633 61.155 28.2957 61.2914 29.5329 61.3507C30.0106 61.3793 30.4882 61.3936 30.9659 61.3936C31.4316 61.3936 31.8973 61.3936 32.3558 61.3578L33.0723 61.3077L33.6311 61.2647C33.9607 61.2647 34.2975 61.2003 34.6271 61.1573H34.8635C35.2432 61.1072 35.623 61.0498 35.9955 60.9854C57.2819 54.0526 62.0864 23.7876 39.2266 12.583Z" fill="url(#paint0_linear_3940_8771)"/>
<path d="M11.6369 35.3058L16.5912 35.4896C16.093 32.4066 16.5144 29.2453 17.8028 26.4012C17.9594 26.0708 18.1196 25.7467 18.2958 25.4216L18.3416 25.329C18.5063 25.0271 18.6844 24.7339 18.8723 24.4435C18.9158 24.4184 18.9305 24.3437 18.9632 24.3C19.1361 24.0265 19.3259 23.768 19.5157 23.5094C19.5669 23.4463 19.6143 23.3802 19.6578 23.3116C19.8424 23.0726 20.0403 22.8425 20.2383 22.6124C20.3189 22.5659 20.3637 22.4573 20.4362 22.3823C20.6316 22.162 20.8376 21.9603 21.0437 21.7586C21.1204 21.6708 21.2021 21.5877 21.2886 21.5096C21.4947 21.3079 21.7115 21.1248 21.9283 20.9417C22.0338 20.8808 22.1142 20.7765 22.215 20.6935C22.4381 20.5068 22.6842 20.3316 22.9242 20.1599L23.2128 19.9436C23.5726 19.7359 23.9135 19.4812 24.2794 19.27C27.9165 17.1701 32.2391 16.6016 36.2963 17.6896C40.3535 18.7775 43.8129 21.4328 45.9136 25.0713C46.3946 25.9038 46.7975 26.779 47.1171 27.6857C47.2179 27.975 47.3126 28.2678 47.3974 28.558L47.4488 28.7187C47.5229 28.9902 47.5908 29.2654 47.6525 29.5442L47.686 29.6738C47.8253 30.318 47.9257 30.9701 47.9864 31.6265L47.978 31.5404L52.7547 33.5013C53.7113 52.802 29.3753 66.4392 12.9688 56.271C17.5657 60.0281 24.0176 62.5053 29.623 62.8732C35.5326 63.4296 41.2366 62.1202 46.4515 59.2869C51.6665 56.4535 55.9194 52.1311 58.6683 46.8704C61.4173 41.6097 62.5377 35.649 61.8869 29.748L61.8436 29.4007L61.7626 28.8021L61.6339 28.0492L61.5327 27.4871L61.3915 26.7413L61.2772 26.2282L61.078 25.4248L60.9542 24.9669L60.7042 24.1184L60.5744 23.7218L60.27 22.822L60.2091 22.7166C59.7831 21.5535 59.285 20.4181 58.7177 19.317C58.5037 18.889 58.2773 18.4682 58.0384 18.0545C57.8056 17.6512 57.5727 17.2479 57.3125 16.8687L56.9108 16.2732L56.5942 15.8108C56.4294 15.5253 56.2052 15.2659 56.0032 15.002L55.885 14.7972C55.6517 14.4934 55.4122 14.1932 55.1701 13.9028C38.5229 -1.06539 9.91036 9.90631 11.6369 35.3058Z" fill="url(#paint1_linear_3940_8771)"/>
<path d="M45.1834 47.8499L42.8654 43.4674C40.4446 45.4404 37.4962 46.6561 34.3888 46.9624C34.0244 46.9919 33.6636 47.0152 33.294 47.0252L33.1909 47.0319C32.847 47.0402 32.5041 47.0325 32.1586 47.015C32.1152 46.9899 32.0431 47.0145 31.989 47.0081C31.6656 46.9951 31.3469 46.96 31.0281 46.9249C30.9478 46.9121 30.8669 46.904 30.7856 46.9007C30.4864 46.8603 30.1882 46.804 29.8899 46.7476C29.8093 46.701 29.6928 46.7165 29.5917 46.6912C29.3032 46.6322 29.0255 46.5546 28.7478 46.477C28.6334 46.4545 28.5205 46.4252 28.4097 46.3893C28.132 46.3117 27.865 46.2155 27.598 46.1193C27.4926 46.0584 27.3621 46.041 27.2397 45.9951C26.9665 45.8953 26.6917 45.7698 26.423 45.6478L26.0914 45.5059C25.7317 45.2982 25.3407 45.1304 24.9747 44.9191C21.3376 42.8192 18.684 39.36 17.5976 35.3024C16.5112 31.2447 17.081 26.9211 19.1817 23.2826C19.6621 22.4498 20.2186 21.6633 20.8442 20.9332C21.0442 20.7012 21.2505 20.4729 21.4594 20.2543L21.5728 20.1295C21.771 19.9295 21.9753 19.7331 22.1859 19.5403L22.2814 19.4465C22.7697 19.0037 23.2842 18.5907 23.8223 18.21L23.7519 18.2603L23.0618 13.1431C39.2984 2.66433 63.2765 16.9214 62.6739 36.2138C63.6292 30.3542 62.5485 23.5282 60.0644 18.4898C57.5915 13.0938 53.6056 8.80862 48.5443 5.70903C43.4831 2.60944 37.6133 1.08753 31.6829 1.33721C25.7526 1.5869 20.0303 3.59689 15.2452 7.11103L14.9661 7.3222L14.4882 7.69159L13.9005 8.17957L13.4643 8.54825L12.889 9.0434L12.5018 9.39897L11.9057 9.97311L11.571 10.3094L10.9612 10.9501L10.6826 11.2608L10.0556 11.9743L9.99472 12.0798C9.20048 13.0303 8.46623 14.0293 7.79626 15.0712C7.53262 15.4705 7.2814 15.877 7.04257 16.2906C6.80972 16.694 6.57686 17.0973 6.3786 17.5123L6.06378 18.1578L5.82157 18.6633C5.65678 18.9487 5.54422 19.2726 5.41665 19.5795L5.29844 19.7842C5.15199 20.1382 5.01175 20.4957 4.88128 20.8506C0.242039 42.7516 24.0501 62.0449 45.1834 47.8499Z" fill="url(#paint2_linear_3940_8771)"/>
<circle cx="32.0148" cy="31.9093" r="20.0265" fill="#3084F7"/>
<path d="M50.0721 23.6925C51.9413 27.587 52.4994 31.9805 51.6631 36.2177C50.8268 40.4548 48.6409 44.3084 45.4316 47.2038L45.0669 47.3131L44.6749 47.1128V45.8658L45.5866 44.3366V43.7085L45.076 43.5538V43.0805L45.6686 42.3705L45.3951 42.1429L44.8025 42.2977L44.4105 41.9427L43.4259 42.6891L42.9974 42.4888L42.2042 42.8802L41.2287 42.2977V41.7879L40.4811 41.2782V40.368L40.8731 40.2496L40.9552 39.9311L40.5632 39.1938L41.1102 37.8193L42.2133 37.1549L42.5689 36.7634L42.4139 36.2173L42.6874 35.6621L43.2709 35.5892L43.3894 35.1159L43.198 34.5334H42.8059L42.5689 34.3331L42.8059 33.1953L42.6418 32.5309L42.9244 32.2214L44.2555 32.458L44.4561 32.1395L44.292 31.2292L43.59 30.8742L43.672 30.5283H44.2191L44.292 30.1733L44.8481 30.2917L45.7142 28.7261H46.1427L45.8327 27.4335L46.1427 27.2333L46.4618 27.47L46.7353 28.098H46.9268V27.2788L46.2977 26.6507L45.4772 26.9602L45.2037 26.6507L45.3951 26.141L45.1216 25.0396L46.1063 24.3388L46.4618 23.3557L46.2248 22.2179L46.8083 21.9448V21.5898L47.3188 21.3896L47.9934 22.2998L48.3034 22.136L49.3701 23.9565L49.8806 23.5195L50.0721 23.6925ZM26.0947 39.4486L26.0217 39.7945H25.6206L24.9368 39.2666L23.706 39.1483L23.6604 38.8115L24.4992 38.6658L25.4929 39.1756L26.04 39.303L26.0947 39.4486ZM26.6508 39.6125L26.2496 39.9948V40.3407H26.6326L26.8331 40.5409L27.1158 40.4954L27.2616 40.2041H27.6719V39.7672L27.0519 39.5943L26.6508 39.6125ZM12.2461 28.1799C12.5963 26.5015 13.1665 24.8764 13.9418 23.3466L14.0056 23.292L14.7532 22.9188L15.592 22.846L15.984 22.1178L16.3396 22.2543L16.6769 21.963H17.6615L18.0718 22.2179L17.853 22.5638L17.9715 22.7458L18.2906 22.4728L18.8011 22.409L19.2479 22.764L19.0291 21.9812L18.4638 22.0996L18.3818 21.781L17.9168 21.6445V21.3896L18.7008 21.2349L18.8558 20.9436L18.5641 20.8253L18.4091 21.0164L18.1083 21.0801L17.8986 20.9436L17.7162 20.5067L17.6615 20.8253L17.2239 21.1802L17.0142 20.98L17.2239 20.179L17.9533 19.469L18.6461 19.3962L19.7402 20.1335L20.0137 19.0594L20.4695 18.8864V19.2961L20.2507 19.4963L20.351 20.4703L20.6701 20.625V20.9618L20.3693 21.0619V21.4351L19.959 21.5534L20.041 22.0177L20.4878 22.136L21.0986 21.69V21.0619L21.3721 20.8981L21.9191 21.2713L22.0376 20.98L21.6912 20.4703L22.0194 19.7876L22.4297 19.7239L22.5117 20.7069L22.767 21.4351L22.9676 21.3714V21.0164L23.1317 20.8799H23.3231L23.3687 21.7264H23.624L23.7151 21.1802L23.9522 21.0983V20.5886L24.3807 20.534L24.7818 20.6705L24.9368 21.8265L24.481 22.1542L24.1892 22.9643L24.6998 23.3375L24.8365 23.8199L24.4627 23.92L24.1254 23.6834L24.0525 24.0202H23.4599L23.3414 23.6652L23.5237 23.4103V22.9188H23.3869L23.159 23.6652L22.5847 24.0384L22.3659 24.5299L21.9556 24.6482L21.8006 25.2672L21.4086 25.5676L21.4997 26.3504L21.8371 26.4505L22.2109 27.1696L22.8946 27.3698L23.469 27.8978L23.779 27.7612L24.2531 27.8614V29.0538L24.8274 29.427L25.1009 28.9354L24.9459 28.5622L25.0189 27.8978L25.5932 27.4609V26.5506L25.2012 26.496L25.0097 26.141L25.3015 25.8679L25.3835 24.4116H26.5232L26.9152 24.803L27.289 24.9395L27.4075 25.6404L27.2069 25.8952L27.3072 26.1501H27.6445L28.0001 26.3231L28.4104 26.0318V25.3036H28.7386L29.0759 26.1683L29.6047 26.851L29.3494 27.2424L29.9967 27.8705H30.5528L30.6258 28.3802L31.2001 28.7534L30.9449 29.6636V30.1552L31.5466 30.2371V30.7468L31.9386 30.9744L31.7562 31.4113L31.1272 31.3658L30.6987 30.938L30.0514 31.0199V30.5465L30.5346 29.9003L30.4434 29.6454H30.1061L29.9876 29.9367H29.2582V30.1733L29.4315 30.2917V30.5648H28.9665L28.6474 30.0914L27.8816 30.1552L27.5078 30.8014L26.9425 31.1291L27.0975 31.2929L27.918 30.9015L28.1186 30.5101L28.4742 30.4464L28.6839 31.211H28.9847L29.2218 31.4659H29.8508L29.9055 31.7754L29.4132 32.2032H29.003L28.5106 32.7402L28.2554 32.54L28.4559 32.0484L28.1368 31.9938L27.9363 32.2851L27.6263 32.2305L27.134 32.7948V33.341L26.2223 33.7324L25.6662 35.5528L24.5721 36.1263L24.3169 36.5359L24.5721 37.4461L24.9642 37.8375L24.8639 38.2653H24.4536L23.8793 37.4825L23.624 36.9546L22.5847 37.0911L22.4844 37.4461H22.1106L21.9556 37.082L21.445 36.9455L20.8524 37.5918L20.7795 38.7478L21.1533 39.658L21.6456 39.9493H22.2291L22.3659 39.3394L22.6667 38.9935L23.1955 39.303V40.5591H23.6604L24.2531 40.9323V41.8426L24.6633 42.1793H25.3562L25.6297 42.3705L25.9397 42.4706L26.7146 41.9973V41.6059L27.0611 41.4512L28.1095 42.2158L29.4588 42.0974V42.4342L30.1334 42.6436L30.8993 43.3353L31.6013 43.2534L32.4127 43.7085L32.5677 44.6188L33.5705 44.7189L34.1996 45.174L34.8833 45.0739L35.2754 45.2468L36.1871 45.5836L36.0959 46.3664L35.093 47.1492V47.7955L34.3819 48.8331H33.5796L32.8503 49.3611L32.595 50.0256L32.203 50.1075L31.9477 50.5717L31.4372 50.4352L31.0451 51.0268H30.4161L29.5044 51.491L29.0303 52.0645L28.3648 52.019L27.8177 51.8278L27.8907 51.1998L27.4987 50.9267V50.6263L27.7539 50.3987V49.9072H27.5989V49.7252L27.7722 49.4703V48.3143L27.5351 47.9684L26.3408 47.3768L26.0035 46.5121L24.9824 45.4926L25.2012 44.9282L25.0006 44.4367L25.7482 43.754V43.2807L25.4109 42.8893L24.4354 42.771L23.7425 42.2248L23.4325 41.6787L22.685 41.169L22.0923 41.1235L21.6 40.5955L20.9527 40.6957L20.0866 40.1495L19.1749 39.4031L19.1293 38.6021L18.3271 37.6191L17.5977 36.4813L17.461 36.5814L17.6615 37.3278L18.3635 38.1652L18.4638 38.5839L18.1903 38.6749L16.8045 36.454L16.686 35.4345L15.6649 34.4606L15.4097 33.1498L15.5464 30.8378L15.0723 30.3463L15.1362 29.3814L14.7624 29.2449V28.5622L14.3703 28.6259L13.9145 27.0968L13.2854 27.1696L12.8934 27.7612L13.0119 28.4075L12.7019 28.544L12.4831 27.8978L12.2461 28.1799ZM23.9795 18.049L23.5237 18.5042L23.077 19.4144L23.469 19.6875L23.3049 20.0515L23.3505 20.2609L25.2741 20.3246L25.5568 19.9969L25.885 20.0971V20.4703L25.7938 20.7979L25.885 20.8708L26.3591 20.8161L26.4685 21.0255L26.3773 21.1438H25.7756L25.6479 21.3623L25.7117 21.6627L25.9306 21.8083L26.2588 21.7355L26.6143 21.3168H26.7967V21.7628L26.587 21.8811L26.3499 22.2634V22.6366L25.8485 22.7185L25.4656 22.9916V23.2738L25.7756 23.3921L26.0947 23.2192H26.4958L26.9699 23.92L28.0639 24.5208L28.2827 24.4662V24.3023L27.681 23.7562L27.7357 23.6288L28.3192 23.8472L28.5106 24.0293L28.7386 23.9656V23.3557L28.1095 22.764L27.9089 22.1178L28.0366 21.9994L28.3921 22.3271L28.4377 22.6366L28.8389 22.8642L29.0668 22.8005L29.4405 22.0541V21.7446L29.2856 21.6354L29.1488 21.7082L28.5562 21.0801L28.146 20.9254L28.0457 20.6614L28.2098 20.5704H28.3557L28.2554 19.7512H27.9454L27.8269 19.5327H27.5078L27.2161 19.0321H26.7511L26.2041 18.2311L26.1311 17.9671L25.6935 17.8579H25.0736L24.9915 18.0581L24.6177 17.9853L24.4992 18.1856L24.326 17.9489L23.9795 18.049ZM22.2109 18.2675V19.1777L22.5573 19.2414V18.9866L23.004 18.7317V18.5679L23.2593 18.4859V18.222H23.0314L22.922 18.0854H22.612L22.5573 18.2584L22.2109 18.2675ZM21.6638 18.4222L21.1898 18.7408L21.2536 19.1595L20.8342 19.2596V19.5236L21.1806 19.6966V19.9878L21.3448 20.0424L21.5636 19.7785L21.7915 19.6602V19.0503L21.9009 18.8864V18.4677L21.6638 18.4222ZM20.4331 17.4574C20.442 17.5543 20.442 17.6518 20.4331 17.7487H20.6063L20.6701 18.0308L20.2052 18.4222H19.9499L19.8678 18.668L19.3937 18.9411L18.9561 18.8955L18.9105 18.7044H18.637L18.3726 18.4131V18.2857L18.71 18.1492L19.2752 17.5666L19.7858 18.0217L20.041 17.9762L20.0957 17.4938L20.3146 17.3937L20.4331 17.4574ZM22.1835 16.8839L22.2747 17.248L22.7397 17.33L22.8308 17.6121L22.6303 17.8852H22.3659L22.2018 17.5666H21.9829V17.867L21.6912 17.9944L21.363 17.9489L21.2445 17.7396L21.0621 17.694L21.0074 17.3573H21.3721L21.518 17.1843H21.7733L21.9374 16.9568L22.1835 16.8839ZM22.3203 15.7097C22.3841 15.7643 22.3841 15.8099 22.4479 15.9282L22.3841 16.2468L22.1562 16.3196L21.8097 16.1284V15.8918L22.1015 15.7097H22.3203ZM23.0131 15.5277C23.1279 15.6828 23.2344 15.8438 23.3322 16.0101V16.174L23.0952 16.3742H22.922L22.7852 16.0647V15.646L23.0131 15.5277ZM23.2228 16.6018H23.6057V16.8475L23.4781 16.9385V17.1115L23.8428 17.0569L23.934 17.2025H24.4536L24.8639 16.7929H25.5112L25.6388 17.2571L25.265 17.5666H24.3989L23.7972 17.8397L23.2046 17.7669L23.0496 17.1024L22.6211 16.9203V16.6291L23.2228 16.6018ZM31.9477 12.269C33.2267 12.2694 34.5027 12.3913 35.7586 12.6331L36.3694 13.5434L36.6611 13.689L36.8982 13.2885L37.3084 13.3704V13.9348L37.5273 14.0167L37.7005 13.5889L38.8857 13.8802L39.0589 14.3353L38.4663 14.6084L38.2931 15.3729L39.2048 15.8827L39.068 16.2286H38.6122V16.4106L39.1592 16.893L39.8065 17.1115L39.688 17.5393L39.1774 17.3117L39.5147 17.6576L39.4144 18.049H39.0407L38.8857 18.577L39.1409 18.6589L39.0224 19.378L39.2959 19.4599L39.2139 19.8513L39.3962 20.0242L39.0042 20.7706L38.4116 20.6523L38.2931 21.071L36.9346 21.2622L36.8617 21.7537L35.95 22.4364H35.0383V22.7732L34.8469 22.9825L35.0383 23.829L34.6281 24.0566V24.8485L34.309 24.9395V25.431L33.9625 25.5858L33.4064 24.985L32.8776 25.0578L32.7044 24.4571L32.285 24.3934L32.0936 23.6288L32.3671 22.9825L31.9112 23.119L31.7562 22.2088H31.501V21.0346L32.13 20.7797L32.3124 19.8695L32.0206 19.9332V20.3246L31.4736 20.4611L31.2548 20.088L31.3004 19.4963L31.5922 19.4053L31.8474 19.6328L32.1027 19.5236L32.048 19.1049L31.6104 18.8955L31.1363 19.1504L30.9266 18.759L31.2822 18.4404L30.9357 17.0387L30.024 16.1284L28.1551 16.4015L28.0366 16.0374L27.6628 15.9373V15.6369H28.8206V15.2819H27.6992L27.5807 14.845L28.1733 14.6721L28.4651 14.3808L29.1397 14.4354L29.2765 14.0622L28.8389 13.9075L28.8844 13.689L29.4679 13.598L29.9055 13.2794L29.8417 13.061L28.7386 13.1793V13.4797L27.9363 14.1441L27.444 14.2989L26.9334 15.0453L27.0337 15.3001L26.3682 15.555L26.2041 15.7917L26.2679 16.2377L25.657 16.4379L25.3471 16.2559L24.8274 16.3378L24.6724 16.5563H24.0616L24.0069 16.2741L24.2622 16.0465L24.3625 15.5368L24.1436 15.3729L24.0069 15.7461H23.5784L23.3414 15.1363L24.0981 14.308L24.6086 14.49L24.8821 14.2898L24.7818 13.9348L26.1585 13.4706L28.2007 12.9608L28.4286 12.5694C29.5756 12.3695 30.7378 12.269 31.9021 12.269H31.9477ZM41.4202 22.9461V23.4467H40.9005L40.4629 24.0566H40.1256L39.8247 23.7107L39.4418 23.7562L39.0407 23.1372L39.2503 22.9461L39.1592 22.6366L38.8765 22.7822L38.7489 22.5729L39.1318 22.1178H39.4327L39.533 22.4728H40.4993L40.7273 22.1542L41.2743 22.4637L41.4202 22.9461ZM43.1341 27.9979L43.3529 29.072L43.1797 29.3632L42.4139 29.5817L42.2316 29.3268L42.4686 28.9354V28.3893L42.7421 28.2892V28.0161L43.1341 27.9979ZM43.8088 26.3868L43.8817 27.0148H44.1826V27.7248L44.4561 27.8796L44.374 28.271L44.9484 28.899L44.8846 29.3906L44.4561 29.7546L43.4897 30.1096L43.3894 29.7364L43.7906 29.4816L43.6447 29.0356L44.0185 28.6624L43.6903 27.8978L42.8789 27.033L42.9974 26.5415L43.8088 26.3868Z" fill="white"/>
<path d="M32.1403 52.5751C28.0764 52.5803 24.1023 51.3801 20.7208 49.1261C17.3393 46.8722 14.7023 43.6659 13.1435 39.9129C11.5847 36.1599 11.1741 32.0289 11.9637 28.0425C12.7533 24.0561 14.7076 20.3935 17.5793 17.518C20.4511 14.6426 24.1112 12.6836 28.0965 11.8888C32.0819 11.0941 36.2134 11.4993 39.9685 13.0533C43.7235 14.6072 46.9332 17.2401 49.1915 20.6187C51.4498 23.9973 52.6552 27.9698 52.6552 32.0336C52.6505 37.4755 50.4885 42.6936 46.6429 46.5441C42.7974 50.3946 37.5821 52.5634 32.1403 52.5751ZM32.1403 13.4986C28.4691 13.4986 24.8804 14.5872 21.828 16.6268C18.7756 18.6663 16.3965 21.5653 14.9916 24.957C13.5867 28.3486 13.2191 32.0807 13.9354 35.6813C14.6516 39.2819 16.4194 42.5893 19.0153 45.1851C21.6111 47.781 24.9185 49.5488 28.5191 50.265C32.1197 50.9812 35.8518 50.6137 39.2434 49.2088C42.6351 47.8039 45.534 45.4248 47.5736 42.3724C49.6132 39.32 50.7018 35.7313 50.7018 32.0601C50.7018 27.1373 48.7462 22.4161 45.2653 18.9351C41.7843 15.4542 37.0631 13.4986 32.1403 13.4986Z" fill="white"/>
<defs>
<linearGradient id="paint0_linear_3940_8771" x1="19.6509" y1="4.413" x2="27.292" y2="53.8086" gradientUnits="userSpaceOnUse">
<stop stop-color="#0055C9"/>
<stop offset="0.932141" stop-color="#0055C9" stop-opacity="0"/>
</linearGradient>
<linearGradient id="paint1_linear_3940_8771" x1="15.7888" y1="58.8258" x2="51.8071" y2="24.2248" gradientUnits="userSpaceOnUse">
<stop stop-color="#0055C9"/>
<stop offset="0.932141" stop-color="#0055C9" stop-opacity="0"/>
</linearGradient>
<linearGradient id="paint2_linear_3940_8771" x1="62.7306" y1="33.2613" x2="15.9437" y2="17.6973" gradientUnits="userSpaceOnUse">
<stop stop-color="#37FFFF"/>
<stop offset="0.932141" stop-color="#2EE6FF" stop-opacity="0"/>
</linearGradient>
</defs>
</svg>
