<svg width="256" height="256" viewBox="0 0 256 256" fill="none" xmlns="http://www.w3.org/2000/svg">
<circle cx="128.061" cy="127.637" r="123.894" fill="#3084F7"/>
<path d="M156.909 50.3317L146.364 67.1264C158.04 71.5664 168.148 79.3488 175.424 89.5004C176.255 90.7036 177.057 91.9068 177.831 93.1673L178.06 93.5111C178.777 94.6857 179.436 95.8889 180.067 97.1208C180.067 97.3213 180.296 97.5218 180.382 97.7223C180.984 98.8683 181.5 100.043 182.015 101.217C182.132 101.521 182.266 101.817 182.417 102.105C182.875 103.223 183.276 104.369 183.678 105.515C183.678 105.887 183.964 106.259 184.079 106.661C184.451 107.778 184.738 108.895 185.025 110.012C185.175 110.453 185.3 110.903 185.397 111.359C185.684 112.476 185.884 113.593 186.085 114.711C186.085 115.198 186.286 115.685 186.372 116.2C186.572 117.346 186.687 118.549 186.801 119.724L186.973 121.156C186.973 122.818 187.174 124.508 187.174 126.198C187.174 142.997 180.498 159.108 168.615 170.987C156.732 182.865 140.615 189.539 123.809 189.539C119.963 189.54 116.126 189.185 112.346 188.479C111.142 188.25 109.938 187.992 108.763 187.705L108.104 187.562C107.015 187.276 105.926 186.96 104.837 186.617L104.321 186.473C101.81 185.668 99.3508 184.711 96.9557 183.609L97.2709 183.752L80.9245 196.377C12.1518 161.089 13.5834 49.5125 81.6197 13.0151C59.4109 21.4251 37.9261 38.8209 25.4408 57.5026C11.6943 76.8612 4.8219 99.2391 4.20709 122.971C3.59228 146.703 10.0598 170.08 22.7855 190.124C35.5111 210.168 53.9186 225.971 75.6621 235.519L76.9517 236.063L79.1871 236.98L82.053 238.04L84.2024 238.813L87.0683 239.816L89.0745 240.446L92.2556 241.363L94.0898 241.85L97.5288 242.681L99.1624 243.024L102.888 243.769H103.375C108.256 244.62 113.186 245.165 118.135 245.402C120.045 245.517 121.956 245.574 123.866 245.574C125.729 245.574 127.592 245.574 129.426 245.431L132.292 245.23L134.528 245.058C135.846 245.058 137.193 244.801 138.511 244.629H139.457C140.976 244.428 142.495 244.199 143.985 243.941C229.131 216.21 248.349 95.1498 156.909 50.3317Z" fill="url(#paint0_linear_3940_8727)"/>
<path d="M46.5436 141.223L66.3611 141.958C64.3679 129.626 66.0536 116.981 71.2074 105.604C71.8339 104.283 72.4747 102.986 73.1794 101.686L73.3625 101.316C74.0214 100.108 74.7339 98.9353 75.4855 97.7733C75.6591 97.6731 75.7182 97.3743 75.8488 97.1996C76.5403 96.1054 77.2996 95.0713 78.0588 94.0373C78.2636 93.7847 78.4533 93.5204 78.6273 93.2458C79.3656 92.29 80.1574 91.3696 80.9492 90.4492C81.2717 90.2629 81.451 89.8286 81.741 89.5288C82.5223 88.6475 83.3466 87.8407 84.1709 87.0338C84.4775 86.6828 84.8047 86.3503 85.1507 86.0379C85.9749 85.2311 86.8422 84.4987 87.7095 83.7663C88.1312 83.5228 88.4527 83.1057 88.8563 82.7734C89.7484 82.0267 90.7331 81.3257 91.6929 80.6392L92.8475 79.7741C94.2864 78.9433 95.6499 77.9245 97.1137 77.0794C111.662 68.6799 128.952 66.406 145.181 70.7578C161.41 75.1097 175.248 85.7308 183.651 100.285C185.575 103.615 187.186 107.115 188.464 110.742C188.868 111.899 189.246 113.071 189.586 114.232L189.791 114.874C190.088 115.961 190.359 117.061 190.606 118.176L190.74 118.695C191.297 121.272 191.699 123.88 191.942 126.506L191.908 126.161L211.015 134.005C214.841 211.208 117.497 265.756 51.8713 225.084C70.2589 240.112 96.0666 250.021 118.488 251.492C142.126 253.718 164.942 248.48 185.802 237.147C206.662 225.814 223.674 208.524 234.669 187.481C245.665 166.438 250.147 142.596 247.544 118.991L247.37 117.602L247.047 115.208L246.532 112.196L246.127 109.948L245.562 106.965L245.105 104.912L244.308 101.699L243.813 99.8669L242.813 96.4732L242.294 94.8866L241.076 91.2876L240.832 90.8658C239.128 86.2135 237.136 81.6718 234.867 77.2673C234.011 75.5554 233.105 73.8721 232.15 72.2175C231.218 70.6042 230.287 68.991 229.246 67.4741L227.639 65.0925L226.373 63.2425C225.714 62.1008 224.817 61.0632 224.009 60.0074L223.536 59.1884C222.603 57.9733 221.645 56.7724 220.676 55.6107C154.088 -4.26204 39.6376 39.6248 46.5436 141.223Z" fill="url(#paint1_linear_3940_8727)"/>
<path d="M180.736 191.4L171.464 173.87C161.78 181.762 149.987 186.624 137.557 187.849C136.1 187.968 134.656 188.061 133.178 188.101L132.766 188.127C131.39 188.161 130.018 188.13 128.636 188.06C128.463 187.96 128.174 188.058 127.958 188.032C126.665 187.98 125.389 187.84 124.114 187.699C123.793 187.648 123.469 187.616 123.145 187.603C121.948 187.441 120.755 187.216 119.562 186.99C119.239 186.804 118.773 186.866 118.369 186.765C117.215 186.529 116.104 186.218 114.993 185.908C114.536 185.818 114.084 185.701 113.641 185.557C112.53 185.247 111.462 184.862 110.394 184.477C109.972 184.234 109.45 184.164 108.961 183.981C107.868 183.581 106.769 183.079 105.694 182.591L104.368 182.024C102.929 181.193 101.365 180.522 99.9008 179.676C85.3525 171.277 74.738 157.44 70.3924 141.209C66.0468 124.979 68.3261 107.684 76.7288 93.1306C78.6505 89.7994 80.8766 86.6533 83.3786 83.7328C84.1789 82.805 85.004 81.8915 85.8396 81.0171L86.2933 80.5179C87.0859 79.718 87.9033 78.9325 88.7455 78.1612L89.1275 77.7861C91.0806 76.0147 93.1389 74.363 95.2911 72.8399L95.0095 73.0413L92.249 52.5723C157.195 10.6573 253.108 67.6854 250.697 144.855C254.519 121.417 250.196 94.1126 240.26 73.9592C230.368 52.3751 214.424 35.2345 194.179 22.8361C173.934 10.4378 150.455 4.35011 126.734 5.34885C103.012 6.34759 80.123 14.3876 60.9826 28.4441L59.8664 29.2888L57.9548 30.7664L55.6039 32.7183L53.8593 34.193L51.558 36.1736L50.0091 37.5959L47.6247 39.8924L46.2858 41.2374L43.8468 43.8003L42.7323 45.0431L40.2244 47.8973L39.9808 48.3191C36.8039 52.1211 33.8669 56.1173 31.187 60.2846C30.1324 61.882 29.1275 63.5079 28.1722 65.1626C27.2408 66.7758 26.3094 68.3891 25.5163 70.0491L24.2571 72.6314L23.2882 74.6532C22.6291 75.7949 22.1788 77.0904 21.6685 78.318L21.1957 79.137C20.6099 80.5527 20.0489 81.9828 19.5271 83.4023C0.97011 171.006 96.2022 248.179 180.736 191.4Z" fill="url(#paint2_linear_3940_8727)"/>
<circle cx="128.061" cy="127.636" r="80.106" fill="#3084F7"/>
<path d="M200.289 94.7694C207.766 110.348 209.998 127.922 206.653 144.87C203.308 161.819 194.565 177.233 181.727 188.815L180.269 189.252L178.701 188.451V183.463L182.347 177.346V174.834L180.305 174.215V172.321L182.676 169.481L181.581 168.571L179.211 169.19L177.643 167.77L173.705 170.756L171.991 169.955L168.818 171.52L164.916 169.19V167.151L161.925 165.112V161.471L163.494 160.998L163.822 159.724L162.254 156.775L164.442 151.277L168.854 148.619L170.277 147.053L169.657 144.869L170.751 142.648L173.085 142.357L173.559 140.463L172.793 138.133H171.225L170.277 137.332L171.225 132.781L170.568 130.123L171.699 128.885L177.023 129.832L177.825 128.557L177.169 124.916L174.361 123.496L174.689 122.113H176.877L177.169 120.693L179.393 121.166L182.858 114.904H184.572L183.332 109.734L184.572 108.933L185.848 109.879L186.942 112.392H187.708V109.115L185.192 106.602L181.91 107.84L180.816 106.602L181.581 104.564L180.487 100.158L184.426 97.3545L185.848 93.4223L184.9 88.8711L187.234 87.7789V86.3589L189.276 85.5579L191.975 89.1988L193.215 88.5435L197.481 95.8253L199.524 94.0777L200.289 94.7694ZM104.38 157.794L104.088 159.178H102.483L99.7483 157.066L94.8251 156.593L94.6427 155.245L97.9978 154.663L101.973 156.702L104.161 157.212L104.38 157.794ZM106.604 158.449L105 159.979V161.362H106.531L107.333 162.163L108.464 161.981L109.047 160.816H110.689V159.068L108.209 158.377L106.604 158.449ZM48.9854 112.719C50.3863 106.005 52.6669 99.505 55.7683 93.3859L56.0236 93.1674L59.0139 91.6747L62.369 91.3834L63.9371 88.4706L65.3593 89.0168L66.7085 87.8517H70.6471L72.2882 88.8711L71.4129 90.2547L71.887 90.9829L73.1634 89.8906L75.2056 89.6357L76.9924 91.0557L76.1172 87.9245L73.8563 88.3978L73.5281 87.1235L71.6682 86.5773V85.5579L74.8044 84.9389L75.4244 83.7738L74.2574 83.3005L73.6375 84.0651L72.434 84.32L71.5953 83.7738L70.8659 82.0262L70.6471 83.3005L68.8966 84.7205L68.0579 83.9195L68.8966 80.7154L71.8141 77.8755L74.5856 77.5842L78.9617 80.5334L80.0557 76.2371L81.8791 75.5453V77.1837L81.0039 77.9847L81.4051 81.8806L82.6814 82.4995V83.8466L81.478 84.2471V85.7399L79.8369 86.2133L80.1651 88.0701L81.9521 88.5435L84.3953 86.7594V84.2471L85.4894 83.5918L87.6774 85.0845L88.1515 83.9195L86.7657 81.8806L88.0786 79.1499L89.7197 78.895L90.0479 82.8272L91.069 85.7399L91.8713 85.485V84.0651L92.5277 83.519H93.2934L93.4759 86.905H94.4969L94.8615 84.7205L95.8097 84.3928V82.3538L97.5237 82.1354L99.1283 82.6816L99.7483 87.3055L97.9249 88.6163L96.7579 91.8567L98.8001 93.3495L99.3471 95.2792L97.8519 95.6797L96.5026 94.7331L96.2109 96.0802H93.8404L93.3665 94.6602L94.0957 93.6408V91.6747H93.5487L92.6371 94.6602L90.3396 96.153L89.4644 98.1191L87.8233 98.5924L87.2034 101.068L85.6352 102.27L85.9999 105.401L87.3492 105.801L88.8444 108.678L91.5795 109.479L93.8769 111.591L95.1168 111.044L97.0132 111.445V116.215L99.3106 117.707L100.405 115.741L99.7847 114.248L100.076 111.591L102.374 109.843V106.202L100.806 105.984L100.04 104.564L101.207 103.471L101.535 97.6458H106.094L107.662 99.2114L109.157 99.7575L109.631 102.561L108.829 103.581L109.23 104.6H110.579L112.001 105.292L113.642 104.127V101.214H114.955L116.304 104.673L118.42 107.403L117.399 108.969L119.988 111.481H122.212L122.504 113.52L124.801 115.013L123.78 118.654V120.62L126.187 120.948V122.987L127.755 123.897L127.026 125.645L124.51 125.463L122.796 123.751L120.207 124.079V122.186L122.139 119.601L121.775 118.581H120.425L119.951 119.746H117.034V120.693L117.727 121.166V122.259H115.867L114.591 120.365L111.527 120.62L110.032 123.205L107.771 124.516L108.391 125.171L111.673 123.606L112.475 122.04L113.898 121.785L114.736 124.844H115.94L116.888 125.863H119.404L119.623 127.101L117.654 128.812H116.013L114.044 130.96L113.022 130.159L113.825 128.193L112.548 127.975L111.746 129.14L110.506 128.921L108.537 131.179V133.363L104.89 134.929L102.666 142.211L98.2895 144.505L97.2684 146.143L98.2895 149.784L99.8577 151.35L99.4565 153.061H97.8155L95.518 149.93L94.4969 147.818L90.3396 148.364L89.9385 149.784H88.4433L87.8233 148.328L85.7811 147.781L83.4108 150.367L83.119 154.991L84.6141 158.631L86.5834 159.797H88.9174L89.4644 157.357L90.6678 155.974L92.783 157.212V162.236H94.6427L97.0132 163.729V167.37L98.6542 168.717H101.426L102.52 169.481L103.76 169.882L106.859 167.989V166.423L108.245 165.804L112.439 168.863L117.836 168.389V169.736L120.535 170.574L123.598 173.341L126.406 173.013L129.652 174.834L130.272 178.475L134.283 178.875L136.799 180.696L139.534 180.295L141.103 180.987L144.749 182.334L144.385 185.465L140.373 188.596V191.181L137.529 195.332H134.319L131.402 197.444L130.381 200.102L128.813 200.429L127.792 202.286L125.75 201.74L124.182 204.107H121.665L118.018 205.964L116.122 208.257L113.46 208.075L111.272 207.311L111.564 204.799L109.996 203.706V202.505L111.017 201.594V199.628H110.397V198.9L111.09 197.881V193.257L110.141 191.873L105.364 189.507L104.015 186.048L99.9306 181.97L100.806 179.712L100.003 177.746L102.994 175.016V173.122L101.645 171.557L97.7425 171.083L94.9709 168.899L93.731 166.714L90.7408 164.675L88.3703 164.493L86.4011 162.382L83.8119 162.782L80.3475 160.598L76.7007 157.612L76.5183 154.408L73.3093 150.476L70.3918 145.925L69.8448 146.325L70.6471 149.311L73.4551 152.66L73.8563 154.335L72.7622 154.699L67.2191 145.815L66.745 141.738L62.6607 137.842L61.6396 132.599L62.1866 123.351L60.2903 121.385L60.5456 117.525L59.0504 116.979V114.248L57.4823 114.503L55.6589 108.387L53.1427 108.678L51.5745 111.044L52.0486 113.63L50.8087 114.176L49.9335 111.591L48.9854 112.719ZM95.9191 72.1957L94.0957 74.0161L92.3089 77.6571L93.8769 78.7493L93.2206 80.2057L93.4028 81.0431L101.098 81.298L102.228 79.9873L103.541 80.3878V81.8806L103.176 83.1913L103.541 83.4826L105.437 83.2641L105.875 84.1015L105.51 84.5748H103.103L102.593 85.4487L102.848 86.6502L103.723 87.2327L105.036 86.9415L106.458 85.2666H107.188V87.0507L106.349 87.524L105.401 89.0532V90.5459L103.395 90.8737L101.863 91.9659V93.0946L103.103 93.5679L104.38 92.8761H105.984L107.88 95.6797L112.257 98.0827L113.132 97.8643V97.2089L110.725 95.0243L110.944 94.5146L113.278 95.3884L114.044 96.1166L114.955 95.8617V93.4223L112.439 91.0557L111.637 88.4706L112.147 87.9973L113.569 89.308L113.752 90.5459L115.356 91.4562L116.268 91.2013L117.763 88.2157V86.9778L117.143 86.5409L116.596 86.8322L114.226 84.32L112.585 83.701L112.184 82.6451L112.84 82.2811H113.424L113.022 79.0042H111.783L111.308 78.1304H110.032L108.865 76.1279H107.005L104.817 72.9238L104.526 71.868L102.775 71.431H100.295L99.9671 72.232L98.4719 71.9408L97.9978 72.7418L97.3049 71.7951L95.9191 72.1957ZM88.8444 73.0695V76.7104L90.2302 76.9653V75.9458L92.0171 74.9264V74.271L93.0381 73.9433V72.8874H92.1265L91.6889 72.3413H90.449L90.2302 73.0331L88.8444 73.0695ZM86.6563 73.6884L84.76 74.9627L85.0153 76.6376L83.3379 77.0381V78.0939L84.7235 78.7857V79.9509L85.38 80.1693L86.2552 79.1134L87.1669 78.6401V76.2007L87.6045 75.5453V73.8705L86.6563 73.6884ZM81.7333 69.8291C81.7689 70.2166 81.7689 70.6066 81.7333 70.9941H82.4262L82.6814 72.1228L80.8216 73.6884H79.8005L79.4722 74.6715L77.5759 75.7638L75.8254 75.5817L75.6431 74.8171H74.5492L73.4916 73.652V73.1423L74.8409 72.5962L77.1018 70.266L79.144 72.0864L80.1651 71.9044L80.3839 69.9747L81.2592 69.5742L81.7333 69.8291ZM88.735 67.5353L89.0997 68.9916L90.9596 69.3193L91.3242 70.448L90.522 71.5403H89.4644L88.808 70.266H87.9327V71.4675L86.7657 71.9772L85.4529 71.7951L84.9788 70.9577L84.2496 70.7757L84.0307 69.4286H85.4894L86.0729 68.7368H87.094L87.7504 67.8265L88.735 67.5353ZM89.282 62.8384C89.5373 63.0569 89.5373 63.2389 89.7926 63.7123L89.5373 64.9866L88.6256 65.2779L87.2398 64.5133V63.5666L88.4068 62.8384H89.282ZM92.0536 62.1102C92.5125 62.7308 92.9386 63.3749 93.33 64.0399V64.6953L92.3818 65.4963H91.6889L91.1419 64.2584V62.5836L92.0536 62.1102ZM92.8924 66.4066H94.4239V67.3896L93.9134 67.7537V68.4455L95.3721 68.227L95.7368 68.8096H97.8155L99.4565 67.1711H102.046L102.556 69.0281L101.061 70.266H97.5966L95.1898 71.3583L92.8194 71.067L92.1995 68.4091L90.4855 67.6809V66.5158L92.8924 66.4066ZM127.792 49.0757C132.908 49.0772 138.012 49.5649 143.035 50.5321L145.479 54.173L146.646 54.7556L147.594 53.1536L149.235 53.4812V55.7386L150.11 56.0663L150.803 54.3551L155.544 55.5202L156.237 57.3406L153.866 58.4329L153.173 61.4913L156.82 63.5302L156.273 64.9138H154.45V65.642L156.638 67.5716L159.227 68.4455L158.753 70.1567L156.711 69.2465L158.06 70.63L157.659 72.1957H156.164L155.544 74.3074L156.565 74.6351L156.091 77.5114L157.185 77.8391L156.856 79.4047L157.586 80.0965L156.018 83.0821L153.647 82.6087L153.173 84.2835L147.74 85.0482L147.448 87.0142L143.801 89.7449H140.154V91.0921L139.389 91.9295L140.154 95.3156L138.513 96.2259V99.3934L137.237 99.7575V101.724L135.851 102.343L133.627 99.9396L131.512 100.231L130.819 97.8278L129.141 97.573L128.375 94.5146L129.469 91.9295L127.646 92.4756L127.026 88.8347H126.005V84.1379L128.521 83.1185L129.251 79.4775L128.084 79.7324V81.298L125.895 81.8441L125.02 80.3514L125.203 77.9847L126.37 77.6207L127.391 78.5309L128.412 78.0939L128.193 76.4191L126.442 75.5817L124.546 76.6012L123.707 75.0356L125.13 73.7612L123.744 68.1542L120.097 64.5133L112.621 65.6056L112.147 64.1492L110.652 63.7487V62.5472H115.283V61.1272H110.798L110.324 59.3795L112.694 58.6878L113.861 57.5227L116.56 57.7411L117.107 56.2483L115.356 55.6294L115.539 54.7556L117.873 54.3915L119.623 53.1171L119.368 52.2433L114.955 52.7166V53.9181L111.746 56.5761L109.777 57.195L107.735 60.1805L108.136 61.2L105.474 62.2195L104.817 63.1661L105.073 64.9502L102.629 65.7512L101.389 65.023L99.3106 65.3507L98.6907 66.2245H96.2473L96.0285 65.0958L97.0496 64.1856L97.4508 62.1467L96.5755 61.4913L96.0285 62.9841H94.3145L93.3665 60.5447L96.3932 57.2314L98.4354 57.9596L99.5294 57.1586L99.1283 55.7386L104.635 53.8817L112.804 51.8428L113.715 50.2772C118.303 49.4773 122.952 49.0753 127.609 49.0757H127.792ZM165.682 91.7839V93.7864H163.603L161.853 96.2259H160.503L159.3 94.8423L157.768 95.0243L156.164 92.5485L157.002 91.7839L156.638 90.5459L155.507 91.1285L154.997 90.2911L156.528 88.4706H157.732L158.133 89.8906H161.998L162.91 88.6163L165.098 89.8542L165.682 91.7839ZM172.538 111.991L173.413 116.287L172.72 117.452L169.657 118.326L168.927 117.307L169.875 115.741V113.557L170.969 113.156V112.064L172.538 111.991ZM175.236 105.547L175.528 108.059H176.731V110.899L177.825 111.518L177.497 113.083L179.795 115.596L179.539 117.562L177.825 119.018L173.96 120.438L173.559 118.945L175.163 117.926L174.58 116.142L176.075 114.649L174.762 111.591L171.516 108.132L171.991 106.166L175.236 105.547Z" fill="white"/>
<path d="M128.558 210.3C112.303 210.321 96.4064 205.52 82.8803 196.504C69.3543 187.488 58.8064 174.663 52.5712 159.651C46.336 144.639 44.6936 128.115 47.852 112.169C51.0104 96.2238 58.8276 81.5733 70.3145 70.0716C81.8013 58.5699 96.4417 50.7339 112.383 47.5549C128.325 44.3759 144.851 45.9968 159.871 52.2126C174.891 58.4284 187.73 68.9598 196.763 82.4741C205.796 95.9885 210.618 111.879 210.618 128.134C210.599 149.902 201.951 170.774 186.569 186.176C171.187 201.578 150.326 210.253 128.558 210.3ZM128.558 53.9939C113.874 53.9939 99.5188 58.3483 87.309 66.5066C75.0993 74.6649 65.583 86.2606 59.9635 99.8273C54.3439 113.394 52.8737 128.322 55.7385 142.725C58.6033 157.127 65.6746 170.357 76.0581 180.74C86.4416 191.124 99.671 198.195 114.073 201.06C128.476 203.924 143.404 202.454 156.971 196.835C170.538 191.215 182.133 181.699 190.291 169.489C198.45 157.279 202.804 142.925 202.804 128.24C202.804 108.549 194.982 89.664 181.058 75.7401C167.134 61.8162 148.249 53.9939 128.558 53.9939Z" fill="white"/>
<defs>
<linearGradient id="paint0_linear_3940_8727" x1="78.6064" y1="17.6515" x2="109.171" y2="215.234" gradientUnits="userSpaceOnUse">
<stop stop-color="#0055C9"/>
<stop offset="0.932141" stop-color="#0055C9" stop-opacity="0"/>
</linearGradient>
<linearGradient id="paint1_linear_3940_8727" x1="63.1513" y1="235.303" x2="207.225" y2="96.8987" gradientUnits="userSpaceOnUse">
<stop stop-color="#0055C9"/>
<stop offset="0.932141" stop-color="#0055C9" stop-opacity="0"/>
</linearGradient>
<linearGradient id="paint2_linear_3940_8727" x1="250.924" y1="133.045" x2="63.7766" y2="70.789" gradientUnits="userSpaceOnUse">
<stop stop-color="#37FFFF"/>
<stop offset="0.932141" stop-color="#2EE6FF" stop-opacity="0"/>
</linearGradient>
</defs>
</svg>
