<svg xmlns="http://www.w3.org/2000/svg" version="1.1" xmlns:xlink="http://www.w3.org/1999/xlink" width="512" height="512" x="0" y="0" viewBox="0 0 64 64" style="enable-background:new 0 0 512 512" xml:space="preserve" fill-rule="evenodd" class=""><g><path fill="#7ad7ee" fill-rule="nonzero" d="M4.1 26h55.8c1.16 0 2.1.94 2.1 2.1v27.8a2.1 2.1 0 0 1-2.1 2.1H4.1A2.1 2.1 0 0 1 2 55.9V28.1c0-1.16.94-2.1 2.1-2.1z" opacity="1" data-original="#7ad7ee"></path><path fill="#4bc3ef" fill-rule="nonzero" d="M4.1 26h55.8c1.16 0 2.1.94 2.1 2.1v27.8a2.1 2.1 0 0 1-2.1 2.1C45.682 41.427 25.559 32.53 2 28.1c0-1.16.94-2.1 2.1-2.1z" opacity="1" data-original="#4bc3ef" class=""></path><path fill="#615260" fill-rule="nonzero" d="M2 44h2c1.1 0 2-.9 2-2s-.9-2-2-2H2z" opacity="1" data-original="#615260"></path><path fill="#d48c64" fill-rule="nonzero" d="m22 40-8-8V6l4.5 3.5L22 14l1 13.979z" opacity="1" data-original="#d48c64"></path><path fill="#c48563" fill-rule="nonzero" d="m50 14-8-8H14l8 8 14 1z" opacity="1" data-original="#c48563" class=""></path><path fill="#e29a6c" d="M22 14h28v26H22z" opacity="1" data-original="#e29a6c" class=""></path><path fill="#d48c64" fill-rule="nonzero" d="M22 40h28V14h-2.424C48.582 29.302 39.779 37.011 22 37.77z" opacity="1" data-original="#d48c64"></path><path fill="#4ce1a1" d="M44 38c0 8-8 16-8 16s-8-8-8-16c0-4.42 3.58-8 8-8s8 3.58 8 8zm-8-4h.026c2.196.014 3.974 1.801 3.974 4s-1.778 3.986-3.974 4H36c-2.208 0-4-1.792-4-4s1.792-4 4-4z" opacity="1" data-original="#4ce1a1"></path><path fill="#3ec2a3" d="M34.5 30.14A7.998 7.998 0 0 1 44 38c0 8-8 16-8 16s-.613-.613-1.5-1.67C36.817 49.57 41 43.785 41 38a8.001 8.001 0 0 0-6.5-7.86z" opacity="1" data-original="#3ec2a3"></path><g fill-rule="nonzero"><path fill="#dbd8db" d="m40 14-8-8h-8l8 8 4 1z" opacity="1" data-original="#dbd8db" class=""></path><path fill="#eceaec" d="M32 14v8l4-4 4 4v-8" opacity="1" data-original="#eceaec"></path><path d="M50 57H4.1c-.6 0-1.1-.5-1.1-1.1V45h1c1.7 0 3-1.3 3-3s-1.3-3-3-3H3V28.1c0-.6.5-1.1 1.1-1.1H10c.6 0 1-.4 1-1s-.4-1-1-1H4.1C2.4 25 1 26.4 1 28.1v27.8C1 57.6 2.4 59 4.1 59H50c.6 0 1-.4 1-1s-.4-1-1-1zM3 41h1c.6 0 1 .4 1 1s-.4 1-1 1H3zM56 57h-2.1c-.6 0-1 .4-1 1s.4 1 1 1H56c.6 0 1-.4 1-1s-.4-1-1-1zM59.9 25h-6c-.6 0-1 .4-1 1s.4 1 1 1h6c.6 0 1.1.5 1.1 1.1v27.8c0 .6-.5 1.1-1.1 1.1s-1 .4-1 1 .4 1 1 1c1.7 0 3.1-1.4 3.1-3.1V28.1c0-1.7-1.4-3.1-3.1-3.1z" fill="#000000" opacity="1" data-original="#000000" class=""></path><path d="m50.7 13.3-8-8c-.2-.2-.4-.3-.7-.3H14c-1 0-1 1-1 1v5.6c0 .6.4 1 1 1s1-.4 1-1V8.4l6 6v23.2l-6-6V15.9c0-.6-.4-1-1-1s-1 .4-1 1V32c0 .3.1.5.3.7l8 8c.1.1.4.3.7.3h2.9c.6 0 1-.4 1-1s-.4-1-1-1H23V15h8v7c0 .4.2.8.6.9.4.2.8.1 1.1-.2l3.3-3.3 3.3 3.3c.2.2.6.5 1.1.2.3-.2.6-.5.6-.9v-7h8v24h-2c-.6 0-1 .4-1 1s.4 1 1 1h3c.6 0 1-.4 1-1V14c0-.3-.2-.6-.3-.7zM22.4 13l-6-6h7.2l6 6zM39 19.6l-2.3-2.3c-.4-.4-1-.4-1.4 0L33 19.6V14c0-.3-.2-.6-.3-.7L26.4 7h5.2l7.4 7.4zm1.4-6.6-6-6h7.2l6 6z" fill="#000000" opacity="1" data-original="#000000" class=""></path><path d="M36 29c-5 0-9 4-9 9 0 8.3 8 16.4 8.3 16.7.2.2.8.6 1.4 0 .4-.3 8.3-8.4 8.3-16.7 0-5-4-9-9-9zm0 23.5c-1.9-2.1-7-8.4-7-14.5 0-3.9 3.1-7 7-7s7 3.1 7 7c0 6.1-5.1 12.4-7 14.5z" fill="#000000" opacity="1" data-original="#000000" class=""></path><path d="M39 35.1c-.5.3-.6.9-.4 1.4.3.5.4 1 .4 1.5 0 1.7-1.3 3-3 3s-3-1.3-3-3 1.3-3 3-3c.6 0 1-.4 1-1s-.4-1-1-1c-2.8 0-5 2.2-5 5s2.2 5 5 5 5-2.2 5-5c0-.9-.2-1.7-.7-2.5-.2-.5-.9-.6-1.3-.4z" fill="#000000" opacity="1" data-original="#000000" class=""></path></g><circle cx="58" cy="50" r="1" fill="#000000" opacity="1" data-original="#000000" class=""></circle><circle cx="58" cy="42" r="1" fill="#000000" opacity="1" data-original="#000000" class=""></circle><circle cx="58" cy="34" r="1" fill="#000000" opacity="1" data-original="#000000" class=""></circle></g></svg>