<svg width="16" height="16" viewBox="0 0 16 16" fill="none" xmlns="http://www.w3.org/2000/svg">
<circle cx="8.00411" cy="7.97725" r="7.74336" fill="#3084F7"/>
<path d="M9.80714 3.14576L9.14803 4.19543C9.87782 4.47293 10.5096 4.95933 10.9643 5.5938C11.0162 5.66901 11.0664 5.74421 11.1148 5.82299L11.1291 5.84447C11.1739 5.91788 11.2151 5.99308 11.2545 6.07008C11.2545 6.08261 11.2688 6.09514 11.2742 6.10768C11.3118 6.17929 11.344 6.25271 11.3763 6.32612C11.3835 6.34509 11.3919 6.36362 11.4013 6.38162C11.43 6.45145 11.4551 6.52307 11.4802 6.59469C11.4802 6.61797 11.4981 6.64124 11.5052 6.66631C11.5285 6.73614 11.5464 6.80597 11.5643 6.8758C11.5738 6.90336 11.5815 6.93146 11.5876 6.95995C11.6055 7.02978 11.6181 7.09961 11.6306 7.16944C11.6306 7.19988 11.6431 7.23031 11.6485 7.26254C11.6611 7.33416 11.6682 7.40936 11.6754 7.48277L11.6861 7.5723C11.6861 7.67615 11.6987 7.78178 11.6987 7.88742C11.6987 8.93736 11.2814 9.94429 10.5387 10.6867C9.79603 11.4291 8.78871 11.8462 7.73837 11.8462C7.49801 11.8463 7.25816 11.8241 7.0219 11.78C6.94667 11.7656 6.87144 11.7495 6.798 11.7316L6.7568 11.7227C6.68874 11.7048 6.62067 11.6851 6.55261 11.6636L6.52037 11.6546C6.36346 11.6043 6.20973 11.5445 6.06003 11.4756L6.07973 11.4845L5.05809 12.2736C0.759795 10.0681 0.849265 3.09456 5.10153 0.813477C3.71349 1.3391 2.37069 2.42634 1.59035 3.59394C0.731201 4.80386 0.301674 6.20247 0.263248 7.68571C0.224822 9.16895 0.629045 10.63 1.4244 11.8828C2.21975 13.1355 3.37021 14.1232 4.72919 14.7199L4.80979 14.754L4.9495 14.8113L5.12862 14.8775L5.26295 14.9258L5.44207 14.9885L5.56746 15.0279L5.76628 15.0852L5.88092 15.1156L6.09585 15.1676L6.19795 15.1891L6.43081 15.2356H6.46126C6.76632 15.2887 7.07441 15.3228 7.38371 15.3377C7.50313 15.3448 7.62254 15.3484 7.74195 15.3484C7.85838 15.3484 7.97481 15.3484 8.08944 15.3395L8.26856 15.3269L8.40827 15.3162C8.49067 15.3162 8.57486 15.3001 8.65725 15.2893H8.71636C8.81129 15.2768 8.90622 15.2625 8.99937 15.2463C14.321 13.5131 15.5221 5.94689 9.80714 3.14576Z" fill="url(#paint0_linear_3940_8859)"/>
<path d="M2.90873 8.8262L4.14732 8.87217C4.02275 8.10141 4.12811 7.3111 4.45022 6.60005C4.48937 6.51747 4.52942 6.43644 4.57347 6.35516L4.58491 6.33201C4.6261 6.25653 4.67062 6.18325 4.7176 6.11062C4.72845 6.10436 4.73214 6.08568 4.74031 6.07476C4.78353 6.00638 4.83098 5.94175 4.87843 5.87712C4.89123 5.86134 4.90309 5.84482 4.91396 5.82765C4.96011 5.76792 5.00959 5.71039 5.05908 5.65286C5.07924 5.64122 5.09044 5.61408 5.10857 5.59534C5.1574 5.54026 5.20892 5.48983 5.26044 5.43941C5.2796 5.41747 5.30005 5.39668 5.32167 5.37716C5.37319 5.32674 5.42739 5.28096 5.4816 5.23519C5.50796 5.21997 5.52805 5.1939 5.55327 5.17313C5.60903 5.12646 5.67057 5.08265 5.73056 5.03974L5.80272 4.98567C5.89266 4.93375 5.97788 4.87007 6.06936 4.81725C6.97863 4.29229 8.05928 4.15016 9.07358 4.42215C10.0879 4.69415 10.9527 5.35797 11.4779 6.26759C11.5982 6.4757 11.6989 6.6945 11.7788 6.92119C11.804 6.99351 11.8276 7.06671 11.8489 7.13927L11.8617 7.17942C11.8802 7.24732 11.8972 7.31611 11.9126 7.3858L11.921 7.4182C11.9558 7.57927 11.9809 7.74229 11.9961 7.90638L11.994 7.88485L13.1882 8.37508C13.4273 13.2003 7.34333 16.6095 3.24171 14.0675C4.39094 15.0068 6.00392 15.6261 7.40526 15.7181C8.88265 15.8571 10.3087 15.5298 11.6124 14.8215C12.9161 14.1131 13.9794 13.0325 14.6666 11.7174C15.3538 10.4022 15.6339 8.91202 15.4712 7.43675L15.4604 7.34994L15.4402 7.20029L15.408 7.01205L15.3827 6.87154L15.3474 6.68508L15.3188 6.5568L15.269 6.35597L15.2381 6.24147L15.1756 6.02937L15.1431 5.9302L15.067 5.70527L15.0518 5.6789C14.9453 5.38813 14.8207 5.10428 14.6789 4.829C14.6254 4.722 14.5688 4.6168 14.5091 4.51338C14.4509 4.41256 14.3927 4.31173 14.3276 4.21693L14.2272 4.06807L14.148 3.95245C14.1069 3.88109 14.0508 3.81624 14.0003 3.75026L13.9707 3.69907C13.9124 3.62312 13.8526 3.54807 13.792 3.47546C9.63023 -0.266585 2.4771 2.47634 2.90873 8.8262Z" fill="url(#paint1_linear_3940_8859)"/>
<path d="M11.2959 11.9626L10.7164 10.867C10.1112 11.3602 9.37404 11.6641 8.59721 11.7407C8.50611 11.7481 8.41591 11.7539 8.3235 11.7564L8.29773 11.7581C8.21176 11.7602 8.12604 11.7582 8.03966 11.7539C8.0288 11.7476 8.01079 11.7537 7.99725 11.7521C7.91641 11.7489 7.83672 11.7401 7.75702 11.7313C7.73695 11.7281 7.71672 11.7261 7.69641 11.7253C7.62161 11.7152 7.54705 11.7011 7.47248 11.687C7.45233 11.6754 7.42321 11.6792 7.39792 11.6729C7.3258 11.6582 7.25638 11.6388 7.18695 11.6194C7.15836 11.6137 7.13014 11.6064 7.10242 11.5975C7.03299 11.5781 6.96625 11.554 6.89951 11.5299C6.87315 11.5147 6.84052 11.5104 6.80992 11.4989C6.74163 11.4739 6.67292 11.4426 6.60576 11.4121L6.52286 11.3766C6.43292 11.3247 6.33517 11.2827 6.24368 11.2299C5.33441 10.7049 4.67101 9.84012 4.39941 8.82571C4.12781 7.81131 4.27026 6.7304 4.79543 5.82078C4.91554 5.61258 5.05467 5.41595 5.21104 5.23342C5.26106 5.17543 5.31263 5.11834 5.36486 5.06369L5.39321 5.03249C5.44275 4.9825 5.49384 4.9334 5.54648 4.8852L5.57035 4.86175C5.69242 4.75104 5.82106 4.64781 5.95558 4.55261L5.93798 4.5652L5.76544 3.28589C9.8246 0.666207 15.8191 4.23046 15.6685 9.05358C15.9073 7.58868 15.6371 5.88216 15.0161 4.62257C14.3979 3.27357 13.4014 2.20228 12.1361 1.42738C10.8708 0.652484 9.40332 0.272006 7.92074 0.334427C6.43815 0.396848 5.00757 0.899346 3.81129 1.77788L3.74153 1.83067L3.62206 1.92302L3.47512 2.04502L3.36609 2.13719L3.22226 2.26097L3.12545 2.34986L2.97643 2.4934L2.89275 2.57746L2.74031 2.73764L2.67065 2.81532L2.51391 2.9937L2.49868 3.02007C2.30012 3.25769 2.11656 3.50746 1.94907 3.76791C1.88316 3.86774 1.82035 3.96937 1.76065 4.07278C1.70243 4.17361 1.64422 4.27444 1.59465 4.37819L1.51595 4.53958L1.4554 4.66595C1.4142 4.7373 1.38606 4.81827 1.35417 4.895L1.32461 4.94618C1.288 5.03466 1.25294 5.12404 1.22033 5.21276C0.0605153 10.688 6.01252 15.5113 11.2959 11.9626Z" fill="url(#paint2_linear_3940_8859)"/>
<circle cx="8.00369" cy="7.97733" r="5.00662" fill="#3084F7"/>
<path d="M12.518 5.92324C12.9853 6.89688 13.1248 7.99526 12.9158 9.05453C12.7067 10.1138 12.1602 11.0772 11.3579 11.8011L11.2667 11.8284L11.1687 11.7783V11.4666L11.3966 11.0843V10.9273L11.269 10.8886V10.7702L11.4172 10.5927L11.3488 10.5359L11.2006 10.5745L11.1026 10.4858L10.8565 10.6724L10.7493 10.6223L10.551 10.7202L10.3072 10.5745V10.4471L10.1203 10.3197V10.0921L10.2183 10.0625L10.2388 9.98288L10.1408 9.79856L10.2775 9.45495L10.5533 9.28883L10.6422 9.19098L10.6035 9.05445L10.6719 8.91564L10.8177 8.89743L10.8474 8.7791L10.7995 8.63346H10.7015L10.6422 8.5834L10.7015 8.29895L10.6605 8.13284L10.7311 8.05546L11.0639 8.11463L11.114 8.03498L11.073 7.80743L10.8975 7.71868L10.918 7.63221H11.0548L11.073 7.54346L11.212 7.57304L11.4286 7.18164H11.5357L11.4582 6.85851L11.5357 6.80844L11.6154 6.86761L11.6838 7.02462H11.7317V6.81982L11.5744 6.66281L11.3693 6.74018L11.3009 6.66281L11.3488 6.53537L11.2804 6.26003L11.5266 6.08481L11.6154 5.83905L11.5562 5.5546L11.7021 5.48633V5.39758L11.8297 5.34752L11.9984 5.57508L12.0758 5.53412L12.3425 5.98924L12.4702 5.88001L12.518 5.92324ZM6.52366 9.86228L6.50543 9.94875H6.40515L6.23421 9.81677L5.92651 9.78718L5.91511 9.70299L6.1248 9.66658L6.37323 9.79401L6.50999 9.82587L6.52366 9.86228ZM6.66269 9.90324L6.56241 9.99881V10.0853H6.65814L6.70828 10.1354L6.77894 10.124L6.8154 10.0512H6.91797V9.94192L6.76298 9.89869L6.66269 9.90324ZM3.06152 7.04511C3.14908 6.62549 3.29162 6.21922 3.48546 5.83677L3.50141 5.82312L3.68831 5.72982L3.898 5.71161L3.99601 5.52957L4.08489 5.5637L4.16922 5.49088H4.41538L4.51795 5.5546L4.46324 5.64107L4.49288 5.68658L4.57265 5.61831L4.70029 5.60238L4.81197 5.69113L4.75727 5.49543L4.61596 5.52501L4.59544 5.44537L4.4792 5.41124V5.34752L4.67521 5.30883L4.71396 5.23601L4.64102 5.20643L4.60228 5.25422L4.52706 5.27015L4.47464 5.23601L4.42906 5.12679L4.41538 5.20643L4.30598 5.29518L4.25356 5.24512L4.30598 5.04487L4.48832 4.86737L4.66154 4.84917L4.93505 5.03349L5.00342 4.76497L5.11738 4.72173V4.82413L5.06268 4.8742L5.08776 5.11769L5.16752 5.15637V5.24057L5.09231 5.2656V5.3589L4.98974 5.38848L5.01026 5.50454L5.12194 5.53412L5.27465 5.42261V5.2656L5.34303 5.22464L5.47978 5.31794L5.50941 5.24512L5.4228 5.11769L5.50485 4.94702L5.60742 4.93109L5.62793 5.17685L5.69175 5.3589L5.74189 5.34297V5.25422L5.78292 5.22009H5.83078L5.84218 5.43171H5.906L5.92878 5.29518L5.98805 5.2747V5.14727L6.09517 5.13361L6.19546 5.16775L6.23421 5.45675L6.12024 5.53867L6.04731 5.74119L6.17494 5.83449L6.20913 5.9551L6.11568 5.98013L6.03135 5.92097L6.01312 6.00516H5.86497L5.83534 5.91642L5.88092 5.8527V5.72982H5.84673L5.78975 5.91642L5.64616 6.00971L5.59146 6.13259L5.48889 6.16218L5.45015 6.31692L5.35214 6.39201L5.37493 6.58771L5.45926 6.61274L5.55271 6.79252L5.72365 6.84258L5.86725 6.97456L5.94474 6.94043L6.06326 6.96546V7.26356L6.20685 7.35686L6.27523 7.23398L6.23648 7.14068L6.25472 6.97456L6.39831 6.86533V6.63777L6.3003 6.62412L6.25244 6.53537L6.32537 6.46711L6.34589 6.10301H6.63079L6.72879 6.20086L6.82224 6.235L6.85187 6.41022L6.80173 6.47393L6.8268 6.53765H6.91114L7.00002 6.58089L7.10259 6.50807V6.32602H7.18464L7.26897 6.5422L7.40117 6.71287L7.33735 6.81072L7.49917 6.96773H7.6382L7.65644 7.09517L7.80003 7.18847L7.73621 7.41602V7.53891L7.88664 7.55939V7.68682L7.98465 7.74371L7.93906 7.85294L7.78179 7.84156L7.67467 7.73461L7.51285 7.75509V7.63676L7.63364 7.47519L7.61085 7.41148H7.52652L7.49689 7.48429H7.31456V7.54346L7.35786 7.57304V7.64131H7.24162L7.16184 7.52298L6.97039 7.53891L6.87694 7.70047L6.73563 7.78239L6.77438 7.82336L6.97951 7.7255L7.02965 7.62766L7.11854 7.61172L7.17096 7.80288H7.24617L7.30544 7.86659H7.4627L7.47638 7.94396L7.3533 8.05091H7.25074L7.12766 8.18517L7.06384 8.13511L7.11398 8.01223L7.03421 7.99857L6.98406 8.07139L6.90657 8.05774L6.78349 8.19883V8.33536L6.55557 8.43321L6.41654 8.88833L6.14303 9.03169L6.07921 9.13409L6.14303 9.36165L6.24104 9.4595L6.21597 9.56645H6.11341L5.96981 9.37075L5.906 9.23877L5.64616 9.2729L5.62109 9.36165H5.52764L5.48889 9.27063L5.36126 9.23649L5.21311 9.39806L5.19487 9.68706L5.28832 9.91462L5.4114 9.98744H5.55728L5.59146 9.83497L5.66667 9.7485L5.79887 9.82587V10.1399H5.91511L6.06326 10.2332V10.4608L6.16582 10.545H6.33905L6.40742 10.5927L6.48491 10.6178L6.67865 10.4994V10.4016L6.76526 10.3629L7.02737 10.5541L7.3647 10.5245V10.6087L7.53336 10.661L7.72481 10.834L7.90032 10.8135L8.10316 10.9273L8.14191 11.1548L8.39263 11.1798L8.54989 11.2936L8.72083 11.2686L8.81884 11.3118L9.04677 11.396L9.02397 11.5917L8.77326 11.7874V11.949L8.59548 12.2084H8.3949L8.21257 12.3404L8.14875 12.5065L8.05075 12.527L7.98692 12.643L7.85929 12.6089L7.76128 12.7568H7.60401L7.37609 12.8729L7.25757 13.0162L7.09119 13.0049L6.95443 12.9571L6.97267 12.8001L6.87467 12.7318V12.6567L6.93848 12.5998V12.4769H6.89973V12.4314L6.94304 12.3677V12.0787L6.88378 11.9922L6.5852 11.8443L6.50087 11.6281L6.2456 11.3733L6.3003 11.2322L6.25015 11.1093L6.43705 10.9386V10.8203L6.35272 10.7224L6.10884 10.6929L5.93562 10.5563L5.85813 10.4198L5.67124 10.2924L5.52308 10.281L5.40001 10.149L5.23818 10.174L5.02166 10.0375L4.79373 9.8509L4.78233 9.65065L4.58177 9.40489L4.39943 9.12044L4.36524 9.14547L4.41538 9.33207L4.59088 9.54142L4.61596 9.6461L4.54757 9.66885L4.20114 9.11361L4.1715 8.85875L3.91623 8.61526L3.85241 8.28757L3.8866 7.70958L3.76808 7.58669L3.78404 7.34548L3.69059 7.31135V7.14068L3.59258 7.15661L3.47862 6.77431L3.32136 6.79252L3.22335 6.94043L3.25298 7.102L3.17548 7.13613L3.12079 6.97456L3.06152 7.04511ZM5.99488 4.51238L5.88092 4.62616L5.76924 4.85372L5.86725 4.92199L5.82622 5.01301L5.83762 5.06535L6.31854 5.08128L6.38919 4.99936L6.47124 5.02439V5.11769L6.44845 5.19961L6.47124 5.21781L6.58976 5.20416L6.61711 5.2565L6.59432 5.28608H6.44389L6.41198 5.34069L6.42793 5.41579L6.48264 5.4522L6.56469 5.43399L6.65358 5.32931H6.69916V5.44082L6.64674 5.4704L6.58748 5.56598V5.65927L6.46213 5.67976L6.3664 5.74802V5.81857L6.44389 5.84815L6.52366 5.80491H6.62395L6.74247 5.98013L7.01598 6.13032L7.07068 6.11667V6.07571L6.92025 5.93917L6.93392 5.90731L7.0798 5.96193L7.12766 6.00744L7.18464 5.99151V5.83905L7.02737 5.69113L6.97723 5.52957L7.00914 5.49998L7.09803 5.5819L7.10943 5.65927L7.20971 5.71616L7.26669 5.70024L7.36014 5.51364V5.43627L7.32139 5.40896L7.28721 5.42717L7.13906 5.27015L7.03649 5.23147L7.01141 5.16547L7.05245 5.14272H7.08891L7.06384 4.93791H6.98635L6.95672 4.8833H6.87694L6.80401 4.75814H6.68777L6.55101 4.55789L6.53278 4.4919L6.42338 4.46459H6.26839L6.24788 4.51465L6.15443 4.49645L6.1248 4.54651L6.08149 4.48735L5.99488 4.51238ZM5.55271 4.567V4.79455L5.63932 4.81048V4.74677L5.751 4.68305V4.64209L5.81482 4.62161V4.55562H5.75784L5.73049 4.52148H5.653L5.63932 4.56472L5.55271 4.567ZM5.41596 4.60568L5.29744 4.68532L5.3134 4.79L5.20855 4.81503V4.88102L5.29516 4.92426V4.99708L5.33619 5.01073L5.39089 4.94474L5.44787 4.91516V4.7627L5.47522 4.72173V4.61706L5.41596 4.60568ZM5.10827 4.36447C5.1105 4.38869 5.1105 4.41306 5.10827 4.43729H5.15157L5.16752 4.50783L5.05129 4.60568H4.98747L4.96695 4.66712L4.84843 4.73539L4.73903 4.72401L4.72764 4.67622H4.65926L4.59316 4.6034V4.57154L4.67749 4.53741L4.8188 4.39177L4.94644 4.50555L5.01026 4.49418L5.02393 4.37357L5.07864 4.34854L5.10827 4.36447ZM5.54588 4.22111L5.56867 4.31213L5.68491 4.33261L5.7077 4.40315L5.65756 4.47142H5.59146L5.55044 4.39177H5.49573V4.46687L5.4228 4.49873L5.34075 4.48735L5.31112 4.43501L5.26554 4.42363L5.25185 4.33944H5.34303L5.3795 4.2962H5.44331L5.48434 4.23931L5.54588 4.22111ZM5.58006 3.92755C5.59602 3.94121 5.59602 3.95259 5.61197 3.98217L5.59602 4.06182L5.53904 4.08002L5.45243 4.03223V3.97307L5.52536 3.92755H5.58006ZM5.75329 3.88204C5.78197 3.92082 5.8086 3.96108 5.83306 4.00265V4.04361L5.7738 4.09367H5.73049L5.69631 4.0163V3.91163L5.75329 3.88204ZM5.80571 4.15056H5.90143V4.212L5.86953 4.23476V4.278L5.9607 4.26434L5.98349 4.30075H6.11341L6.21597 4.19835H6.37779L6.4097 4.31441L6.31625 4.39177H6.09973L5.9493 4.46004L5.80115 4.44184L5.7624 4.27572L5.65528 4.23021V4.15739L5.80571 4.15056ZM7.98692 3.06738C8.30667 3.06748 8.62568 3.09796 8.93964 3.15841L9.09235 3.38597L9.16528 3.42238L9.22455 3.32225L9.32711 3.34273V3.48382L9.38181 3.50429L9.42512 3.39735L9.72141 3.47016L9.76472 3.58394L9.61657 3.65221L9.57327 3.84336L9.80119 3.97079L9.767 4.05726H9.65304V4.10277L9.78979 4.22338L9.95162 4.278L9.92199 4.38495L9.79435 4.32806L9.87868 4.41453L9.85361 4.51238H9.76016L9.72141 4.64436L9.78523 4.66484L9.7556 4.84462L9.82398 4.8651L9.80346 4.96294L9.84905 5.00618L9.75105 5.19278L9.6029 5.1632L9.57327 5.26787L9.23366 5.31566L9.21543 5.43854L8.9875 5.60921H8.75958V5.69341L8.71172 5.74575L8.75958 5.95738L8.65701 6.01427V6.21224L8.57725 6.235V6.35788L8.49064 6.39656L8.3516 6.24637L8.21941 6.26458L8.1761 6.11439L8.07126 6.09846L8.02339 5.90731L8.09177 5.74575L7.97781 5.77988L7.93906 5.55232H7.87524V5.25877L8.03251 5.19506L8.0781 4.9675L8.00516 4.98342V5.08128L7.8684 5.11541L7.81371 5.02211L7.8251 4.8742L7.89804 4.85144L7.96185 4.90833L8.02567 4.88102L8.012 4.77635L7.90259 4.72401L7.78407 4.78773L7.73165 4.68988L7.82054 4.61023L7.73393 4.25979L7.50601 4.03223L7.03877 4.1005L7.00914 4.00947L6.91569 3.98444V3.90935H7.20515V3.8206H6.92481L6.89518 3.71137L7.04333 3.66814L7.11626 3.59532L7.28492 3.60897L7.31911 3.51567L7.20971 3.47699L7.22111 3.42238L7.36698 3.39962L7.47638 3.31997L7.46042 3.26536L7.18464 3.29494V3.37004L6.98406 3.53616L6.86099 3.57484L6.73335 3.76144L6.75842 3.82515L6.59204 3.88887L6.55101 3.94804L6.56697 4.05954L6.41426 4.1096L6.33677 4.06409L6.20685 4.08457L6.16811 4.13918H6.01539L6.00172 4.06864L6.06554 4.01175L6.09061 3.88432L6.03591 3.84336L6.00172 3.93666H5.8946L5.83534 3.78419L6.02451 3.57711L6.15215 3.62263L6.22052 3.57256L6.19546 3.48382L6.53962 3.36776L7.05016 3.24033L7.10714 3.14248C7.3939 3.09249 7.68444 3.06736 7.97553 3.06738H7.98692ZM10.355 5.73665V5.8618H10.2251L10.1157 6.01427H10.0314L9.95617 5.92779L9.86044 5.93917L9.76016 5.78443L9.81258 5.73665L9.78979 5.65927L9.71913 5.69568L9.68723 5.64335L9.78295 5.52957H9.85817L9.88324 5.61831H10.1248L10.1818 5.53867L10.3186 5.61604L10.355 5.73665ZM10.7835 6.99959L10.8382 7.26811L10.7949 7.34093L10.6035 7.39554L10.5579 7.33183L10.6171 7.23398V7.09744L10.6855 7.07241V7.00414L10.7835 6.99959ZM10.9522 6.59682L10.9704 6.75383H11.0456V6.93133L11.114 6.97001L11.0935 7.06786L11.2371 7.22488L11.2211 7.34776L11.114 7.43878L10.8724 7.52753L10.8474 7.43423L10.9476 7.37051L10.9112 7.25901L11.0046 7.16571L10.9226 6.97456L10.7197 6.75838L10.7493 6.6355L10.9522 6.59682Z" fill="white"/>
<path d="M8.03457 13.1438C7.01861 13.1451 6.02509 12.845 5.17972 12.2815C4.33434 11.718 3.67509 10.9165 3.28539 9.97822C2.89569 9.03997 2.79305 8.00721 2.99045 7.01061C3.18785 6.01402 3.67642 5.09836 4.39435 4.37951C5.11228 3.66065 6.0273 3.1709 7.02364 2.97221C8.01999 2.77352 9.05287 2.87483 9.99162 3.26332C10.9304 3.65181 11.7328 4.31001 12.2974 5.15466C12.862 5.99931 13.1633 6.99244 13.1633 8.00841C13.1621 9.36888 12.6216 10.6734 11.6602 11.636C10.6989 12.5986 9.39505 13.1408 8.03457 13.1438ZM8.03457 3.37465C7.11679 3.37465 6.21962 3.6468 5.45651 4.15669C4.6934 4.66659 4.09863 5.39132 3.74741 6.23924C3.39619 7.08716 3.3043 8.02018 3.48335 8.92033C3.6624 9.82047 4.10435 10.6473 4.75332 11.2963C5.40229 11.9453 6.22913 12.3872 7.12928 12.5663C8.02943 12.7453 8.96245 12.6534 9.81037 12.3022C10.6583 11.951 11.383 11.3562 11.8929 10.5931C12.4028 9.82999 12.675 8.93282 12.675 8.01503C12.675 6.78433 12.1861 5.60403 11.3158 4.73379C10.4456 3.86354 9.26528 3.37465 8.03457 3.37465Z" fill="white"/>
<defs>
<linearGradient id="paint0_linear_3940_8859" x1="4.9132" y1="1.10325" x2="6.82349" y2="13.4521" gradientUnits="userSpaceOnUse">
<stop stop-color="#0055C9"/>
<stop offset="0.932141" stop-color="#0055C9" stop-opacity="0"/>
</linearGradient>
<linearGradient id="paint1_linear_3940_8859" x1="3.94671" y1="14.7062" x2="12.9513" y2="6.05596" gradientUnits="userSpaceOnUse">
<stop stop-color="#0055C9"/>
<stop offset="0.932141" stop-color="#0055C9" stop-opacity="0"/>
</linearGradient>
<linearGradient id="paint2_linear_3940_8859" x1="15.6826" y1="8.31546" x2="3.98592" y2="4.42444" gradientUnits="userSpaceOnUse">
<stop stop-color="#37FFFF"/>
<stop offset="0.932141" stop-color="#2EE6FF" stop-opacity="0"/>
</linearGradient>
</defs>
</svg>
