<svg xmlns="http://www.w3.org/2000/svg" version="1.1" xmlns:xlink="http://www.w3.org/1999/xlink" width="512" height="512" x="0" y="0" viewBox="0 0 512 512" style="enable-background:new 0 0 512 512" xml:space="preserve" class=""><g><path d="M29.364 162.154a165.518 165.518 0 0 0-8.812 14.149l13.707 7.601a149.731 149.731 0 0 1 7.973-12.802l-12.868-8.948zM13.218 191.277a163.96 163.96 0 0 0-5.773 15.644l14.962 4.669a148.662 148.662 0 0 1 5.219-14.144l-14.408-6.169zM51.023 136.877a166.378 166.378 0 0 0-11.467 12.092l11.902 10.198a150.051 150.051 0 0 1 10.38-10.946l-10.815-11.344zM3.298 223.069A165.04 165.04 0 0 0 .813 239.55l15.597 1.549a148.775 148.775 0 0 1 2.247-14.909l-15.359-3.121zM15.673 256.169 0 256.185c.005 5.546.292 11.143.849 16.634l15.593-1.583a151.512 151.512 0 0 1-.769-15.067zM189.205 93.263l-2.328 15.499a148.71 148.71 0 0 1 14.775 2.994l3.891-15.182a164.098 164.098 0 0 0-16.338-3.311zM18.724 286.14l-15.353 3.154a163.948 163.948 0 0 0 4.184 16.14l14.951-4.703a148.086 148.086 0 0 1-3.782-14.591zM221.463 101.532l-5.419 14.707c4.697 1.73 9.36 3.724 13.864 5.927l6.887-14.08a164.013 164.013 0 0 0-15.332-6.554zM107.166 101.721a164.19 164.19 0 0 0-15.309 6.605l6.934 14.056a148.755 148.755 0 0 1 13.842-5.972l-5.467-14.689zM139.396 93.345a164.463 164.463 0 0 0-16.328 3.366l3.941 15.17a148.692 148.692 0 0 1 14.764-3.044l-2.377-15.492zM77.304 116.448a165.366 165.366 0 0 0-13.657 9.551l9.62 12.374a149.621 149.621 0 0 1 12.358-8.642l-8.321-13.283zM27.756 314.859l-14.393 6.203a164.81 164.81 0 0 0 7.364 14.951l13.691-7.631a148.678 148.678 0 0 1-6.662-13.523zM187.203 403.191a149.938 149.938 0 0 1-15.004 1.516l.789 15.654a165.895 165.895 0 0 0 16.577-1.675l-2.362-15.495zM142.102 403.216l-2.346 15.497a165.935 165.935 0 0 0 16.579 1.657l.772-15.654a149.993 149.993 0 0 1-15.005-1.5zM216.352 395.65a147.919 147.919 0 0 1-14.381 4.515l3.925 15.174a164.192 164.192 0 0 0 15.909-4.994l-5.453-14.695zM155.97 91.652l.806 15.653a152.285 152.285 0 0 1 15.094-.025l.754-15.656a167.893 167.893 0 0 0-16.654.028zM42.417 341.166l-12.849 8.976a165.876 165.876 0 0 0 10.22 13.163l11.879-10.224a150.458 150.458 0 0 1-9.25-11.915zM112.941 395.708l-5.435 14.701a163.981 163.981 0 0 0 15.915 4.977l3.908-15.178a148.568 148.568 0 0 1-14.388-4.5zM62.072 364.003 51.279 375.37a166.04 166.04 0 0 0 12.648 10.85l9.593-12.395a149.953 149.953 0 0 1-11.448-9.822zM85.899 382.445l-8.292 13.301a164.886 164.886 0 0 0 14.575 8.092l6.902-14.072a149.453 149.453 0 0 1-13.185-7.321zM347.429 91.429c-26.452 0-52.747 6.428-76.048 18.59l7.253 13.894c21.069-10.998 44.86-16.811 68.795-16.811 82.103 0 148.898 66.795 148.898 148.898s-66.795 148.898-148.898 148.898c-27.844 0-54.603-7.593-78.016-22.05 37.592-31.136 59.731-77.763 59.731-126.846 0-52.813-25.632-102.784-68.566-133.672L256 119.036l-4.577 3.292c-42.934 30.887-68.566 80.858-68.566 133.672 0 52.813 25.632 102.784 68.565 133.671 28.087 20.215 61.286 30.9 96.006 30.9 90.745 0 164.571-73.826 164.571-164.571.001-90.745-73.826-164.571-164.57-164.571zm-91.43 47.051a148.561 148.561 0 0 1 15.751 14.201h-31.502a148.758 148.758 0 0 1 15.751-14.201zm-28.869 29.874h57.738a149.834 149.834 0 0 1 10.233 16.154h-78.203a150.022 150.022 0 0 1 10.232-16.154zm-17.671 31.828h93.079a149.241 149.241 0 0 1 5.499 16.154H203.96a149.094 149.094 0 0 1 5.499-16.154zm-8.955 31.828h110.99a148.168 148.168 0 0 1 1.758 16.154H198.747c.288-5.437.882-10.829 1.757-16.154zm-1.757 31.827h114.505a147.648 147.648 0 0 1-1.758 16.154h-110.99a148.14 148.14 0 0 1-1.757-16.154zm5.213 31.828h104.078a149.528 149.528 0 0 1-5.499 16.154H209.46a148.883 148.883 0 0 1-5.5-16.154zm23.171 47.982a149.933 149.933 0 0 1-10.233-16.154h78.203a149.933 149.933 0 0 1-10.233 16.154h-57.737zm28.868 29.874a148.67 148.67 0 0 1-15.751-14.201h31.502a148.67 148.67 0 0 1-15.751 14.201z" fill="#000000" opacity="1" data-original="#000000"></path></g></svg>