<svg xmlns="http://www.w3.org/2000/svg" version="1.1" xmlns:xlink="http://www.w3.org/1999/xlink" width="512" height="512" x="0" y="0" viewBox="0 0 512 512" style="enable-background:new 0 0 512 512" xml:space="preserve" class=""><g><linearGradient id="a" x1="0" x2="512" y1="256" y2="256" gradientUnits="userSpaceOnUse"><stop offset="0" stop-color="#00f2fe"></stop><stop offset=".021" stop-color="#03effe"></stop><stop offset=".293" stop-color="#24d2fe"></stop><stop offset=".554" stop-color="#3cbdfe"></stop><stop offset=".796" stop-color="#4ab0fe"></stop><stop offset="1" stop-color="#4facfe"></stop></linearGradient><path fill="url(#a)" d="M512 167C512 74.916 437.084 0 345 0c-66.012 0-125.586 39.057-152.329 98.497-50.62 3.451-97.705 25.102-133.488 61.596C21.019 199.017 0 250.479 0 305c0 114.14 92.859 207 207 207 36.644 0 72.657-9.708 104.146-28.074 30.537-17.81 56.186-43.313 74.172-73.751 16.33-27.633 25.962-58.79 28.179-90.844C472.941 292.589 512 233.014 512 167zM411.808 275.008c-10.146-69.021-54.832-129.406-119.564-158.692-10.063-4.554-21.913-.086-26.466 9.978-4.554 10.064-.086 21.913 9.978 26.466 59.673 26.998 98.234 86.745 98.244 152.217-.004.189-.006.377-.006.566l-.001.018c-.098 29.707-8.089 58.844-23.111 84.265C320.93 440.513 265.798 472 207 472c-92.084 0-167-74.916-167-167 0-82.265 61.025-151.805 140.154-164.803A167.756 167.756 0 0 0 178 167c0 38.223 13.246 75.586 37.3 105.207C238.998 301.391 289 330 313.019 330c9.17 0 17.437-6.347 19.506-15.67 2.395-10.783-4.407-21.465-15.19-23.859C259.776 277.693 218 226.063 218 167c0-14.512 2.433-28.753 7.23-42.328l.003-.01C243.137 74.023 291.266 40 345 40c70.028 0 127 56.972 127 127 0 44.527-23.373 85.189-60.192 108.008z" opacity="1" data-original="url(#a)" class=""></path></g></svg>