<svg xmlns="http://www.w3.org/2000/svg" version="1.1" xmlns:xlink="http://www.w3.org/1999/xlink" width="512" height="512" x="0" y="0" viewBox="0 0 512 512" style="enable-background:new 0 0 512 512" xml:space="preserve" class=""><g><circle cx="338.004" cy="338" r="164" fill="#89dd8e" opacity="1" data-original="#89dd8e"></circle><circle cx="174.004" cy="174" r="164" fill="#ff7d95" opacity="1" data-original="#ff7d95"></circle><path fill="#89dd8e" d="M338.004 174c0 90.57-73.43 164-164 164 0-90.57 73.43-164 164-164z" opacity="1" data-original="#89dd8e"></path><path fill="#ffffff" d="M338.004 174c0 90.57-73.43 164-164 164 0-90.57 73.43-164 164-164z" opacity="1" data-original="#ffffff"></path><path d="M498.809 371.847c-5.327-1.463-10.829 1.671-12.29 6.998C468.24 445.469 407.168 492 338.004 492c-81.662 0-148.67-63.894-153.687-144.314 87.749-5.156 158.221-75.63 163.373-163.38 64.963 4.106 121.211 49.209 138.736 112.504 1.474 5.323 6.984 8.441 12.306 6.969 5.323-1.474 8.443-6.983 6.969-12.306-9.956-35.957-31.791-68.38-61.481-91.297-28.09-21.681-61.272-33.99-96.492-35.904C342.662 72.836 266.682 0 174.004 0 78.06 0 .004 78.056.004 174c0 92.681 72.839 168.661 164.277 173.723C169.342 439.161 245.323 512 338.004 512c78.145 0 147.147-52.579 167.803-127.863 1.461-5.326-1.672-10.829-6.998-12.29zM184.36 327.644c5.117-76.681 66.607-138.171 143.288-143.288-5.118 76.681-66.608 138.171-143.288 143.288zM20.004 174c0-84.916 69.084-154 154-154 81.662 0 148.67 63.894 153.687 144.314-87.747 5.155-158.217 75.626-163.372 163.372C83.898 322.67 20.004 255.662 20.004 174z" fill="#000000" opacity="1" data-original="#000000"></path><path d="M327.845 387.903c5.523 0 10-4.477 10-10v-22.686l53.767 53.767c3.853 3.852 10.289 3.852 14.143 0 3.905-3.905 3.905-10.237 0-14.143l-53.767-53.767h22.571c5.523 0 10-4.477 10-10s-4.477-10-10-10h-46.713c-5.445 0-10.001 4.555-10 10.001v46.827c-.001 5.524 4.476 10.001 9.999 10.001zM179.882 193.112c5.444 0 10-4.555 10-10v-46.829c0-5.523-4.477-10-10-10s-10 4.477-10 10v22.686l-53.767-53.767c-3.905-3.905-10.237-3.905-14.143 0s-3.905 10.237 0 14.143l53.767 53.767h-22.571c-5.523 0-10 4.477-10 10s4.477 10 10 10zM511.804 336.05c-1.005-5.354-6.451-8.904-11.75-7.85-5.337 1.062-8.921 6.41-7.85 11.75 1.07 5.337 6.404 8.921 11.75 7.85 5.325-1.067 8.934-6.407 7.85-11.75z" fill="#000000" opacity="1" data-original="#000000"></path></g></svg>