<svg xmlns="http://www.w3.org/2000/svg" version="1.1" xmlns:xlink="http://www.w3.org/1999/xlink" width="512" height="512" x="0" y="0" viewBox="0 0 512 512" style="enable-background:new 0 0 512 512" xml:space="preserve" class=""><g><path d="M318.061 0c-85.92 0-158.956 56.168-184.353 133.708C56.168 159.105 0 232.141 0 318.061 0 424.999 87.001 512 193.939 512c85.92 0 158.956-56.168 184.353-133.708C455.832 352.895 512 279.859 512 193.939 512 87.001 424.999 0 318.061 0zM193.939 465.455c-81.273 0-147.394-66.121-147.394-147.394 0-56.066 31.468-104.915 77.666-129.828a200.36 200.36 0 0 0-.09 5.706c0 106.938 87.001 193.939 193.939 193.939 1.908 0 3.81-.036 5.706-.09-24.912 46.199-73.761 77.667-129.827 77.667zm193.85-141.688c.054-1.896.09-3.798.09-5.706 0-106.938-87.001-193.939-193.939-193.939-1.908 0-3.81.036-5.706.09 24.913-46.198 73.762-77.666 129.828-77.666 81.273 0 147.394 66.121 147.394 147.394-.001 56.065-31.469 104.914-77.667 129.827z" fill="#000000" opacity="1" data-original="#000000" class=""></path></g></svg>