<svg xmlns="http://www.w3.org/2000/svg" version="1.1" xmlns:xlink="http://www.w3.org/1999/xlink" width="512" height="512" x="0" y="0" viewBox="0 0 682.667 682.667" style="enable-background:new 0 0 512 512" xml:space="preserve" class=""><g><defs><clipPath id="a" clipPathUnits="userSpaceOnUse"><path d="M0 512h512V0H0Z" fill="#000000" opacity="1" data-original="#000000"></path></clipPath></defs><path d="M40.294 331.627h431.412v36.366H40.294Z" style="fill-opacity:1;fill-rule:nonzero;stroke:#000000;stroke-width:15;stroke-linecap:round;stroke-linejoin:round;stroke-miterlimit:10;stroke-dasharray:none;stroke-opacity:1" transform="matrix(1.33333 0 0 -1.33333 0 682.667)" data-original="#000000"></path><path d="M276.796 206.055H318.4v50.734h-41.604z" style="fill-opacity:1;fill-rule:nonzero;stroke:none" transform="matrix(1.33333 0 0 -1.33333 0 682.667)" fill="#d7e3f2" data-original="#d7e3f2"></path><path d="M276.796 236.209H318.4v20.58h-41.604z" style="fill-opacity:1;fill-rule:nonzero;stroke:none" transform="matrix(1.33333 0 0 -1.33333 0 682.667)" fill="#b7cee9" data-original="#b7cee9"></path><path d="M0 0v50.734" style="stroke-width:15;stroke-linecap:round;stroke-linejoin:round;stroke-miterlimit:10;stroke-dasharray:none;stroke-opacity:1" transform="matrix(1.33333 0 0 -1.33333 424.533 407.927)" fill="none" stroke="#000000" stroke-width="15" stroke-linecap="round" stroke-linejoin="round" stroke-miterlimit="10" stroke-dasharray="none" stroke-opacity="" data-original="#000000"></path><path d="M0 0v-49.833" style="stroke-width:15;stroke-linecap:round;stroke-linejoin:round;stroke-miterlimit:10;stroke-dasharray:none;stroke-opacity:1" transform="matrix(1.33333 0 0 -1.33333 368.315 341.483)" fill="none" stroke="#000000" stroke-width="15" stroke-linecap="round" stroke-linejoin="round" stroke-miterlimit="10" stroke-dasharray="none" stroke-opacity="" data-original="#000000"></path><g clip-path="url(#a)" transform="matrix(1.33333 0 0 -1.33333 0 682.667)"><path d="M0 0h-73.373c-8.621 0-15.61-6.989-15.61-15.61 0-8.622 6.989-15.612 15.61-15.612H0c8.621 0 15.61 6.99 15.61 15.612C15.61-6.989 8.621 0 0 0" style="fill-opacity:1;fill-rule:nonzero;stroke:none" transform="translate(334.284 288.01)" fill="#f29b4e" data-original="#f29b4e"></path><path d="M0 0h-73.373c-8.621 0-15.61-6.989-15.61-15.61 0-8.622 6.989-15.612 15.61-15.612H0c8.621 0 15.61 6.99 15.61 15.612C15.61-6.989 8.621 0 0 0Z" style="stroke-width:15;stroke-linecap:round;stroke-linejoin:round;stroke-miterlimit:10;stroke-dasharray:none;stroke-opacity:1" transform="translate(334.284 288.01)" fill="none" stroke="#000000" stroke-width="15" stroke-linecap="round" stroke-linejoin="round" stroke-miterlimit="10" stroke-dasharray="none" stroke-opacity="" data-original="#000000"></path><path d="M0 0c17.435 0 31.568-14.134 31.568-31.568v-111.643h-63.136v111.643C-31.568-14.134-17.435 0 0 0" style="fill-opacity:1;fill-rule:nonzero;stroke:none" transform="translate(297.598 431.222)" fill="#f29b4e" data-original="#f29b4e"></path><path d="M266.029 288.011h63.137v24.677h-63.137z" style="fill-opacity:1;fill-rule:nonzero;stroke:none" fill="#ef7d31" data-original="#ef7d31"></path><path d="M0 0c-4.478 0-8.733-.937-12.592-2.618C-1.426-7.482 6.384-18.611 6.384-31.568v-111.643h25.184v111.643C31.568-14.134 17.435 0 0 0" style="fill-opacity:1;fill-rule:nonzero;stroke:none" transform="translate(297.598 431.222)" fill="#ef7d31" data-original="#ef7d31"></path><path d="M0 0c17.435 0 31.568-14.134 31.568-31.568v-111.643h-63.136v111.643C-31.568-14.134-17.435 0 0 0Z" style="stroke-width:15;stroke-linecap:round;stroke-linejoin:round;stroke-miterlimit:10;stroke-dasharray:none;stroke-opacity:1" transform="translate(297.598 431.222)" fill="none" stroke="#000000" stroke-width="15" stroke-linecap="round" stroke-linejoin="round" stroke-miterlimit="10" stroke-dasharray="none" stroke-opacity="" data-original="#000000"></path><path d="M0 0v-263.567h32.794V-6.062A6.062 6.062 0 0 1 26.733 0Z" style="fill-opacity:1;fill-rule:nonzero;stroke:none" transform="translate(471.706 367.993)" fill="#d76134" data-original="#d76134"></path><path d="M0 0v-257.506h32.794V6.062H6.061A6.061 6.061 0 0 1 0 0" style="fill-opacity:1;fill-rule:nonzero;stroke:none" transform="translate(7.5 361.932)" fill="#d76134" data-original="#d76134"></path><path d="M0 0v76.836a6.06 6.06 0 0 1-6.061 6.061h-26.733V-180.67H0V-35" style="stroke-width:15;stroke-linecap:round;stroke-linejoin:round;stroke-miterlimit:10;stroke-dasharray:none;stroke-opacity:1" transform="translate(504.5 285.096)" fill="none" stroke="#000000" stroke-width="15" stroke-linecap="round" stroke-linejoin="round" stroke-miterlimit="10" stroke-dasharray="none" stroke-opacity="" data-original="#000000"></path><path d="M0 0v82.897h-26.733a6.06 6.06 0 0 1-6.061-6.061V-180.67H0V-35" style="stroke-width:15;stroke-linecap:round;stroke-linejoin:round;stroke-miterlimit:10;stroke-dasharray:none;stroke-opacity:1" transform="translate(40.294 285.096)" fill="none" stroke="#000000" stroke-width="15" stroke-linecap="round" stroke-linejoin="round" stroke-miterlimit="10" stroke-dasharray="none" stroke-opacity="" data-original="#000000"></path><path d="m0 0 55.15-259.463 39.438 8.383L39.438 8.383Z" style="fill-opacity:1;fill-rule:nonzero;stroke:none" transform="translate(110.215 426.981)" fill="#5ecfb4" data-original="#5ecfb4"></path><path d="m0 0 8.464-39.818 39.437 8.382-8.463 39.819z" style="fill-opacity:1;fill-rule:nonzero;stroke:none" transform="translate(110.215 426.981)" fill="#50b3a0" data-original="#50b3a0"></path><path d="m0 0-55.151 259.463-39.437-8.383 55.15-259.463" style="stroke-width:15;stroke-linecap:round;stroke-linejoin:round;stroke-miterlimit:10;stroke-dasharray:none;stroke-opacity:1" transform="translate(204.804 175.901)" fill="none" stroke="#000000" stroke-width="15" stroke-linecap="round" stroke-linejoin="round" stroke-miterlimit="10" stroke-dasharray="none" stroke-opacity="" data-original="#000000"></path><path d="m0 0-32.558-6.92a2.318 2.318 0 0 0-2.75 1.786l-1.96 9.222a2.534 2.534 0 0 1-3.005 1.952L-64.463.897a2.53 2.53 0 0 1-1.951-3.003l11.328-53.293a2.532 2.532 0 0 1 3.004-1.952l24.19 5.142a2.534 2.534 0 0 1 1.952 3.005l-1.961 9.222a2.32 2.32 0 0 0 1.786 2.751l32.558 6.919z" style="fill-opacity:1;fill-rule:nonzero;stroke:none" transform="translate(76.498 451.695)" fill="#b7cee9" data-original="#b7cee9"></path><path d="m0 0-32.558-6.92a2.318 2.318 0 0 0-2.75 1.786l-1.96 9.222a2.534 2.534 0 0 1-3.005 1.952L-64.463.897a2.53 2.53 0 0 1-1.951-3.003l11.328-53.293a2.532 2.532 0 0 1 3.004-1.952l24.19 5.142a2.534 2.534 0 0 1 1.952 3.005l-1.961 9.222a2.32 2.32 0 0 0 1.786 2.751l32.558 6.919z" style="stroke-width:15;stroke-linecap:round;stroke-linejoin:round;stroke-miterlimit:10;stroke-dasharray:none;stroke-opacity:1" transform="translate(76.498 451.695)" fill="none" stroke="#000000" stroke-width="15" stroke-linecap="round" stroke-linejoin="round" stroke-miterlimit="10" stroke-dasharray="none" stroke-opacity="" data-original="#000000"></path><path d="m0 0-91.655-19.481a5.77 5.77 0 0 1-4.443-6.843l9.982-46.963a5.769 5.769 0 0 1 6.843-4.443L30.956-54.301a10.954 10.954 0 0 0 11.896-5.472l8.86-16.253a5.78 5.78 0 0 1 7.84-2.308l7.786 3.384c7.942 4.329 11.079 13.3 6.748 21.242L59.8-27.505C48.142-6.122 23.822 5.063 0 0" style="fill-opacity:1;fill-rule:nonzero;stroke:none" transform="translate(161.86 484.44)" fill="#d7e3f2" data-original="#d7e3f2"></path><path d="m0 0-30.294-6.439a5.77 5.77 0 0 1-4.444-6.843l9.983-46.963a5.768 5.768 0 0 1 6.842-4.443L92.316-41.259a10.953 10.953 0 0 0 11.896-5.472l8.86-16.253a5.78 5.78 0 0 1 7.84-2.308l7.786 3.384c7.943 4.329 11.079 13.3 6.749 21.242L121.16-14.463C109.502 6.92 85.183 18.105 61.36 13.042L35.001 7.439" style="stroke-width:15;stroke-linecap:round;stroke-linejoin:round;stroke-miterlimit:10;stroke-dasharray:none;stroke-opacity:1" transform="translate(100.5 471.397)" fill="none" stroke="#000000" stroke-width="15" stroke-linecap="round" stroke-linejoin="round" stroke-miterlimit="10" stroke-dasharray="none" stroke-opacity="" data-original="#000000"></path><path d="M0 0h-23.37a5.687 5.687 0 0 1-5.344-3.742l-15.425-42.38a14.707 14.707 0 0 1 1.908-13.656l12.211-16.87a14.04 14.04 0 0 0 2.667-8.235V-238.6H3.981v153.717c0 2.957.934 5.839 2.667 8.235l12.212 16.87a14.707 14.707 0 0 1 1.908 13.656L5.343-3.742A5.686 5.686 0 0 1 0 0" style="fill-opacity:1;fill-rule:nonzero;stroke:none" transform="translate(413.531 416.821)" fill="#d7e3f2" data-original="#d7e3f2"></path><path d="M0 0h-23.37a5.687 5.687 0 0 1-5.344-3.742l-15.425-42.38a14.707 14.707 0 0 1 1.908-13.656l12.211-16.87a14.04 14.04 0 0 0 2.667-8.235V-238.6H3.981v153.717c0 2.957.934 5.839 2.667 8.235l12.212 16.87a14.707 14.707 0 0 1 1.908 13.656L5.343-3.742A5.686 5.686 0 0 1 0 0Z" style="stroke-width:15;stroke-linecap:round;stroke-linejoin:round;stroke-miterlimit:10;stroke-dasharray:none;stroke-opacity:1" transform="translate(413.531 416.821)" fill="none" stroke="#000000" stroke-width="15" stroke-linecap="round" stroke-linejoin="round" stroke-miterlimit="10" stroke-dasharray="none" stroke-opacity="" data-original="#000000"></path><path d="M0 0h-497v-172.631a7.07 7.07 0 0 1 7.071-7.07H-7.071A7.07 7.07 0 0 1 0-172.631z" style="fill-opacity:1;fill-rule:nonzero;stroke:none" transform="translate(504.5 206.055)" fill="#f29b4e" data-original="#f29b4e"></path><path d="M0 0h-482.857a7.071 7.071 0 0 0-7.072 7.071v-30.155a7.07 7.07 0 0 1 7.072-7.07H0a7.07 7.07 0 0 1 7.071 7.07V7.071A7.071 7.071 0 0 0 0 0" style="fill-opacity:1;fill-rule:nonzero;stroke:none" transform="translate(497.429 56.508)" fill="#ef7d31" data-original="#ef7d31"></path><path d="M0 0h-497v-172.631a7.07 7.07 0 0 1 7.071-7.07H-7.071A7.07 7.07 0 0 1 0-172.631z" style="stroke-width:15;stroke-linecap:round;stroke-linejoin:round;stroke-miterlimit:10;stroke-dasharray:none;stroke-opacity:1" transform="translate(504.5 206.055)" fill="none" stroke="#000000" stroke-width="15" stroke-linecap="round" stroke-linejoin="round" stroke-miterlimit="10" stroke-dasharray="none" stroke-opacity="" data-original="#000000"></path><path d="M0 0v-33a5 5 0 0 1 5-5h100.261a5 5 0 0 1 5 5V0a5 5 0 0 1-5 5H5a5 5 0 0 1-5-5" style="fill-opacity:1;fill-rule:nonzero;stroke:none" transform="translate(200.87 154.222)" fill="#d76134" data-original="#d76134"></path><path d="M0 0v-33a5 5 0 0 1 5-5h100.261a5 5 0 0 1 5 5V0a5 5 0 0 1-5 5H5a5 5 0 0 1-5-5Z" style="stroke-width:15;stroke-linecap:round;stroke-linejoin:round;stroke-miterlimit:10;stroke-dasharray:none;stroke-opacity:1" transform="translate(200.87 154.222)" fill="none" stroke="#000000" stroke-width="15" stroke-linecap="round" stroke-linejoin="round" stroke-miterlimit="10" stroke-dasharray="none" stroke-opacity="" data-original="#000000"></path></g></g></svg>