<svg xmlns="http://www.w3.org/2000/svg" version="1.1" xmlns:xlink="http://www.w3.org/1999/xlink" width="512" height="512" x="0" y="0" viewBox="0 0 480 480" style="enable-background:new 0 0 512 512" xml:space="preserve" class=""><g><path d="M308.013 68.013c-24.146 0-47.141 5.012-68.013 14.036-20.872-9.023-43.867-14.036-68.013-14.036C77.152 68.013 0 145.166 0 240s77.152 171.987 171.986 171.987c24.146 0 47.142-5.012 68.013-14.036 20.872 9.023 43.867 14.036 68.013 14.036C402.847 411.987 480 334.834 480 240S402.847 68.013 308.013 68.013zm-36.101 57.573-108.982 69.13c12.377-39.578 40.536-72.241 77.07-90.605a152.552 152.552 0 0 1 31.912 21.475zM169.375 302.237a150.738 150.738 0 0 1-8.355-23.61l151.918-95.432a150.705 150.705 0 0 1 6.941 21.78l-150.504 97.262zm153.981-75.697c.391 4.437.603 8.924.603 13.46 0 6.589-.423 13.081-1.24 19.451l-126.776 83.092a152.894 152.894 0 0 1-17.123-22.597l144.536-93.406zm-166.302 30.959A152.988 152.988 0 0 1 156.041 240c0-6.057.367-12.029 1.06-17.903l129.301-82.018a152.67 152.67 0 0 1 17.771 25.003l-147.119 92.417zm14.932 134.488C88.181 391.987 20 323.806 20 240S88.181 88.013 171.986 88.013c15.396 0 30.261 2.309 44.277 6.587-48.171 30.51-80.222 84.28-80.222 145.401 0 28.47 6.96 55.343 19.257 79.017a9.968 9.968 0 0 0 1.372 3.338 9.952 9.952 0 0 0 1.29 1.58 173.27 173.27 0 0 0 58.304 61.467 151.54 151.54 0 0 1-44.278 6.584zm38.806-35.264 105.541-69.174c-12.73 38.557-40.5 70.329-76.334 88.34a152.484 152.484 0 0 1-29.207-19.166zm97.221 35.264a151.455 151.455 0 0 1-44.276-6.586c48.171-30.51 80.223-84.28 80.223-145.401 0-10.923-1.035-21.606-2.991-31.969-.021-.13-.049-.259-.075-.389-9.072-47.458-37.702-88.053-77.157-113.043a151.455 151.455 0 0 1 44.276-6.586C391.818 88.013 460 156.194 460 240s-68.182 151.987-151.987 151.987z" fill="#000000" opacity="1" data-original="#000000"></path></g></svg>