<svg xmlns="http://www.w3.org/2000/svg" version="1.1" xmlns:xlink="http://www.w3.org/1999/xlink" width="512" height="512" x="0" y="0" viewBox="0 0 512 512" style="enable-background:new 0 0 512 512" xml:space="preserve" class=""><g><path d="M255.973 423.934c-13.993 0-28.195-1.763-42.352-5.456-89.59-23.368-143.466-115.267-120.097-204.856 11.32-43.399 38.863-79.793 77.555-102.476C209.77 88.463 254.98 82.203 298.38 93.525c43.399 11.32 79.793 38.863 102.477 77.555s28.941 83.902 17.621 127.301c-19.676 75.432-87.948 125.553-162.505 125.553zm-.24-325.913c-27.72 0-55.051 7.361-79.597 21.751-36.388 21.333-62.291 55.558-72.937 96.373-21.977 84.255 28.69 170.68 112.945 192.657a157.632 157.632 0 0 0 39.83 5.13c70.124.002 134.322-47.129 152.828-118.075 10.646-40.815 4.761-83.332-16.572-119.72s-55.559-62.291-96.373-72.937c-13.284-3.465-26.75-5.179-40.124-5.179z" fill="#000000" opacity="1" data-original="#000000"></path><path d="M163.065 359.562c-1.44 0-2.89-.225-4.301-.681a13.862 13.862 0 0 1-7.04-5.142 13.93 13.93 0 0 1-2.643-8.206c-.005-2.301-.075-4.617-.15-7.07-.296-9.748-.603-19.828 3.363-29.232 5.755-13.604 6.555-23.665 2.447-30.767-1.406-2.429-3.434-4.694-5.58-7.092-3.471-3.878-7.404-8.272-9.023-14.127-2.099-7.646.411-14.961 2.625-21.416 1.581-4.611 3.075-8.967 2.955-13.088-.187-6.365-4.489-12.978-11.508-17.688-1.159-.778-2.395-1.534-3.703-2.334-5.731-3.508-12.227-7.483-14.545-14.986-.633-2.038-.825-4.039-.995-5.804-.084-.875-.164-1.7-.288-2.459-.334-2.03-1.031-4.033-2.131-6.117a5 5 0 0 1 8.845-4.665c1.609 3.052 2.641 6.05 3.153 9.163.179 1.09.278 2.123.374 3.121.135 1.41.263 2.741.593 3.802 1.206 3.903 5.582 6.581 10.213 9.416 1.338.819 2.722 1.666 4.054 2.56 9.695 6.505 15.65 16.112 15.932 25.7.172 5.939-1.69 11.372-3.492 16.625-1.915 5.581-3.722 10.853-2.442 15.515.992 3.587 3.829 6.757 6.833 10.113 2.39 2.67 4.86 5.431 6.784 8.753 5.788 10.006 5.169 22.98-1.891 39.666-3.116 7.39-2.855 15.962-2.579 25.038.073 2.414.149 4.911.154 7.364 0 .871.265 1.692.767 2.385a3.858 3.858 0 0 0 1.969 1.45 3.892 3.892 0 0 0 3.385-.443c.591-.387 1.606-1.28 1.771-2.92l.017-.206c1.36-13.137 11.644-24.561 24.462-27.257 1.323-.276 2.635-.47 3.904-.656 3.25-.479 6.32-.932 7.69-2.529.893-1.034 1.325-2.831 1.825-4.912l.047-.195a5 5 0 1 1 9.722 2.342l-.046.192c-.703 2.923-1.5 6.235-3.967 9.095-3.796 4.425-9.351 5.243-13.813 5.9-1.177.174-2.289.338-3.313.551-8.534 1.796-15.656 9.709-16.557 18.405l-.015.188c-.43 4.299-2.707 8.051-6.255 10.371a13.866 13.866 0 0 1-7.607 2.277zM249.95 189.103a4.98 4.98 0 0 1-3.605-1.534 4.993 4.993 0 0 1 .138-7.064l.012-.012c.057-.054.114-.107.173-.158 1.472-1.286 2.893-2.665 4.397-4.125 5.27-5.113 11.242-10.908 19.701-11.955 2.811-.341 5.563-.136 8.224.063 4.552.339 7.419.434 8.914-1.1.613-.627.853-1.536.719-2.708-.234-2.052-1.597-4.251-3.313-5.349-3.816-2.439-9.099-2.504-15.099-2.343-6.306.146-14.133.326-20.742-3.819-4.301-2.701-7.372-7.511-8.017-12.555-.532-4.159.645-8.01 3.314-10.844 1.516-1.618 3.239-2.625 4.759-3.515.246-.144.488-.286.722-.426-15.69-3.456-30.934-8.567-40.578-19.659a5 5 0 1 1 7.546-6.562c8.796 10.116 25.336 14.541 40.356 17.536a5 5 0 0 1 2.947 1.805c3.482 4.412 1.354 10.569-2.614 13.744-1.129.905-2.298 1.589-3.329 2.192-1.023.599-1.989 1.164-2.521 1.731-.605.643-.832 1.557-.682 2.727.263 2.055 1.667 4.256 3.414 5.354 4.064 2.549 9.966 2.413 15.176 2.293 5.904-.16 14.021-.378 20.735 3.914 4.271 2.73 7.283 7.573 7.862 12.639.479 4.188-.764 8.034-3.498 10.829-4.851 4.98-11.485 4.484-16.814 4.087-2.282-.171-4.438-.331-6.262-.109-5.12.633-9.215 4.606-13.955 9.206-1.523 1.478-3.098 3.006-4.758 4.458a4.997 4.997 0 0 1-3.322 1.259zM341.747 399.532a5 5 0 0 1-4.573-2.971c-5.723-11.396-11.845-26.509-8.864-42.737 1.424-7.797 4.801-14.772 8.066-21.519 2.081-4.299 4.047-8.358 5.52-12.578 3.366-9.652 2.842-21.994-4.673-26.904-2.659-1.734-6.363-2.656-11.107-3.505a28.137 28.137 0 0 1-5.083-1.416 5.002 5.002 0 0 1 3.586-9.336c1.043.401 2.142.707 3.265.909 4.785.856 10.276 2.02 14.807 4.975 12.434 8.123 13.302 25.226 8.648 38.571-1.663 4.765-3.848 9.277-5.961 13.642-3.111 6.427-6.05 12.498-7.23 18.963-1.922 10.461.566 21.764 8.066 36.65a5.006 5.006 0 0 1-4.467 7.256zM374.627 253.141a20.76 20.76 0 0 1-3.577-.314 235.943 235.943 0 0 1-34.515-8.795c-3.067-1.025-6.318-1.207-9.406-.523a5 5 0 1 1-2.162-9.763c4.835-1.07 9.91-.799 14.678.783.084.026.168.055.252.084l.067.022a225.636 225.636 0 0 0 32.815 8.343c6.008 1.054 9.587-2.851 10.833-6.516 1.222-3.596.725-8.379-4.335-11.023a14.002 14.002 0 0 0-.739-.36c-4.942-2.232-10.829-2.153-17.07-2.066-2.716.037-5.522.077-8.328-.081-11.596-.644-24.038-6.613-25.693-18.496-1.374-9.935 6.159-18.515 14.312-21.857 6.502-2.665 13.356-2.811 19.706-2.567.166-2.322-.637-5.29-1.42-8.187-.196-.727-.391-1.446-.57-2.153-2.197-8.639.034-18.556 8.547-20.797.674-.18 2.467-.761 4.202-1.324 2.039-.662 4.352-1.412 6.353-2.009a5.005 5.005 0 0 1 6.436 4.791 5 5 0 0 1-3.763 4.847 293.96 293.96 0 0 0-5.939 1.883c-2.114.686-3.783 1.227-4.729 1.479-1.718.453-2.413 4.742-1.416 8.664.168.659.35 1.331.533 2.009 1.516 5.604 3.401 12.579-.587 18.695a4.998 4.998 0 0 1-4.444 2.263c-6.584-.338-13.392-.688-19.115 1.659-4.536 1.86-8.844 6.569-8.199 11.229.827 5.939 8.849 9.47 16.344 9.887 2.458.136 4.975.102 7.635.066 7.054-.101 14.354-.198 21.326 2.953.425.192.842.396 1.252.609 9.987 5.218 11.803 15.364 9.172 23.104-2.819 8.284-10.125 13.461-18.456 13.461zm-37.871-9.041.007.002-.007-.002zm-.008-.003.007.002-.007-.002zm-.007-.002.007.002a.019.019 0 0 1-.007-.002zm-.006-.001.005.001-.005-.001zm-.006-.002.002.001-.002-.001zm3.026-9.524.003.001-.003-.001z" fill="#000000" opacity="1" data-original="#000000"></path><path d="M408.033 413.033a4.98 4.98 0 0 1-3.535-1.465 4.998 4.998 0 0 1 0-7.07c18.262-18.263 32.813-39.365 43.248-62.723 35.303-78.949 17.918-173.095-43.257-234.271-61.17-61.171-155.313-78.55-234.261-43.249a5 5 0 1 1-4.082-9.128c40.239-17.992 84.547-23.453 128.135-15.791 44.594 7.839 85.148 28.966 117.278 61.097 32.132 32.132 53.261 72.688 61.103 117.284 7.664 43.591 2.206 87.902-15.786 128.139-10.936 24.475-26.179 46.584-45.308 65.712a4.978 4.978 0 0 1-3.535 1.465zM256.226 476.034a222.323 222.323 0 0 1-38.509-3.372c-44.596-7.842-85.152-28.971-117.284-61.103-32.131-32.13-53.258-72.685-61.097-117.278-7.663-43.588-2.202-87.896 15.791-128.135 10.934-24.473 26.177-46.583 45.307-65.712a5.001 5.001 0 0 1 7.071 7.071c-18.263 18.263-32.814 39.366-43.249 62.722-35.302 78.951-17.922 173.093 43.249 234.263 61.175 61.175 155.322 78.559 234.27 43.258 2.524-1.129 5.479.003 6.605 2.523a5 5 0 0 1-2.523 6.605c-28.408 12.702-58.849 19.158-89.631 19.158z" fill="#000000" opacity="1" data-original="#000000"></path><path d="M103.97 154.363a5 5 0 0 1-5-5V108.97H58.577a5 5 0 0 1 0-10h45.393a5 5 0 0 1 5 5v45.393a5 5 0 0 1-5 5zM453.424 413.031h-45.393a5 5 0 0 1-5-5v-45.393c0-2.762 2.238-5 5-5s5 2.238 5 5v40.393h40.393c2.762 0 5 2.238 5 5s-2.238 5-5 5zM256 333.152c-42.542 0-77.152-34.61-77.152-77.152s34.61-77.152 77.152-77.152 77.152 34.61 77.152 77.152-34.61 77.152-77.152 77.152zm0-144.303c-37.028 0-67.152 30.124-67.152 67.152s30.124 67.152 67.152 67.152 67.152-30.124 67.152-67.152-30.124-67.152-67.152-67.152z" fill="#000000" opacity="1" data-original="#000000"></path><path d="M256 301.487c-11.565 0-21.922-5.979-27.705-15.996-5.783-10.016-5.783-21.975 0-31.991l23.375-40.486a5 5 0 0 1 8.661 0l23.374 40.486c5.783 10.015 5.783 21.974.001 31.991-5.783 10.017-16.14 15.996-27.706 15.996zm0-75.973-19.045 32.987c-3.975 6.885-3.975 15.105 0 21.991 3.975 6.885 11.095 10.995 19.045 10.995 7.951 0 15.07-4.11 19.045-10.996 3.975-6.885 3.975-15.105-.001-21.99z" fill="#000000" opacity="1" data-original="#000000"></path></g></svg>