<svg xmlns="http://www.w3.org/2000/svg" version="1.1" xmlns:xlink="http://www.w3.org/1999/xlink" width="512" height="512" x="0" y="0" viewBox="0 0 64 64" style="enable-background:new 0 0 512 512" xml:space="preserve" class=""><g><path d="M19.078 29.903h-7.187a1 1 0 1 0 0 2h7.187a1 1 0 1 0 0-2zM19.078 34.754h-7.187a1 1 0 1 0 0 2h7.187a1 1 0 1 0 0-2z" fill="#000000" opacity="1" data-original="#000000" class=""></path><path d="m58.642 24.093-6.66-6.651c-.207-.206-.499-.286-.795-.286H38.24a1 1 0 0 0-1 1v12.71l-5.146-3.945a1 1 0 0 0-1.609.793v2.762H26.76V24.82c0-.22-.106-.518-.288-.701l-.01-.01-6.677-6.667c-.172-.172-.435-.286-.787-.286H6.035a1 1 0 0 0-1 1V45.85a1 1 0 0 0 1 1H25.76a1 1 0 0 0 1-1v-7.12h3.727v2.763a.999.999 0 0 0 1.609.793l5.146-3.945v7.507a1 1 0 0 0 1 1h19.725a1 1 0 0 0 1-1V24.82c-.002-.247-.164-.578-.325-.727zm-6.366-3.53 3.269 3.264h-3.269zm-32.198 0 3.269 3.264h-3.269zM24.76 44.85H7.035V19.156h11.043v5.67a1 1 0 0 0 1 1h5.682v4.651h-1.019a1 1 0 0 0-1 1v6.253a1 1 0 0 0 1 1h1.019zm6.726-8.12h-6.745v-4.253h6.745a1 1 0 0 0 1-1v-1.735l6.342 4.862-6.342 4.862V37.73a1 1 0 0 0-1-1zm7.754 8.12v-8.041l1.84-1.411a.999.999 0 0 0 0-1.587L39.24 32.4V19.156h11.036v5.67a1 1 0 0 0 1 1h5.689V44.85z" fill="#000000" opacity="1" data-original="#000000" class=""></path><path d="M51.276 29.903h-7.187a1 1 0 1 0 0 2h7.187a1 1 0 1 0 0-2zM51.276 34.754h-7.187a1 1 0 1 0 0 2h7.187a1 1 0 1 0 0-2z" fill="#000000" opacity="1" data-original="#000000" class=""></path></g></svg>