<svg xmlns="http://www.w3.org/2000/svg" version="1.1" xmlns:xlink="http://www.w3.org/1999/xlink" width="512" height="512" x="0" y="0" viewBox="0 0 96 96" style="enable-background:new 0 0 512 512" xml:space="preserve" fill-rule="evenodd" class=""><g><path d="M58 44c0-1.591-.63-3.117-1.76-4.243A5.988 5.988 0 0 0 52 38H6c-1.59 0-3.12.632-4.24 1.757A5.985 5.985 0 0 0 0 44v46c0 1.591.63 3.117 1.76 4.243A5.988 5.988 0 0 0 6 96h46c1.59 0 3.12-.632 4.24-1.757A5.985 5.985 0 0 0 58 90zm9.84 40.984 3.57-3.57c.79-.78.79-2.048 0-2.828a1.99 1.99 0 0 0-2.82 0l-7 7a1.984 1.984 0 0 0 0 2.828l7 7a1.99 1.99 0 0 0 2.82 0c.79-.78.79-2.048 0-2.828l-3.59-3.599C81.79 88.556 93 77.077 93 63c0-1.104-.9-2-2-2s-2 .896-2 2c0 11.859-9.4 21.539-21.16 21.984zM54 44v46c0 .53-.21 1.039-.59 1.414-.37.375-.88.586-1.41.586H6c-.53 0-1.04-.211-1.41-.586A1.984 1.984 0 0 1 4 90V44c0-.53.21-1.039.59-1.414C4.96 42.211 5.47 42 6 42h46c.53 0 1.04.211 1.41.586.38.375.59.884.59 1.414zm-27 8v32c0 1.104.9 2 2 2s2-.896 2-2V52h12c0 1.104.9 2 2 2s2-.896 2-2v-2c0-1.105-.89-2-2-2H13c-1.11 0-2 .895-2 2v2c0 1.104.9 2 2 2s2-.896 2-2zm65-29.828-11 11L66.83 19a6.831 6.831 0 0 0-9.66 0c-4.56 4.56-13.58 13.586-13.58 13.586-.79.78-.79 2.048 0 2.828a1.99 1.99 0 0 0 2.82 0S55.44 26.389 60 21.828a2.83 2.83 0 0 1 4 0l28 28V52c0 .53-.21 1.039-.59 1.414-.37.375-.88.586-1.41.586H62c-1.1 0-2 .896-2 2s.9 2 2 2h28c1.59 0 3.12-.632 4.24-1.757A5.985 5.985 0 0 0 96 52V6c0-1.591-.63-3.117-1.76-4.243A5.988 5.988 0 0 0 90 0H44c-1.59 0-3.12.632-4.24 1.757A5.985 5.985 0 0 0 38 6v28c0 1.104.9 2 2 2s2-.896 2-2V6c0-.53.21-1.039.59-1.414C42.96 4.211 43.47 4 44 4h46c.53 0 1.04.211 1.41.586.38.375.59.884.59 1.414zM83.83 36 92 44.172V27.828zM28.18 7.013C14.21 7.444 3 18.923 3 33c0 1.104.9 2 2 2s2-.896 2-2c0-11.859 9.4-21.539 21.16-21.984l-3.57 3.57c-.79.78-.79 2.048 0 2.828a1.99 1.99 0 0 0 2.82 0l7-7c.79-.781.79-2.047 0-2.828l-7-7a1.99 1.99 0 0 0-2.82 0c-.79.78-.79 2.048 0 2.828zM80 6c-4.41 0-8 3.585-8 8s3.59 8 8 8 8-3.585 8-8-3.59-8-8-8zm0 4a4 4 0 1 1 0 8 4 4 0 0 1 0-8z" fill="#000000" opacity="1" data-original="#000000" class=""></path></g></svg>