<svg xmlns="http://www.w3.org/2000/svg" version="1.1" xmlns:xlink="http://www.w3.org/1999/xlink" width="512" height="512" x="0" y="0" viewBox="0 0 512 512" style="enable-background:new 0 0 512 512" xml:space="preserve" class=""><g><path d="M158 472H60c-11.028 0-20-8.972-20-20v-95c0-11.046-8.954-20-20-20s-20 8.954-20 20v95c0 33.084 26.916 60 60 60h98c11.046 0 20-8.954 20-20s-8.954-20-20-20zM147.099 152.815c-7.834-7.786-20.498-7.748-28.284.086-7.787 7.834-7.748 20.498.086 28.284L175.056 237H20c-11.046 0-20 8.954-20 20s8.954 20 20 20h153.507l-54.676 54.885c-7.796 7.825-7.771 20.489.054 28.284A19.937 19.937 0 0 0 133 366a19.935 19.935 0 0 0 14.169-5.885l61.257-61.491c11.333-11.333 17.574-26.4 17.574-42.427 0-16.026-6.241-31.094-17.617-42.469l-61.284-60.913zM20 176c11.046 0 20-8.954 20-20V60c0-11.028 8.972-20 20-20h98c11.046 0 20-8.954 20-20s-8.954-20-20-20H60C26.916 0 0 26.916 0 60v96c0 11.046 8.954 20 20 20zM492 237H336.944l56.155-55.815c7.834-7.787 7.873-20.45.086-28.284s-20.45-7.873-28.284-.086l-61.327 60.956C292.241 225.104 286 240.171 286 256.197c0 16.027 6.241 31.094 17.547 42.4l61.284 61.518A19.936 19.936 0 0 0 379 366a19.939 19.939 0 0 0 14.115-5.831c7.825-7.795 7.85-20.459.054-28.284L338.493 277H492c11.046 0 20-8.954 20-20s-8.954-20-20-20zM452 0h-98c-11.046 0-20 8.954-20 20s8.954 20 20 20h98c11.028 0 20 8.972 20 20v96c0 11.046 8.954 20 20 20s20-8.954 20-20V60c0-33.084-26.916-60-60-60zM492 337c-11.046 0-20 8.954-20 20v95c0 11.028-8.972 20-20 20h-98c-11.046 0-20 8.954-20 20s8.954 20 20 20h98c33.084 0 60-26.916 60-60v-95c0-11.046-8.954-20-20-20z" fill="#000000" opacity="1" data-original="#000000"></path></g></svg>
