<svg xmlns="http://www.w3.org/2000/svg" version="1.1" xmlns:xlink="http://www.w3.org/1999/xlink" width="512" height="512" x="0" y="0" viewBox="0 0 512 512" style="enable-background:new 0 0 512 512" xml:space="preserve" class=""><g><path fill="#d8d6c1" d="M507 50v412c0 24.9-26.9 45-60 45H65c-33.1 0-60-20.1-60-45V50c0 24.9 26.9 45 60 45h382c33.1 0 60-20.1 60-45z" opacity="1" data-original="#d8d6c1"></path><path fill="#399349" d="M507 80v352c0 24.9-26.9 45-60 45H65c-33.1 0-60-20.1-60-45V80c0 24.9 26.9 45 60 45h382c33.1 0 60-20.1 60-45z" opacity="1" data-original="#399349"></path><path fill="#47b85c" d="M65 125c-33.1 0-60-20.1-60-45v352c0 14.1 8.6 26.6 22.1 34.9.8-1.8 21.9-44.6 91.8-50.6 71.4-6.2 217.4 62.9 270.2 0s-23.3-186.5 15.4-291.2H65z" opacity="1" data-original="#47b85c"></path><path fill="#ffc970" d="M333.5 125c-34.5 80 73.9 197 11 255.3S104.2 331.6 65 365V125z" opacity="1" data-original="#ffc970"></path><path fill="#ffb234" d="M65 246.5c24.4 62.2 188.9 145.5 235.1 94.3s2-169.7-68.2-215.8H65z" opacity="1" data-original="#ffb234"></path><path fill="#ef8039" d="M90.6 156.7c-17.4 18.9 4.7 67.8 38.4 99.3 37.5 35 106.8 71.5 136.7 40.6s-21.1-98.8-51-120.2-98.4-47.5-124.1-19.7z" opacity="1" data-original="#ef8039"></path><path fill="#e36415" d="M128 174.8c14.4-17.7 47 3.2 68.4 22.4s38.4 44.9 21.4 58.8-48.7-9-65.8-26.1-37.9-38-24-55.1z" opacity="1" data-original="#e36415"></path><path fill="#2b6e38" d="M466.8 419.8c-6.9 42.2-50.1 55.9-54.6 57.2H447c33.1 0 60-20.1 60-45v-12.1z" opacity="1" data-original="#2b6e38"></path><path fill="#ebebdf" d="M5 462c0-24.9 26.9-45 60-45V5C31.9 5 5 25.1 5 50zM507 462c0-24.9-26.9-45-60-45V5c33.1 0 60 20.1 60 45z" opacity="1" data-original="#ebebdf" class=""></path><path fill="#272526" d="M447 512H65c-35.8 0-65-22.4-65-50V50h10v412c0 22.1 24.7 40 55 40h382c30.3 0 55-17.9 55-40v-20h10v20c0 27.6-29.2 50-65 50zM85 90h362v10H85z" opacity="1" data-original="#272526" class=""></path><path fill="#272526" d="M447 482H65c-25.9 0-49.4-11.8-59.6-30l8.7-4.9C22.6 462.2 42.6 472 65 472h382c22.7 0 43.4-10.4 51.5-25.9l8.9 4.6c-10 19-33.7 31.3-60.4 31.3zM65 120h382v10H65z" opacity="1" data-original="#272526" class=""></path><path fill="#272526" d="M5 467c-2.8 0-5-2.2-5-5V50C0 22.4 29.2 0 65 0c2.8 0 5 2.2 5 5v412c0 2.8-2.2 5-5 5-30.3 0-55 17.9-55 40 0 2.8-2.2 5-5 5zM60 10.2C32 12 10 29.2 10 50v385.4c10.7-13 29-22 50-23.2zM507 467c-2.8 0-5-2.2-5-5 0-22.1-24.7-40-55-40-2.8 0-5-2.2-5-5V5c0-2.8 2.2-5 5-5 35.8 0 65 22.4 65 50v412c0 2.8-2.2 5-5 5zm-55-54.9c21 1.2 39.3 10.2 50 23.2V50c0-20.8-22-38-50-39.8zM205.1 265.2c-18 0-40.3-15.4-56.7-31.8-17.3-17.3-41.1-41.1-24.3-61.8l3.9 3.2-3.9-3.2c4.1-5.1 9.7-7.9 16.4-8.5 21.2-1.7 48.4 20.7 59.2 30.3 9.2 8.3 30.5 29.6 30 48.8-.2 7-3.2 13-8.8 17.6-4.6 3.8-10 5.4-15.8 5.4zm-62.2-92.1c-.5 0-1 0-1.5.1-4 .3-7.1 1.9-9.4 4.8-10.3 12.7 4.6 29.4 23.6 48.4 19.6 19.6 46.4 36 59.1 25.8 3.3-2.7 5-6 5.1-10.1.3-10.5-9.7-25.8-26.7-41.1-15.2-13.7-36.1-27.9-50.2-27.9z" opacity="1" data-original="#272526" class=""></path><path fill="#272526" d="M235 313.3c-10.7 0-23-2.5-36.5-7.6-24.6-9.2-51.8-26.4-72.9-46.1-17.2-16-31.6-36.5-39.6-56.2-9-22-8.6-39.8.9-50.2 12.7-13.7 35.2-17.2 65.3-10 22.5 5.4 48.2 16.8 65.4 29.1 23.3 16.6 58.8 60.1 62 95.1 1.2 13.3-2.2 24.3-10.2 32.6-8.5 8.9-20.1 13.3-34.4 13.3zM94.3 160c-14.2 15.4 4.7 61.1 38.2 92.3 27.7 25.8 71 50.9 102.4 50.9 10.9 0 20.4-3 27.3-10.1 5.9-6.1 8.4-14.4 7.5-24.7-2.8-30.9-35.6-72-57.8-87.9-12.4-8.8-36-21.3-61.9-27.5-15.1-3.6-42.3-7.5-55.7 7z" opacity="1" data-original="#272526" class=""></path><path fill="#272526" d="M255.8 361.7c-8 0-16.7-.8-26-2.5-32.1-5.9-69.6-21.5-102.9-43-34-21.9-58.3-46.7-66.6-67.9l9.3-3.6c7.6 19.3 30.4 42.3 62.7 63.1 32.2 20.8 68.4 35.9 99.2 41.5 21.2 3.9 49.6 4.9 64.8-11.9 18.5-20.5 19.2-49.9 16.5-70.8-6.8-53-41.3-109.5-83.8-137.4l5.5-8.4c44.8 29.4 81 88.8 88.2 144.5 4.3 33.1-2.3 60.3-19 78.8-10.4 11.7-26.8 17.6-47.9 17.6z" opacity="1" data-original="#272526" class=""></path><path fill="#272526" d="M288.5 403c-35.6 0-77.6-11.6-116.6-22.4-45.6-12.6-88.7-24.5-103.7-11.8l-6.5-7.6c19-16.2 62.5-4.2 112.8 9.7 62.3 17.2 132.9 36.7 166.5 5.6 31.5-29.1 16.4-75.6.4-124.8-14.4-44.3-29.3-90-12.6-128.8l9.2 4c-15.2 35.3-.9 79.2 12.9 121.7 8.4 25.9 16.4 50.4 18.2 73.3 2.1 26.5-4.9 46.7-21.3 61.9-15 14.1-35.7 19.2-59.3 19.2z" opacity="1" data-original="#272526" class=""></path><path fill="#272526" d="m31.8 469.1-9.1-4.2c.9-1.9 22.4-47.2 95.9-53.6 25.5-2.2 59.7 4.8 95.8 12.2 64.9 13.3 138.5 28.4 171.1-10.4 25.8-30.8 19-77.4 11.1-131.3-6.3-43.2-13.5-92.1-2.7-137.9l9.7 2.3c-10.4 43.9-3.7 89.8 2.8 134.2 7.9 54 15.4 104.9-13.4 139.2-36.4 43.3-113.1 27.6-180.7 13.8-35.4-7.3-68.8-14.1-92.9-12-35.3 3.1-57.2 15.9-69.4 26.1-13.2 11-18.2 21.5-18.2 21.6zM413.4 481.8l-2.6-9.6c.4-.1 44.5-12.7 51.2-53.4l9.9 1.6c-7.7 47.1-56.4 60.9-58.5 61.4z" opacity="1" data-original="#272526" class=""></path></g></svg>
