<svg xmlns="http://www.w3.org/2000/svg" version="1.1" xmlns:xlink="http://www.w3.org/1999/xlink" width="512" height="512" x="0" y="0" viewBox="0 0 512 512" style="enable-background:new 0 0 512 512" xml:space="preserve" class=""><g><path fill="#1976d2" d="M186.668 416C136.684 416 96 375.316 96 325.332V106.668H58.668C26.305 106.668 0 132.968 0 165.332v288C0 485.695 26.305 512 58.668 512h266.664C357.695 512 384 485.695 384 453.332V416zm0 0" opacity="1" data-original="#1976d2"></path><path fill="#2196f3" d="M469.332 58.668C469.332 26.262 443.07 0 410.668 0h-224C154.262 0 128 26.262 128 58.668v266.664C128 357.738 154.262 384 186.668 384h224c32.402 0 58.664-26.262 58.664-58.668zm0 0" opacity="1" data-original="#2196f3" class=""></path></g></svg>
