<svg xmlns="http://www.w3.org/2000/svg" version="1.1" xmlns:xlink="http://www.w3.org/1999/xlink" width="512" height="512" x="0" y="0" viewBox="0 0 32 32" style="enable-background:new 0 0 512 512" xml:space="preserve" class=""><g><path d="M21 15h-4v-4a1 1 0 1 0-2 0v4h-4a1 1 0 1 0 0 2h4v4a1 1 0 1 0 2 0v-4h4a1 1 0 1 0 0-2z" fill="#000000" opacity="1" data-original="#000000" class=""></path><path d="M23 2H9C5.14 2 2 5.14 2 9v14c0 3.86 3.14 7 7 7h14c3.86 0 7-3.14 7-7V9c0-3.86-3.14-7-7-7zm5 21c0 2.757-2.243 5-5 5H9c-2.757 0-5-2.243-5-5V9c0-2.757 2.243-5 5-5h14c2.757 0 5 2.243 5 5z" fill="#000000" opacity="1" data-original="#000000" class=""></path></g></svg>
