<svg xmlns="http://www.w3.org/2000/svg" version="1.1" xmlns:xlink="http://www.w3.org/1999/xlink" width="512" height="512" x="0" y="0" viewBox="0 0 24 24" style="enable-background:new 0 0 512 512" xml:space="preserve" class=""><g><path d="M7.56 12.66 6.78 15a1.74 1.74 0 0 0 .42 1.8 1.75 1.75 0 0 0 1.8.42l2.35-.78a.79.79 0 0 0 .29-.18l10.6-10.61a1.75 1.75 0 0 0 0-2.47l-1.42-1.42a1.75 1.75 0 0 0-2.47 0L7.74 12.37a.79.79 0 0 0-.18.29zm11.85-9.84a.26.26 0 0 1 .35 0l1.42 1.42a.26.26 0 0 1 0 .35l-1.59 1.59-1.77-1.77zM8.2 15.48l.73-2.18 7.83-7.83 1.77 1.77-7.83 7.83-2.18.73a.25.25 0 0 1-.32-.32zm14.55-5V19A3.75 3.75 0 0 1 19 22.75H5A3.75 3.75 0 0 1 1.25 19V5A3.75 3.75 0 0 1 5 1.25h8.51a.75.75 0 0 1 0 1.5H5A2.25 2.25 0 0 0 2.75 5v14A2.25 2.25 0 0 0 5 21.25h14A2.25 2.25 0 0 0 21.25 19v-8.51a.75.75 0 0 1 1.5 0z" fill="#000000" opacity="1" data-original="#000000"></path></g></svg>
