<svg xmlns="http://www.w3.org/2000/svg" version="1.1" xmlns:xlink="http://www.w3.org/1999/xlink" width="512" height="512" x="0" y="0" viewBox="0 0 512 512" style="enable-background:new 0 0 512 512" xml:space="preserve" class=""><g><path d="M233.542 357.653V154.346c0-8.97-6.291-21.664-36.26-31.203-20.553-6.54-47.725-10.143-76.511-10.143-28.787 0-55.958 3.603-76.51 10.144C14.291 132.682 8 145.377 8 154.346v203.307c0 8.97 6.291 21.665 36.261 31.203C64.812 395.397 91.984 399 120.771 399s55.958-3.603 76.51-10.144c29.969-9.538 36.261-22.233 36.261-31.203zM120.771 129c62.614 0 96.771 16.744 96.771 25.346s-34.157 25.346-96.771 25.346C58.157 179.693 24 162.949 24 154.346S58.157 129 120.771 129zM24 176.778c5.099 3.074 11.714 6.051 20.261 8.772 20.552 6.541 47.724 10.144 76.51 10.144s55.958-3.603 76.51-10.144c8.547-2.72 15.162-5.698 20.26-8.771v45.338c0 8.603-34.157 25.346-96.771 25.346C58.157 247.462 24 230.718 24 222.116zm0 67.769c5.099 3.074 11.714 6.051 20.261 8.772 20.552 6.541 47.724 10.144 76.51 10.144s55.958-3.603 76.51-10.144c8.547-2.72 15.162-5.698 20.26-8.771v45.338c0 8.603-34.157 25.346-96.771 25.346C58.157 315.231 24 298.487 24 289.885zm0 113.106v-45.338c5.099 3.074 11.714 6.051 20.261 8.772 20.552 6.541 47.724 10.144 76.51 10.144s55.958-3.603 76.51-10.144c8.547-2.72 15.162-5.698 20.26-8.771v45.337c0 8.603-34.157 25.347-96.771 25.347C58.157 383 24 366.256 24 357.653zm78.279-136.076a8 8 0 0 1 8-8h20.984a8 8 0 0 1 0 16h-20.984a8 8 0 0 1-8-8zm0 67.769a8 8 0 0 1 8-8h20.984a8 8 0 0 1 0 16h-20.984a8 8 0 0 1-8-8zm36.984 67.77a8 8 0 0 1-8 8h-20.984a8 8 0 0 1 0-16h20.984a8 8 0 0 1 8 8zM500.062 147.5 469.5 116.938c-2.576-2.577-5.863-3.938-9.507-3.938H293.125c-7.413 0-13.443 6.031-13.443 13.443v259.113c0 7.413 6.031 13.443 13.443 13.443h197.432c7.413 0 13.443-6.031 13.443-13.443v-228.55c0-3.641-1.361-6.928-3.938-9.506zm-29.814-7.187 6.438 6.438h-6.438zM295.682 383V129h158.566v23.03c0 5.912 4.81 10.722 10.722 10.722H488V383zm19.58-228.248a8 8 0 0 1 8-8h103.407a8 8 0 0 1 0 16H323.262a8 8 0 0 1-8-8zm153.158 40.521a8 8 0 0 1-8 8H323.262a8 8 0 0 1 0-16H460.42a8 8 0 0 1 8 8zm0 40.522a8 8 0 0 1-8 8H323.262a8 8 0 0 1 0-16H460.42a8 8 0 0 1 8 8zm0 40.521a8 8 0 0 1-8 8H323.262a8 8 0 0 1 0-16H460.42a8 8 0 0 1 8 8zm0 40.522a8 8 0 0 1-8 8H323.262a8 8 0 0 1 0-16H460.42a8 8 0 0 1 8 8zm0 40.522a8 8 0 0 1-8 8H323.262a8 8 0 0 1 0-16H460.42a8 8 0 0 1 8 8zM146.218 40.201a8 8 0 0 1 8-8H334.54l-12.672-9.896a8 8 0 0 1-1.381-11.229 7.999 7.999 0 0 1 11.229-1.381l30.99 24.201a8 8 0 0 1 0 12.61l-30.99 24.201a7.964 7.964 0 0 1-4.918 1.695 8 8 0 0 1-4.93-14.306L334.54 48.2H154.218c-4.419.001-8-3.58-8-7.999zm219.564 431.598a8 8 0 0 1-8 8H177.46l12.672 9.896a8 8 0 0 1-4.93 14.306 7.962 7.962 0 0 1-4.918-1.695l-30.99-24.201a8 8 0 0 1 0-12.61l30.99-24.201a8 8 0 0 1 9.848 12.61L177.46 463.8h180.322c4.419-.001 8 3.58 8 7.999z" fill="#000000" opacity="1" data-original="#000000"></path></g></svg>
