<svg xmlns="http://www.w3.org/2000/svg" version="1.1" xmlns:xlink="http://www.w3.org/1999/xlink" width="512" height="512" x="0" y="0" viewBox="0 0 512 518.4" style="enable-background:new 0 0 512 512" xml:space="preserve" class=""><g><path d="M510.1 255.8 427.5 58.1l-79.7 33.3c1-9.4 1-22.7-4.1-32.3-11.4-21.3-38-29.4-59.3-18s-29.4 38-18 59.3c4 7.5 10 13.6 17.4 17.7l-85.2 35.5c-1.9-6-4.8-11.7-8.5-16.8 1.1-.6 2-1.3 2.9-2.2 2.1-2.1 3.4-4.9 3.4-7.9l-.4-33h6.8c1.6 0 3.1-.7 4.2-1.8 1.2-1.1 1.8-2.7 1.8-4.3L207.6 0l-12 .2 1.1 81.5-160.3 1.2L35.3 0l-12 .2 1.1 88.9c.1 3.3 2.7 5.8 6 5.9h7c0 .3.4 33 .4 33 .1 3.6 1.9 6.9 4.8 9l-4.4 7c-1.7 2.7-4 9.4-4 9.4h-.1l-17.5 65.3 4.6 14.2-6.5 2.9c-6 2.7-10.8 7.6-13.1 13.8s-2.1 13 .6 19l88.9 198.6 83.3-37.3c3-1.3 5.1-4.1 5.4-7.4.3-3.3-1.2-6.5-3.9-8.3-10.7-7.5-18.1-15.6-20.3-22.2-5.6-16.6 3.3-34.7 20-40.3 16.6-5.6 34.7 3.3 40.3 20 2.7 7.9 2.1 16.6-1.6 24.1-1.6 3.2-1 7 1.5 9.5 2.4 2.6 6.2 3.4 9.4 1.9l69.2-31c3.3-1.4 6.1-3.8 8.1-6.8l10.5-4.3c1.2 9.9 4.9 19.3 10.8 27.4-1.1.6-2 1.4-2.9 2.3-2.2 2.1-3.4 5-3.4 8l.5 32.9h-6.8c-1.6 0-3.1.7-4.2 1.8-1.2 1.1-1.8 2.7-1.7 4.3l1.1 75.5h12l-1.1-69.5 160.3-1.3 1.1 70.9h12l-1.1-76.9c-.1-3.3-2.7-5.9-6-6h-7c0-.2.1-.5.1-.7l-.5-32.2c0-3.6-1.8-7-4.8-9 2.3-3.7 4.1-6.5 4.4-7.1 1.7-2.6 3-5.5 3.8-8.6l.2-.7h.1l17.5-65.4-6.4-20.2 5.8-2.4c12.6-5.2 18.6-19.5 13.4-32.1 0-.1-.1-.2-.1-.3zM91.2 201.6l-1 1.7c-6.8 12-19.1 17.3-19.2 17.3l-4.4 1.8s6.9 41.7 8.8 53.8c1.1 7.2-.2 14.6-3.8 20.9-2.6 3.7-6.8 5.9-11.3 5.9-3.1-.1-4.4-1.7-4.9-2.6l-19.5-60.9-3.7-11.5-3.1-9.6L46 155.5c.5-1.8 1.3-3.5 2.3-5.1 0 0 3.1-5 6.6-10.4l121.6-1c5.2 5.5 9 12.2 11.1 19.5l-96.4 43.1zm91-74.5h-.2v-.2l-129.7 1c-.9.1-1.7-.2-2.4-.7V126l-.4-30.2c.7-.4 1.5-.7 2.3-.7l129.9-1c.9-.1 1.7.2 2.4.7l.5 31.6c-.7.4-1.6.7-2.4.7zm107.3 238.1-61.3 27.5c5.9-23.5-8.3-47.3-31.8-53.2-23.5-5.9-47.3 8.3-53.2 31.8-2.1 8.1-1.7 16.7.9 24.6 3.4 9.9 12.5 18.7 20.8 25.1L97 451.4 13 263.7c-1.4-3.1-1.5-6.6-.2-9.8 1.2-3.2 3.6-5.7 6.7-7.1l5.3-2.4 19.6 61.1c3 5.7 8.8 9.4 15.3 9.5 0 0 15.6.3 22-11.6v-.2c5-8.8 6.9-19 5.3-29-1.5-9.6-5.6-34.7-7.3-44.8 8-4.4 14.8-10.8 19.8-18.4L201 165.5s2.8-1.6 5-1.1c1.3.5 2.5 2 3.1 3.3l31.4 71.8c1.3 3.3 4.6 5.3 8.1 5.1s6.5-2.6 7.6-5.9c2.7-9.1 9.3-16.4 18.1-20 15.6-7 34-.1 41 15.5 6.5 14.4 1.2 31.3-12.4 39.4-8.7 4.9-23.9 3.7-30 3-3.2-.4-6.4 1-8.4 3.6 0 .1-2.9 3.4-1 9.1l29.7 66.2c1.1 2.5.7 5.5-1 7.6-.6.9-1.6 1.7-2.7 2.1zm174.7 38.1.5 30.2c-.7.5-1.5.8-2.4.7l-129.9 1c-.9.1-1.7-.2-2.4-.7l-.5-31.1 134.7-.1zm3.8-29.5c-.5 1.8-1.3 3.5-2.3 5.1v.2s-3 4.9-6.5 10.3l-1.2 1.9H338.5l-1-1c-7.7-8.2-12.3-18.9-12.9-30.2l86.6-36.1c-1.9 3.4-3.7 7-5.4 10.6l10.9 5.1c2.2-4.7 4.6-9.3 7.1-13.7 2.5-4.4 5.9-8.2 9.8-11.4 2.9-2.4 6-4.3 9.4-5.9l4.4-1.8-.7-4.7c-.1-.1-.4-2.3-1-5.6-1.8-10.8-5.6-34.2-7.1-43.4-1.1-7.2.2-14.6 3.8-20.9 2.6-3.7 6.8-6 11.3-6 3.1.1 4.4 1.7 4.9 2.7l17.6 54.8 3.7 11.5 5 15.7-16.9 62.8zm31.1-103.6c-1.3 3.1-3.8 5.6-6.9 6.9l-4.9 2.1-17.8-55.4c-3-5.7-8.8-9.3-15.2-9.5-15.4.4-22.1 11.7-22.1 11.7-5 8.8-6.9 19-5.3 29 1.5 9.7 5.6 34.7 7.3 44.8-2.3 1.3-4.5 2.8-6.6 4.4l-122 51c-.3-1.6-28.1-64.2-28.1-64.2 9.9.7 21.3.2 29.8-4.3l3.8-2.3c4.6-3.1 8.6-7 11.7-11.6l1.3-2c2.3-3.8 4-7.9 5.1-12.2.1-.2.1-.4.1-.6h.1c1.1-3.9 1.6-7.9 1.6-12 0-4.4-.7-8.9-2-13.1-7.2-23.1-31.8-35.9-54.9-28.7a44.01 44.01 0 0 0-25.8 21.7l-7.1-15.9c-2.3-5.7-17.6-39.3-21-47.1-.8-1.5-1.7-3-2.8-4.3l79.1-32.6c3.3-1.4 5.3-4.7 5.1-8.2-.1-3.5-2.5-6.5-5.8-7.5-16.8-5.1-26.3-22.8-21.2-39.7.5-1.6 1.1-3.1 1.8-4.6 3.9-8.2 11.1-14.4 19.9-16.8 14.4-4.1 29.7 2.3 36.8 15.5 4.7 8.8 3.1 23.9 2.2 30-.4 3.3.9 6.5 3.5 8.5s6 2.5 9 1.2L421 73.8l78 186.6c1.4 3.1 1.4 6.7.1 9.8z" fill="#000000" opacity="1" data-original="#000000"></path><path d="m123.62 475.408 10.663-5.503 13.85 26.836-10.664 5.503zM37.06 497.224l13.85-26.836 10.664 5.503-13.85 26.836zM85.993 517.767l.738-30.191 11.996.293-.738 30.19zM377.328 22.44l10.663-5.503 13.85 26.836-10.664 5.503zM463.92 44.176l13.85-26.836 10.662 5.504-13.85 26.835zM426.068 31.489l.738-30.191 11.996.293-.737 30.19z" fill="#000000" opacity="1" data-original="#000000"></path></g></svg>
