<svg xmlns="http://www.w3.org/2000/svg" version="1.1" xmlns:xlink="http://www.w3.org/1999/xlink" width="512" height="512" x="0" y="0" viewBox="0 0 24 24" style="enable-background:new 0 0 512 512" xml:space="preserve" class=""><g><switch><g><path d="M8.7 7.7 11 5.4V15c0 .6.4 1 1 1s1-.4 1-1V5.4l2.3 2.3c.4.4 1 .4 1.4 0 .4-.4.4-1 0-1.4l-4-4c-.1-.1-.2-.2-.3-.2-.2-.1-.5-.1-.8 0-.1 0-.2.1-.3.2l-4 4c-.4.4-.4 1 0 1.4s1 .4 1.4 0zM21 14c-.6 0-1 .4-1 1v4c0 .6-.4 1-1 1H5c-.6 0-1-.4-1-1v-4c0-.6-.4-1-1-1s-1 .4-1 1v4c0 1.7 1.3 3 3 3h14c1.7 0 3-1.3 3-3v-4c0-.6-.4-1-1-1z" fill="#000000" opacity="1" data-original="#000000"></path></g></switch></g></svg>
