<svg xmlns="http://www.w3.org/2000/svg" version="1.1" xmlns:xlink="http://www.w3.org/1999/xlink" width="512" height="512" x="0" y="0" viewBox="0 0 510 510" style="enable-background:new 0 0 512 512" xml:space="preserve" fill-rule="evenodd" class=""><g><linearGradient id="a" x1="0" x2="1" y1="0" y2="0" gradientTransform="rotate(137.049 246.07 111.28) scale(674.923)" gradientUnits="userSpaceOnUse"><stop offset="0" stop-color="#e93528"></stop><stop offset="1" stop-color="#f8bc16"></stop></linearGradient><path fill="url(#a)" d="M61.907 362.785a7 7 0 0 1 5.089-6.734l140.453-39.869v-11.577c-32.722-2.435-58.827-7.383-72-13.377-4.672-2.126-7.982-4.518-9.964-6.847-2.224-2.614-3.171-5.375-3.171-8.102V55.077c0-3.211 1.327-6.54 4.586-9.577 2.823-2.63 7.577-5.286 14.121-7.596C162.389 30.36 205.422 25.063 255 25.063s92.611 5.297 113.979 12.841c6.544 2.31 11.298 4.966 14.121 7.596 3.259 3.037 4.586 6.366 4.586 9.577v221.202c0 2.727-.947 5.488-3.171 8.102-1.982 2.329-5.292 4.721-9.964 6.847-13.173 5.994-39.278 10.942-72 13.377v11.577l140.453 39.869a7 7 0 0 1 5.089 6.734v62.328a7 7 0 0 1-5.089 6.734l-186.093 52.824a6.991 6.991 0 0 1-3.822 0L67.127 431.885a7.008 7.008 0 0 1-5.22-6.772zm145.542-32.05-112.907 32.05L255 408.332l160.458-45.547-112.907-32.05v27.705c0 2.677-1.314 6.071-5.698 8.48-5.845 3.213-22.354 5.945-41.853 5.945s-36.008-2.732-41.853-5.945c-4.384-2.409-5.698-5.803-5.698-8.48zm14-25.263v49.51c4.833.994 20.045 3.883 33.551 3.883s28.718-2.889 33.551-3.883v-49.51c-10.69.535-21.939.821-33.551.821s-22.861-.286-33.551-.821zM136.314 70.399v205.025c.459.395 1.483 1.247 2.357 1.751 2.197 1.268 5.08 2.456 8.549 3.601 14.633 4.827 38.724 8.497 67.666 10.305 12.587.786 26.081 1.212 40.114 1.212s27.527-.426 40.114-1.212c28.942-1.808 53.033-5.478 67.666-10.305 3.469-1.145 6.352-2.333 8.549-3.601.874-.504 1.898-1.356 2.357-1.751v-32.86l-64.61 10.442a7.001 7.001 0 0 1-8.117-6.91v-61.017a7 7 0 0 1 5.883-6.91l66.844-10.803v-11.39l-64.61 10.442a7.001 7.001 0 0 1-8.117-6.91V98.491a7 7 0 0 1 5.883-6.91l66.844-10.803V70.399a67.947 67.947 0 0 1-4.707 1.851C347.611 79.794 304.578 85.091 255 85.091s-92.611-5.297-113.979-12.841a67.947 67.947 0 0 1-4.707-1.851zm237.372 71.395V94.959l-58.727 9.492v46.835l58.727-9.492zm0 86.588v-46.834l-58.727 9.491v46.835l58.727-9.492zm60.407 143.667L262 420.899v47.775l172.093-48.85zM248 468.674v-47.775l-172.093-48.85v47.775L248 468.674zm97.118-281.006c12.166 0 22.043 9.877 22.043 22.043 0 12.165-9.877 22.042-22.043 22.042-12.165 0-22.042-9.877-22.042-22.042 0-12.166 9.877-22.043 22.042-22.043zm0 14a8.047 8.047 0 0 0-8.042 8.043 8.046 8.046 0 0 0 8.042 8.042 8.047 8.047 0 0 0 8.043-8.042 8.047 8.047 0 0 0-8.043-8.043zM137.328 55.077c.286.222.588.442.87.615 1.92 1.178 4.443 2.283 7.484 3.357C166.17 66.282 207.463 71.091 255 71.091s88.83-4.809 109.318-12.042c3.041-1.074 5.564-2.179 7.484-3.357.282-.173.584-.393.87-.615a9.825 9.825 0 0 0-.87-.615c-1.92-1.178-4.443-2.284-7.484-3.357C343.83 43.872 302.537 39.063 255 39.063s-88.83 4.809-109.318 12.042c-3.041 1.073-5.564 2.179-7.484 3.357a9.825 9.825 0 0 0-.87.615zm207.79 46.003c12.166 0 22.043 9.877 22.043 22.042 0 12.166-9.877 22.043-22.043 22.043-12.165 0-22.042-9.877-22.042-22.043 0-12.165 9.877-22.042 22.042-22.042zm0 14a8.046 8.046 0 0 0-8.042 8.042 8.047 8.047 0 0 0 8.042 8.043 8.047 8.047 0 0 0 8.043-8.043 8.047 8.047 0 0 0-8.043-8.042zM86.5 93.201a7.004 7.004 0 0 1 9.858-.903 7.003 7.003 0 0 1 .903 9.859c-13.98 16.799-22.392 38.392-22.392 61.934s8.412 45.136 22.392 61.935a7.002 7.002 0 0 1-.903 9.858 7.003 7.003 0 0 1-9.858-.903c-16.002-19.228-25.631-43.943-25.631-70.89 0-26.946 9.629-51.662 25.631-70.89zM43.712 65.328a7.003 7.003 0 0 1 9.858-.902 7.002 7.002 0 0 1 .903 9.858C34.201 98.643 22 129.953 22 164.091s12.201 65.448 32.473 89.807a7.003 7.003 0 0 1-.903 9.859 7.004 7.004 0 0 1-9.858-.903C21.418 236.065 8 201.633 8 164.091s13.418-71.974 35.712-98.763zm369.027 36.829a7.003 7.003 0 0 1 .903-9.859 7.004 7.004 0 0 1 9.858.903c16.002 19.228 25.631 43.944 25.631 70.89 0 26.947-9.629 51.662-25.631 70.89a7.003 7.003 0 0 1-9.858.903 7.002 7.002 0 0 1-.903-9.858c13.98-16.799 22.392-38.393 22.392-61.935s-8.412-45.135-22.392-61.934zm42.788-27.873a7.002 7.002 0 0 1 .903-9.858 7.003 7.003 0 0 1 9.858.902C488.582 92.117 502 126.549 502 164.091s-13.418 71.974-35.712 98.763a7.004 7.004 0 0 1-9.858.903 7.003 7.003 0 0 1-.903-9.859C475.799 229.539 488 198.229 488 164.091s-12.201-65.448-32.473-89.807z" opacity="1" data-original="url(#a)"></path></g></svg>
