<svg xmlns="http://www.w3.org/2000/svg" version="1.1" xmlns:xlink="http://www.w3.org/1999/xlink" width="512" height="512" x="0" y="0" viewBox="0 0 24 24" style="enable-background:new 0 0 512 512" xml:space="preserve"><g><g fill-rule="evenodd" clip-rule="evenodd"><path fill="#9545ed" d="M5 6h5.5v2H5zM19 6h-5.5v2H19z" opacity="1" data-original="#9545ed"></path><path fill="#9545ed" d="M10.5 8A3.5 3.5 0 0 0 7 11.5v3H5v-3A5.5 5.5 0 0 1 10.5 6zM13.5 8a3.5 3.5 0 0 1 3.5 3.5v3h2v-3A5.5 5.5 0 0 0 13.5 6z" opacity="1" data-original="#9545ed"></path><g fill="#3747d6"><path d="M9.5 5.5a1 1 0 0 1 1-1h3a1 1 0 0 1 1 1v3a1 1 0 0 1-1 1h-3a1 1 0 0 1-1-1zm2 1v1h1v-1zM3 14.5a1 1 0 0 1 1-1h4a1 1 0 0 1 1 1v4a1 1 0 0 1-1 1H4a1 1 0 0 1-1-1zm2 1v2h2v-2zM15 14.5a1 1 0 0 1 1-1h4a1 1 0 0 1 1 1v4a1 1 0 0 1-1 1h-4a1 1 0 0 1-1-1zm2 1v2h2v-2zM3.5 6.5a.5.5 0 1 0 0 1 .5.5 0 0 0 0-1zM1 7a2.5 2.5 0 1 1 5 0 2.5 2.5 0 0 1-5 0zM20.5 6.5a.5.5 0 1 1 0 1 .5.5 0 0 1 0-1zM23 7a2.5 2.5 0 1 0-5 0 2.5 2.5 0 0 0 5 0z" fill="#3747d6" opacity="1" data-original="#3747d6"></path></g></g></g></svg>
