<svg xmlns="http://www.w3.org/2000/svg" version="1.1" xmlns:xlink="http://www.w3.org/1999/xlink" width="512" height="512" x="0" y="0" viewBox="0 0 682.667 682.667" style="enable-background:new 0 0 512 512" xml:space="preserve" class=""><g><defs><clipPath id="a" clipPathUnits="userSpaceOnUse"><path d="M0 512h512V0H0Z" fill="#000000" opacity="1" data-original="#000000"></path></clipPath></defs><g clip-path="url(#a)" transform="matrix(1.33333 0 0 -1.33333 0 682.667)"><path d="M0 0v-331.862c0-22.091 17.909-40 40-40h412c22.091 0 40 17.909 40 40V0c0 22.091-17.909 40-40 40H40C17.909 40 0 22.091 0 0" style="fill-opacity:1;fill-rule:nonzero;stroke:none" transform="translate(10 421.925)" fill="#c9f3ff" data-original="#c9f3ff"></path><path d="M0 0v28.766l-179.312 179.312-247.976-247.976c.671-.047 1.339-.102 2.021-.102H-40C-17.909-40 0-22.091 0 0" style="fill-opacity:1;fill-rule:nonzero;stroke:none" transform="translate(502 90.063)" fill="#00a570" data-original="#00a570"></path><path d="M0 0c7.239-7.244 17.243-11.725 28.293-11.725h295.56L156.064 156.064Z" style="fill-opacity:1;fill-rule:nonzero;stroke:none" transform="translate(21.707 61.787)" fill="#36d28f" data-original="#36d28f"></path><path d="m0 0 156.064 156.064 95.749-95.749" style="stroke-width:20;stroke-linecap:round;stroke-linejoin:round;stroke-miterlimit:10;stroke-dasharray:none;stroke-opacity:1" transform="translate(21.707 61.787)" fill="none" stroke="#000000" stroke-width="20" stroke-linecap="round" stroke-linejoin="round" stroke-miterlimit="10" stroke-dasharray="none" stroke-opacity="" data-original="#000000"></path><path d="m0 0 112.603 112.603L288.641-63.435" style="stroke-width:20;stroke-linecap:round;stroke-linejoin:round;stroke-miterlimit:10;stroke-dasharray:none;stroke-opacity:1" transform="translate(210.085 185.537)" fill="none" stroke="#000000" stroke-width="20" stroke-linecap="round" stroke-linejoin="round" stroke-miterlimit="10" stroke-dasharray="none" stroke-opacity="" data-original="#000000"></path><path d="M0 0c0-17.339-14.056-31.396-31.396-31.396-17.339 0-31.395 14.057-31.395 31.396s14.056 31.396 31.395 31.396C-14.056 31.396 0 17.339 0 0" style="fill-opacity:1;fill-rule:nonzero;stroke:none" transform="translate(201.35 343.047)" fill="#ffb954" data-original="#ffb954"></path><path d="M0 0c0-17.339-14.056-31.396-31.396-31.396-17.339 0-31.395 14.057-31.395 31.396s14.056 31.396 31.395 31.396C-14.056 31.396 0 17.339 0 0Z" style="stroke-width:20;stroke-linecap:round;stroke-linejoin:round;stroke-miterlimit:10;stroke-dasharray:none;stroke-opacity:1" transform="translate(201.35 343.047)" fill="none" stroke="#000000" stroke-width="20" stroke-linecap="round" stroke-linejoin="round" stroke-miterlimit="10" stroke-dasharray="none" stroke-opacity="" data-original="#000000"></path><path d="M0 0v0" style="stroke-width:20;stroke-linecap:round;stroke-linejoin:round;stroke-miterlimit:10;stroke-dasharray:none;stroke-opacity:1" transform="translate(344.333 461.925)" fill="none" stroke="#000000" stroke-width="20" stroke-linecap="round" stroke-linejoin="round" stroke-miterlimit="10" stroke-dasharray="none" stroke-opacity="" data-original="#000000"></path><path d="M0 0h-254.333c-22.092 0-40-17.909-40-40v-331.862c0-22.091 17.908-40 40-40h412c22.091 0 40 17.909 40 40V-40c0 22.091-17.909 40-40 40H76" style="stroke-width:20;stroke-linecap:round;stroke-linejoin:round;stroke-miterlimit:10;stroke-dasharray:none;stroke-opacity:1" transform="translate(304.333 461.925)" fill="none" stroke="#000000" stroke-width="20" stroke-linecap="round" stroke-linejoin="round" stroke-miterlimit="10" stroke-dasharray="none" stroke-opacity="" data-original="#000000"></path><path d="M0 0v0" style="stroke-width:20;stroke-linecap:round;stroke-linejoin:round;stroke-miterlimit:10;stroke-dasharray:none;stroke-opacity:1" transform="translate(302.478 93.144)" fill="none" stroke="#000000" stroke-width="20" stroke-linecap="round" stroke-linejoin="round" stroke-miterlimit="10" stroke-dasharray="none" stroke-opacity="" data-original="#000000"></path></g></g></svg>
