<svg xmlns="http://www.w3.org/2000/svg" version="1.1" xmlns:xlink="http://www.w3.org/1999/xlink" width="512" height="512" x="0" y="0" viewBox="0 0 512 512" style="enable-background:new 0 0 512 512" xml:space="preserve" class=""><g><path d="M293.045 79.641c43.235-43.541 113.208-43.553 156.453.003 43.158 43.463 43.143 114.2-.032 157.682-43.221 43.532-113.16 43.536-156.39 0-2.902-2.914-7.612-2.936-10.533-.036a7.452 7.452 0 0 0-.036 10.533c49.051 49.397 128.469 49.408 177.528-.002 48.92-49.269 48.934-129.42.032-178.67-49.066-49.417-128.517-49.425-177.591 0a7.445 7.445 0 0 0 .039 10.53c2.916 2.898 7.628 2.879 10.53-.04z" fill="#000000" opacity="1" data-original="#000000" class=""></path><path d="M306.566 210.681a7.445 7.445 0 0 0-.039 10.53c35.085 35.335 91.97 35.369 127.088 0 34.996-35.246 34.996-92.594 0-127.84-35.119-35.365-91.967-35.37-127.088.002a7.445 7.445 0 0 0 .039 10.53 7.444 7.444 0 0 0 10.53-.039c29.289-29.494 76.661-29.498 105.951.002 29.251 29.457 29.251 77.39 0 106.85-29.286 29.496-76.658 29.501-105.951.002a7.445 7.445 0 0 0-10.53-.037z" fill="#000000" opacity="1" data-original="#000000" class=""></path><path d="M343.562 186.484a7.444 7.444 0 0 0-10.53-.039 7.445 7.445 0 0 0-.039 10.53c21.14 21.291 55.416 21.289 76.556.002 21.084-21.235 21.099-55.77.034-76.986-21.147-21.293-55.402-21.31-76.59.034a7.445 7.445 0 0 0 .039 10.53 7.444 7.444 0 0 0 10.53-.039c15.199-15.303 39.984-15.609 55.453-.029 15.32 15.427 15.305 40.547-.034 55.996-15.312 15.418-40.109 15.416-55.419.001z" fill="#000000" opacity="1" data-original="#000000" class=""></path><path d="M31.341 434.04a.708.708 0 0 1-.005.747l-13.39 21.249a15.605 15.605 0 0 0-.458 15.858 15.504 15.504 0 0 0 13.563 8.021h57.511c5.347 0 10.246-2.708 13.104-7.243 7.61-12.116 18.597-29.375 19.502-31.12h263.536c34.642 0 62.827-28.361 62.827-63.222s-28.184-63.222-62.827-63.222H174.748c-39.493 0-71.621-32.381-71.621-72.183s32.128-72.184 71.621-72.184h72.172l.009 25.072v.002c.005 6.353 3.493 12.118 9.11 15.049a16.795 16.795 0 0 0 17.424-1.113l50.377-35.071a16.984 16.984 0 0 0 7.275-13.941 16.988 16.988 0 0 0-7.27-13.948l-50.408-35.1a16.783 16.783 0 0 0-17.434-1.11c-5.614 2.933-9.102 8.705-9.1 15.058l.012 30.209h-72.166c-47.705 0-86.515 39.064-86.515 87.077s38.809 87.077 86.515 87.077h209.955c26.429 0 47.933 21.681 47.933 48.328 0 26.648-21.504 48.328-47.933 48.328H120.852c-1.032-1.798-10.773-17.766-19.14-31.559-2.795-4.601-7.866-7.459-13.235-7.459h-57.71c-5.667 0-10.714 2.957-13.5 7.91a15.624 15.624 0 0 0 .262 15.752zm231.558-310.257c.485-.255 1.219-.434 2.029.131l50.406 35.1c.773.538.887 1.309.887 1.721s-.114 1.183-.887 1.721l-50.379 35.074c-.807.565-1.547.383-2.027.131-.504-.262-1.105-.798-1.105-1.854v.002l-.027-70.174c0-1.054.599-1.59 1.103-1.852zM30.248 402.853c.179-.318.393-.318.519-.318h57.709c.204 0 .395.112.509.298l18.956 31.207a.708.708 0 0 1-.005.747l-18.871 29.944a.599.599 0 0 1-.504.291h-57.51c-.128 0-.344 0-.524-.325-.204-.368-.046-.618.019-.722l13.388-21.244c3.178-5.037 3.231-11.33.138-16.423L30.258 403.57c-.063-.107-.213-.354-.01-.717z" fill="#000000" opacity="1" data-original="#000000" class=""></path></g></svg>
