<svg xmlns="http://www.w3.org/2000/svg" version="1.1" xmlns:xlink="http://www.w3.org/1999/xlink" width="512" height="512" x="0" y="0" viewBox="0 0 64 64" style="enable-background:new 0 0 512 512" xml:space="preserve" class=""><g><path d="M13.035 7.035c-3.309 0-6 2.691-6 6s2.691 6 6 6 6-2.691 6-6-2.691-6-6-6zm0 10c-2.206 0-4-1.794-4-4s1.794-4 4-4 4 1.794 4 4-1.794 4-4 4zM57.707 48.707l-1.414-1.414L49 54.586l-1.293-1.293-1.414 1.414L49 57.414zM35 12h2v2h-2zM47 12h2v2h-2zM43 12h2v2h-2zM39 12h2v2h-2z" fill="#000000" opacity="1" data-original="#000000"></path><path d="M24 37h16c1.654 0 3-1.346 3-3v-1h13c3.859 0 7-3.14 7-7v-7c0-3.86-3.141-7-7-7h-3v-1c0-1.654-1.346-3-3-3H34c-1.654 0-3 1.346-3 3v1h-5.965v-1.728l-2.625-.717c-.086-.23-.182-.459-.286-.685l1.351-2.366-3.908-3.908-2.365 1.35c-.227-.104-.455-.2-.685-.286l-.718-2.625h-5.527L9.554 3.66a9.61 9.61 0 0 0-.684.286l-2.366-1.35-3.908 3.908 1.35 2.366c-.104.226-.2.455-.286.685l-2.625.717v5.526l2.625.718c.086.23.182.459.286.685l-1.351 2.366 3.908 3.907 2.366-1.35c.226.104.454.2.684.286l.718 2.625h5.527l.718-2.625c.229-.086.458-.182.685-.286l2.365 1.349 3.908-3.907-1.351-2.366c.104-.226.2-.455.286-.685l2.625-.718V14H31v1c0 1.654 1.346 3 3 3h16c1.654 0 3-1.346 3-3v-1h3c2.757 0 5 2.243 5 5v7c0 2.757-2.243 5-5 5H43v-1c0-1.654-1.346-3-3-3H24c-1.654 0-3 1.346-3 3v1H8c-3.859 0-7 3.141-7 7v8c0 3.859 3.141 7 7 7h3v1c0 1.654 1.346 3 3 3h16c1.654 0 3-1.346 3-3v-1h8.051c.507 5.598 5.221 10 10.949 10 6.065 0 11-4.935 11-11s-4.935-11-11-11c-5.728 0-10.442 4.402-10.949 10H33v-1c0-1.654-1.346-3-3-3H14c-1.654 0-3 1.346-3 3v1H8c-2.757 0-5-2.243-5-5v-8c0-2.757 2.243-5 5-5h13v1c0 1.654 1.346 3 3 3zm-.965-22.728-2.193.6-.161.525a8.05 8.05 0 0 1-.572 1.37l-.258.486 1.13 1.979-1.748 1.749-1.98-1.129-.485.257a7.9 7.9 0 0 1-1.37.571l-.524.162-.601 2.193H11.8l-.601-2.193-.524-.162a7.952 7.952 0 0 1-1.37-.571l-.486-.257-1.979 1.129-1.75-1.749 1.13-1.979-.258-.486a7.97 7.97 0 0 1-.572-1.37l-.161-.525-2.193-.6v-2.474l2.193-.599.162-.525c.143-.463.335-.924.571-1.369l.258-.487-1.13-1.979L6.838 5.09l1.979 1.129.486-.257a8.01 8.01 0 0 1 1.37-.572l.524-.162.601-2.193h2.473l.601 2.193.524.162c.462.143.923.335 1.37.572l.485.257 1.98-1.129 1.748 1.749-1.13 1.979.258.486c.236.445.429.906.571 1.369l.162.525 2.193.599v2.475zM51 15c0 .551-.448 1-1 1H34c-.552 0-1-.449-1-1v-4c0-.551.448-1 1-1h16c.552 0 1 .449 1 1zm1 28c4.963 0 9 4.037 9 9s-4.037 9-9 9-9-4.037-9-9 4.037-9 9-9zm-39 7a1 1 0 0 1 1-1h16a1 1 0 0 1 1 1v4a1 1 0 0 1-1 1H14a1 1 0 0 1-1-1zm10-20c0-.551.448-1 1-1h16c.552 0 1 .449 1 1v4a1 1 0 0 1-1 1H24a1 1 0 0 1-1-1z" fill="#000000" opacity="1" data-original="#000000"></path><path d="M33 31h2v2h-2zM29 31h2v2h-2zM25 31h2v2h-2zM37 31h2v2h-2zM19 51h2v2h-2zM27 51h2v2h-2zM23 51h2v2h-2zM15 51h2v2h-2z" fill="#000000" opacity="1" data-original="#000000"></path></g></svg>
