<svg xmlns="http://www.w3.org/2000/svg" version="1.1" xmlns:xlink="http://www.w3.org/1999/xlink" width="512" height="512" x="0" y="0" viewBox="0 0 32 32" style="enable-background:new 0 0 512 512" xml:space="preserve" class=""><g><path d="M3 30a1 1 0 0 1-.707-1.707l26-26a1 1 0 1 1 1.414 1.414l-26 26A.997.997 0 0 1 3 30z" fill="#000000" opacity="1" data-original="#000000"></path><path d="M3.001 25a1 1 0 0 1-.525-1.852l26-16a1 1 0 0 1 1.049 1.703l-26 16A.998.998 0 0 1 3 25z" fill="#000000" opacity="1" data-original="#000000"></path><path d="M8.999 30a1 1 0 0 1-.88-1.474l14-26a1 1 0 1 1 1.762.948l-14 26a1 1 0 0 1-.882.526zM19 25c-1.103 0-2-.897-2-2s.897-2 2-2 2 .897 2 2-.897 2-2 2zm0-2-.003.001L19 24zM23 30c-1.103 0-2-.897-2-2s.897-2 2-2 2 .897 2 2-.897 2-2 2zm0-2-.003.001L23 29zM20 20c-1.103 0-2-.897-2-2s.897-2 2-2 2 .897 2 2-.897 2-2 2zm0-2-.003.001L20 19zM25 21c-1.103 0-2-.897-2-2s.897-2 2-2 2 .897 2 2-.897 2-2 2zm0-2-.003.001L25 20zM16 8a1 1 0 0 1-1-1V5a1 1 0 1 1 2 0v2a1 1 0 0 1-1 1z" fill="#000000" opacity="1" data-original="#000000"></path><path d="M17 7h-2a1 1 0 1 1 0-2h2a1 1 0 1 1 0 2zM11 17a1 1 0 0 1-1-1v-2a1 1 0 1 1 2 0v2a1 1 0 0 1-1 1z" fill="#000000" opacity="1" data-original="#000000"></path><path d="M12 16h-2a1 1 0 1 1 0-2h2a1 1 0 1 1 0 2zM4 17a1 1 0 0 1-1-1v-2a1 1 0 1 1 2 0v2a1 1 0 0 1-1 1z" fill="#000000" opacity="1" data-original="#000000"></path><path d="M5 16H3a1 1 0 1 1 0-2h2a1 1 0 1 1 0 2zM8 12a1 1 0 0 1-1-1V9a1 1 0 1 1 2 0v2a1 1 0 0 1-1 1z" fill="#000000" opacity="1" data-original="#000000"></path><path d="M9 11H7a1 1 0 1 1 0-2h2a1 1 0 1 1 0 2zM6 6a1 1 0 0 1-1-1V3a1 1 0 1 1 2 0v2a1 1 0 0 1-1 1z" fill="#000000" opacity="1" data-original="#000000"></path><path d="M7 5H5a1 1 0 1 1 0-2h2a1 1 0 1 1 0 2z" fill="#000000" opacity="1" data-original="#000000"></path></g></svg>
