<svg xmlns="http://www.w3.org/2000/svg" version="1.1" xmlns:xlink="http://www.w3.org/1999/xlink" width="512" height="512" x="0" y="0" viewBox="0 0 512.001 512.001" style="enable-background:new 0 0 512 512" xml:space="preserve" class=""><g><path d="M497.027 370.464 343.664 249.703c-4.589-3.606-11.326-.329-11.326 5.499v80.302H157.785c-42.095 0-85.252-11.674-117.128-39.355-4.993-4.336-12.689.081-11.464 6.579 2.167 11.508 6.581 28.841 15.314 46.05 22.407 44.165 60.519 66.558 113.277 66.558h173.2v76.663a6.997 6.997 0 0 0 11.193 5.597l154.719-116.039a6.992 6.992 0 0 0 .131-11.093z" style="" fill="#1bbc86" data-original="#1bbc86"></path><path d="m497.027 370.464-19.999-15.747C331.305 464.008 341.318 457.254 337.98 457.254c-3.839 0-6.996-3.111-6.996-6.998V492a6.997 6.997 0 0 0 11.193 5.597l154.719-116.039a6.994 6.994 0 0 0 .131-11.094z" style="" fill="#149362" data-original="#149362"></path><path d="M482.579 209.965c-12.83-68.182-55.659-112.609-128.592-112.609h-173.2V20.693c0-5.76-6.594-9.05-11.194-5.598L14.875 131.134c-3.67 2.752-3.743 8.252-.13 11.096 165.202 130.081 154.221 122.26 157.693 122.26 3.832 0 6.996-3.106 6.996-6.998V177.19h174.553c42.193 0 85.331 11.731 117.128 39.354 5.005 4.342 12.691-.092 11.464-6.579z" style="" fill="#e22437" data-original="#e22437"></path><path d="M172.439 225.758c-3.465 0 6.739 7.216-139.654-108.055l-17.91 13.431c-3.67 2.752-3.743 8.252-.13 11.096L168.11 262.991c4.574 3.599 11.325.34 11.325-5.499V218.76c-.001 3.889-3.161 6.998-6.996 6.998zM482.579 209.965c-1.515-8.047-4.135-18.941-8.553-30.647-4.667-1.152-39.836-40.859-120.038-40.859H222.251c-1.804.407-4.514.633-8.323.633-25.43 0-32.706 13.977-34.493 24.999v13.099h174.553c42.193 0 85.331 11.731 117.128 39.354 5.004 4.342 12.69-.092 11.463-6.579z" style="" fill="#c61a33" data-original="#c61a33"></path><path d="M292.899 373.594H157.785c-58.482 0-98.165-27.756-118.656-78.434-5.198-2.534-10.994 1.949-9.935 7.568 12.84 68.192 55.659 112.609 128.592 112.609h173.2v-9.923c-1.274-12.347-8.044-31.82-38.087-31.82z" style="" fill="#149362" data-original="#149362"></path><path d="M507.797 369.349 336.724 234.646c-4.877-3.839-12.081-.366-12.081 5.864v86.829H204.155a7.463 7.463 0 0 0-7.464 7.464 7.463 7.463 0 0 0 7.464 7.464h127.951a7.463 7.463 0 0 0 7.464-7.464v-78.916l151.363 119.184-152.71 114.532v-75.324a7.463 7.463 0 0 0-7.464-7.464h-172.42c-67.113 0-107.673-39.768-120.413-104.623 4.437 3.774 9.82 7.871 16.204 11.958 45.851 29.344 93.546 28.118 120.669 28.118 4.123 0 7.464-3.341 7.464-7.464s-3.341-7.464-7.464-7.464c-21.165 0-68.127 2.364-111.948-25.334-19.828-12.534-28.984-25.257-29.06-25.363-4.23-6.041-13.776-2.891-13.576 4.481.038 1.43 1.142 35.401 18.474 69.833 16.256 32.292 50.208 70.786 119.648 70.786h164.957v82.787c0 6.143 7.033 9.651 11.942 5.971l172.42-129.315a7.46 7.46 0 0 0 2.984-5.883 7.459 7.459 0 0 0-2.843-5.954z" fill="#000000" opacity="1" data-original="#000000" class=""></path><path d="M187.355 271.491v-86.829h166.303c45.796 0 77.205 13.778 95.488 25.334 19.828 12.534 28.984 25.257 29.06 25.363 4.227 6.04 13.776 2.891 13.576-4.481-.038-1.43-1.142-35.401-18.475-69.833-16.256-32.292-50.209-70.786-119.649-70.786h-19.147c-4.123 0-7.464 3.341-7.464 7.464s3.341 7.464 7.464 7.464h19.147c67.116 0 107.674 39.77 120.414 104.623-32.846-27.932-76.806-40.075-120.414-40.075H179.892a7.463 7.463 0 0 0-7.464 7.464v78.916L21.067 136.932 173.776 22.4v75.324a7.463 7.463 0 0 0 7.464 7.464h124.913c4.123 0 7.464-3.341 7.464-7.464s-3.341-7.464-7.464-7.464h-117.45V7.473c0-6.135-7.027-9.657-11.942-5.971L4.342 130.818c-3.919 2.939-3.988 8.804-.139 11.835l171.072 134.702c4.891 3.851 12.08.351 12.08-5.864z" fill="#000000" opacity="1" data-original="#000000" class=""></path></g></svg>