<svg xmlns="http://www.w3.org/2000/svg" version="1.1" xmlns:xlink="http://www.w3.org/1999/xlink" width="512" height="512" x="0" y="0" viewBox="0 0 8.467 8.467" style="enable-background:new 0 0 512 512" xml:space="preserve" class=""><g><path fill-rule="evenodd" d="M.266 1.854A.265.265 0 0 0 0 2.118V6.36a.265.265 0 0 0 .266.264h3.175a.265.265 0 0 0 .266-.264v-.793h.268v.527a.265.265 0 0 0 .434.204l.362-.301v.363c0 .146.119.264.265.264h3.176a.265.265 0 0 0 .264-.264V2.914a.264.264 0 0 0-.076-.187l-.792-.794a.265.265 0 0 0-.188-.079H5.036a.265.265 0 0 0-.265.264v1.425l-.362-.301a.265.265 0 0 0-.197-.061.265.265 0 0 0-.237.264v.53h-.268v-1.06a.265.265 0 0 0-.078-.188l-.79-.794a.265.265 0 0 0-.188-.079zm.264.53h1.59v.795c0 .146.118.266.264.266h.793v.53h-.263a.265.265 0 0 0-.263.264v1.06a.265.265 0 0 0 .263.267h.263v.53H.53zm4.772 0h1.587v.795c0 .147.12.267.267.266h.79v2.65H5.302v-.54L6 4.972a.265.265 0 0 0 0-.407l-.698-.582zm-2.651.11.417.42H2.65zm4.769 0 .417.42H7.42zM4.505 4.01l.912.759-.912.76v-.23a.265.265 0 0 0-.264-.263h-1.06v-.531h1.06a.265.265 0 0 0 .264-.266z" paint-order="fill markers stroke" fill="#000000" opacity="1" data-original="#000000"></path></g></svg>