<svg xmlns="http://www.w3.org/2000/svg" version="1.1" xmlns:xlink="http://www.w3.org/1999/xlink" width="512" height="512" x="0" y="0" viewBox="0 0 512 512" style="enable-background:new 0 0 512 512" xml:space="preserve" class=""><g><defs><linearGradient id="a" x1="256" x2="256" y1="488" y2="24" gradientUnits="userSpaceOnUse"><stop offset="0" stop-color="#12c2e9"></stop><stop offset=".056" stop-color="#19bfe9"></stop><stop offset=".137" stop-color="#2db6ea"></stop><stop offset=".235" stop-color="#4da7ea"></stop><stop offset=".344" stop-color="#7993eb"></stop><stop offset=".462" stop-color="#b279ed"></stop><stop offset=".497" stop-color="#c471ed"></stop><stop offset="1" stop-color="#f64f59"></stop></linearGradient></defs><path d="M56 400h144a40.045 40.045 0 0 0 40-40V184a8 8 0 0 0-2.343-5.657l-64-64A8 8 0 0 0 168 112H56a40.045 40.045 0 0 0-40 40v208a40.045 40.045 0 0 0 40 40Zm120-260.687L212.687 176H200a24.028 24.028 0 0 1-24-24ZM32 152a24.028 24.028 0 0 1 24-24h104v24a40.045 40.045 0 0 0 40 40h24v168a24.028 24.028 0 0 1-24 24H56a24.028 24.028 0 0 1-24-24Zm397.657-37.657A8 8 0 0 0 424 112H312a40.045 40.045 0 0 0-40 40v208a40.045 40.045 0 0 0 40 40h144a40.045 40.045 0 0 0 40-40V184a8 8 0 0 0-2.343-5.657Zm2.343 24.97L468.687 176H456a24.028 24.028 0 0 1-24-24ZM480 360a24.028 24.028 0 0 1-24 24H312a24.028 24.028 0 0 1-24-24V152a24.028 24.028 0 0 1 24-24h104v24a40.045 40.045 0 0 0 40 40h24ZM360 256a8 8 0 1 1-8-8 8 8 0 0 1 8 8Zm32 0a8 8 0 1 1-8-8 8 8 0 0 1 8 8Zm32 0a8 8 0 1 1-8-8 8 8 0 0 1 8 8ZM336 64h27.294C350.312 52.368 311.231 40 256 40c-68.369 0-112 18.952-112 32a8 8 0 0 1-16 0c0-10.189 7.047-24.684 40.617-35.874C192.076 28.307 223.109 24 256 24s63.924 4.307 87.383 12.126c10.687 3.563 18.678 7.46 24.617 11.447V32a8 8 0 0 1 16 0v40a8 8 0 0 1-8 8h-40a8 8 0 0 1 0-16Zm48 376c0 10.189-7.047 24.684-40.617 35.874C319.924 483.693 288.891 488 256 488s-63.924-4.307-87.383-12.126c-10.687-3.563-18.678-7.46-24.617-11.447V480a8 8 0 0 1-16 0v-40a8 8 0 0 1 8-8h40a8 8 0 0 1 0 16h-27.294c12.982 11.632 52.063 24 107.294 24 68.369 0 112-18.952 112-32a8 8 0 0 1 16 0ZM112 232a8 8 0 0 1 8-8h64a8 8 0 0 1 0 16h-64a8 8 0 0 1-8-8Zm-48 48a8 8 0 0 1 8-8h64a8 8 0 0 1 0 16H72a8 8 0 0 1-8-8Zm128 48a8 8 0 0 1-8 8h-48a8 8 0 0 1 0-16h48a8 8 0 0 1 8 8ZM64 232a8 8 0 0 1 8-8h16a8 8 0 0 1 0 16H72a8 8 0 0 1-8-8Zm128 48a8 8 0 0 1-8 8h-16a8 8 0 0 1 0-16h16a8 8 0 0 1 8 8ZM64 328a8 8 0 0 1 8-8h32a8 8 0 0 1 0 16H72a8 8 0 0 1-8-8Zm0-144a8 8 0 0 1 8-8h32a8 8 0 0 1 0 16H72a8 8 0 0 1-8-8Z" style="fill:url(#a)" fill=""></path></g></svg>