<svg xmlns="http://www.w3.org/2000/svg" version="1.1" xmlns:xlink="http://www.w3.org/1999/xlink" width="512" height="512" x="0" y="0" viewBox="0 0 512 512" style="enable-background:new 0 0 512 512" xml:space="preserve" class=""><g><path d="m416.542 368.814 75.993 75.993a36.815 36.815 0 0 1 10.787 26.034c.009 20.332-16.471 36.812-36.803 36.821h-.017a36.815 36.815 0 0 1-26.034-10.787l-75.993-75.993 52.067-52.068z" style="" fill="#235087" data-original="#235087" class=""></path><path d="M332.005 342.457h73.632v61.353h-73.632z" style="" transform="rotate(134.999 368.823 373.134)" fill="#ef2648" data-original="#ef2648" class=""></path><path d="M403.525 386.169c10.9.017 21.782.755 32.577 2.204l-19.56-19.56-17.469 17.469c1.485-.026 2.96-.113 4.452-.113z" style="" fill="#163768" data-original="#163768"></path><path d="m416.542 368.814-43.39-43.39-52.068 52.068 17.356 17.356a247.915 247.915 0 0 1 60.607-8.591l17.495-17.443z" style="" fill="#b20d24" data-original="#b20d24"></path><circle cx="208.271" cy="212.61" r="173.559" style="" fill="#b7e5ff" data-original="#b7e5ff"></circle><path d="M147.522 193.141h17.356v73.632h-17.356z" style="" transform="rotate(134.999 156.201 229.958)" fill="#ef2648" data-original="#ef2648" class=""></path><path d="M202.57 212.612h98.182v17.356H202.57z" style="" transform="rotate(134.999 251.662 221.29)" fill="#ef2648" data-original="#ef2648" class=""></path><path d="M451.254 39.051H512v17.356h-60.746zM34.712 177.898H86.78v17.356H34.712z" style="" fill="#ef2648" data-original="#ef2648" class=""></path><path d="M365.953 73.78h49.091v17.356h-49.091z" style="" transform="rotate(134.999 390.5 82.458)" fill="#ef2648" data-original="#ef2648" class=""></path><path d="M112.814 221.288c-19.17 0-34.712-15.542-34.712-34.712s15.542-34.712 34.712-34.712 34.712 15.542 34.712 34.712-15.543 34.712-34.712 34.712zm0-52.068c-9.589 0-17.356 7.767-17.356 17.356 0 9.589 7.767 17.356 17.356 17.356s17.356-7.767 17.356-17.356c-.001-9.589-7.767-17.356-17.356-17.356zM199.593 308.068c-19.17 0-34.712-15.542-34.712-34.712s15.542-34.712 34.712-34.712 34.712 15.542 34.712 34.712-15.542 34.712-34.712 34.712zm0-52.068c-9.589 0-17.356 7.767-17.356 17.356s7.767 17.356 17.356 17.356c9.589 0 17.356-7.767 17.356-17.356S209.182 256 199.593 256zM425.22 82.441c-19.17 0-34.712-15.542-34.712-34.712s15.542-34.712 34.712-34.712 34.712 15.542 34.712 34.712-15.542 34.712-34.712 34.712zm0-52.068c-9.589 0-17.356 7.767-17.356 17.356s7.767 17.356 17.356 17.356 17.356-7.767 17.356-17.356-7.767-17.356-17.356-17.356z" style="" fill="#235087" data-original="#235087" class=""></path><path d="M274.866 52.337c74.127 60.772 84.949 170.132 24.168 244.259-48.518 59.175-130.074 79.594-200.747 50.254 74.127 60.772 183.478 49.95 244.259-24.168s49.95-183.478-24.168-244.259a173.7 173.7 0 0 0-43.512-26.086z" style="" fill="#99c8e0" data-original="#99c8e0"></path><path d="M313.886 125.867h49.091v17.356h-49.091z" style="" transform="rotate(134.999 338.433 134.545)" fill="#ef2648" data-original="#ef2648" class=""></path><path d="m349.193 111.486-19.803 19.803a172.458 172.458 0 0 1 5.207 19.291l24.229-24.229a174.21 174.21 0 0 0-9.633-14.865z" style="" fill="#b20d24" data-original="#b20d24"></path><path d="M208.271 4.339C93.245 4.339 0 97.584 0 212.61s93.245 208.271 208.271 208.271 208.271-93.245 208.271-208.271S323.298 4.339 208.271 4.339zm0 381.83c-95.857 0-173.559-77.703-173.559-173.559S112.414 39.051 208.271 39.051 381.83 116.754 381.83 212.61s-77.702 173.559-173.559 173.559z" style="" fill="#235087" data-original="#235087" class=""></path><path d="M303.729 203.932c-19.17 0-34.712-15.542-34.712-34.712s15.542-34.712 34.712-34.712 34.712 15.542 34.712 34.712-15.543 34.712-34.712 34.712zm0-52.068c-9.589 0-17.356 7.767-17.356 17.356 0 9.589 7.767 17.356 17.356 17.356s17.356-7.767 17.356-17.356c0-9.589-7.767-17.356-17.356-17.356z" style="" fill="#235087" data-original="#235087" class=""></path></g></svg>