<svg xmlns="http://www.w3.org/2000/svg" version="1.1" xmlns:xlink="http://www.w3.org/1999/xlink" width="512" height="512" x="0" y="0" viewBox="0 0 512 512" style="enable-background:new 0 0 512 512" xml:space="preserve" class=""><g><g fill-rule="evenodd" clip-rule="evenodd"><path fill="#ffe177" d="M372.412 143.052v225.897C372.412 389.412 320.292 406 256 406s-116.412-16.588-116.412-37.052V143.052C139.588 122.589 191.707 106 256 106s116.412 16.589 116.412 37.052z" opacity="1" data-original="#ffe177"></path><path fill="#ffd064" d="M291.144 107.719C280.055 106.602 268.248 106 256 106c-2.821 0-5.617.034-8.389.096 60.376 1.368 108.024 17.39 108.024 36.955v19.172c10.647-5.593 16.777-12.154 16.777-19.172 0-16.564-34.153-30.589-81.268-35.332z" opacity="1" data-original="#ffd064"></path><path fill="#ffd064" d="M256 180.104c-64.292 0-116.412-16.588-116.412-37.052v75.299c0 20.463 52.12 37.052 116.412 37.052 12.249 0 24.055-.602 35.144-1.718 22.733-2.288 42.447-6.738 56.764-12.59 15.357-6.278 24.504-14.17 24.504-22.743v-75.299c0 8.573-9.147 16.465-24.504 22.743-14.317 5.853-34.032 10.302-56.764 12.59-11.089 1.116-22.896 1.718-35.144 1.718z" opacity="1" data-original="#ffd064"></path><path fill="#ffc338" d="M355.635 237.523c10.647-5.593 16.777-12.154 16.777-19.172v-75.299c0 7.017-6.13 13.578-16.777 19.172z" opacity="1" data-original="#ffc338"></path><path fill="#ffe177" d="M256 255.403c-64.292 0-116.412-16.588-116.412-37.052v75.299c0 20.463 52.12 37.052 116.412 37.052 37.358 0 70.607-5.601 91.908-14.309 15.357-6.278 24.504-14.171 24.504-22.743v-75.298c0 8.572-9.147 16.465-24.504 22.743-14.317 5.853-34.032 10.302-56.764 12.59-11.089 1.116-22.896 1.718-35.144 1.718z" opacity="1" data-original="#ffe177"></path><path fill="#ffd064" d="M355.635 312.821c10.647-5.593 16.777-12.154 16.777-19.171v-75.298c0 7.017-6.13 13.578-16.777 19.172z" opacity="1" data-original="#ffd064"></path><path fill="#ffd064" d="M256 330.702c-64.292 0-116.412-16.589-116.412-37.052v75.299C139.588 389.412 191.707 406 256 406s116.412-16.588 116.412-37.052V293.65c0 8.572-9.147 16.465-24.504 22.743-21.301 8.707-54.55 14.309-91.908 14.309z" opacity="1" data-original="#ffd064"></path><path fill="#ffc338" d="M247.611 405.904c2.771.063 5.568.096 8.389.096 64.292 0 116.412-16.588 116.412-37.052V293.65c0 7.017-6.13 13.578-16.777 19.171v56.127c0 19.566-47.648 35.587-108.024 36.956z" opacity="1" data-original="#ffc338"></path><path fill="#837683" d="M153.899 35.057a98.177 98.177 0 0 1 28.738 11.915l18.675-8.294 22.01 22.01-8.292 18.669a98.174 98.174 0 0 1 11.917 28.746L246 115.436v31.126l-19.057 7.336a98.142 98.142 0 0 1-11.914 28.739l8.294 18.675-22.01 22.01-18.669-8.292a98.133 98.133 0 0 1-28.746 11.916L146.564 246h-31.127l-7.336-19.057a98.147 98.147 0 0 1-28.738-11.914l-18.675 8.294-22.01-22.009 8.292-18.67a98.155 98.155 0 0 1-11.916-28.747L16 146.563v-31.127l19.056-7.335A98.118 98.118 0 0 1 46.971 79.36l-8.293-18.673 22.01-22.01 18.675 8.294a98.183 98.183 0 0 1 28.739-11.915L115.437 16h31.126z" opacity="1" data-original="#837683"></path><path fill="#685e68" d="M182.252 215.27a98.14 98.14 0 0 1-28.355 11.677L146.563 246h-10.688l7.333-19.053c10.156-2.417 24.498-9.128 33.386-14.602l6.048 2.686a5.49 5.49 0 0 0-.39.239zM57.4 41.965l3.287-3.287 18.675 8.294a98.346 98.346 0 0 0-4.641 2.686zm21.962 173.063-18.674 8.294-3.287-3.287 17.321-7.693a97.949 97.949 0 0 0 4.64 2.686zm74.537-179.971a98.177 98.177 0 0 1 28.738 11.915l-6.047 2.686c-8.887-5.472-23.226-12.184-33.379-14.601L135.874 16h10.688zm40.012 6.908 7.401-3.287 22.01 22.01-8.292 18.669a98.141 98.141 0 0 1 11.917 28.747L246 115.436v31.127l-19.057 7.336a98.142 98.142 0 0 1-11.914 28.739l8.294 18.675-22.01 22.01-7.401-3.287 18.723-18.723-8.294-18.675a98.171 98.171 0 0 0 11.915-28.739l19.057-7.336v-31.127l-19.053-7.334a98.141 98.141 0 0 0-11.917-28.747l8.292-18.669z" opacity="1" data-original="#685e68"></path><ellipse cx="131" cy="131" fill="#eceff1" rx="59.03" ry="59.029" transform="rotate(-9.25 131.057 131.223)" opacity="1" data-original="#eceff1"></ellipse><path fill="#d1d1d6" d="M131 71.971c-32.604 0-59.03 26.425-59.03 59.029s26.425 59.029 59.03 59.029c1.251 0 2.491-.044 3.722-.12-30.869-1.921-55.307-27.556-55.307-58.909 0-31.354 24.438-56.988 55.307-58.909a59.58 59.58 0 0 0-3.722-.12z" opacity="1" data-original="#d1d1d6"></path><path fill="#837683" d="M403.899 285.057a98.183 98.183 0 0 1 28.739 11.915l18.675-8.294 22.01 22.01-8.292 18.669a98.174 98.174 0 0 1 11.917 28.746L496 365.436v31.126l-19.057 7.336a98.142 98.142 0 0 1-11.914 28.739l8.294 18.675-22.01 22.01-18.669-8.292a98.144 98.144 0 0 1-28.746 11.916L396.564 496h-31.127l-7.336-19.057a98.153 98.153 0 0 1-28.739-11.914l-18.675 8.294-22.01-22.009 8.292-18.67a98.155 98.155 0 0 1-11.916-28.747L266 396.564v-31.127l19.056-7.335a98.118 98.118 0 0 1 11.915-28.741l-8.293-18.673 22.01-22.01 18.675 8.294a98.183 98.183 0 0 1 28.739-11.915L365.437 266h31.126z" opacity="1" data-original="#837683"></path><path fill="#685e68" d="M432.253 465.27a98.135 98.135 0 0 1-28.356 11.677L396.564 496h-10.688l7.333-19.053c10.156-2.416 24.498-9.128 33.387-14.602l6.048 2.686a4.797 4.797 0 0 0-.391.239zM307.401 291.964l3.287-3.287 18.675 8.294a98.346 98.346 0 0 0-4.641 2.686zm21.962 173.064-18.674 8.294-3.287-3.287 17.321-7.693a98.315 98.315 0 0 0 4.64 2.686zm74.536-179.971a98.183 98.183 0 0 1 28.739 11.915l-6.047 2.686c-8.887-5.472-23.226-12.184-33.379-14.6L385.875 266h10.688zm40.012 6.907 7.401-3.287 22.01 22.01-8.292 18.669a98.141 98.141 0 0 1 11.917 28.747L496 365.436v31.127l-19.057 7.336a98.142 98.142 0 0 1-11.914 28.739l8.294 18.675-22.01 22.01-7.401-3.287 18.723-18.723-8.294-18.675a98.183 98.183 0 0 0 11.915-28.739l19.057-7.336v-31.127l-19.053-7.333a98.141 98.141 0 0 0-11.917-28.747l8.292-18.669z" opacity="1" data-original="#685e68"></path><circle cx="381" cy="381" r="59.03" fill="#eceff1" opacity="1" data-original="#eceff1"></circle><path fill="#d1d1d6" d="M381 321.971c-32.604 0-59.029 26.425-59.029 59.029s26.425 59.03 59.029 59.03c1.251 0 2.491-.044 3.723-.12-30.869-1.921-55.307-27.556-55.307-58.909s24.438-56.988 55.307-58.909a58.851 58.851 0 0 0-3.723-.121z" opacity="1" data-original="#d1d1d6"></path><path d="M234.631 444.64H70.361V304.159l4.565 6.73a8.04 8.04 0 0 0 6.637 3.512 7.842 7.842 0 0 0 4.472-1.393c3.672-2.476 4.613-7.446 2.165-11.108l-19.204-28.27a8.004 8.004 0 0 0-6.636-3.511c-2.636 0-5.131 1.313-6.59 3.511l-19.204 28.269c-2.447 3.662-1.506 8.632 2.118 11.108 3.671 2.48 8.661 1.534 11.155-2.118l4.518-6.73v148.483a7.994 7.994 0 0 0 8.002 7.997h172.272a7.994 7.994 0 0 0 8.002-7.997c-.001-4.411-3.578-8.002-8.002-8.002zm41.75-377.28h164.27v140.491l-4.565-6.731c-2.495-3.657-7.437-4.608-11.108-2.127s-4.612 7.446-2.118 11.108l19.157 28.279c1.506 2.189 4.001 3.502 6.637 3.502s5.13-1.313 6.637-3.502l19.157-28.279a7.966 7.966 0 0 0-2.118-11.108 7.994 7.994 0 0 0-11.108 2.127l-4.566 6.731V59.358a7.994 7.994 0 0 0-8.002-7.997H276.381c-4.377 0-8.002 3.577-8.002 7.997s3.625 8.002 8.002 8.002zm-94.326 63.642c0-28.142-22.922-51.032-51.023-51.032-28.147 0-51.07 22.89-51.07 51.032 0 28.138 22.922 51.032 51.07 51.032 28.101 0 51.023-22.895 51.023-51.032zm-51.023 67.03c-36.996 0-67.026-30.072-67.026-67.031 0-36.963 30.03-67.031 67.026-67.031 36.949 0 67.026 30.067 67.026 67.031 0 36.959-30.077 67.031-67.026 67.031zm301.005 182.966c0-28.138-22.876-51.027-51.023-51.027s-51.023 22.89-51.023 51.027c0 28.143 22.875 51.032 51.023 51.032s51.023-22.889 51.023-51.032zm16.004 0c0 36.963-30.077 67.031-67.026 67.031s-67.026-30.068-67.026-67.031c0-36.958 30.077-67.026 67.026-67.026s67.026 30.068 67.026 67.026zm39.961-10.068v20.141l-13.932 5.361a8.013 8.013 0 0 0-4.895 5.62 89.859 89.859 0 0 1-10.92 26.387 7.908 7.908 0 0 0-.518 7.451l6.072 13.65-14.262 14.243-13.65-6.062a8.015 8.015 0 0 0-7.437.499 90.37 90.37 0 0 1-26.406 10.948 8.015 8.015 0 0 0-5.601 4.9L391.088 488h-20.146l-5.366-13.932a8.027 8.027 0 0 0-5.601-4.909 90.104 90.104 0 0 1-26.406-10.939 7.99 7.99 0 0 0-7.437-.499l-13.65 6.062-14.262-14.243 6.072-13.65a7.887 7.887 0 0 0-.518-7.441 89.846 89.846 0 0 1-10.92-26.406 8.019 8.019 0 0 0-4.895-5.611l-13.932-5.361v-17.863a8.444 8.444 0 0 0 1.365-2.81l12.567-4.829a8.025 8.025 0 0 0 4.895-5.62 89.948 89.948 0 0 1 10.92-26.387 7.908 7.908 0 0 0 .518-7.451l-6.072-13.65 14.262-14.243 13.65 6.062a7.958 7.958 0 0 0 7.437-.499 90.222 90.222 0 0 1 26.406-10.943 8.008 8.008 0 0 0 5.601-4.909l5.366-13.928h20.146l5.366 13.928a8.005 8.005 0 0 0 5.601 4.909 90.233 90.233 0 0 1 26.406 10.943 7.958 7.958 0 0 0 7.437.499l13.65-6.062 14.262 14.243-6.072 13.65a7.887 7.887 0 0 0 .518 7.442 89.844 89.844 0 0 1 10.92 26.396 8.023 8.023 0 0 0 4.895 5.62zM256 397.999c-71.168 0-108.399-18.908-108.399-29.051v-51.997c22.546 14.347 65.661 21.751 108.399 21.751 9.367 0 18.592-.353 27.582-1.031-2.071 4.679-3.86 9.498-5.225 14.441l-15.203 5.86a8.045 8.045 0 0 0-3.295 2.377h-15.486c-4.424 0-8.002 3.582-8.002 8.002s3.577 8.002 8.002 8.002h13.65v20.207c0 .494.047.96.141 1.422-.705-.001-1.411.017-2.164.017zM147.601 293.653v-39.731a8.045 8.045 0 0 0 6.449-5.05l1.13-2.989c22.593 10.93 59.919 17.519 100.821 17.519 42.786 0 85.901-7.399 108.446-21.751v16.432c-2.918.367-5.413 2.278-6.448 5.05l-5.884 15.217a106.357 106.357 0 0 0-23.252 9.64l-14.921-6.618c-3.013-1.351-6.543-.692-8.896 1.647l-22.028 22.009a8.11 8.11 0 0 0-1.648 8.91l3.389 7.592A352.555 352.555 0 0 1 256 322.697c-71.168.002-108.399-18.906-108.399-29.044zm-26.641-55.65-5.366-13.932c-.941-2.462-3.06-4.297-5.648-4.909a90.108 90.108 0 0 1-26.358-10.939 7.976 7.976 0 0 0-7.437-.504l-13.697 6.062-14.215-14.243 6.072-13.65a8.153 8.153 0 0 0-.518-7.437 89.928 89.928 0 0 1-10.92-26.401 7.986 7.986 0 0 0-4.942-5.62l-13.933-5.361v-20.141l13.933-5.356a7.984 7.984 0 0 0 4.942-5.625 89.948 89.948 0 0 1 10.92-26.387c1.412-2.25 1.553-5.032.518-7.451l-6.072-13.65 14.215-14.238 13.697 6.058a8.011 8.011 0 0 0 7.437-.489 89.725 89.725 0 0 1 26.358-10.948c2.589-.612 4.707-2.452 5.648-4.909L120.96 24h20.145l5.319 13.932c.988 2.457 3.059 4.297 5.648 4.909a90.261 90.261 0 0 1 26.406 10.939c2.212 1.389 5.036 1.568 7.437.499l13.65-6.058 14.215 14.238-6.025 13.65a8.014 8.014 0 0 0 .471 7.441 91.22 91.22 0 0 1 10.967 26.41 8.028 8.028 0 0 0 4.895 5.611l13.933 5.356v20.141l-13.933 5.361a8.025 8.025 0 0 0-4.895 5.62 91.362 91.362 0 0 1-10.967 26.391 8.025 8.025 0 0 0-.471 7.446l6.025 13.65-14.215 14.243-13.65-6.062a8.002 8.002 0 0 0-7.437.504 90.642 90.642 0 0 1-26.406 10.948c-2.589.607-4.66 2.438-5.648 4.9l-5.319 13.932H120.96zM256 114.001c71.215 0 108.446 18.912 108.446 29.051 0 10.138-37.231 29.051-108.446 29.051-8.896 0-17.651-.334-26.217-.97 1.506-3.671 2.824-7.423 3.86-11.24l15.25-5.86a7.985 7.985 0 0 0 5.13-7.47v-31.122c0-.48-.047-.951-.141-1.422.706 0 1.412-.018 2.118-.018zm-27.018 92.97a7.93 7.93 0 0 0 1.647-8.901l-4.942-11.212a364.646 364.646 0 0 0 30.312 1.242c42.786 0 85.901-7.399 108.446-21.751v52.002c0 10.138-37.231 29.046-108.446 29.046-37.09 0-71.592-5.747-91.925-15.02a107.103 107.103 0 0 0 19.11-8.369l14.921 6.623c3.012 1.351 6.542.687 8.896-1.652zm275.023 158.471v31.117a7.981 7.981 0 0 1-5.13 7.47l-15.203 5.86c-2.259 8.11-5.507 15.9-9.649 23.261l6.637 14.921a8.101 8.101 0 0 1-1.647 8.901l-22.028 22.009c-2.353 2.339-5.884 2.998-8.896 1.647l-14.921-6.618a105.464 105.464 0 0 1-23.252 9.649l-5.884 15.213a7.965 7.965 0 0 1-7.437 5.126h-31.159a7.965 7.965 0 0 1-7.437-5.126l-5.884-15.222a106.113 106.113 0 0 1-23.252-9.64l-14.921 6.618c-3.013 1.351-6.543.692-8.896-1.647l-22.028-22.009a8.102 8.102 0 0 1-1.648-8.901l6.637-14.911a103.259 103.259 0 0 1-8.614-19.901c-7.672.49-15.486.739-23.393.739-61.801 0-124.403-15.467-124.403-45.05V254.002h-16.145c-3.295 0-6.26-2.043-7.484-5.131l-5.837-15.222a105.48 105.48 0 0 1-23.252-9.639l-14.921 6.623c-3.012 1.351-6.59.687-8.896-1.652l-22.028-22.009a7.934 7.934 0 0 1-1.647-8.901l6.637-14.911a104.665 104.665 0 0 1-9.649-23.266l-15.25-5.86c-3.059-1.191-5.13-4.161-5.13-7.47v-31.122c0-3.309 2.071-6.279 5.13-7.47l15.25-5.86c2.259-8.11 5.507-15.9 9.649-23.261L31.387 63.94a7.941 7.941 0 0 1 1.647-8.906L55.062 33.02c2.306-2.339 5.884-2.998 8.896-1.647l14.921 6.618a106.305 106.305 0 0 1 23.252-9.639l5.837-15.217c1.224-3.092 4.189-5.13 7.484-5.13h31.112c3.342 0 6.307 2.038 7.484 5.13l5.837 15.217c8.143 2.283 15.909 5.512 23.299 9.639l14.874-6.618a8.042 8.042 0 0 1 8.943 1.647l21.981 22.014a7.937 7.937 0 0 1 1.647 8.906l-6.59 14.911c3.53 6.331 6.448 12.991 8.614 19.891 7.672-.49 15.486-.739 23.346-.739 61.849 0 124.403 15.476 124.403 45.05V258h16.191a7.967 7.967 0 0 1 7.437 5.135l5.884 15.217a106.357 106.357 0 0 1 23.252 9.64l14.921-6.618a7.997 7.997 0 0 1 8.896 1.647l22.028 22.009a8.11 8.11 0 0 1 1.647 8.91l-6.637 14.911c4.142 7.362 7.39 15.147 9.649 23.262l15.203 5.86a7.976 7.976 0 0 1 5.132 7.469zm-259.631-64.39c-4.424 0-8.002-3.582-8.002-8.002s3.577-7.997 8.002-7.997h23.299c4.425 0 8.002 3.577 8.002 7.997s-3.577 8.002-8.002 8.002zm-8.002-83.303a8 8 0 0 1 8.002-7.997h23.299a8 8 0 1 1 0 15.999h-23.299a7.999 7.999 0 0 1-8.002-8.002z" fill="#000000" opacity="1" data-original="#000000" class=""></path></g></g></svg>