<svg xmlns="http://www.w3.org/2000/svg" version="1.1" xmlns:xlink="http://www.w3.org/1999/xlink" width="512" height="512" x="0" y="0" viewBox="0 0 128 128" style="enable-background:new 0 0 512 512" xml:space="preserve" class=""><g><path fill="#e6e7e8" d="m123.665 39.331-36.633-6.137a.962.962 0 0 0-.33 0l-36.478 6.111-5.61-.825a15.499 15.499 0 0 0 2.984-9.163c0-4.327-1.816-8.502-4.984-11.453-3.212-2.992-7.399-4.469-11.805-4.157-7.882.559-14.112 6.938-14.494 14.838a15.684 15.684 0 0 0 .854 5.9l-8.523-1.253a.996.996 0 0 0-.799.232.995.995 0 0 0-.347.756v77.019c0 .496.363.917.854.989l41.734 6.137c.102.015.208.014.311-.003l36.468-6.109 36.468 6.109c.281.031.629-.069.812-.223.224-.19.354-.469.354-.763V40.317a1 1 0 0 0-.836-.986z" opacity="1" data-original="#e6e7e8"></path><path fill="#d4fbff" d="m4.5 30.18 41.734 6.137v77.018L4.5 107.199z" opacity="1" data-original="#d4fbff"></path><path fill="#6dc9f7" d="m46.234 113.335 36.633-6.136V30.18l-36.633 6.137z" opacity="1" data-original="#6dc9f7"></path><path fill="#d4fbff" d="m119.5 113.335-36.633-6.136V30.18l36.633 6.137z" opacity="1" data-original="#d4fbff"></path><path fill="#6dc9f7" d="M119.5 84.908c-3.602-4.518-9.299-11.027-15.949-16.318-3.911-18.018 12.015-32.146 12.774-32.805l-6.111-1.024c-4.651 4.94-13.077 15.911-12.241 29.875-4.858-3.014-10.015-5.052-15.106-5.052-2.056 0-4.047.362-5.988.993-1.633-.241-13.157-2.093-18.814-7.113-5.708-5.063-7.092-12.342-7.172-17.928l-4.659.78-.363-.053c.186 6.506 1.999 14.841 8.876 20.942 4.054 3.597 10.229 5.768 14.956 6.993-5.126 3.452-9.94 8.391-14.664 13.245-7.172 7.371-13.946 14.33-19.653 13.442-4.87-.759-10.586-5.121-15.851-10.364-.238-2.858-2.204-31.733 13.247-46.183l-6.161-.906c-10.934 12.594-12.394 31.594-12.33 41.45C10.057 70 6.522 65.16 4.586 62.229c-.026-.039-.059-.069-.086-.105v8.585c4.83 6.413 13.288 16.565 21.945 21.84-3.544 8.633-9.634 13.313-14.337 15.768l7.531 1.107c4.16-3.162 8.414-7.818 11.284-14.631 1.242.48 2.477.843 3.692 1.032.603.094 1.2.139 1.797.139 7.579 0 14.702-7.319 22.209-15.035 2.054-2.111 4.127-4.237 6.218-6.23 4.877 2.224 26.625 13.231 32.92 34.992l5.415.907C97.704 87.32 76.941 75.04 68.888 71.072c4.576-3.796 9.237-6.487 13.979-6.487 16.783 0 36.375 28.281 36.57 28.567.019.027.043.048.062.074v-8.318z" opacity="1" data-original="#6dc9f7"></path><path fill="#0089ef" d="M54.746 57.205c4.054 3.597 10.229 5.768 14.956 6.993-5.126 3.452-9.94 8.391-14.664 13.245-3.023 3.107-5.973 6.132-8.804 8.535v6.316c4.107-2.856 8.187-7.047 12.387-11.364 2.054-2.111 4.127-4.237 6.218-6.23 2.688 1.226 10.502 5.127 18.028 12.019v-6.716c-5.498-4.422-10.757-7.345-13.979-8.932 4.576-3.796 9.237-6.487 13.979-6.487v-5c-2.056 0-4.047.362-5.988.993-1.633-.241-13.157-2.093-18.814-7.113-5.708-5.063-7.092-12.342-7.172-17.928l-4.659.78v4.205c.8 5.618 3.065 11.851 8.512 16.684z" opacity="1" data-original="#0089ef"></path><path fill="#fa759e" d="M115.598 60.317c0-8.445-7.145-15.22-15.719-14.613-7.335.52-13.211 6.543-13.565 13.888-.245 5.08 2.1 9.623 5.827 12.43a14.496 14.496 0 0 1 3.661 4.013c2.23 3.65 3.69 6.566 4.467 8.227a.75.75 0 0 0 1.358.001c.791-1.686 2.287-4.669 4.581-8.418.912-1.49 2.132-2.761 3.529-3.81 3.558-2.673 5.861-6.926 5.861-11.718z" opacity="1" data-original="#fa759e" class=""></path><circle cx="100.947" cy="60.317" r="8.5" fill="#ffd7e5" opacity="1" data-original="#ffd7e5"></circle><path fill="#fa759e" d="M60.885 82.317c0-8.445-7.145-15.22-15.719-14.613-7.335.52-13.211 6.543-13.565 13.888-.245 5.08 2.1 9.623 5.827 12.43a14.496 14.496 0 0 1 3.661 4.013c2.23 3.65 3.69 6.566 4.467 8.227a.75.75 0 0 0 1.358.001c.791-1.686 2.287-4.669 4.581-8.418.912-1.49 2.132-2.761 3.529-3.81 3.558-2.673 5.861-6.926 5.861-11.718z" opacity="1" data-original="#fa759e" class=""></path><circle cx="46.234" cy="82.317" r="8.5" fill="#ffd7e5" opacity="1" data-original="#ffd7e5"></circle><path fill="#fa759e" d="M42.598 25.317c0-8.445-7.145-15.22-15.719-14.613-7.335.52-13.211 6.543-13.565 13.888-.245 5.08 2.1 9.623 5.827 12.43a14.496 14.496 0 0 1 3.661 4.013c2.23 3.65 3.69 6.566 4.467 8.227a.75.75 0 0 0 1.358.001c.791-1.686 2.287-4.669 4.581-8.418.912-1.49 2.132-2.761 3.529-3.81 3.558-2.673 5.861-6.926 5.861-11.718z" opacity="1" data-original="#fa759e" class=""></path><circle cx="27.947" cy="25.317" r="8.5" fill="#ffd7e5" opacity="1" data-original="#ffd7e5"></circle><path fill="#ffffff" d="M27.947 19.817c4.182 0 7.65 3.022 8.36 7 .087-.488.14-.987.14-1.5a8.5 8.5 0 0 0-17 0c0 .513.053 1.012.14 1.5.71-3.978 4.178-7 8.36-7z" opacity="1" data-original="#ffffff"></path><g fill="#3a2c60"><path d="M91.539 72.821a13.443 13.443 0 0 1 3.409 3.735c2.161 3.536 3.594 6.372 4.415 8.13a1.735 1.735 0 0 0 1.585 1.008h.001c.687 0 1.293-.387 1.583-1.007.842-1.793 2.311-4.693 4.529-8.321.804-1.314 1.905-2.502 3.275-3.531 3.979-2.988 6.261-7.551 6.261-12.518 0-4.328-1.816-8.502-4.984-11.454-3.212-2.993-7.405-4.473-11.805-4.157-7.882.559-14.112 6.938-14.494 14.838a15.667 15.667 0 0 0 6.225 13.277zm8.41-26.12c.338-.024.674-.036 1.008-.036 3.47 0 6.737 1.28 9.293 3.661a13.699 13.699 0 0 1 4.348 9.99c0 4.333-1.991 8.312-5.462 10.918-1.572 1.182-2.845 2.557-3.781 4.088-2.078 3.399-3.517 6.18-4.406 8.037-.869-1.819-2.271-4.536-4.293-7.846a15.438 15.438 0 0 0-3.913-4.291 13.67 13.67 0 0 1-5.43-11.583c.332-6.888 5.765-12.45 12.636-12.938z" fill="#3a2c60" opacity="1" data-original="#3a2c60"></path><path d="M100.947 69.817c5.238 0 9.5-4.262 9.5-9.5s-4.262-9.5-9.5-9.5-9.5 4.262-9.5 9.5 4.262 9.5 9.5 9.5zm0-17c4.136 0 7.5 3.364 7.5 7.5s-3.364 7.5-7.5 7.5-7.5-3.364-7.5-7.5 3.365-7.5 7.5-7.5zM55.733 82.317c0-5.238-4.262-9.5-9.5-9.5s-9.5 4.262-9.5 9.5 4.262 9.5 9.5 9.5 9.5-4.262 9.5-9.5zm-9.5 7.5c-4.136 0-7.5-3.364-7.5-7.5s3.364-7.5 7.5-7.5 7.5 3.364 7.5 7.5-3.364 7.5-7.5 7.5z" fill="#3a2c60" opacity="1" data-original="#3a2c60"></path><path d="m119.665 35.331-36.633-6.137a.962.962 0 0 0-.33 0l-36.478 6.111-5.61-.825a15.499 15.499 0 0 0 2.984-9.163c0-4.328-1.816-8.502-4.984-11.454-3.212-2.993-7.406-4.472-11.805-4.157-7.882.559-14.112 6.938-14.494 14.838a15.684 15.684 0 0 0 .854 5.9l-8.523-1.253a1 1 0 0 0-1.146.989v6.137a1 1 0 1 0 2 0v-4.979l8.605 1.265a15.661 15.661 0 0 0 4.434 5.218 13.443 13.443 0 0 1 3.409 3.735c2.161 3.536 3.594 6.372 4.415 8.13a1.735 1.735 0 0 0 1.585 1.008h.001c.687 0 1.293-.387 1.583-1.007.842-1.793 2.311-4.693 4.529-8.321.804-1.314 1.905-2.502 3.275-3.531a15.941 15.941 0 0 0 1.754-1.557l6.142.903v29.523c-.046.003-.091 0-.138.003-7.882.559-14.112 6.938-14.494 14.837a15.66 15.66 0 0 0 6.225 13.277 13.447 13.447 0 0 1 3.409 3.735c2.161 3.536 3.594 6.372 4.414 8.129.134.286.34.514.584.686v4.806L5.5 106.335V56.759a1 1 0 1 0-2 0v50.439c0 .496.363.917.854.989l41.734 6.137c.102.015.208.014.311-.003l36.468-6.109 36.468 6.109c.242.052.629-.069.812-.223.224-.19.354-.469.354-.763V36.317a1.001 1.001 0 0 0-.836-.986zm-83.529.904c-1.572 1.182-2.845 2.557-3.781 4.088-2.078 3.399-3.517 6.18-4.406 8.037-.869-1.819-2.271-4.536-4.293-7.846a15.438 15.438 0 0 0-3.913-4.291 13.67 13.67 0 0 1-5.43-11.583c.332-6.889 5.766-12.452 12.637-12.939.338-.024.674-.036 1.008-.036 3.47 0 6.737 1.28 9.293 3.661a13.699 13.699 0 0 1 4.348 9.99c-.001 4.333-1.993 8.313-5.463 10.919zm11.097 71.139c.245-.172.452-.401.586-.687.843-1.797 2.313-4.7 4.529-8.321.804-1.314 1.905-2.502 3.275-3.531 3.979-2.988 6.261-7.551 6.261-12.518 0-4.328-1.816-8.502-4.984-11.454a15.477 15.477 0 0 0-9.667-4.15V37.164l34.634-5.802v74.99l-34.634 5.802zm-5.291-9.861a15.454 15.454 0 0 0-3.913-4.29 13.667 13.667 0 0 1-5.43-11.583c.332-6.889 5.766-12.452 12.637-12.939.338-.024.674-.036 1.008-.036 3.47 0 6.737 1.28 9.293 3.661a13.699 13.699 0 0 1 4.348 9.99c0 4.333-1.991 8.312-5.462 10.918-1.572 1.182-2.845 2.557-3.78 4.087-2.077 3.395-3.517 6.178-4.407 8.037-.87-1.817-2.271-4.535-4.294-7.845zm76.558 14.641-34.633-5.802v-74.99l34.633 5.801z" fill="#3a2c60" opacity="1" data-original="#3a2c60"></path><path d="M4.5 52.817a1 1 0 0 0 1-1V41.758a1 1 0 1 0-2 0v10.059a1 1 0 0 0 1 1zM27.947 15.817c-5.238 0-9.5 4.262-9.5 9.5s4.262 9.5 9.5 9.5 9.5-4.262 9.5-9.5-4.261-9.5-9.5-9.5zm0 17c-4.136 0-7.5-3.364-7.5-7.5s3.364-7.5 7.5-7.5 7.5 3.364 7.5 7.5-3.364 7.5-7.5 7.5z" fill="#3a2c60" opacity="1" data-original="#3a2c60"></path></g></g></svg>