<svg xmlns="http://www.w3.org/2000/svg" version="1.1" xmlns:xlink="http://www.w3.org/1999/xlink" width="512" height="512" x="0" y="0" viewBox="0 0 512 512" style="enable-background:new 0 0 512 512" xml:space="preserve" class=""><g><linearGradient id="a" x1="112.072" x2="142.559" y1="184.015" y2="131.208" gradientUnits="userSpaceOnUse"><stop offset="0" stop-color="#c5baeb"></stop><stop offset=".484" stop-color="#dfdaef"></stop><stop offset="1" stop-color="#e9e5f6"></stop></linearGradient><linearGradient id="b" x1="190.119" x2="190.119" y1="525.118" y2="109.071" gradientTransform="matrix(.866 -.5 0 1.155 28.799 72.345)" gradientUnits="userSpaceOnUse"><stop offset="0" stop-color="#c5baeb"></stop><stop offset=".484" stop-color="#dfdaef"></stop><stop offset="1" stop-color="#f2edff"></stop></linearGradient><linearGradient id="c" x1="290.231" x2="372.364" y1="347.289" y2="205.031" gradientUnits="userSpaceOnUse"><stop offset="0" stop-color="#0072bc"></stop><stop offset=".354" stop-color="#59acf9"></stop><stop offset=".697" stop-color="#70c8fd"></stop><stop offset=".898" stop-color="#79d3fe"></stop></linearGradient><path fill="#a996eb" d="M59.651 395.503V409.7c0 3.268 1.649 5.711 3.92 7.078v.001l46.231 26.706 3.033-49.514z" opacity="1" data-original="#a996eb"></path><path fill="#0072bc" d="m428.016 504.805-65.686-37.923 31.31-20.036z" opacity="1" data-original="#0072bc"></path><path fill="url(#a)" d="m263.134 3.374-.002.004c-6.114-4.545-14.525-4.681-23.811.681L54.414 110.814c-18.689 10.79-33.839 39.737-33.839 64.656v176.909c0 14.769 5.323 24.806 13.55 28.287l25.526 14.836L78.916 406.7 309.305 30.031z" opacity="1" data-original="url(#a)" class=""></path><path fill="url(#b)" d="M285.895 30.99 100.989 137.745C82.3 148.535 67.15 177.483 67.15 202.401V379.31c0 24.918 15.15 36.372 33.839 25.582l5.237-3.024v34.764c0 8.689 11.649 11.553 15.678 3.855l35.752-68.311 128.239-74.039c18.689-10.79 33.839-39.737 33.839-64.656V56.571c0-24.918-15.15-36.371-33.839-25.581z" opacity="1" data-original="url(#b)" class=""></path><path fill="#565d68" d="m282.307 236.462-47.103-112.343c-3.97-9.467-12.784-11.976-22.456-6.393-9.671 5.584-18.486 18.271-22.456 32.322l-47.103 166.733c-2.818 9.973-.027 18.173 6.233 18.316 6.259.143 13.618-7.827 16.436-17.8l16.002-56.644 61.776-35.666 16.002 38.166c2.072 4.942 6.6 5.964 11.342 3.227 1.705-.984 3.439-2.456 5.094-4.405 6.26-7.371 9.051-18.793 6.233-25.513zm-89.258-15.414 19.699-69.729 19.699 46.982z" opacity="1" data-original="#565d68"></path><path fill="url(#c)" d="m450.7 182.23-43.979-25.405a58.28 58.28 0 0 0-4.089-2.362l-.01-.006c-20.063-10.521-45.795-8.946-73.854 7.254-64.076 36.994-116.02 136.242-116.02 221.677 0 47.424 16.01 80.611 41.211 94.438l-.001.003 43.747 25.293z" opacity="1" data-original="url(#c)" class=""></path><path fill="#59acf9" d="M491.425 276.4c0-85.435-51.944-124.703-116.02-87.709s-116.02 136.242-116.02 221.677c0 85.434 51.944 124.703 116.02 87.709 7.655-4.42 15.135-9.737 22.376-15.804l28.418 21.484c5.476 4.14 13.326.234 13.326-6.631v-61.83c31.279-45.77 51.9-105.071 51.9-158.896z" opacity="1" data-original="#59acf9" class=""></path><path fill="#ffffff" d="m438.728 237.431-46.067 26.597v-18.852c0-9.153-5.565-13.36-12.43-9.396-6.865 3.963-12.43 14.596-12.43 23.749v18.851l-46.067 26.597c-6.865 3.963-12.43 14.596-12.43 23.749s5.565 13.36 12.43 9.396l75.937-43.842c-5.27 22.424-12.94 44.915-22.637 66.472-7.117-7.591-13.171-16.946-17.952-27.86-2.9-6.621-10.294-5.942-16.517 1.518-6.222 7.459-8.914 18.874-6.014 25.495 6.055 13.822 13.847 25.512 23.058 34.795a350.239 350.239 0 0 1-6.317 10.458l-21.044 33.462c-5.467 8.693-6.532 19.704-2.38 24.596 2.445 2.881 6.154 2.996 9.907.829 2.62-1.512 5.262-4.138 7.509-7.712l21.044-33.463a416.182 416.182 0 0 0 8.713-14.518 79.895 79.895 0 0 0 8.697 4.467l21.044 9.163c2.248.978 4.889.554 7.509-.959 3.753-2.167 7.462-6.565 9.907-12.269 4.152-9.686 3.087-19.468-2.379-21.848l-21.044-9.163a67.538 67.538 0 0 1-6.311-3.158c14.23-30.791 24.965-63.309 31.391-95.423l14.873-8.587c6.865-3.963 12.429-14.596 12.429-23.749 0-9.151-5.564-13.358-12.429-9.395z" opacity="1" data-original="#ffffff" class=""></path></g></svg>