<svg xmlns="http://www.w3.org/2000/svg" version="1.1" xmlns:xlink="http://www.w3.org/1999/xlink" width="512" height="512" x="0" y="0" viewBox="0 0 512 512" style="enable-background:new 0 0 512 512" xml:space="preserve" class=""><g><path d="M46 468.5v-296c0-16.57 13.43-30 30-30h360c16.57 0 30 13.43 30 30v296H46z" style="" fill="#ffffff" data-original="#ffffff"></path><path d="M86 180.926h340v230H86z" style="" fill="#94b7f7" data-original="#94b7f7"></path><path d="M86 180.926h25v230H86z" style="" fill="#5b92f2" data-original="#5b92f2"></path><path d="M341 307.995v-24.136l-16.691-5.936-7.276-17.567 7.605-16-17.067-17.067-16 7.605-17.567-7.277-5.936-16.691h-24.136l-5.936 16.691-17.567 7.277-16-7.605-17.067 17.067 7.605 16-7.276 17.567L171 283.858v24.136l16.691 5.936 7.276 17.567-7.605 16 17.067 17.067 16-7.605 17.567 7.277 5.936 16.691h24.136l5.936-16.691 17.567-7.277 16 7.605 17.067-17.067-7.605-16 7.276-17.567L341 307.995zm-85 12.932c-13.807 0-25-11.193-25-25s11.193-25 25-25 25 11.193 25 25-11.193 25-25 25z" style="" fill="#ffffff" data-original="#ffffff"></path><path d="M162.5 7.5h-140c-8.284 0-15 6.716-15 15v143.426c0 8.284 6.716 15 15 15h69.833l50 45.956v-45.956H162.5c8.284 0 15-6.716 15-15V22.5c0-8.284-6.716-15-15-15z" style="" fill="#8ae897" data-original="#8ae897"></path><path d="M349.5 7.5h140c8.284 0 15 6.716 15 15v143.426c0 8.284-6.716 15-15 15h-69.833l-50 45.956v-45.956H349.5c-8.284 0-15-6.716-15-15V22.5c0-8.284 6.716-15 15-15z" style="" fill="#ffaa81" data-original="#ffaa81" class=""></path><path d="M327 448.5h177v26c0 16.569-13.431 30-30 30H38c-16.569 0-30-13.431-30-30v-26h177c0 7.732 6.268 14 14 14h114c7.732 0 14-6.268 14-14z" style="" fill="#ffffff" data-original="#ffffff"></path><path d="M33 474.5v-26H8v26c0 16.569 13.431 30 30 30h25c-16.569 0-30-13.431-30-30z" style="" fill="#e3e9ee" data-original="#e3e9ee"></path><path d="M32.5 165.927V22.5c0-8.284 6.716-15 15-15h-25c-8.284 0-15 6.716-15 15v143.427c0 8.284 6.716 15 15 15h25c-8.284 0-15-6.716-15-15z" style="" fill="#54e072" data-original="#54e072"></path><path d="M359.5 165.927V22.5c0-8.284 6.716-15 15-15h-25c-8.284 0-15 6.716-15 15v143.427c0 8.284 6.716 15 15 15h25c-8.284 0-15-6.716-15-15z" style="" fill="#ff905b" data-original="#ff905b"></path><path d="M327 448.5h177v26c0 16.569-13.431 30-30 30H38c-16.569 0-30-13.431-30-30v-26h177c0 7.732 6.268 14 14 14h114c7.732 0 14-6.268 14-14zM466 357.53v-176.6M466 448.5v-75.97M334.5 142.5h-157M46 240.93v-60M46 448.5V255.93M419.67 180.93H426v230H86v-230h6.33M142.33 180.93H369.67" style="stroke-width:15;stroke-miterlimit:10;" fill="none" stroke="#000000" stroke-width="15" stroke-miterlimit="10" data-original="#000000" class=""></path><path d="m268.068 210.926 5.936 16.691 17.567 7.276 16-7.605 17.067 17.067-7.605 16 7.276 17.567L341 283.858v24.136l-16.691 5.936-7.276 17.567 7.605 16-17.067 17.067-16-7.605-17.567 7.276-5.936 16.691h-24.136l-5.936-16.691-17.567-7.276-16 7.605-17.067-17.067 7.605-16-7.276-17.567L171 307.995v-24.136l16.691-5.936 7.276-17.567-7.605-16 17.067-17.067 16 7.605 17.567-7.276 5.936-16.691 24.136-.001z" style="stroke-width:15;stroke-miterlimit:10;" fill="none" stroke="#000000" stroke-width="15" stroke-miterlimit="10" data-original="#000000" class=""></path><circle cx="256" cy="295.926" r="25" style="stroke-width:15;stroke-miterlimit:10;" fill="none" stroke="#000000" stroke-width="15" stroke-miterlimit="10" data-original="#000000" class=""></circle><path d="M162.5 7.5h-140c-8.284 0-15 6.716-15 15v143.426c0 8.284 6.716 15 15 15h69.833l50 45.956v-45.956H162.5c8.284 0 15-6.716 15-15V22.5c0-8.284-6.716-15-15-15z" style="stroke-width:15;stroke-miterlimit:10;" fill="none" stroke="#000000" stroke-width="15" stroke-miterlimit="10" data-original="#000000" class=""></path><path d="M44.25 94.929 71.322 123.5l71.428-60M349.5 7.5h140c8.284 0 15 6.716 15 15v143.426c0 8.284-6.716 15-15 15h-69.833l-50 45.956v-45.956H349.5c-8.284 0-15-6.716-15-15V22.5c0-8.284 6.716-15 15-15zM459.5 130.7l-80-67.2M379.5 130.7l80-67.2" style="stroke-width:15;stroke-miterlimit:10;" fill="none" stroke="#000000" stroke-width="15" stroke-miterlimit="10" data-original="#000000" class=""></path><path d="M138.5 337.16h15M358.5 337.16h15" style="stroke-width:15;stroke-miterlimit:10;" fill="none" stroke="#ffffff" stroke-width="15" stroke-miterlimit="10" data-original="#ffffff"></path></g></svg>
