<svg xmlns="http://www.w3.org/2000/svg" version="1.1" xmlns:xlink="http://www.w3.org/1999/xlink" width="512" height="512" x="0" y="0" viewBox="0 0 512 512" style="enable-background:new 0 0 512 512" xml:space="preserve" class=""><g><path d="M244.739 169.2V22.151c-81.212 0-147.048 65.836-147.048 147.049s65.836 147.049 147.049 147.049c47.326 0 89.41-22.372 116.306-57.101l.014.011c19.26-24.867 30.729-56.071 30.729-89.959h-147.05z" style="" fill="#ff4c4c" data-original="#ff4c4c"></path><path d="M345.853 169.2c0 23.77-5.646 46.218-15.661 66.087-20.906 41.478-60.871 71.705-108.396 79.168 5.457.856 11.014 1.41 16.653 1.651.334.014.669.026 1.004.038 1.755.063 3.515.105 5.286.105 1.385 0 2.765-.023 4.141-.061.438-.012.874-.034 1.311-.05.941-.034 1.881-.073 2.817-.125.507-.028 1.013-.063 1.519-.096a140.275 140.275 0 0 0 6.78-.602c.475-.053.95-.105 1.424-.163.975-.119 1.946-.251 2.915-.389.363-.052.728-.098 1.09-.152a145.9 145.9 0 0 0 8.047-1.438c.246-.051.49-.108.736-.16 1.078-.23 2.152-.469 3.221-.722.334-.079.666-.163.999-.244a140.838 140.838 0 0 0 7.04-1.907c.254-.076.509-.15.763-.227 1.215-.369 2.425-.752 3.626-1.152l.146-.047a145.772 145.772 0 0 0 11.683-4.467l.042-.018a144.45 144.45 0 0 0 3.74-1.681l.066-.031c21.356-9.973 39.919-24.929 54.201-43.369l.014.011a148.244 148.244 0 0 0 6.731-9.437l.179-.272c.478-.732.948-1.469 1.414-2.21l.257-.411c.462-.742.919-1.487 1.368-2.238l.145-.245a146.528 146.528 0 0 0 5.35-9.813c.108-.217.217-.434.324-.652.339-.691.672-1.386 1-2.083l.385-.825c.316-.682.63-1.367.936-2.055.12-.269.237-.541.355-.811a147.212 147.212 0 0 0 2.845-6.983c.107-.283.217-.564.322-.847.232-.626.455-1.257.679-1.887.146-.411.292-.821.435-1.234.207-.6.409-1.202.608-1.805.15-.452.296-.906.442-1.36.186-.583.371-1.167.55-1.753.15-.492.295-.986.441-1.481.165-.562.332-1.122.491-1.687.175-.624.341-1.251.508-1.879.215-.805.423-1.613.624-2.424.162-.651.325-1.302.478-1.957.117-.5.226-1.003.338-1.504.134-.604.268-1.208.395-1.814.106-.505.207-1.012.308-1.518.123-.621.242-1.243.358-1.867.09-.488.18-.975.265-1.464.119-.684.231-1.37.341-2.057.069-.433.142-.866.207-1.3.156-1.034.301-2.07.436-3.111.029-.224.055-.449.083-.673.122-.981.235-1.965.337-2.951.042-.405.077-.812.116-1.217a139.699 139.699 0 0 0 .508-7.112c.037-.785.066-1.573.09-2.361.012-.382.027-.763.036-1.146.027-1.157.044-2.316.044-3.479v-.033h-45.936v-.003z" style="" fill="#f33939" data-original="#f33939"></path><path d="M391.788 169.2H244.739l116.32 89.959c19.26-24.868 30.729-56.072 30.729-89.959z" style="" fill="#ffb125" data-original="#ffb125"></path><path d="M345.853 169.2c0 23.77-5.646 46.218-15.661 66.087l30.867 23.872a147.45 147.45 0 0 0 6.731-9.437l.179-.272c.478-.732.948-1.469 1.414-2.21l.257-.411c.462-.742.919-1.487 1.368-2.238l.145-.245a146.528 146.528 0 0 0 5.35-9.813l.324-.651c.339-.691.672-1.386 1-2.083l.385-.825c.317-.682.63-1.367.936-2.055.12-.269.237-.541.355-.811a147.212 147.212 0 0 0 2.845-6.983c.107-.283.217-.564.322-.847.232-.626.456-1.257.679-1.887.146-.411.292-.821.435-1.234a159.29 159.29 0 0 0 1.6-4.918c.15-.492.295-.986.44-1.481.165-.562.333-1.122.491-1.687.175-.624.341-1.251.508-1.879.215-.805.423-1.613.624-2.424.162-.651.324-1.302.478-1.957.117-.5.226-1.003.338-1.504.134-.604.268-1.208.395-1.814.106-.505.207-1.012.308-1.518.123-.621.242-1.243.358-1.867.09-.488.18-.975.265-1.464.119-.684.231-1.37.341-2.057.069-.433.142-.866.207-1.3.156-1.034.301-2.07.435-3.111.029-.224.055-.449.083-.673.122-.981.235-1.965.338-2.951.042-.405.077-.811.116-1.217a139.699 139.699 0 0 0 .508-7.112c.037-.785.065-1.573.09-2.361.012-.382.027-.763.036-1.146.027-1.157.044-2.316.044-3.479l.001-.033h-45.935v-.004z" style="" fill="#ff901d" data-original="#ff901d"></path><path d="M40.709 488.193V317.337a6.67 6.67 0 0 1 6.671-6.671h61.767a6.67 6.67 0 0 1 6.671 6.671v170.856H40.709z" style="" fill="#ffb125" data-original="#ffb125"></path><path d="M396.184 488.193V282.522a6.67 6.67 0 0 1 6.671-6.671h61.767a6.67 6.67 0 0 1 6.671 6.671v205.671h-75.109" style="" fill="#61aff6" data-original="#61aff6"></path><path d="M464.622 275.85h-45.021a6.671 6.671 0 0 1 6.671 6.671v205.671h45.021v-205.67a6.67 6.67 0 0 0-6.671-6.672z" style="" fill="#55a2ef" data-original="#55a2ef"></path><path d="M277.692 488.193V349.351a6.67 6.67 0 0 1 6.671-6.671h61.767a6.67 6.67 0 0 1 6.671 6.671v138.842h-75.109z" style="" fill="#21d8de" data-original="#21d8de"></path><path d="M346.13 342.68h-38.349v145.513h45.02V349.351a6.67 6.67 0 0 0-6.671-6.671z" style="" fill="#10c4c4" data-original="#10c4c4" class=""></path><path d="M109.147 310.666H70.798v177.527h45.021V317.337a6.672 6.672 0 0 0-6.672-6.671z" style="" fill="#ff901d" data-original="#ff901d"></path><path d="M159.201 488.193V402.82a6.67 6.67 0 0 1 6.671-6.671h61.766a6.67 6.67 0 0 1 6.671 6.671v85.373h-75.108z" style="" fill="#ff6d3a" data-original="#ff6d3a"></path><path d="M227.637 396.148h-38.349v92.045h45.021V402.82a6.67 6.67 0 0 0-6.672-6.672z" style="" fill="#ed5729" data-original="#ed5729"></path><path d="M414.014 137.422C409.452 63.975 350.982 5.137 277.692 0v137.422h136.322z" style="" fill="#21d8de" data-original="#21d8de"></path><path d="M277.692 0v10.456c51.011 20.785 87.725 69.384 91.302 126.966h45.021C409.452 63.975 350.982 5.137 277.692 0z" style="" fill="#10c4c4" data-original="#10c4c4" class=""></path><path d="M492.816 512H19.186a6.284 6.284 0 0 1-6.284-6.284v-14.659a6.284 6.284 0 0 1 6.284-6.284h473.629a6.284 6.284 0 0 1 6.284 6.284v14.659a6.283 6.283 0 0 1-6.283 6.284z" style="" fill="#998675" data-original="#998675"></path><path d="M492.816 500.317H19.186a6.284 6.284 0 0 1-6.284-6.284v11.683A6.284 6.284 0 0 0 19.186 512h473.629a6.283 6.283 0 0 0 6.283-6.284v-11.683a6.282 6.282 0 0 1-6.282 6.284z" style="" fill="#736357" data-original="#736357"></path></g></svg>
