<svg xmlns="http://www.w3.org/2000/svg" version="1.1" xmlns:xlink="http://www.w3.org/1999/xlink" width="512" height="512" x="0" y="0" viewBox="0 0 60 60" style="enable-background:new 0 0 512 512" xml:space="preserve" class=""><g><path d="M44 28a15.9 15.9 0 0 0-2 .139V8.83a3 3 0 0 0-.254-1.2c-.01-.024-.025-.044-.036-.066a3.011 3.011 0 0 0-.593-.861L35.3.883a3.011 3.011 0 0 0-.864-.593c-.022-.011-.042-.026-.066-.036A3 3 0 0 0 33.17 0H4a4 4 0 0 0-4 4v43a4 4 0 0 0 4 4h25.635A15.991 15.991 0 1 0 44 28zM38.586 7H37a2 2 0 0 1-2-2V3.414zM4 49a2 2 0 0 1-2-2V4a2 2 0 0 1 2-2h29v3a4 4 0 0 0 4 4h3v19.527A15.948 15.948 0 0 0 28.811 49zm40 9a14 14 0 1 1 14-14c-.008 7.729-6.271 13.992-14 14z" fill="#000000" opacity="1" data-original="#000000"></path><path d="M18.293 5.293 16.385 7.2A2.985 2.985 0 0 0 14 6H8a3 3 0 0 0-3 3v6a3 3 0 0 0 3 3h6a3 3 0 0 0 3-3V9.414l2.707-2.707a1 1 0 1 0-1.414-1.414zM15 15a1 1 0 0 1-1 1H8a1 1 0 0 1-1-1V9a1 1 0 0 1 1-1h6a.994.994 0 0 1 .93.656L12 11.586l-1.293-1.293a1 1 0 0 0-1.414 1.414l2 2a1 1 0 0 0 1.414 0L15 11.414zM18.293 19.293 16.385 21.2A2.985 2.985 0 0 0 14 20H8a3 3 0 0 0-3 3v6a3 3 0 0 0 3 3h6a3 3 0 0 0 3-3v-5.586l2.707-2.707a1 1 0 0 0-1.414-1.414zM15 29a1 1 0 0 1-1 1H8a1 1 0 0 1-1-1v-6a1 1 0 0 1 1-1h6a.994.994 0 0 1 .93.656L12 25.586l-1.293-1.293a1 1 0 0 0-1.414 1.414l2 2a1 1 0 0 0 1.414 0L15 25.414zM18.293 33.293 16.385 35.2A2.985 2.985 0 0 0 14 34H8a3 3 0 0 0-3 3v6a3 3 0 0 0 3 3h6a3 3 0 0 0 3-3v-5.586l2.707-2.707a1 1 0 0 0-1.414-1.414zM15 43a1 1 0 0 1-1 1H8a1 1 0 0 1-1-1v-6a1 1 0 0 1 1-1h6a.994.994 0 0 1 .93.656L12 39.586l-1.293-1.293a1 1 0 0 0-1.414 1.414l2 2a1 1 0 0 0 1.414 0L15 39.414zM50.541 36.159a1 1 0 0 0-1.382.3L40.83 49.416l-2.123-2.123a1 1 0 0 0-1.414 1.414l3 3a1 1 0 0 0 1.548-.166l9-14a1 1 0 0 0-.3-1.382zM23 10h7a1 1 0 0 0 0-2h-7a1 1 0 0 0 0 2zM23 15h6a1 1 0 0 0 0-2h-6a1 1 0 0 0 0 2zM23 24h13a1 1 0 0 0 0-2H23a1 1 0 0 0 0 2zM23 29h6a1 1 0 0 0 0-2h-6a1 1 0 0 0 0 2zM26 36h-3a1 1 0 0 0 0 2h3a1 1 0 0 0 0-2zM25 41h-2a1 1 0 0 0 0 2h2a1 1 0 0 0 0-2z" fill="#000000" opacity="1" data-original="#000000"></path></g></svg>
