<svg xmlns="http://www.w3.org/2000/svg" version="1.1" xmlns:xlink="http://www.w3.org/1999/xlink" width="512" height="512" x="0" y="0" viewBox="0 0 511.999 511" style="enable-background:new 0 0 512 512" xml:space="preserve" class=""><g><path d="M355.64 234.93c3.91-3.903 3.91-10.243 0-14.14-3.902-3.911-10.23-3.911-14.14 0-3.902 3.898-3.902 10.237 0 14.14 3.91 3.91 10.238 3.91 14.14 0zM10 512.496h492c4.043 0 7.691-2.434 9.238-6.172s.692-8.039-2.168-10.898L17.07 3.43A9.998 9.998 0 0 0 0 10.5v491.996c0 5.524 4.477 10 10 10zM20 34.641l80.438 80.437-21.22 21.207c-3.906 3.906-3.906 10.238 0 14.145 3.9 3.902 10.235 3.91 14.141 0l21.22-21.211 42.425 42.43-21.215 21.206c-3.906 3.907-3.906 10.239-.004 14.145 3.903 3.902 10.238 3.91 14.145 0l21.218-21.21 42.422 42.425-21.21 21.215c-3.907 3.902-3.907 10.234 0 14.14s10.234 3.907 14.14 0l21.215-21.215 42.426 42.43L248.93 306c-3.907 3.902-3.907 10.234 0 14.14s10.234 3.907 14.14 0l21.215-21.21 42.426 42.422L305.5 362.57c-3.906 3.907-3.906 10.239 0 14.145 3.906 3.902 10.238 3.902 14.145-.004l21.207-21.215 42.425 42.426-21.21 21.219c-3.903 3.906-3.903 10.238.003 14.14 3.903 3.906 10.239 3.906 14.145 0l21.207-21.219 80.433 80.434H20zm0 0" fill="#000000" opacity="1" data-original="#000000" class=""></path><path d="M103.07 208.418a10.003 10.003 0 0 0-10.898-2.168A10.002 10.002 0 0 0 86 215.488v201.008c0 5.524 4.477 10 10 10h201.008c4.047 0 7.691-2.434 9.242-6.172a10.011 10.011 0 0 0-2.168-10.898zM106 406.5V239.633L272.867 406.5zM313.219 206.648c3.906 3.907 10.234 3.907 14.144 0 3.903-3.902 3.903-10.234 0-14.14l-42.433-42.43c-3.903-3.906-10.235-3.906-14.14 0-3.907 3.902-3.907 10.234 0 14.14zm0 0" fill="#000000" opacity="1" data-original="#000000" class=""></path><path d="m151.797 102.418 280.703 280.7c11.719 11.726 30.703 11.726 42.43 0l28.28-28.278c11.692-11.692 11.692-30.727 0-42.434L222.513 31.707a9.972 9.972 0 0 0-3.91-2.414L133.75 1.012a9.999 9.999 0 0 0-10.23 2.418 9.997 9.997 0 0 0-2.418 10.23l28.28 84.852a10.003 10.003 0 0 0 2.415 3.906zm337.265 224.129c3.903 3.902 3.903 10.254.004 14.148l-28.277 28.282c-3.906 3.906-10.238 3.91-14.148 0l-21.668-21.668 42.425-42.43zm-35.804-35.809-42.43 42.43-14.14-14.145 42.43-42.421zM222.058 59.54l202.915 202.914-42.426 42.43-202.918-202.918zm-15.206-13.082-40.305 40.3-20.149-60.448zm0 0" fill="#000000" opacity="1" data-original="#000000" class=""></path></g></svg>