<svg xmlns="http://www.w3.org/2000/svg" version="1.1" xmlns:xlink="http://www.w3.org/1999/xlink" width="512" height="512" x="0" y="0" viewBox="0 0 496 496" style="enable-background:new 0 0 512 512" xml:space="preserve" class=""><g><path d="M496 414.207v-60.422l-23.145-5.914c-.16-.39-.32-.781-.488-1.168l12.184-20.535-42.727-42.727-20.535 12.184c-.394-.168-.785-.328-1.168-.488L414.207 272h-60.422l-5.914 23.145c-.39.16-.781.32-1.168.488l-20.535-12.184-42.727 42.727 12.184 20.535c-.168.394-.328.785-.488 1.168L272 353.793v60.422l23.145 5.914c.16.39.32.781.488 1.168l-12.184 20.535 42.727 42.727 20.535-12.184c.394.168.785.328 1.168.488L353.793 496h60.422l5.914-23.145c.39-.16.781-.32 1.168-.488l20.535 12.184 42.727-42.727-12.184-20.535c.168-.394.328-.785.488-1.168zm-31.543 25.098-25.152 25.152-17.098-10.145-3.848 1.84a80.039 80.039 0 0 1-7.625 3.16l-4.03 1.43L401.792 480h-35.578l-4.91-19.258-4.032-1.43a75.416 75.416 0 0 1-7.625-3.16l-3.847-1.84-17.098 10.145-25.152-25.152 10.144-17.098-1.84-3.848a80.04 80.04 0 0 1-3.16-7.625l-1.43-4.03L288 401.792v-35.578l19.258-4.91 1.43-4.032a75.416 75.416 0 0 1 3.16-7.625l1.84-3.847-10.145-17.098 25.152-25.152 17.098 10.144 3.848-1.84a80.04 80.04 0 0 1 7.625-3.16l4.03-1.43L366.208 288h35.578l4.91 19.258 4.032 1.43a75.416 75.416 0 0 1 7.625 3.16l3.847 1.84 17.098-10.145 25.152 25.152-10.144 17.098 1.84 3.848a80.04 80.04 0 0 1 3.16 7.625l1.43 4.03L480 366.208v35.578l-19.258 4.91-1.43 4.032a75.416 75.416 0 0 1-3.16 7.625l-1.84 3.847zm0 0" fill="#000000" opacity="1" data-original="#000000"></path><path d="M384 320c-35.29 0-64 28.71-64 64s28.71 64 64 64 64-28.71 64-64-28.71-64-64-64zm0 112c-26.473 0-48-21.527-48-48s21.527-48 48-48 48 21.527 48 48-21.527 48-48 48zm0 0" fill="#000000" opacity="1" data-original="#000000"></path><path d="M384 352c-17.648 0-32 14.352-32 32s14.352 32 32 32 32-14.352 32-32-14.352-32-32-32zm0 48c-8.824 0-16-7.176-16-16s7.176-16 16-16 16 7.176 16 16-7.176 16-16 16zM202.602 135.457c2.68 7.856 7.343 14.781 13.398 20.223v6.785l-38.04 14.262c-15.526 5.816-25.96 20.867-25.96 37.449V256h192v-41.824c0-16.582-10.434-31.633-25.953-37.457L280 162.457v-6.777c6.055-5.434 10.719-12.36 13.398-20.223C308.473 132.871 320 119.793 320 104V72c0-39.695-32.297-72-72-72s-72 32.305-72 72v32c0 15.793 11.527 28.871 26.602 31.457zM264 165.785l-16 26.664-16-26.664v-.586c5.016 1.785 10.383 2.801 16 2.801s10.984-1.023 16-2.8zm-43.434 12.047 16.13 26.871-16.024 8.008-10.352-31.04zM328 214.176V240H168v-25.824c0-9.953 6.258-18.977 15.574-22.473l11.762-4.406 15.992 47.984L248 216.945l36.672 18.336 15.992-47.984 11.77 4.414c9.308 3.488 15.566 12.512 15.566 22.465zm-42.32-32.504-10.352 31.047-16.023-8.008 16.129-26.879zM248 152c-17.648 0-32-14.352-32-32V87.457c11.71-1.234 22.762-5.504 32-12.77 9.238 7.274 20.29 11.536 32 12.77V120c0 17.648-14.352 32-32 32zm48-34.223V90.23c4.762 2.778 8 7.883 8 13.778 0 5.894-3.238 10.992-8 13.77zM248 16c30.871 0 56 25.121 56 56v4.45c-4.727-2.755-10.145-4.45-16-4.45h-1.375c-12.457 0-24.168-4.848-32.969-13.656L248 52.68l-5.656 5.664C233.535 67.152 221.832 72 209.375 72H208c-5.855 0-11.273 1.695-16 4.45V72c0-30.879 25.129-56 56-56zm-48 74.223v27.547c-4.762-2.778-8-7.883-8-13.778 0-5.894 3.238-10.992 8-13.77zM0 496h160V288H0zm16-192h128v176H16zm0 0" fill="#000000" opacity="1" data-original="#000000"></path><path d="M32 320h96v16H32zM32 352h16v16H32zM64 352h64v16H64zM32 384h96v16H32zM32 416h96v16H32zM112 448h16v16h-16zM32 448h64v16H32zM213.656 357.656l-11.312-11.312L164.688 384l37.656 37.656 11.312-11.312L195.312 392H256v-16h-60.688zM88 128c0-4.406 3.586-8 8-8h36.688l-18.344 18.344 11.312 11.312L163.312 112l-37.656-37.656-11.312 11.312L132.688 104H96c-13.23 0-24 10.77-24 24v144h16zM384 128v100.688l-18.344-18.344-11.312 11.312L392 259.312l37.656-37.656-11.312-11.312L400 228.688V128c0-13.23-10.77-24-24-24h-40v16h40c4.414 0 8 3.594 8 8zm0 0" fill="#000000" opacity="1" data-original="#000000"></path></g></svg>