<svg xmlns="http://www.w3.org/2000/svg" version="1.1" xmlns:xlink="http://www.w3.org/1999/xlink" width="512" height="512" x="0" y="0" viewBox="0 0 329.992 329.992" style="enable-background:new 0 0 512 512" xml:space="preserve" class=""><g><path d="M15.71 119.318h109.317a5 5 0 0 0 5-5V5a5 5 0 0 0-5-5H15.71a5 5 0 0 0-5 5v109.318c0 2.762 2.237 5 5 5zM73.904 191.456a5 5 0 0 0-7.07 0l-65 65a5 5 0 0 0 0 7.071l65 65a4.984 4.984 0 0 0 3.535 1.464c1.279 0 2.56-.488 3.535-1.464l65-65a5 5 0 0 0 0-7.071l-65-65zM230.201 119.174h62.949a5.001 5.001 0 0 0 4.33-2.5l31.473-54.514a5 5 0 0 0 0-5L297.48 2.645a5 5 0 0 0-4.33-2.5h-62.949a4.998 4.998 0 0 0-4.33 2.5L194.398 57.16a5 5 0 0 0 0 5l31.473 54.514a5 5 0 0 0 4.33 2.5zM266.061 196.432c-35.049 0-63.563 28.513-63.563 63.561s28.514 63.563 63.563 63.563c35.049 0 63.563-28.514 63.563-63.563-.001-35.048-28.515-63.561-63.563-63.561zM65.369 126.496a3.5 3.5 0 0 0-3.5 3.5v46a3.5 3.5 0 0 0 3.5 3.5h8a3.5 3.5 0 0 0 3.5-3.5v-46a3.5 3.5 0 0 0-3.5-3.5h-8zM261.061 128.164a3.5 3.5 0 0 0-3.5 3.5v46a3.5 3.5 0 0 0 3.5 3.5h8a3.5 3.5 0 0 0 3.5-3.5v-46a3.5 3.5 0 0 0-3.5-3.5h-8zM181.246 53.336h-34.918a3.5 3.5 0 0 0-3.5 3.5v8a3.5 3.5 0 0 0 3.5 3.5h34.918a3.5 3.5 0 0 0 3.5-3.5v-8a3.5 3.5 0 0 0-3.5-3.5z" fill="#000000" opacity="1" data-original="#000000" class=""></path></g></svg>