<svg xmlns="http://www.w3.org/2000/svg" version="1.1" xmlns:xlink="http://www.w3.org/1999/xlink" width="512" height="512" x="0" y="0" viewBox="0 0 511.995 511.995" style="enable-background:new 0 0 512 512" xml:space="preserve" class=""><g><path d="M296.045 409.576a47.807 47.807 0 0 0-14.937-10.103l18.425-18.425a7.5 7.5 0 0 0-10.606-10.607l-27.592 27.593a7.5 7.5 0 0 0 4.497 12.76c7.494.811 14.274 4.059 19.608 9.392 6.492 6.492 9.892 15.124 9.571 24.305-.319 9.172-4.333 17.561-11.302 23.621-12.18 10.589-30.572 10.615-42.781.06-6.324-5.467-10.298-13.024-11.192-21.281a7.5 7.5 0 0 0-12.76-4.497l-51.498 51.498-42.281-42.28a47.445 47.445 0 0 0 14.81-10.072c18.618-18.617 18.618-48.91 0-67.528-9.018-9.019-21.008-13.985-33.76-13.986h-.004c-12.753 0-24.744 4.967-33.763 13.986a47.427 47.427 0 0 0-10.072 14.811l-42.282-42.284 51.499-51.498a7.5 7.5 0 0 0-4.497-12.76c-7.494-.811-14.274-4.059-19.608-9.392-6.492-6.492-9.892-15.124-9.572-24.306.32-9.172 4.334-17.562 11.304-23.622 12.178-10.589 30.569-10.615 42.78-.057 6.323 5.467 10.297 13.024 11.191 21.281a7.5 7.5 0 0 0 12.76 4.496l24.924-24.924a7.5 7.5 0 0 0-10.606-10.607l-15.746 15.746a47.857 47.857 0 0 0-12.711-17.339c-17.818-15.407-44.659-15.37-62.434.085-10.143 8.819-15.986 21.043-16.452 34.418-.46 13.19 4.627 26.106 13.956 35.436A47.792 47.792 0 0 0 49.852 293.6L2.216 341.235a7.5 7.5 0 0 0 0 10.607l48.452 48.452a14.135 14.135 0 0 0 12.858 3.864 14.17 14.17 0 0 0 10.332-8.625 32.499 32.499 0 0 1 7.227-10.917c6.187-6.188 14.41-9.594 23.157-9.594h.002c8.747.001 16.97 3.407 23.155 9.594 12.769 12.769 12.769 33.546 0 46.314a32.52 32.52 0 0 1-10.919 7.228 14.171 14.171 0 0 0-8.624 10.334c-.956 4.674.49 9.48 3.866 12.856l48.452 48.451c1.464 1.464 3.384 2.196 5.303 2.196s3.839-.732 5.303-2.196l47.623-47.623a47.858 47.858 0 0 0 12.713 17.341c17.818 15.404 44.66 15.367 62.434-.089 10.142-8.819 15.984-21.042 16.451-34.417.459-13.189-4.627-26.105-13.956-35.435z" fill="#000000" opacity="1" data-original="#000000" class=""></path><path d="m509.779 160.154-47.62-47.619a47.872 47.872 0 0 0 17.34-12.712c15.406-17.82 15.369-44.661-.086-62.434-8.819-10.143-21.043-15.986-34.418-16.452-13.192-.476-26.105 4.627-35.435 13.956a47.798 47.798 0 0 0-10.104 14.938L351.821 2.196a7.501 7.501 0 0 0-10.606 0l-48.452 48.452a14.133 14.133 0 0 0-3.865 12.857 14.167 14.167 0 0 0 8.624 10.332 32.538 32.538 0 0 1 10.919 7.229c12.769 12.768 12.769 33.544 0 46.313-6.186 6.187-14.409 9.594-23.155 9.594-8.747.001-16.971-3.406-23.159-9.594a32.51 32.51 0 0 1-7.228-10.918 14.168 14.168 0 0 0-10.333-8.624 14.128 14.128 0 0 0-12.856 3.865l-79.883 79.923a7.5 7.5 0 0 0 0 10.606 7.474 7.474 0 0 0 5.303 2.197 7.477 7.477 0 0 0 5.303-2.196l26.15-26.149 42.3 42.3a47.861 47.861 0 0 0-17.341 12.713c-15.407 17.82-15.369 44.661.087 62.433 8.82 10.143 21.043 15.986 34.418 16.452 13.184.434 26.105-4.628 35.434-13.956a47.784 47.784 0 0 0 10.105-14.938l42.349 42.349-24.079 24.079a7.5 7.5 0 0 0 10.606 10.607l58.79-58.79c.143-.144.274-.295.404-.447l17.771-17.772a47.801 47.801 0 0 0 10.06 14.836c9.329 9.329 22.239 14.427 35.435 13.955 13.376-.466 25.599-6.309 34.419-16.453 15.43-17.747 15.488-44.562.134-62.375a47.842 47.842 0 0 0-17.287-12.723l15.015-15.015a7.5 7.5 0 0 0-10.606-10.607l-24.163 24.163a7.5 7.5 0 0 0 4.472 12.758c8.233.918 15.765 4.902 21.208 11.217 10.521 12.206 10.482 30.58-.091 42.74-6.06 6.97-14.45 10.985-23.622 11.305-9.187.325-17.814-3.08-24.306-9.571-5.304-5.305-8.547-12.048-9.379-19.502a7.502 7.502 0 0 0-12.757-4.472l-51.438 51.439-51.495-51.496a7.5 7.5 0 0 0-12.76 4.497c-.811 7.495-4.058 14.275-9.391 19.608-6.492 6.492-15.13 9.884-24.305 9.571-9.173-.32-17.561-4.334-23.622-11.304-10.59-12.177-10.616-30.569-.059-42.779 5.467-6.324 13.025-10.298 21.282-11.192a7.498 7.498 0 0 0 4.496-12.76l-51.498-51.498 42.281-42.28a47.413 47.413 0 0 0 10.072 14.809c9.019 9.02 21.01 13.988 33.762 13.987h.005c12.752-.001 24.741-4.967 33.76-13.987 18.618-18.617 18.617-48.91 0-67.527a47.453 47.453 0 0 0-14.81-10.071l42.281-42.281 51.495 51.5a7.5 7.5 0 0 0 12.76-4.497c.811-7.495 4.058-14.275 9.391-19.608 6.493-6.492 15.112-9.888 24.306-9.571 9.173.32 17.562 4.334 23.622 11.303 10.59 12.179 10.615 30.571.059 42.781-5.468 6.323-13.026 10.297-21.282 11.191a7.498 7.498 0 0 0-4.496 12.76l51.495 51.494-3.784 3.785a7.5 7.5 0 1 0 10.606 10.605l9.087-9.088a7.5 7.5 0 0 0 0-10.606z" fill="#000000" opacity="1" data-original="#000000" class=""></path><path d="M353.091 142.723a7.501 7.501 0 0 0-10.606 0l-18.698 18.698a7.5 7.5 0 0 0 10.606 10.607l18.698-18.698a7.5 7.5 0 0 0 0-10.607zM174.375 356.34l-18.699-18.698a7.5 7.5 0 0 0-10.606.001 7.5 7.5 0 0 0 0 10.606l18.699 18.698a7.477 7.477 0 0 0 5.303 2.196 7.5 7.5 0 0 0 5.303-12.803z" fill="#000000" opacity="1" data-original="#000000" class=""></path></g></svg>