<?xml version="1.0" standalone="no"?><!DOCTYPE svg PUBLIC "-//W3C//DTD SVG 1.1//EN" "http://www.w3.org/Graphics/SVG/1.1/DTD/svg11.dtd"><svg t="1735784252471" class="icon" viewBox="0 0 1024 1024" version="1.1" xmlns="http://www.w3.org/2000/svg" p-id="6320" xmlns:xlink="http://www.w3.org/1999/xlink" width="200" height="200"><path d="M170.666667 768c-3.413333 0-10.24 0-13.653334-3.413333-6.826667-6.826667-6.826667-17.066667 0-23.893334l580.266667-580.266666c6.826667-6.826667 17.066667-6.826667 23.893333 0s6.826667 17.066667 0 23.893333l-580.266666 580.266667c0 3.413333-6.826667 3.413333-10.24 3.413333zM392.533333 989.866667h-68.266666c-10.24 0-17.066667-6.826667-17.066667-17.066667v-68.266667c0-10.24 6.826667-17.066667 17.066667-17.066666h68.266666c10.24 0 17.066667 6.826667 17.066667 17.066666v68.266667c0 10.24-6.826667 17.066667-17.066667 17.066667zM341.333333 955.733333h34.133334v-34.133333h-34.133334v34.133333zM972.8 409.6h-68.266667c-10.24 0-17.066667-6.826667-17.066666-17.066667v-68.266666c0-10.24 6.826667-17.066667 17.066666-17.066667h68.266667c10.24 0 17.066667 6.826667 17.066667 17.066667v68.266666c0 10.24-6.826667 17.066667-17.066667 17.066667zM921.6 375.466667h34.133333v-34.133334h-34.133333v34.133334z" fill="" p-id="6321"></path><path d="M358.4 921.6c-10.24 0-17.066667-6.826667-17.066667-17.066667V853.333333c0-160.426667-3.413333-296.96 109.226667-406.186666C559.786667 337.92 696.32 341.333333 853.333333 341.333333h51.2c10.24 0 17.066667 6.826667 17.066667 17.066667s-6.826667 17.066667-17.066667 17.066667H853.333333c-150.186667 0-283.306667-3.413333-382.293333 98.986666C372.053333 573.44 375.466667 703.146667 375.466667 853.333333v51.2c0 10.24-6.826667 17.066667-17.066667 17.066667zM119.466667 887.466667C71.68 887.466667 34.133333 849.92 34.133333 802.133333S71.68 716.8 119.466667 716.8 204.8 754.346667 204.8 802.133333 167.253333 887.466667 119.466667 887.466667z m0-136.533334c-27.306667 0-51.2 23.893333-51.2 51.2S92.16 853.333333 119.466667 853.333333 170.666667 829.44 170.666667 802.133333 146.773333 750.933333 119.466667 750.933333zM802.133333 204.8C754.346667 204.8 716.8 167.253333 716.8 119.466667S754.346667 34.133333 802.133333 34.133333 887.466667 71.68 887.466667 119.466667 849.92 204.8 802.133333 204.8z m0-136.533333c-27.306667 0-51.2 23.893333-51.2 51.2S774.826667 170.666667 802.133333 170.666667 853.333333 146.773333 853.333333 119.466667 829.44 68.266667 802.133333 68.266667z" fill="" p-id="6322"></path><path d="M460.8 512c-27.306667 0-51.2-23.893333-51.2-51.2s23.893333-51.2 51.2-51.2 51.2 23.893333 51.2 51.2-23.893333 51.2-51.2 51.2z m0-68.266667c-10.24 0-17.066667 6.826667-17.066667 17.066667s6.826667 17.066667 17.066667 17.066667 17.066667-6.826667 17.066667-17.066667-6.826667-17.066667-17.066667-17.066667z" fill="" p-id="6323"></path></svg>