<?xml version="1.0" standalone="no"?><!DOCTYPE svg PUBLIC "-//W3C//DTD SVG 1.1//EN" "http://www.w3.org/Graphics/SVG/1.1/DTD/svg11.dtd"><svg t="1735784277495" class="icon" viewBox="0 0 1024 1024" version="1.1" xmlns="http://www.w3.org/2000/svg" p-id="8430" xmlns:xlink="http://www.w3.org/1999/xlink" width="200" height="200"><path d="M512 954.88c-243.712 0-442.88-199.168-442.88-442.88s199.168-442.88 442.88-442.88 442.88 199.168 442.88 442.88-199.168 442.88-442.88 442.88z m0-63.488c208.896 0 379.392-170.496 379.392-379.392s-170.496-379.392-379.392-379.392-379.392 170.496-379.392 379.392 170.496 379.392 379.392 379.392z m23.04-203.776l155.648-152.064c12.288-11.776 12.288-31.232 0.512-43.52l-152.064-155.648c-11.776-12.288-31.232-12.288-43.52-0.512s-12.288 31.232-0.512 43.52l100.352 102.4-294.912-3.584c-16.896 0-30.72 13.312-31.232 30.208 0 16.896 13.312 30.72 30.208 31.232l294.912 3.584-102.4 100.352c-6.144 6.144-9.216 13.824-9.216 21.504s3.072 15.872 8.704 22.016c12.288 12.288 31.744 12.8 43.52 0.512z" p-id="8431"></path></svg>