<?xml version="1.0" standalone="no"?><!DOCTYPE svg PUBLIC "-//W3C//DTD SVG 1.1//EN" "http://www.w3.org/Graphics/SVG/1.1/DTD/svg11.dtd"><svg t="1735784333341" class="icon" viewBox="0 0 1024 1024" version="1.1" xmlns="http://www.w3.org/2000/svg" p-id="11688" xmlns:xlink="http://www.w3.org/1999/xlink" width="200" height="200"><path d="M398 479h227.906c17.008 0 31.251-11.798 35.017-27.654 0.053-0.215 0.1-0.432 0.149-0.647 0.042-0.194 0.088-0.386 0.127-0.581 2.442-11.53-0.8-24.025-9.746-32.981l-90.481-90.579c-14.055-14.07-36.841-14.07-50.896 0-14.054 14.07-14.054 36.881 0 50.951l29.404 29.436H398c-19.882 0-36 16.118-36 36V443c0 19.882 16.118 36 36 36zM294.544 326.544c-14.059-14.059-36.853-14.059-50.912 0L90.778 479.398a35.936 35.936 0 0 0-8.251 6.166c-6.767 6.767-10.264 15.559-10.51 24.425-0.919 10.258 2.543 20.835 10.395 28.687a35.957 35.957 0 0 0 8.862 6.498l152.322 152.322c14.046 14.046 36.818 14.046 50.864 0s14.046-36.818 0-50.864L159.914 512.086l134.63-134.63c14.059-14.059 14.059-36.853 0-50.912zM626 545H398.094c-17.008 0-31.251 11.798-35.017 27.653-0.054 0.216-0.1 0.432-0.15 0.649-0.042 0.193-0.088 0.385-0.127 0.58-2.442 11.53 0.8 24.026 9.746 32.981l90.481 90.579c14.055 14.07 36.841 14.07 50.896 0 14.054-14.07 14.054-36.881 0-50.951l-29.404-29.436H626c19.882 0 36-16.118 36-36V581c0-19.882-16.118-36-36-36z m325.858-35.042c-0.246-8.866-3.74-17.659-10.5-24.426a35.923 35.923 0 0 0-8.243-6.166L780.404 326.513c-14.046-14.059-36.818-14.059-50.864 0s-14.046 36.853 0 50.912l134.504 134.631-134.42 134.547c-14.032 14.046-14.032 36.818 0 50.864 14.033 14.046 36.784 14.046 50.816 0l152.18-152.323a35.938 35.938 0 0 0 8.853-6.498c7.844-7.853 11.303-18.43 10.385-28.688z" fill="#515151" p-id="11689"></path></svg>