<?xml version="1.0" standalone="no"?><!DOCTYPE svg PUBLIC "-//W3C//DTD SVG 1.1//EN" "http://www.w3.org/Graphics/SVG/1.1/DTD/svg11.dtd"><svg t="1735784762364" class="icon" viewBox="0 0 1024 1024" version="1.1" xmlns="http://www.w3.org/2000/svg" p-id="4294" xmlns:xlink="http://www.w3.org/1999/xlink" width="200" height="200"><path d="M112 678.432V896a16 16 0 0 0 16 16h768a16 16 0 0 0 16-16v-217.44l-167.168-169.472 3.552-9.568c2.4-6.432 3.616-12.96 3.616-19.52V224c0-59.136-99.104-112-224-112s-224 52.864-224 112v254.176l-192 200.256z" fill="#FFFFFF" p-id="4295"></path><path d="M763.392 505.12L928 672v224a32 32 0 0 1-32 32H128a32 32 0 0 1-32-32v-224l192-200.256V224c0-70.72 107.456-128 240-128C660.544 96 768 153.28 768 224v256c0 8.608-1.6 16.992-4.608 25.12z m-468.448 5.6l-153.6 160.192 1.184 1.088h153.76l87.808 97.664h256L732.48 672h149.536l0.512-0.48-136.32-138.208c-31.488 36.608-94.368 63.904-170.24 72.128v-32.224c94.08-11.04 160-53.28 160-93.216v-63.904c1.28 1.184 2.56 2.4 3.776 3.616v-7.424c-33.184 33.056-92.8 57.472-163.776 65.152v-32.192c94.944-11.008 163.776-53.28 163.776-93.248V284.288C699.36 324.608 619.68 352 528 352s-171.36-27.424-211.776-67.712V352c0 39.968 68.832 82.24 163.776 93.248v32.192c-68.16-7.36-125.824-30.176-159.68-61.248v59.84a37.024 37.024 0 0 0-0.192 3.968c0 39.936 65.856 82.176 159.872 93.216v32.224c-90.816-9.824-163.008-47.04-185.056-94.72zM128 704v192h768v-192h-149.728l-92.416 97.664h-284L282.016 704H128z m400-384c118.848 0 211.776-49.568 211.776-96S646.848 128 528 128c-118.848 0-211.776 49.568-211.776 96s92.928 96 211.776 96z" fill="#5D6D7E" p-id="4296"></path><path d="M407.232 608.448a22.4 22.4 0 0 0-14.016 39.872l134.752 108.16 135.456-108.16a22.4 22.4 0 0 0-13.984-39.872h-73.28v-163.072h-32v195.072h77.856l-93.984 75.04-93.504-75.04h77.312v-195.072h-32v163.072h-72.64z" fill="#27A2DF" p-id="4297"></path></svg>