<?xml version="1.0" standalone="no"?><!DOCTYPE svg PUBLIC "-//W3C//DTD SVG 1.1//EN" "http://www.w3.org/Graphics/SVG/1.1/DTD/svg11.dtd"><svg t="1735784375031" class="icon" viewBox="0 0 1024 1024" version="1.1" xmlns="http://www.w3.org/2000/svg" p-id="14626" xmlns:xlink="http://www.w3.org/1999/xlink" width="200" height="200"><path d="M316.757333 317.525333l2.858667 10.282667 106.666667 384 2.858666 10.282667-20.565333 5.717333-2.858667-10.282667-106.666666-384-2.858667-10.282666z" fill="#BABABA" p-id="14627"></path><path d="M301.738667 317.653333l10.304 2.688 405.333333 106.666667 10.325333 2.730667-5.44 20.629333-10.304-2.709333-405.333333-106.666667-10.325333-2.730667z" fill="#BABABA" p-id="14628"></path><path d="M715.221333 422.250667l14.506667 15.637333-7.808 7.253333-298.666667 277.333334-7.808 7.253333-14.506666-15.616 7.808-7.253333 298.666666-277.333334z" fill="#BABABA" p-id="14629"></path><path d="M714.666667 437.333333m-96 0a96 96 0 1 0 192 0 96 96 0 1 0-192 0Z" fill="#888888" p-id="14630"></path><path d="M309.333333 330.666667m-96 0a96 96 0 1 0 192 0 96 96 0 1 0-192 0Z" fill="#888888" p-id="14631"></path><path d="M416 714.666667m-96 0a96 96 0 1 0 192 0 96 96 0 1 0-192 0Z" fill="#888888" p-id="14632"></path><path d="M793.6 42.666667C897.28 42.666667 981.333333 112.704 981.333333 199.104v625.792C981.333333 911.296 897.28 981.333333 793.6 981.333333H230.4C126.72 981.333333 42.666667 911.296 42.666667 824.896V199.104C42.666667 112.704 126.72 42.666667 230.4 42.666667h563.2z m22.4 64H208C153.728 106.666667 109.44 140.8 106.794667 183.68L106.666667 187.733333v648.533334c0 43.413333 42.666667 78.869333 96.277333 80.96L208 917.333333h608c54.272 0 98.56-34.133333 101.205333-77.013333L917.333333 836.266667V187.733333c0-43.413333-42.666667-78.869333-96.277333-80.96L816 106.666667z" fill="#4A4A4A" p-id="14633"></path></svg>