<?xml version="1.0" standalone="no"?><!DOCTYPE svg PUBLIC "-//W3C//DTD SVG 1.1//EN" "http://www.w3.org/Graphics/SVG/1.1/DTD/svg11.dtd"><svg t="1735784358932" class="icon" viewBox="0 0 1024 1024" version="1.1" xmlns="http://www.w3.org/2000/svg" p-id="13529" xmlns:xlink="http://www.w3.org/1999/xlink" width="200" height="200"><path d="M1024 256H0v512h372.352v-93.098667H1024V256z" fill="#DEE0E2" p-id="13530"></path><path d="M372.352 674.901333H1024V256H0v512h372.352v-93.098667z m-46.506667 46.549334H46.506667V330.453333h930.901333v297.898667H325.802667v93.098667z" fill="#1F2837" p-id="13531"></path><path d="M167.552 274.602667v218.794666H111.701333V274.602667h55.893334zM260.693333 274.602667v148.949333H204.8v-148.906667h55.893333zM633.002667 274.602667v148.949333h-55.850667v-148.906667h55.893333zM353.706667 274.602667v148.949333H297.941333v-148.906667H353.706667zM726.101333 274.602667v148.949333H670.293333v-148.906667h55.893334zM446.848 274.602667v148.949333h-55.893333v-148.906667h55.893333zM819.2 274.602667v148.949333h-55.893333v-148.906667h55.893333zM539.946667 274.602667v218.794666h-55.893334V274.602667h55.893334zM912.298667 274.602667v218.794666h-55.893334V274.602667h55.893334z" fill="#1F2837" p-id="13532"></path></svg>