<svg xmlns="http://www.w3.org/2000/svg" version="1.1" xmlns:xlink="http://www.w3.org/1999/xlink" width="512" height="512" x="0" y="0" viewBox="0 0 512 512" style="enable-background:new 0 0 512 512" xml:space="preserve" class=""><g><path d="M496.484 432.355H15.516a8.016 8.016 0 0 1-8.016-8.016v-16.032a8.016 8.016 0 0 1 8.016-8.016h480.968a8.016 8.016 0 0 1 8.016 8.016v16.032a8.016 8.016 0 0 1-8.016 8.016z" style="stroke-width:15;stroke-linecap:round;stroke-linejoin:round;stroke-miterlimit:10;" fill="none" stroke="#000000" stroke-width="15" stroke-linecap="round" stroke-linejoin="round" stroke-miterlimit="10" data-original="#000000" class=""></path><circle cx="352.194" cy="199.887" r="112.226" style="stroke-width:15;stroke-linecap:round;stroke-linejoin:round;stroke-miterlimit:10;" fill="none" stroke="#000000" stroke-width="15" stroke-linecap="round" stroke-linejoin="round" stroke-miterlimit="10" data-original="#000000" class=""></circle><circle cx="352.194" cy="199.887" r="72.145" style="stroke-width:15;stroke-linecap:round;stroke-linejoin:round;stroke-miterlimit:10;" fill="none" stroke="#000000" stroke-width="15" stroke-linecap="round" stroke-linejoin="round" stroke-miterlimit="10" data-original="#000000" class=""></circle><circle cx="352.194" cy="199.887" r="32.065" style="stroke-width:15;stroke-linecap:round;stroke-linejoin:round;stroke-miterlimit:10;" fill="none" stroke="#000000" stroke-width="15" stroke-linecap="round" stroke-linejoin="round" stroke-miterlimit="10" data-original="#000000" class=""></circle><path d="M336.161 352.194v48.096M368.226 352.194v48.096M384.258 432.355c0 17.709-14.356 32.065-32.065 32.065s-32.065-14.356-32.065-32.065M7.5 464.419h497M167.823 199.887H7.5M171.578 167.823H71.629M171.578 231.952H71.629M175.84 135.759h-32.064M175.84 264.017h-32.064M352.194 199.887l88.177-88.177M464.419 111.71h-24.048V87.661l32.064-32.064v24.048h24.049z" style="stroke-width:15;stroke-linecap:round;stroke-linejoin:round;stroke-miterlimit:10;" fill="none" stroke="#000000" stroke-width="15" stroke-linecap="round" stroke-linejoin="round" stroke-miterlimit="10" data-original="#000000" class=""></path><path d="M419.347 63.34c-20.279-9.994-43.017-15.76-67.153-15.76-84.117 0-152.306 68.19-152.306 152.306s68.19 152.306 152.306 152.306S504.5 284.004 504.5 199.887c0-24.136-5.766-46.874-15.76-67.153" style="stroke-width:15;stroke-linecap:round;stroke-linejoin:round;stroke-miterlimit:10;" fill="none" stroke="#000000" stroke-width="15" stroke-linecap="round" stroke-linejoin="round" stroke-miterlimit="10" data-original="#000000" class=""></path></g></svg>